<svg preserveAspectRatio="xMidYMid meet" width="24" height="24" overflow="visible" style="display: block;" viewBox="0 0 26 30" fill="none" xmlns="http://www.w3.org/2000/svg">
<g id="Vector">
<path d="M2.92652 15L2.94265 20.8024L7.96774 23.7036V27.1006L0.00179277 22.5167V13.3032L2.92652 15ZM2.92652 9.19763V12.5788L0 10.8803V7.49912L2.92652 5.80061L5.86738 7.49912L2.92652 9.19763ZM10.0663 7.49912L12.9928 5.80061L15.9337 7.49912L12.9928 9.19763L10.0663 7.49912Z" fill="var(--fill-0, white)"/>
<path d="M5.04122 19.5997V16.2027L7.96774 17.9012V21.2824L5.04122 19.5997ZM10.0663 24.9203L12.9928 26.6188L15.9337 24.9203V28.3015L12.9928 30L10.0663 28.3015V24.9203ZM20.1308 7.49912L23.0573 5.80061L25.9982 7.49912V10.8803L23.0573 12.5788V9.19763L20.1308 7.49912ZM23.0573 20.8024L23.0735 15L26 13.3015V22.5149L18.034 27.0988V23.7018L23.0573 20.8024Z" fill="var(--fill-0, white)"/>
<path d="M20.9588 19.5997L18.0323 21.2824V17.9012L20.9588 16.2027V19.5997Z" fill="var(--fill-0, white)"/>
<path d="M20.9588 10.4003L20.9749 13.7973L15.9355 16.6985V22.5149L13.009 24.1976L10.0824 22.5149V16.6985L5.04301 13.7973V10.4003L7.98208 8.70179L12.991 11.617L18.0305 8.70179L20.9713 10.4003H20.9588ZM5.04122 4.59969L12.9928 0L20.9588 4.59969L18.0323 6.29821L12.9928 3.38296L7.96774 6.29821L5.04122 4.59969Z" fill="var(--fill-0, white)"/>
</g>
</svg>
