<svg preserveAspectRatio="xMidYMid meet" width="24" height="24" overflow="visible" style="display: block;" viewBox="0 0 22 28" fill="none" xmlns="http://www.w3.org/2000/svg">
<path id="Vector" d="M21.9425 11.2563C22.4002 8.31411 20.0705 6.7326 16.8848 5.67757L17.9183 1.69217L15.3951 1.08766L14.389 4.96813C13.7257 4.80906 13.0445 4.65917 12.3674 4.51059L13.3807 0.604509L10.8591 0L9.82508 3.9841C9.27615 3.86393 8.737 3.74517 8.21392 3.62003L8.21684 3.6075L4.73726 2.77205L4.06605 5.36321C4.06605 5.36321 5.93807 5.7758 5.89862 5.80119C6.92039 6.04639 7.10516 6.69672 7.07448 7.21218L5.89727 11.7525C5.96763 11.7697 6.05889 11.7945 6.1596 11.8334C6.07541 11.8133 5.98584 11.7914 5.89289 11.77L4.24284 18.1303C4.11797 18.4288 3.80103 18.8767 3.08665 18.7066C3.11194 18.7418 1.25274 18.2666 1.25274 18.2666L0 21.0436L3.28357 21.8306C3.89442 21.9779 4.49303 22.132 5.08253 22.2769L4.0384 26.308L6.55871 26.9126L7.59272 22.9242C8.28124 23.104 8.94942 23.2697 9.60355 23.426L8.57302 27.3955L11.0964 28L12.1404 23.9765C16.443 24.7594 19.6782 24.4437 21.04 20.7019C22.1373 17.6893 20.9854 15.9516 18.7218 14.8185C20.3705 14.4529 21.6114 13.41 21.9425 11.2563ZM16.1775 19.0289C15.3978 22.0415 10.1222 20.4129 8.41184 20.0046L9.79743 14.6641C11.5077 15.0746 16.9924 15.887 16.1775 19.0289ZM16.9579 11.2126C16.2465 13.9529 11.8557 12.5607 10.4313 12.2193L11.6875 7.37579C13.1119 7.71717 17.6987 8.35431 16.9579 11.2126Z" fill="var(--fill-0, white)"/>
</svg>
