<svg preserveAspectRatio="xMidYMid meet" width="24" height="24" overflow="visible" style="display: block;" viewBox="0 0 25 26" fill="none" xmlns="http://www.w3.org/2000/svg">
<path id="Vector" d="M24.66 7.83274C23.427 6.70744 21.7213 4.98903 20.3321 3.7703L20.2499 3.71342C20.1132 3.60486 19.959 3.51973 19.7937 3.46155C16.4441 2.84406 0.854879 -0.036217 0.550739 0.00034501C0.465518 0.0121424 0.384058 0.0426833 0.31236 0.0897188L0.23427 0.150656C0.138114 0.24718 0.0650822 0.363789 0.02055 0.491901L0 0.544713V0.833146V0.877833C1.75497 5.70808 8.68442 21.5313 10.0489 25.2444C10.1311 25.4963 10.2873 25.9756 10.5791 26H10.6449C10.8011 26 11.4669 25.1306 11.4669 25.1306C11.4669 25.1306 23.3694 10.8633 24.5737 9.34397C24.7295 9.15682 24.8672 8.95551 24.9847 8.74273C25.0147 8.57625 25.0005 8.40493 24.9436 8.24545C24.8867 8.08598 24.789 7.94379 24.66 7.83274ZM14.5206 9.49428L19.6006 5.33027L22.5803 8.04399L14.5206 9.49428ZM12.5478 9.2221L3.80175 2.13719L17.9525 4.71685L12.5478 9.2221ZM13.3369 11.0786L22.2885 9.65272L12.0546 21.8401L13.3369 11.0786ZM2.61396 2.84406L11.8162 10.5627L10.4846 21.8482L2.61396 2.84406Z" fill="var(--fill-0, white)"/>
</svg>
