<svg preserveAspectRatio="xMidYMid meet" width="24" height="24" overflow="visible" style="display: block;" viewBox="0 0 30 29" fill="none" xmlns="http://www.w3.org/2000/svg">
<g id="Vector">
<path d="M20.4851 17.4335C20.4851 14.5 18.7399 13.4942 15.2493 13.0752C12.7561 12.7399 12.2574 12.0694 12.2574 10.8959C12.2574 9.72232 13.0886 8.96818 14.7507 8.96818C16.2466 8.96818 17.0778 9.47107 17.4932 10.7283C17.5764 10.9798 17.8257 11.1473 18.0751 11.1473H19.4046C19.7371 11.1473 19.9865 10.8959 19.9865 10.5607V10.4769C19.654 8.63285 18.158 7.20806 16.2466 7.04049V5.02892C16.2466 4.69359 15.9973 4.44215 15.5818 4.35827H14.3352C14.0027 4.35827 13.7534 4.60971 13.6702 5.02892V6.95661C11.177 7.29194 9.59805 8.96818 9.59805 11.0636C9.59805 13.8295 11.2601 14.919 14.7507 15.3382C17.0778 15.7572 17.8257 16.2601 17.8257 17.6012C17.8257 18.9424 16.6621 19.8643 15.0832 19.8643C12.9222 19.8643 12.1743 18.9421 11.9249 17.6849C11.842 17.3498 11.5926 17.182 11.3433 17.182H9.93035C9.59805 17.182 9.34873 17.4335 9.34873 17.7688V17.8527C9.68103 19.9479 11.0108 21.4566 13.7534 21.8758V23.8874C13.7534 24.2225 14.0027 24.474 14.4182 24.5579H15.6648C15.9973 24.5579 16.2466 24.3064 16.3298 23.8874V21.8758C18.823 21.4566 20.4851 19.6965 20.4851 17.4335Z" fill="var(--fill-0, white)"/>
<path d="M10.7615 26.2341C4.27908 23.8874 0.954698 16.5955 3.36496 10.1415C4.61158 6.62128 7.35414 3.93926 10.7615 2.68203C11.094 2.51446 11.2601 2.26302 11.2601 1.8438V0.670456C11.2601 0.335127 11.094 0.0836813 10.7615 0C10.6783 0 10.5122 -5.37147e-07 10.429 0.0836808C2.53381 2.59814 -1.78786 11.0636 0.705374 19.026C2.20132 23.7196 5.77502 27.3238 10.429 28.8324C10.7615 29 11.094 28.8324 11.177 28.4971C11.2601 28.4134 11.2601 28.3295 11.2601 28.162V26.9884C11.2601 26.737 11.0108 26.4019 10.7615 26.2341ZM19.571 0.0836808C19.2385 -0.083883 18.906 0.083681 18.823 0.41901C18.7399 0.502892 18.7399 0.586574 18.7399 0.754339V1.92769C18.7399 2.26302 18.9892 2.59814 19.2385 2.76591C25.7209 5.11261 29.0453 12.4045 26.635 18.8585C25.3884 22.3787 22.6459 25.0607 19.2385 26.318C18.906 26.4855 18.7399 26.737 18.7399 27.1562V28.3295C18.7399 28.6649 18.906 28.9163 19.2385 29C19.3217 29 19.4878 29 19.571 28.9163C27.4662 26.4019 31.7879 17.9364 29.2946 9.97397C27.7987 5.19649 24.1418 1.59236 19.571 0.0836808Z" fill="var(--fill-0, white)"/>
</g>
</svg>
