<svg preserveAspectRatio="xMidYMid meet" width="24" height="24" overflow="visible" style="display: block;" viewBox="0 0 26 22" fill="none" xmlns="http://www.w3.org/2000/svg">
<path id="Vector" d="M22.1914 0H25.9492L18.1289 7.9117C15.2968 10.7753 10.7052 10.7753 7.87109 7.9117L0.0477344 0H3.80859L9.75 6.01005C10.6157 6.8818 11.7823 7.37049 12.9977 7.37049C14.2131 7.37049 15.3798 6.8818 16.2454 6.01005L22.1914 0ZM3.76035 22H0L7.87109 14.0395C10.7032 11.1759 15.2948 11.1759 18.1289 14.0395L26 22H22.2422L16.25 15.9412C15.3843 15.0694 14.2177 14.5807 13.0023 14.5807C11.7869 14.5807 10.6202 15.0694 9.75457 15.9412L3.76035 22Z" fill="var(--fill-0, #23292F)"/>
</svg>
