<svg width="40" height="40" viewBox="0 0 40 40" fill="none" xmlns="http://www.w3.org/2000/svg">
<path d="M0 20C0 8.95431 8.95431 0 20 0C31.0457 0 40 8.95431 40 20C40 31.0457 31.0457 40 20 40C8.95431 40 0 31.0457 0 20Z" fill="#EF3124"/>
<path d="M28 28.5864H12V32H28V28.5864Z" fill="white"/>
<path fill-rule="evenodd" clip-rule="evenodd" d="M22.9089 9.5C22.4516 8.10314 21.926 7 20.1247 7C18.3235 7 17.763 8.09802 17.284 9.5L12.3326 23.9484H15.6158L16.7584 20.5143H23.0786L24.1414 23.9484H27.6341L22.9089 9.5ZM19.9584 10.7568L17.7148 17.613H22.1605L20.0416 10.7568H19.9584Z" fill="white"/>
</svg>
