<svg width="40" height="40" viewBox="0 0 40 40" fill="none" xmlns="http://www.w3.org/2000/svg">
<g clip-path="url(#clip0_55_1382)">
<path d="M20 40C8.95422 40 0 31.0458 0 20C0 8.95422 8.95422 0 20 0C31.0458 0 40 8.95422 40 20C40 31.0458 31.0458 40 20 40Z" fill="#F0931B"/>
<path d="M5.76026 27.1376C5.84675 26.9993 5.98506 26.9905 6.17517 27.1117C10.4991 29.6196 15.2041 30.8735 20.2888 30.8735C23.6788 30.8735 27.0258 30.2422 30.3293 28.9794C30.4158 28.9447 30.5414 28.8929 30.7056 28.8236C30.8698 28.7542 30.9866 28.7024 31.056 28.6677C31.3155 28.5641 31.5187 28.6159 31.6658 28.8236C31.8129 29.0312 31.765 29.2214 31.5231 29.3943C31.2118 29.6191 30.814 29.8786 30.3298 30.1728C28.8422 31.0549 27.1817 31.7381 25.3486 32.2223C23.5151 32.7066 21.725 32.949 19.978 32.949C17.2799 32.949 14.7285 32.4774 12.3242 31.5352C9.91994 30.5925 7.76677 29.2653 5.86388 27.5529C5.76026 27.4664 5.70801 27.3799 5.70801 27.2934C5.70845 27.2412 5.72557 27.1894 5.76026 27.1376ZM28.9287 27.5788C28.9634 27.5095 29.0152 27.4405 29.0846 27.3711C29.517 27.077 29.932 26.8781 30.3298 26.7745C30.987 26.6015 31.6272 26.5062 32.2498 26.4891C32.4228 26.4719 32.587 26.4803 32.7428 26.515C33.5213 26.5843 33.988 26.7139 34.1439 26.904C34.2133 27.0076 34.2475 27.1635 34.2475 27.3711V27.5529C34.2475 28.1584 34.0833 28.8719 33.7544 29.6933C33.4256 30.5148 32.9676 31.1765 32.3793 31.6779C32.2928 31.7473 32.2151 31.7815 32.1457 31.7815C32.111 31.7815 32.0763 31.7728 32.0421 31.7556C31.9385 31.7038 31.9126 31.6085 31.9644 31.4702C32.6045 29.9656 32.9242 28.9188 32.9242 28.3309C32.9242 28.1408 32.8895 28.0021 32.8206 27.916C32.6476 27.7083 32.1633 27.6047 31.3677 27.6047C31.0735 27.6047 30.7275 27.6219 30.3298 27.6565C29.8973 27.7083 29.4995 27.7602 29.1364 27.8124C29.0328 27.8124 28.9634 27.7953 28.9287 27.7606C28.894 27.7259 28.8852 27.6912 28.9028 27.657C28.9028 27.639 28.9116 27.6131 28.9287 27.5788Z" fill="white"/>
<path d="M28.0727 21.4049C27.7961 21.0418 27.5972 20.7779 27.4761 20.6137C27.3549 20.4495 27.2297 20.1813 27.0998 19.8094C26.9703 19.4375 26.9053 19.0265 26.9053 18.5769V12.2983C26.9053 12.2289 26.8965 12.0085 26.8794 11.6367C26.8622 11.2648 26.8359 11.0228 26.8017 10.91C26.7674 10.7972 26.7152 10.5943 26.6458 10.3001C26.5764 10.006 26.4987 9.78117 26.4122 9.62575C26.3257 9.46988 26.2089 9.29294 26.0618 9.09404C25.9161 8.89646 25.7554 8.70986 25.5819 8.53643C24.4751 7.51605 22.9357 7.00586 20.9639 7.00586H20.3154C18.776 7.09235 17.4312 7.50727 16.2808 8.25104C15.1305 8.99481 14.4087 10.1364 14.1145 11.6757C14.0974 11.7451 14.0886 11.8053 14.0886 11.8575C14.0886 12.0999 14.2357 12.2553 14.5299 12.3247L17.5133 12.6878C17.7899 12.636 17.9629 12.4371 18.0323 12.0911C18.1534 11.5374 18.4213 11.1054 18.8366 10.7937C19.2515 10.4824 19.7446 10.3006 20.3154 10.2488H20.5231C21.3015 10.2488 21.8723 10.5083 22.2354 11.0272C22.4773 11.4079 22.5985 12.1517 22.5985 13.2585V13.6994C21.5434 13.7859 20.7825 13.8548 20.3154 13.907C18.949 14.08 17.7987 14.3654 16.8648 14.7632C15.8444 15.1957 15.04 15.8354 14.4521 16.6832C13.8642 17.5306 13.5701 18.5514 13.5701 19.7448C13.5701 21.2495 13.9982 22.413 14.8543 23.2345C15.7105 24.056 16.8046 24.4669 18.1363 24.4669C19.0013 24.4669 19.7275 24.3804 20.3158 24.2075C21.2497 23.948 22.2012 23.2907 23.1697 22.2356C23.2391 22.3221 23.3598 22.4907 23.5328 22.7414C23.7058 22.9921 23.8314 23.1607 23.9091 23.2472C23.9868 23.3337 24.1168 23.472 24.2981 23.6621C24.4799 23.8523 24.6915 24.0511 24.9339 24.2588C25.2281 24.38 25.4788 24.3624 25.6864 24.207C25.8076 24.1034 26.5856 23.4286 28.0214 22.1834C28.1597 22.0798 28.229 21.9586 28.229 21.8203C28.2286 21.6991 28.1768 21.5608 28.0727 21.4049ZM22.5985 16.7869C22.5985 17.3405 22.5941 17.7383 22.5853 17.9802C22.5766 18.2222 22.5247 18.5378 22.4295 18.9273C22.3342 19.3163 22.1915 19.6754 22.0014 20.0039C21.6036 20.7476 21.0416 21.2148 20.3149 21.4049C20.2803 21.4049 20.2153 21.4137 20.1204 21.4308C20.0252 21.4479 19.9518 21.4567 19.9 21.4567C19.3292 21.4567 18.8753 21.2534 18.5381 20.8469C18.2009 20.4403 18.0323 19.8998 18.0323 19.2254C18.0323 17.7379 18.7932 16.7781 20.3154 16.3456C20.8344 16.2073 21.5953 16.1379 22.5985 16.1379V16.7869Z" fill="white"/>
</g>
<defs>
<clipPath id="clip0_55_1382">
<path d="M0 20C0 8.95431 8.95431 0 20 0C31.0457 0 40 8.95431 40 20C40 31.0457 31.0457 40 20 40C8.95431 40 0 31.0457 0 20Z" fill="white"/>
</clipPath>
</defs>
</svg>
