<svg width="40" height="40" viewBox="0 0 40 40" fill="none" xmlns="http://www.w3.org/2000/svg">
<path d="M36.4179 7H3.58218C3.44543 7 3.30843 7 3.17192 7.00081C3.05652 7.00164 2.9414 7.00294 2.82627 7.00613C2.57518 7.01303 2.32195 7.02807 2.074 7.07331C1.82209 7.11934 1.58768 7.19443 1.359 7.31264C1.13418 7.42872 0.928359 7.58056 0.749992 7.76173C0.571547 7.94291 0.422007 8.15154 0.307701 8.38005C0.191245 8.61224 0.117248 8.85031 0.0722267 9.10628C0.0274252 9.35809 0.0125122 9.61516 0.00574573 9.86982C0.00265247 9.98672 0.00132575 10.1036 0.000574187 10.2205C-0.000223295 10.3594 4.25324e-05 10.4982 4.25324e-05 10.6373V29.3629C4.25324e-05 29.5021 -0.000223295 29.6407 0.000574187 29.7798C0.00132575 29.8967 0.00265247 30.0136 0.00574573 30.1305C0.0125122 30.3849 0.0274252 30.642 0.0722267 30.8937C0.117248 31.1498 0.191245 31.3878 0.307701 31.62C0.422007 31.8485 0.571547 32.0574 0.749992 32.2383C0.928359 32.4198 1.13418 32.5716 1.359 32.6874C1.58768 32.8059 1.82209 32.881 2.074 32.927C2.32195 32.972 2.57518 32.9873 2.82627 32.9942C2.9414 32.9968 3.05652 32.9984 3.17192 32.9989C3.30843 33 3.44543 33 3.58218 33H36.4179C36.5544 33 36.6914 33 36.8279 32.9989C36.943 32.9984 37.0581 32.9968 37.1738 32.9942C37.4243 32.9873 37.6775 32.972 37.9261 32.927C38.1776 32.881 38.4121 32.8059 38.6408 32.6874C38.8659 32.5716 39.0711 32.4198 39.2498 32.2383C39.428 32.0574 39.5775 31.8485 39.6921 31.62C39.8088 31.3878 39.8827 31.1498 39.9275 30.8937C39.9724 30.642 39.9869 30.3849 39.9937 30.1305C39.9969 30.0136 39.9984 29.8967 39.9989 29.7798C40 29.6407 40 29.5021 40 29.3629V10.6373C40 10.4982 40 10.3594 39.9989 10.2205C39.9984 10.1036 39.9969 9.98672 39.9937 9.86982C39.9869 9.61516 39.9724 9.35809 39.9275 9.10628C39.8827 8.85031 39.8088 8.61224 39.6921 8.38005C39.5775 8.15154 39.428 7.94291 39.2498 7.76173C39.0711 7.58056 38.8659 7.42872 38.6408 7.31264C38.4121 7.19443 38.1776 7.11934 37.9261 7.07331C37.6775 7.02807 37.4243 7.01303 37.1738 7.00613C37.0581 7.00294 36.943 7.00164 36.8279 7.00081C36.6914 7 36.5544 7 36.4179 7Z" fill="black"/>
<path d="M36.4179 7.86662L36.8218 7.86741C36.9312 7.8682 37.0406 7.8694 37.1507 7.87244C37.3421 7.87769 37.566 7.88822 37.7747 7.9262C37.9561 7.95937 38.1082 8.00982 38.2542 8.08529C38.3984 8.15966 38.5305 8.25712 38.6458 8.37404C38.7615 8.49174 38.8576 8.62605 38.9319 8.77403C39.0058 8.92112 39.0552 9.07487 39.0876 9.26041C39.1249 9.47 39.1353 9.69795 39.1405 9.89348C39.1435 10.0038 39.1449 10.1142 39.1454 10.2272C39.1465 10.3638 39.1465 10.5004 39.1465 10.6373V29.3629C39.1465 29.4999 39.1465 29.6362 39.1454 29.7757C39.1449 29.8861 39.1435 29.9965 39.1405 30.107C39.1353 30.3022 39.1249 30.5301 39.0872 30.7421C39.0551 30.9251 39.0058 31.0789 38.9315 31.2267C38.8575 31.3743 38.7615 31.5085 38.6463 31.6255C38.5303 31.7432 38.3987 31.8404 38.2528 31.9155C38.1079 31.9906 37.956 32.041 37.7764 32.0738C37.5634 32.1123 37.3302 32.1229 37.1545 32.1278C37.0439 32.1303 36.9339 32.1318 36.8212 32.1323C36.687 32.1334 36.5522 32.1334 36.4179 32.1334H3.57684C3.44408 32.1334 3.31104 32.1334 3.17586 32.1323C3.06563 32.1318 2.95566 32.1303 2.84932 32.1279C2.66963 32.1229 2.4362 32.1123 2.22502 32.074C2.04385 32.041 1.89196 31.9906 1.74513 31.9145C1.60064 31.8401 1.4691 31.743 1.35308 31.625C1.23795 31.5083 1.14228 31.3746 1.06831 31.2268C0.994261 31.0791 0.944721 30.9248 0.912147 30.7397C0.874494 30.528 0.864151 30.3011 0.858982 30.1072C0.856031 29.9962 0.854799 29.8852 0.854098 29.7748L0.853566 29.449V10.5513L0.854074 10.2262C0.854799 10.1151 0.856031 10.0041 0.858982 9.89321C0.864151 9.6991 0.874494 9.47209 0.912459 9.25867C0.944745 9.07516 0.994261 8.92093 1.06869 8.77251C1.14209 8.62581 1.23793 8.49189 1.35366 8.37441C1.46893 8.25732 1.6009 8.15998 1.74631 8.0849C1.89157 8.00979 2.04375 7.95937 2.22492 7.92627C2.43367 7.88819 2.65771 7.87769 2.84959 7.87242C2.95897 7.8694 3.06834 7.8682 3.1769 7.86743L3.58219 7.86662H36.4179Z" fill="white"/>
<path d="M10.9196 15.7449C11.2621 15.31 11.4945 14.726 11.4332 14.1292C10.9319 14.1545 10.3201 14.465 9.96586 14.9003C9.64782 15.273 9.36633 15.8815 9.43971 16.4533C10.0025 16.5028 10.5648 16.1676 10.9196 15.7449Z" fill="black"/>
<path d="M11.4269 16.5649C10.6095 16.5155 9.9146 17.0359 9.52429 17.0359C9.13376 17.0359 8.53606 16.5898 7.8896 16.6018C7.04819 16.6144 6.26746 17.0974 5.84048 17.8657C4.96226 19.4025 5.60872 21.6822 6.46275 22.9339C6.87748 23.5532 7.3773 24.235 8.0359 24.2105C8.65816 24.1857 8.90207 23.8014 9.65845 23.8014C10.4143 23.8014 10.634 24.2105 11.2927 24.1981C11.9758 24.1857 12.4028 23.5786 12.8176 22.9587C13.2933 22.2528 13.4881 21.5712 13.5004 21.5338C13.4881 21.5214 12.1832 21.0131 12.1711 19.489C12.1587 18.2129 13.1956 17.6059 13.2444 17.5682C12.6589 16.689 11.744 16.5898 11.4269 16.5649Z" fill="black"/>
<path d="M18.5434 14.8378C20.3198 14.8378 21.5568 16.0811 21.5568 17.8912C21.5568 19.7078 20.2944 20.9575 18.4988 20.9575H16.532V24.1333H15.1109V14.8378L18.5434 14.8378ZM16.532 19.7464H18.1625C19.3998 19.7464 20.1039 19.0701 20.1039 17.8977C20.1039 16.7253 19.3998 16.0554 18.1689 16.0554H16.532V19.7464Z" fill="black"/>
<path d="M21.9281 22.2073C21.9281 21.0219 22.8227 20.294 24.409 20.2038L26.2361 20.0944V19.5726C26.2361 18.8189 25.7348 18.368 24.8975 18.368C24.1042 18.368 23.6093 18.7544 23.4889 19.36H22.1947C22.2708 18.136 23.2985 17.2342 24.9482 17.2342C26.566 17.2342 27.6001 18.1038 27.6001 19.463V24.1333H26.2867V23.0189H26.2552C25.8682 23.7726 25.0243 24.2493 24.1488 24.2493C22.8418 24.2493 21.9281 23.4247 21.9281 22.2073ZM26.2361 21.5953V21.0607L24.5928 21.1637C23.7743 21.2217 23.3112 21.5889 23.3112 22.1686C23.3112 22.7612 23.7934 23.1477 24.5294 23.1477C25.4874 23.1477 26.2361 22.4778 26.2361 21.5953Z" fill="black"/>
<path d="M28.84 26.6263V25.499C28.9414 25.5247 29.1697 25.5247 29.284 25.5247C29.9184 25.5247 30.2611 25.2542 30.4704 24.5585C30.4704 24.5456 30.591 24.1462 30.591 24.1398L28.1802 17.3566H29.6646L31.3524 22.8708H31.3777L33.0655 17.3566H34.512L32.0121 24.4876C31.4413 26.1303 30.7814 26.6585 29.3983 26.6585C29.284 26.6585 28.9414 26.6456 28.84 26.6263Z" fill="black"/>
</svg>
