<svg width="40" height="40" viewBox="0 0 40 40" fill="none" xmlns="http://www.w3.org/2000/svg">
<path d="M20 0.0996094C30.9905 0.0996094 39.9004 9.00953 39.9004 20C39.9004 30.9905 30.9905 39.9004 20 39.9004C9.00953 39.9004 0.0996094 30.9905 0.0996094 20C0.0996094 9.00953 9.00953 0.0996094 20 0.0996094Z" fill="white"/>
<path d="M20 0.0996094C30.9905 0.0996094 39.9004 9.00953 39.9004 20C39.9004 30.9905 30.9905 39.9004 20 39.9004C9.00953 39.9004 0.0996094 30.9905 0.0996094 20C0.0996094 9.00953 9.00953 0.0996094 20 0.0996094Z" stroke="#D4D4D4" stroke-width="0.2"/>
<path d="M13.1386 17.4938C13.1386 18.9128 11.9883 20.0631 10.5693 20.0631C9.15031 20.0631 8 18.9128 8 17.4938C8 16.0749 9.15031 14.9245 10.5693 14.9245C11.9883 14.9245 13.1386 16.0749 13.1386 17.4938Z" fill="#0F0F0F"/>
<path d="M32 17.4938C32 18.9128 30.8497 20.0631 29.4307 20.0631C28.0117 20.0631 26.8614 18.9128 26.8614 17.4938C26.8614 16.0749 28.0117 14.9245 29.4307 14.9245C30.8497 14.9245 32 16.0749 32 17.4938Z" fill="#0F0F0F"/>
<path d="M24.0729 12.0661C24.0729 14.3118 22.2524 16.1323 20.0067 16.1323C17.7611 16.1323 15.9406 14.3118 15.9406 12.0661C15.9406 9.82047 17.7611 8 20.0067 8C22.2524 8 24.0729 9.82047 24.0729 12.0661Z" fill="#0F0F0F"/>
<path d="M18.6983 22.3745C18.6983 23.3972 17.8693 24.2262 16.8467 24.2262C15.824 24.2262 14.995 23.3972 14.995 22.3745C14.995 21.3519 15.824 20.5228 16.8467 20.5228C17.8693 20.5228 18.6983 21.3519 18.6983 22.3745Z" fill="#0F0F0F"/>
<path d="M25.0185 22.3745C25.0185 23.3972 24.1894 24.2262 23.1668 24.2262C22.1441 24.2262 21.3151 23.3972 21.3151 22.3745C21.3151 21.3519 22.1441 20.5228 23.1668 20.5228C24.1894 20.5228 25.0185 21.3519 25.0185 22.3745Z" fill="#0F0F0F"/>
<path d="M15.9201 29.1607C15.9201 30.7288 14.6489 32 13.0808 32C11.5127 32 10.2415 30.7288 10.2415 29.1607C10.2415 27.5926 11.5127 26.3213 13.0808 26.3213C14.6489 26.3213 15.9201 27.5926 15.9201 29.1607Z" fill="#0F0F0F"/>
<path d="M29.772 29.1607C29.772 30.7288 28.5008 32 26.9327 32C25.3645 32 24.0933 30.7288 24.0933 29.1607C24.0933 27.5926 25.3645 26.3213 26.9327 26.3213C28.5008 26.3213 29.772 27.5926 29.772 29.1607Z" fill="#0F0F0F"/>
</svg>
