<svg width="40" height="40" viewBox="0 0 40 40" fill="none" xmlns="http://www.w3.org/2000/svg">
<g clip-path="url(#clip0_55_1370)">
<path d="M30.625 0H9.375C4.19733 0 0 4.19733 0 9.375V30.625C0 35.8027 4.19733 40 9.375 40H30.625C35.8027 40 40 35.8027 40 30.625V9.375C40 4.19733 35.8027 0 30.625 0Z" fill="white"/>
<mask id="mask0_55_1370" style="mask-type:luminance" maskUnits="userSpaceOnUse" x="13" y="9" width="15" height="22">
<path d="M13 9H27.4688V30.6988H13V9Z" fill="white"/>
</mask>
<g mask="url(#mask0_55_1370)">
<path d="M16.618 30.7006C18.6143 30.7006 20.2344 29.0805 20.2344 27.0842V23.4677H16.618C14.6217 23.4677 13.0015 25.0879 13.0015 27.0842C13.0015 29.0805 14.6217 30.7006 16.618 30.7006Z" fill="#0ACF83"/>
<path d="M13.0015 19.8476C13.0015 17.8513 14.6217 16.2311 16.618 16.2311H20.2344V23.464H16.618C14.6217 23.464 13.0015 21.8438 13.0015 19.8476Z" fill="#A259FF"/>
<path d="M13.0017 12.6164C13.0017 10.6201 14.622 9 16.6182 9H20.2347V16.233H16.6182C14.622 16.233 13.0017 14.6127 13.0017 12.6164Z" fill="#F24E1E"/>
<path d="M20.2344 9H23.8508C25.8471 9 27.4673 10.6201 27.4673 12.6164C27.4673 14.6127 25.8471 16.233 23.8508 16.233H20.2344V9Z" fill="#FF7262"/>
<path d="M27.4673 19.8476C27.4673 21.8438 25.8471 23.464 23.8508 23.464C21.8545 23.464 20.2344 21.8438 20.2344 19.8476C20.2344 17.8513 21.8545 16.2311 23.8508 16.2311C25.8471 16.2311 27.4673 17.8513 27.4673 19.8476Z" fill="#1ABCFE"/>
</g>
</g>
<path d="M20 0.0996094C30.9905 0.0996094 39.9004 9.00953 39.9004 20C39.9004 30.9905 30.9905 39.9004 20 39.9004C9.00953 39.9004 0.0996094 30.9905 0.0996094 20C0.0996094 9.00953 9.00953 0.0996094 20 0.0996094Z" stroke="#D4D4D4" stroke-width="0.2"/>
<defs>
<clipPath id="clip0_55_1370">
<path d="M0 20C0 8.95431 8.95431 0 20 0C31.0457 0 40 8.95431 40 20C40 31.0457 31.0457 40 20 40C8.95431 40 0 31.0457 0 20Z" fill="white"/>
</clipPath>
</defs>
</svg>
