<svg width="40" height="40" viewBox="0 0 40 40" fill="none" xmlns="http://www.w3.org/2000/svg">
<g clip-path="url(#clip0_55_1380)">
<path d="M20.0065 0C11.6567 0 9.2147 0.0086172 8.74003 0.0479999C7.02651 0.190473 5.96026 0.460347 4.79861 1.03884C3.90341 1.48351 3.19738 1.99893 2.50058 2.72146C1.2316 4.03911 0.462512 5.66016 0.184097 7.5871C0.0487445 8.52256 0.00936147 8.71334 0.00136399 13.4916C-0.00170499 15.0844 0.00136399 17.1805 0.00136399 19.9921C0.00136399 28.3375 0.010586 30.7777 0.0505885 31.2516C0.189025 32.9194 0.450508 33.9687 1.00425 35.1165C2.06252 37.3136 4.08366 38.963 6.46477 39.5784C7.28923 39.7908 8.19983 39.9077 9.36883 39.9631C9.86413 39.9846 14.9124 40 19.9638 40C25.0151 40 30.0665 39.9938 30.5495 39.9692C31.9031 39.9055 32.6891 39.8 33.5581 39.5753C35.9546 38.9568 37.9389 37.3321 39.0186 35.1042C39.5616 33.9841 39.837 32.8948 39.9616 31.314C39.9886 30.9694 40 25.4745 40 19.9869C40 14.4985 39.9877 9.01368 39.9606 8.66903C39.8345 7.06274 39.5592 5.98266 38.9987 4.84102C38.5387 3.90648 38.0281 3.20856 37.2867 2.49499C35.9635 1.23087 34.3454 0.461571 32.4171 0.183398C31.4828 0.0483024 31.2967 0.00829984 26.5161 0H20.0065Z" fill="url(#paint0_radial_55_1380)"/>
<path d="M20.0065 0C11.6567 0 9.2147 0.0086172 8.74003 0.0479999C7.02651 0.190473 5.96026 0.460347 4.79861 1.03884C3.90341 1.48351 3.19738 1.99893 2.50058 2.72146C1.2316 4.03911 0.462512 5.66016 0.184097 7.5871C0.0487445 8.52256 0.00936147 8.71334 0.00136399 13.4916C-0.00170499 15.0844 0.00136399 17.1805 0.00136399 19.9921C0.00136399 28.3375 0.010586 30.7777 0.0505885 31.2516C0.189025 32.9194 0.450508 33.9687 1.00425 35.1165C2.06252 37.3136 4.08366 38.963 6.46477 39.5784C7.28923 39.7908 8.19983 39.9077 9.36883 39.9631C9.86413 39.9846 14.9124 40 19.9638 40C25.0151 40 30.0665 39.9938 30.5495 39.9692C31.9031 39.9055 32.6891 39.8 33.5581 39.5753C35.9546 38.9568 37.9389 37.3321 39.0186 35.1042C39.5616 33.9841 39.837 32.8948 39.9616 31.314C39.9886 30.9694 40 25.4745 40 19.9869C40 14.4985 39.9877 9.01368 39.9606 8.66903C39.8345 7.06274 39.5592 5.98266 38.9987 4.84102C38.5387 3.90648 38.0281 3.20856 37.2867 2.49499C35.9635 1.23087 34.3454 0.461571 32.4171 0.183398C31.4828 0.0483024 31.2967 0.00829984 26.5161 0H20.0065Z" fill="url(#paint1_radial_55_1380)"/>
<path d="M20.0065 0C11.6567 0 9.2147 0.0086172 8.74003 0.0479999C7.02651 0.190473 5.96026 0.460347 4.79861 1.03884C3.90341 1.48351 3.19738 1.99893 2.50058 2.72146C1.2316 4.03911 0.462512 5.66016 0.184097 7.5871C0.0487445 8.52256 0.00936147 8.71334 0.00136399 13.4916C-0.00170499 15.0844 0.00136399 17.1805 0.00136399 19.9921C0.00136399 28.3375 0.010586 30.7777 0.0505885 31.2516C0.189025 32.9194 0.450508 33.9687 1.00425 35.1165C2.06252 37.3136 4.08366 38.963 6.46477 39.5784C7.28923 39.7908 8.19983 39.9077 9.36883 39.9631C9.86413 39.9846 14.9124 40 19.9638 40C25.0151 40 30.0665 39.9938 30.5495 39.9692C31.9031 39.9055 32.6891 39.8 33.5581 39.5753C35.9546 38.9568 37.9389 37.3321 39.0186 35.1042C39.5616 33.9841 39.837 32.8948 39.9616 31.314C39.9886 30.9694 40 25.4745 40 19.9869C40 14.4985 39.9877 9.01368 39.9606 8.66903C39.8345 7.06274 39.5592 5.98266 38.9987 4.84102C38.5387 3.90648 38.0281 3.20856 37.2867 2.49499C35.9635 1.23087 34.3454 0.461571 32.4171 0.183398C31.4828 0.0483024 31.2967 0.00829984 26.5161 0H20.0065Z" fill="url(#paint2_radial_55_1380)"/>
<path d="M20.0065 0C11.6567 0 9.2147 0.0086172 8.74003 0.0479999C7.02651 0.190473 5.96026 0.460347 4.79861 1.03884C3.90341 1.48351 3.19738 1.99893 2.50058 2.72146C1.2316 4.03911 0.462512 5.66016 0.184097 7.5871C0.0487445 8.52256 0.00936147 8.71334 0.00136399 13.4916C-0.00170499 15.0844 0.00136399 17.1805 0.00136399 19.9921C0.00136399 28.3375 0.010586 30.7777 0.0505885 31.2516C0.189025 32.9194 0.450508 33.9687 1.00425 35.1165C2.06252 37.3136 4.08366 38.963 6.46477 39.5784C7.28923 39.7908 8.19983 39.9077 9.36883 39.9631C9.86413 39.9846 14.9124 40 19.9638 40C25.0151 40 30.0665 39.9938 30.5495 39.9692C31.9031 39.9055 32.6891 39.8 33.5581 39.5753C35.9546 38.9568 37.9389 37.3321 39.0186 35.1042C39.5616 33.9841 39.837 32.8948 39.9616 31.314C39.9886 30.9694 40 25.4745 40 19.9869C40 14.4985 39.9877 9.01368 39.9606 8.66903C39.8345 7.06274 39.5592 5.98266 38.9987 4.84102C38.5387 3.90648 38.0281 3.20856 37.2867 2.49499C35.9635 1.23087 34.3454 0.461571 32.4171 0.183398C31.4828 0.0483024 31.2967 0.00829984 26.5161 0H20.0065Z" fill="url(#paint3_radial_55_1380)"/>
<path d="M20.0012 7C16.4706 7 16.0275 7.01543 14.6408 7.07854C13.2569 7.14191 12.3122 7.36102 11.4856 7.68251C10.6306 8.01455 9.90525 8.45871 9.18267 9.18156C8.45954 9.90416 8.01536 10.6294 7.68224 11.4842C7.35994 12.311 7.14055 13.256 7.07827 14.6394C7.01625 16.0261 7 16.4694 7 20C7 23.5306 7.01571 23.9723 7.07854 25.359C7.14219 26.7429 7.3613 27.6876 7.6825 28.5142C8.01482 29.3692 8.45899 30.0945 9.18185 30.8171C9.90418 31.5402 10.6295 31.9855 11.484 32.3175C12.3111 32.639 13.2561 32.8581 14.6397 32.9215C16.0264 32.9846 16.4692 33 19.9996 33C23.5305 33 23.9722 32.9846 25.3589 32.9215C26.7429 32.8581 27.6886 32.639 28.5158 32.3175C29.3705 31.9855 30.0947 31.5402 30.8171 30.8171C31.5402 30.0945 31.9844 29.3692 32.3175 28.5145C32.6371 27.6876 32.8565 26.7427 32.9215 25.3593C32.9837 23.9726 33 23.5306 33 20C33 16.4694 32.9837 16.0263 32.9215 14.6397C32.8565 13.2557 32.6371 12.311 32.3175 11.4845C31.9844 10.6294 31.5402 9.90414 30.8171 9.18156C30.0939 8.45843 29.3708 8.01427 28.515 7.6825C27.6862 7.36102 26.741 7.14191 25.357 7.07854C23.9703 7.01543 23.5289 7 19.9972 7H20.0012ZM18.835 9.34271C19.1811 9.34217 19.5673 9.34271 20.0012 9.34271C23.4723 9.34271 23.8837 9.35517 25.2544 9.41746C26.5219 9.47542 27.2098 9.6872 27.668 9.86514C28.2747 10.1008 28.7073 10.3824 29.162 10.8374C29.617 11.2924 29.8986 11.7258 30.1348 12.3324C30.3128 12.7901 30.5248 13.4781 30.5825 14.7456C30.6448 16.116 30.6584 16.5276 30.6584 19.997C30.6584 23.4664 30.6448 23.8781 30.5825 25.2485C30.5246 26.516 30.3128 27.2039 30.1348 27.6616C29.8992 28.2683 29.617 28.7003 29.162 29.155C28.707 29.61 28.275 29.8916 27.668 30.1273C27.2103 30.306 26.5219 30.5173 25.2544 30.5752C23.8839 30.6375 23.4723 30.6511 20.0012 30.6511C16.5299 30.6511 16.1185 30.6375 14.7481 30.5752C13.4806 30.5167 12.7927 30.3049 12.3341 30.127C11.7274 29.8914 11.2941 29.6097 10.8391 29.1547C10.3841 28.6997 10.1024 28.2675 9.86626 27.6605C9.68832 27.2028 9.47625 26.5149 9.41857 25.2474C9.35628 23.877 9.34381 23.4653 9.34381 19.9938C9.34381 16.5222 9.35628 16.1127 9.41857 14.7423C9.47653 13.4748 9.68832 12.7869 9.86626 12.3286C10.1019 11.722 10.3841 11.2886 10.8391 10.8337C11.2941 10.3786 11.7274 10.097 12.3341 9.86082C12.7924 9.68206 13.4806 9.47082 14.7481 9.41258C15.9473 9.35841 16.4121 9.34217 18.835 9.33945L18.835 9.34271ZM26.9406 11.5012C26.0793 11.5012 25.3806 12.1992 25.3806 13.0607C25.3806 13.922 26.0793 14.6207 26.9406 14.6207C27.8018 14.6207 28.5006 13.922 28.5006 13.0607C28.5006 12.1995 27.8018 11.5007 26.9406 11.5007L26.9406 11.5012ZM20.0012 13.324C16.3143 13.324 13.3251 16.3131 13.3251 20C13.3251 23.6869 16.3143 26.6747 20.0012 26.6747C23.6881 26.6747 26.6762 23.6869 26.6762 20C26.6762 16.3131 23.6878 13.324 20.001 13.324H20.0012ZM20.0012 15.6667C22.3943 15.6667 24.3346 17.6066 24.3346 20C24.3346 22.3931 22.3943 24.3333 20.0012 24.3333C17.6078 24.3333 15.6678 22.3931 15.6678 20C15.6678 17.6066 17.6078 15.6667 20.0012 15.6667Z" fill="white"/>
</g>
<defs>
<radialGradient id="paint0_radial_55_1380" cx="0" cy="0" r="1" gradientTransform="matrix(-24.5982 6.93727 -4.99804 -17.7218 38.7084 18.7485)" gradientUnits="userSpaceOnUse">
<stop stop-color="#FF005F"/>
<stop offset="1" stop-color="#FC01D8"/>
</radialGradient>
<radialGradient id="paint1_radial_55_1380" cx="0" cy="0" r="1" gradientUnits="userSpaceOnUse" gradientTransform="translate(10.6247 43.0808) rotate(-90) scale(31.9288 33.8757)">
<stop stop-color="#FFCC00"/>
<stop offset="0.1242" stop-color="#FFCC00"/>
<stop offset="0.5672" stop-color="#FE4A05"/>
<stop offset="0.6942" stop-color="#FF0F3F"/>
<stop offset="1" stop-color="#FE0657" stop-opacity="0"/>
</radialGradient>
<radialGradient id="paint2_radial_55_1380" cx="0" cy="0" r="1" gradientTransform="matrix(6.62727 -11.419 14.8662 8.628 21.0108 39.4359)" gradientUnits="userSpaceOnUse">
<stop stop-color="#FFCC00"/>
<stop offset="1" stop-color="#FFCC00" stop-opacity="0"/>
</radialGradient>
<radialGradient id="paint3_radial_55_1380" cx="0" cy="0" r="1" gradientTransform="matrix(-24.3282 6.8504 -2.33333 -8.28875 5.42714 1.62879)" gradientUnits="userSpaceOnUse">
<stop stop-color="#780CFF"/>
<stop offset="1" stop-color="#820BFF" stop-opacity="0"/>
</radialGradient>
<clipPath id="clip0_55_1380">
<path d="M0 20C0 8.95431 8.95431 0 20 0C31.0457 0 40 8.95431 40 20C40 31.0457 31.0457 40 20 40C8.95431 40 0 31.0457 0 20Z" fill="white"/>
</clipPath>
</defs>
</svg>
