<svg width="40" height="40" viewBox="0 0 40 40" fill="none" xmlns="http://www.w3.org/2000/svg">
<path d="M20 0.0996094C30.9905 0.0996094 39.9004 9.00953 39.9004 20C39.9004 30.9905 30.9905 39.9004 20 39.9004C9.00953 39.9004 0.0996094 30.9905 0.0996094 20C0.0996094 9.00953 9.00953 0.0996094 20 0.0996094Z" fill="white"/>
<path d="M20 0.0996094C30.9905 0.0996094 39.9004 9.00953 39.9004 20C39.9004 30.9905 30.9905 39.9004 20 39.9004C9.00953 39.9004 0.0996094 30.9905 0.0996094 20C0.0996094 9.00953 9.00953 0.0996094 20 0.0996094Z" stroke="#D4D4D4" stroke-width="0.2"/>
<path d="M15.7755 31.2189L16.1741 28.6871L15.2862 28.6665H11.0464L13.9928 9.9841C14.002 9.9277 14.0317 9.87511 14.0751 9.83777C14.1186 9.80042 14.1742 9.77985 14.2321 9.77985H21.381C23.7543 9.77985 25.3922 10.2737 26.2473 11.2485C26.6482 11.7058 26.9035 12.1836 27.027 12.7095C27.1565 13.2613 27.1588 13.9206 27.0323 14.7246L27.0232 14.7833V15.2985L27.424 15.5256C27.7617 15.7047 28.0299 15.9097 28.2357 16.1445C28.5787 16.5355 28.8005 17.0324 28.8942 17.6215C28.991 18.2274 28.959 18.9484 28.8005 19.7647C28.6176 20.7036 28.3218 21.5214 27.9225 22.1906C27.5551 22.8071 27.0872 23.3185 26.5316 23.7148C26.0011 24.0913 25.3708 24.3771 24.6582 24.5601C23.9677 24.7399 23.1804 24.8306 22.3169 24.8306H21.7606C21.3627 24.8306 20.9763 24.9739 20.673 25.2307C20.3689 25.4929 20.1677 25.8511 20.106 26.2429L20.064 26.4707L19.3598 30.9331L19.3278 31.0969C19.3194 31.1488 19.305 31.1747 19.2836 31.1922C19.2646 31.2082 19.2371 31.2189 19.2104 31.2189H15.7755Z" fill="#253B80"/>
<path d="M27.8038 14.8434C27.7825 14.9798 27.7581 15.1193 27.7306 15.2626C26.7879 20.103 23.5625 21.7751 19.4431 21.7751H17.3457C16.8419 21.7751 16.4174 22.1409 16.3389 22.6378L15.265 29.4483L14.961 31.3788C14.9099 31.705 15.1614 31.9992 15.4906 31.9992H19.2107C19.6512 31.9992 20.0254 31.6791 20.0947 31.2447L20.1313 31.0557L20.8317 26.6109L20.8767 26.367C20.9453 25.931 21.3203 25.6109 21.7608 25.6109H22.3171C25.9213 25.6109 28.7428 24.1476 29.5674 19.9132C29.9119 18.1442 29.7335 16.6672 28.822 15.6284C28.5461 15.3152 28.2039 15.0553 27.8038 14.8434Z" fill="#179BD7"/>
<path d="M26.8173 14.4505C26.6733 14.4086 26.5246 14.3705 26.3722 14.3362C26.219 14.3026 26.062 14.2729 25.9004 14.247C25.3349 14.1555 24.7153 14.1121 24.0515 14.1121H18.4482C18.3103 14.1121 18.1792 14.1433 18.0618 14.1997C17.8035 14.324 17.6114 14.5686 17.5649 14.8681L16.3729 22.4179L16.3386 22.6382C16.4171 22.1413 16.8416 21.7754 17.3454 21.7754H19.4428C23.5622 21.7754 26.7876 20.1025 27.7304 15.2629C27.7585 15.1196 27.7822 14.9802 27.8035 14.8437C27.565 14.7172 27.3066 14.609 27.0284 14.5168C26.9598 14.4939 26.8889 14.4718 26.8173 14.4505Z" fill="#222D65"/>
<path d="M17.565 14.8677C17.6115 14.5682 17.8036 14.3236 18.0619 14.2001C18.1801 14.1437 18.3104 14.1124 18.4483 14.1124H24.0516C24.7154 14.1124 25.335 14.1559 25.9006 14.2473C26.0621 14.2733 26.2191 14.303 26.3723 14.3365C26.5247 14.3708 26.6734 14.4089 26.8174 14.4508C26.889 14.4722 26.9599 14.4943 27.0293 14.5164C27.3075 14.6086 27.5658 14.7176 27.8044 14.8433C28.0849 13.0546 27.8021 11.8367 26.8349 10.7339C25.7687 9.51978 23.8443 9 21.3818 9H14.2329C13.7299 9 13.3008 9.36583 13.2231 9.86351L10.2454 28.7379C10.1867 29.1114 10.4748 29.4483 10.8513 29.4483H15.2649L16.373 22.4175L17.565 14.8677Z" fill="#253B80"/>
</svg>
