<svg width="40" height="40" viewBox="0 0 40 40" fill="none" xmlns="http://www.w3.org/2000/svg">
<path d="M0 20C0 8.95431 8.95431 0 20 0C31.0457 0 40 8.95431 40 20C40 31.0457 31.0457 40 20 40C8.95431 40 0 31.0457 0 20Z" fill="#06226F"/>
<path d="M33.39 19.75V19.74H33.388C33.3881 19.6932 33.3789 19.6469 33.3611 19.6037C33.3432 19.5604 33.317 19.5211 33.284 19.488L24.847 11.052C24.813 11.019 24.768 11 24.721 11H24.668C24.57 11 24.49 11.079 24.49 11.177V19.7389C24.4899 19.6925 24.4808 19.6466 24.4631 19.6037C24.4452 19.5604 24.419 19.5211 24.386 19.488L16.001 11.103C15.935 11.037 15.844 11 15.75 11H15.74C15.6457 11.0004 15.5555 11.0381 15.489 11.105L7.104 19.491C7.037 19.557 7 19.648 7 19.742V19.752C7.00012 19.8456 7.03712 19.9355 7.103 20.002L15.492 28.386C15.5584 28.4522 15.6482 28.4896 15.742 28.49H15.752C15.7988 28.4901 15.8451 28.4809 15.8883 28.4631C15.9316 28.4452 15.9709 28.419 16.004 28.386L24.389 20.001C24.4555 19.9344 24.4929 19.8441 24.493 19.75V28.312C24.493 28.3354 24.4976 28.3585 24.5065 28.3801C24.5155 28.4017 24.5286 28.4213 24.5451 28.4379C24.5617 28.4544 24.5813 28.4675 24.6029 28.4764C24.6245 28.4854 24.6476 28.49 24.671 28.49H24.724C24.7472 28.49 24.7702 28.4854 24.7917 28.4765C24.8132 28.4676 24.8326 28.4545 24.849 28.438L33.286 20.001C33.3525 19.9344 33.3899 19.8441 33.39 19.75Z" fill="white"/>
</svg>
