<svg width="40" height="40" viewBox="0 0 40 40" fill="none" xmlns="http://www.w3.org/2000/svg">
<path d="M0 20C0 8.95431 8.95431 0 20 0C31.0457 0 40 8.95431 40 20C40 31.0457 31.0457 40 20 40C8.95431 40 0 31.0457 0 20Z" fill="#FF4500"/>
<path d="M33.9995 20.1814C33.9368 18.5492 32.5155 17.2747 30.8173 17.3301C30.0648 17.3553 29.349 17.6525 28.8055 18.1512C26.4123 16.5795 23.6011 15.718 20.7115 15.6576L22.0753 9.33518L26.5743 10.247C26.6997 11.3604 27.7343 12.1664 28.8891 12.0455C30.0439 11.9246 30.88 10.9271 30.7546 9.81377C30.6292 8.70042 29.5946 7.89438 28.4398 8.01529C27.7761 8.08078 27.1804 8.45357 26.8512 9.00773L21.6991 8.01529C21.349 7.93972 20.9989 8.15131 20.9205 8.49388C20.9205 8.49891 20.9205 8.49891 20.9205 8.50395L19.3685 15.5366C16.4424 15.582 13.5945 16.4485 11.17 18.0303C9.9368 16.9119 7.99297 16.9674 6.83294 18.1613C5.67292 19.3502 5.7304 21.2243 6.9688 22.3426C7.20917 22.5593 7.48611 22.7457 7.79441 22.8766C7.77351 23.1739 7.77351 23.4711 7.79441 23.7683C7.79441 28.3073 13.281 32 20.0478 32C26.8147 32 32.3013 28.3124 32.3013 23.7683C32.3222 23.4711 32.3222 23.1739 32.3013 22.8766C33.3568 22.3678 34.0204 21.32 33.9995 20.1814ZM12.978 22.2117C12.978 21.0933 13.9237 20.1814 15.0838 20.1814C16.2438 20.1814 17.1896 21.0933 17.1896 22.2117C17.1896 23.33 16.2438 24.2419 15.0838 24.2419C13.9185 24.2318 12.978 23.33 12.978 22.2117ZM25.1896 27.7834C23.6951 28.8665 21.8663 29.4207 19.9956 29.3451C18.1249 29.4207 16.296 28.8665 14.8016 27.7834C14.603 27.5517 14.6396 27.2041 14.88 27.0126C15.089 26.8464 15.3868 26.8464 15.6011 27.0126C16.8656 27.9043 18.4071 28.3577 19.9747 28.2872C21.5423 28.3678 23.089 27.9345 24.3692 27.0529C24.5991 26.8363 24.9753 26.8413 25.2 27.063C25.4247 27.2847 25.4195 27.6474 25.1896 27.864V27.7834ZM24.8134 24.3124C23.6533 24.3124 22.7075 23.4006 22.7075 22.2822C22.7075 21.1638 23.6533 20.252 24.8134 20.252C25.9734 20.252 26.9192 21.1638 26.9192 22.2822C26.9662 23.4006 26.0622 24.3426 24.9022 24.388C24.8656 24.388 24.8343 24.388 24.7977 24.388L24.8134 24.3124Z" fill="white"/>
</svg>
