<svg width="40" height="40" viewBox="0 0 40 40" fill="none" xmlns="http://www.w3.org/2000/svg">
<path d="M0 20C0 8.95431 8.95431 0 20 0C31.0457 0 40 8.95431 40 20C40 31.0457 31.0457 40 20 40C8.95431 40 0 31.0457 0 20Z" fill="black"/>
<path fill-rule="evenodd" clip-rule="evenodd" d="M16.4349 13.9228H12V31.9999H16.4349V13.9228ZM30.3426 14.9566C30.3426 11.1207 27.2439 8 23.4348 8H12V11.8605H22.8911C24.6149 11.8605 26.0428 13.2256 26.0744 14.9034C26.0902 15.7435 25.7773 16.5364 25.1937 17.1359C24.6097 17.7357 23.8295 18.0662 22.9968 18.0662H18.7541C18.6035 18.0662 18.4809 18.1895 18.4809 18.3414V21.7725C18.4809 21.8308 18.4988 21.8866 18.5324 21.9336L25.7307 32H31L23.785 21.906C27.4185 21.7222 30.3426 18.6448 30.3426 14.9566Z" fill="white"/>
</svg>
