<svg width="40" height="40" viewBox="0 0 40 40" fill="none" xmlns="http://www.w3.org/2000/svg">
<path d="M0 20C0 8.95431 8.95431 0 20 0C31.0457 0 40 8.95431 40 20C40 31.0457 31.0457 40 20 40C8.95431 40 0 31.0457 0 20Z" fill="#910590"/>
<path d="M5 22.3465H7.07832C7.16008 23.4357 7.81415 24.1811 8.83731 24.1811H9.61461C10.351 24.1811 11.2012 23.6708 11.2012 22.6144C11.2012 20.109 5.16411 21.6594 5.16411 17.3018C5.16411 15.3237 6.75899 14 8.61633 14H9.4422C11.3078 14 12.8133 15.1561 13.0011 17.3686H10.9476C10.8173 16.3462 10.277 15.8183 9.39363 15.8183H8.64121C7.92908 15.8183 7.25013 16.3213 7.25013 17.1675C7.25013 19.665 13.2872 17.9554 13.2872 22.5141C13.2872 24.6763 11.668 26 9.55714 26H8.73956C6.66124 26 5.10605 24.542 5 22.3465ZM13.9377 25.8657V14.1185H15.8602V20.5021L18.8385 17.4184H21.2676L18.1838 20.5774L21.5377 25.8657H19.2882L16.8011 22.078L15.8608 23.033V25.8657H13.9377ZM23.7191 21.1509V25.8688H21.7972V17.4221H23.7197V18.5866C24.0219 17.8576 24.6114 17.4215 25.3804 17.4215H26.4355V19.0726H25.2328C24.276 19.0726 23.7197 20.1704 23.7197 21.1503L23.7191 21.1509ZM27.1198 17.4221H29.0423V25.8688H27.1198V17.4221ZM30.1472 14.1185H32.0608V25.8657H30.1472V14.1185ZM33.0858 14.1185H35V25.8657H33.0864L33.0858 14.1185ZM29.1241 14.1185H27.0457V16.1967H29.1241V14.1185Z" fill="white"/>
</svg>
