<svg width="40" height="40" viewBox="0 0 40 40" fill="none" xmlns="http://www.w3.org/2000/svg">
<path d="M20 0.0996094C30.9905 0.0996094 39.9004 9.00953 39.9004 20C39.9004 30.9905 30.9905 39.9004 20 39.9004C9.00953 39.9004 0.0996094 30.9905 0.0996094 20C0.0996094 9.00953 9.00953 0.0996094 20 0.0996094Z" fill="white"/>
<path d="M20 0.0996094C30.9905 0.0996094 39.9004 9.00953 39.9004 20C39.9004 30.9905 30.9905 39.9004 20 39.9004C9.00953 39.9004 0.0996094 30.9905 0.0996094 20C0.0996094 9.00953 9.00953 0.0996094 20 0.0996094Z" stroke="#D4D4D4" stroke-width="0.2"/>
<path d="M7 10H33V22.1294C33 25.4677 31.2117 28.5526 28.3089 30.2219L20.0001 35L11.6912 30.2219C8.78824 28.5526 7 25.4677 7 22.1294L7 10Z" fill="#FFDD2D"/>
<path fill-rule="evenodd" clip-rule="evenodd" d="M14 16V20.1282C14.569 19.4907 15.6035 19.0594 16.7864 19.0594H18.0718V23.8584C18.0718 25.1351 17.7221 26.3853 17.2034 27H22.7947C22.277 26.3847 21.9282 25.136 21.9282 23.8608V19.0594H23.2137C24.3965 19.0594 25.431 19.4907 26 20.1282V16H14Z" fill="#333333"/>
</svg>
