<svg width="40" height="40" viewBox="0 0 40 40" fill="none" xmlns="http://www.w3.org/2000/svg">
<path d="M0 20C0 8.95431 8.95431 0 20 0C31.0457 0 40 8.95431 40 20C40 31.0457 31.0457 40 20 40C8.95431 40 0 31.0457 0 20Z" fill="black"/>
<path d="M28.9639 12.1176C28.778 12.0215 28.597 11.9162 28.4217 11.802C27.9117 11.4648 27.4441 11.0675 27.029 10.6187C25.9903 9.4303 25.6024 8.22465 25.4595 7.38056H25.4652C25.3459 6.67988 25.3953 6.22656 25.4027 6.22656H20.672V24.5194C20.672 24.7649 20.672 25.0077 20.6616 25.2476C20.6616 25.2774 20.6588 25.3049 20.6571 25.3371C20.6571 25.3503 20.6571 25.364 20.6542 25.3778C20.6542 25.3813 20.6542 25.3847 20.6542 25.3881C20.6043 26.0445 20.3939 26.6785 20.0415 27.2345C19.6891 27.7904 19.2055 28.2512 18.6332 28.5764C18.0367 28.9157 17.3621 29.0937 16.6758 29.0928C14.4717 29.0928 12.6853 27.2956 12.6853 25.076C12.6853 22.8564 14.4717 21.0591 16.6758 21.0591C17.093 21.0587 17.5077 21.1244 17.9044 21.2536L17.9101 16.4369C16.7059 16.2813 15.4824 16.377 14.317 16.7179C13.1515 17.0589 12.0694 17.6377 11.1388 18.4177C10.3234 19.1262 9.63796 19.9715 9.11319 20.9156C8.91348 21.26 8.16002 22.6435 8.06879 24.8889C8.01141 26.1634 8.39416 27.4838 8.57663 28.0295V28.041C8.69141 28.3624 9.13614 29.4589 9.86091 30.3834C10.4453 31.125 11.1358 31.7763 11.9101 32.3167V32.3052L11.9216 32.3167C14.2117 33.8729 16.751 33.7708 16.751 33.7708C17.1905 33.753 18.663 33.7708 20.3351 32.9783C22.1898 32.0997 23.2456 30.7908 23.2456 30.7908C23.9202 30.0087 24.4565 29.1174 24.8317 28.1552C25.2598 27.0299 25.4027 25.6802 25.4027 25.1408V15.4361C25.4601 15.4705 26.2244 15.976 26.2244 15.976C26.2244 15.976 27.3256 16.6819 29.0437 17.1415C30.2763 17.4686 31.937 17.5375 31.937 17.5375V12.8412C31.3551 12.9043 30.1736 12.7207 28.9639 12.1176Z" fill="white"/>
</svg>
