<svg width="40" height="40" viewBox="0 0 40 40" fill="none" xmlns="http://www.w3.org/2000/svg">
<path d="M20 0.0996094C30.9905 0.0996094 39.9004 9.00953 39.9004 20C39.9004 30.9905 30.9905 39.9004 20 39.9004C9.00953 39.9004 0.0996094 30.9905 0.0996094 20C0.0996094 9.00953 9.00953 0.0996094 20 0.0996094Z" fill="white"/>
<path d="M20 0.0996094C30.9905 0.0996094 39.9004 9.00953 39.9004 20C39.9004 30.9905 30.9905 39.9004 20 39.9004C9.00953 39.9004 0.0996094 30.9905 0.0996094 20C0.0996094 9.00953 9.00953 0.0996094 20 0.0996094Z" stroke="#D4D4D4" stroke-width="0.2"/>
<path d="M7.66847 22.1419C7.79102 22.4649 7.96069 22.7411 8.17751 22.9705C8.39433 23.1999 8.65119 23.3755 8.9481 23.4972C9.24505 23.6189 9.5679 23.6798 9.91668 23.6798C10.2561 23.6798 10.5742 23.6166 10.8711 23.4902C11.1681 23.3637 11.4273 23.1859 11.6488 22.9565C11.8703 22.7271 12.0423 22.4532 12.1649 22.1348C12.2875 21.8165 12.3487 21.4607 12.3487 21.0674V15H13.8334V24.8315H12.3629V23.9185C12.0329 24.265 11.6441 24.5318 11.1963 24.7191C10.7485 24.9064 10.2655 25 9.74702 25C9.21911 25 8.72659 24.9087 8.2694 24.7261C7.81223 24.5435 7.4163 24.2837 7.08168 23.9466C6.74707 23.6095 6.4831 23.2046 6.28987 22.7318C6.09661 22.2589 6 21.7322 6 21.1517V15H7.48466V21.0674C7.48466 21.4607 7.54592 21.8188 7.66847 22.1419Z" fill="#0F0F0F"/>
<path d="M16.3925 15V18.5815C16.7224 18.2537 17.1042 17.9939 17.5378 17.802C17.9714 17.61 18.4428 17.514 18.9518 17.514C19.4797 17.514 19.9745 17.6123 20.4364 17.809C20.8983 18.0056 21.2989 18.2725 21.6383 18.6095C21.9777 18.9466 22.2463 19.3446 22.4443 19.8034C22.6422 20.2622 22.7412 20.7491 22.7412 21.2641C22.7412 21.779 22.6422 22.2636 22.4443 22.7177C22.2463 23.1718 21.9777 23.5674 21.6383 23.9045C21.2989 24.2416 20.8983 24.5084 20.4364 24.705C19.9745 24.9017 19.4797 25 18.9518 25C18.4427 25 17.9691 24.904 17.5308 24.712C17.0924 24.5201 16.7083 24.2603 16.3784 23.9326V24.8314H14.9644V15H16.3925ZM16.5551 22.2331C16.6824 22.5328 16.8591 22.795 17.0854 23.0197C17.3116 23.2444 17.5755 23.4223 17.8772 23.5534C18.1788 23.6845 18.504 23.75 18.8528 23.75C19.1922 23.75 19.5127 23.6845 19.8143 23.5534C20.1159 23.4223 20.3775 23.2444 20.5991 23.0197C20.8206 22.795 20.9973 22.5328 21.1293 22.2331C21.2613 21.9335 21.3272 21.6105 21.3272 21.2641C21.3272 20.9176 21.2613 20.5922 21.1293 20.2879C20.9973 19.9836 20.8206 19.7191 20.5991 19.4944C20.3775 19.2697 20.116 19.0941 19.8143 18.9677C19.5126 18.8413 19.1922 18.7781 18.8528 18.7781C18.5135 18.7781 18.193 18.8413 17.8913 18.9677C17.5897 19.0941 17.3258 19.2697 17.0995 19.4944C16.8733 19.7191 16.6942 19.9836 16.5622 20.2879C16.4302 20.5922 16.3643 20.9176 16.3643 21.2641C16.3642 21.6105 16.4279 21.9335 16.5551 22.2331Z" fill="#0F0F0F"/>
<path d="M23.547 19.8174C23.7355 19.368 23.9948 18.9724 24.3247 18.6307C24.6546 18.2889 25.0458 18.0197 25.4983 17.8231C25.9508 17.6264 26.4409 17.5281 26.9688 17.5281C27.4873 17.5281 27.968 17.6218 28.4111 17.809C28.8541 17.9963 29.2359 18.2561 29.5564 18.5885C29.8769 18.9209 30.1267 19.3142 30.3057 19.7683C30.4849 20.2224 30.5744 20.7163 30.5744 21.2501V21.7136H24.7065C24.7536 22.0038 24.8479 22.273 24.9893 22.5211C25.1307 22.7692 25.3074 22.9846 25.5195 23.1672C25.7316 23.3498 25.972 23.4926 26.2406 23.5955C26.5093 23.6985 26.7944 23.7501 27.0961 23.7501C27.9539 23.7501 28.6468 23.3989 29.1746 22.6967L30.2068 23.4551C29.8486 23.9326 29.4056 24.3072 28.8777 24.5787C28.3498 24.8502 27.756 24.986 27.0961 24.986C26.5588 24.986 26.0569 24.8923 25.5902 24.7051C25.1236 24.5178 24.7183 24.2556 24.3742 23.9185C24.0302 23.5814 23.7592 23.1859 23.5612 22.7318C23.3633 22.2776 23.2643 21.7837 23.2643 21.25C23.2642 20.7444 23.3585 20.2669 23.547 19.8174ZM25.5336 19.2626C25.133 19.595 24.8667 20.0375 24.7348 20.5899H29.1322C29.0097 20.0375 28.7481 19.595 28.3474 19.2626C27.9468 18.9303 27.4778 18.7641 26.9406 18.7641C26.4032 18.7641 25.9343 18.9303 25.5336 19.2626Z" fill="#0F0F0F"/>
<path d="M33.2467 19.4242C32.9451 19.7519 32.7942 20.1966 32.7942 20.7584V24.8315H31.3661V17.6686H32.7801V18.5534C32.9592 18.2631 33.1925 18.0337 33.48 17.8652C33.7675 17.6966 34.1092 17.6123 34.5051 17.6123H35V18.9326H34.4061C33.9348 18.9326 33.5484 19.0964 33.2467 19.4242Z" fill="#0F0F0F"/>
</svg>
