<svg width="40" height="40" viewBox="0 0 40 40" fill="none" xmlns="http://www.w3.org/2000/svg">
<g clip-path="url(#clip0_233_45459)">
<path d="M8.66668 1.72707e-05H31.3333C32.4721 -0.0022583 33.6001 0.220358 34.6526 0.655093C35.7051 1.08983 36.6615 1.72812 37.4667 2.53335C38.2719 3.33858 38.9102 4.29489 39.3449 5.3474C39.7797 6.39992 40.0023 7.52792 40 8.66668V31.3333C40.0023 32.4721 39.7797 33.6001 39.3449 34.6526C38.9102 35.7051 38.2719 36.6615 37.4667 37.4667C36.6615 38.2719 35.7051 38.9102 34.6526 39.3449C33.6001 39.7797 32.4721 40.0023 31.3333 40H8.66668C7.52792 40.0023 6.39992 39.7797 5.3474 39.3449C4.29489 38.9102 3.33858 38.2719 2.53335 37.4667C1.72812 36.6615 1.08983 35.7051 0.655093 34.6526C0.220358 33.6001 -0.0022583 32.4721 1.72707e-05 31.3333V8.66668C0.00107725 6.36847 0.91451 4.16468 2.5396 2.5396C4.16468 0.91451 6.36847 0.00107725 8.66668 1.72707e-05Z" fill="#1E1E1F"/>
<path fill-rule="evenodd" clip-rule="evenodd" d="M8 10H32C32.53 10.0016 33.0378 10.2128 33.4125 10.5875C33.7872 10.9622 33.9984 11.47 34 12V23.3333C33.9984 23.8633 33.7872 24.3711 33.4125 24.7458C33.0378 25.1206 32.53 25.3318 32 25.3333H8C7.47004 25.3318 6.96224 25.1206 6.5875 24.7458C6.21276 24.3711 6.00155 23.8633 6 23.3333V12C6.00155 11.47 6.21276 10.9622 6.5875 10.5875C6.96224 10.2128 7.47004 10.0016 8 10Z" fill="white"/>
<path fill-rule="evenodd" clip-rule="evenodd" d="M7.33317 8.6665H32.6665C33.3731 8.66857 34.0502 8.95019 34.5498 9.44984C35.0495 9.94949 35.3311 10.6266 35.3332 11.3332V28.6665C35.3311 29.3731 35.0495 30.0502 34.5498 30.5498C34.0502 31.0495 33.3731 31.3311 32.6665 31.3332H7.33317C6.62656 31.3311 5.94949 31.0495 5.44984 30.5498C4.95019 30.0502 4.66857 29.3731 4.6665 28.6665V11.3332C4.66857 10.6266 4.95019 9.94949 5.44984 9.44984C5.94949 8.95019 6.62656 8.66857 7.33317 8.6665Z" fill="#D9D6CC"/>
<path fill-rule="evenodd" clip-rule="evenodd" d="M8 10H32C32.53 10.0016 33.0378 10.2128 33.4125 10.5875C33.7872 10.9622 33.9984 11.47 34 12V23.3333C33.9984 23.8633 33.7872 24.3711 33.4125 24.7458C33.0378 25.1206 32.53 25.3318 32 25.3333H8C7.47004 25.3318 6.96224 25.1206 6.5875 24.7458C6.21276 24.3711 6.00155 23.8633 6 23.3333V12C6.00155 11.47 6.21276 10.9622 6.5875 10.5875C6.96224 10.2128 7.47004 10.0016 8 10Z" fill="#3B99C9"/>
<path fill-rule="evenodd" clip-rule="evenodd" d="M8 12.3335H32C32.53 12.335 33.0378 12.5463 33.4125 12.921C33.7872 13.2957 33.9984 13.8035 34 14.3335V18.3335C33.9984 18.8635 33.7872 19.3713 33.4125 19.746C33.0378 20.1207 32.53 20.3319 32 20.3335H8C7.47004 20.3319 6.96224 20.1207 6.5875 19.746C6.21276 19.3713 6.00155 18.8635 6 18.3335V14.3335C6.00155 13.8035 6.21276 13.2957 6.5875 12.921C6.96224 12.5463 7.47004 12.335 8 12.3335Z" fill="black"/>
<path fill-rule="evenodd" clip-rule="evenodd" d="M8 12.3335H32C32.53 12.335 33.0378 12.5463 33.4125 12.921C33.7872 13.2957 33.9984 13.8035 34 14.3335V18.3335C33.9984 18.8635 33.7872 19.3713 33.4125 19.746C33.0378 20.1207 32.53 20.3319 32 20.3335H8C7.47004 20.3319 6.96224 20.1207 6.5875 19.746C6.21276 19.3713 6.00155 18.8635 6 18.3335V14.3335C6.00155 13.8035 6.21276 13.2957 6.5875 12.921C6.96224 12.5463 7.47004 12.335 8 12.3335Z" fill="#FFB003"/>
<path fill-rule="evenodd" clip-rule="evenodd" d="M8 14.6665H32C32.53 14.6681 33.0378 14.8793 33.4125 15.254C33.7872 15.6287 33.9984 16.1365 34 16.6665V20.6665C33.9984 21.1965 33.7872 21.7043 33.4125 22.079C33.0378 22.4537 32.53 22.665 32 22.6665H8C7.47004 22.665 6.96224 22.4537 6.5875 22.079C6.21276 21.7043 6.00155 21.1965 6 20.6665V16.6665C6.00155 16.1365 6.21276 15.6287 6.5875 15.254C6.96224 14.8793 7.47004 14.6681 8 14.6665Z" fill="black"/>
<path fill-rule="evenodd" clip-rule="evenodd" d="M8 14.6665H32C32.53 14.6681 33.0378 14.8793 33.4125 15.254C33.7872 15.6287 33.9984 16.1365 34 16.6665V20.6665C33.9984 21.1965 33.7872 21.7043 33.4125 22.079C33.0378 22.4537 32.53 22.665 32 22.6665H8C7.47004 22.665 6.96224 22.4537 6.5875 22.079C6.21276 21.7043 6.00155 21.1965 6 20.6665V16.6665C6.00155 16.1365 6.21276 15.6287 6.5875 15.254C6.96224 14.8793 7.47004 14.6681 8 14.6665Z" fill="#50BE3D"/>
<path fill-rule="evenodd" clip-rule="evenodd" d="M8 17H32C32.53 17.0016 33.0378 17.2128 33.4125 17.5875C33.7872 17.9622 33.9984 18.47 34 19V23C33.9984 23.53 33.7872 24.0378 33.4125 24.4125C33.0378 24.7872 32.53 24.9984 32 25H8C7.47004 24.9984 6.96224 24.7872 6.5875 24.4125C6.21276 24.0378 6.00155 23.53 6 23V19C6.00155 18.47 6.21276 17.9622 6.5875 17.5875C6.96224 17.2128 7.47004 17.0016 8 17Z" fill="black"/>
<path fill-rule="evenodd" clip-rule="evenodd" d="M8 17H32C32.53 17.0016 33.0378 17.2128 33.4125 17.5875C33.7872 17.9622 33.9984 18.47 34 19V23C33.9984 23.53 33.7872 24.0378 33.4125 24.4125C33.0378 24.7872 32.53 24.9984 32 25H8C7.47004 24.9984 6.96224 24.7872 6.5875 24.4125C6.21276 24.0378 6.00155 23.53 6 23V19C6.00155 18.47 6.21276 17.9622 6.5875 17.5875C6.96224 17.2128 7.47004 17.0016 8 17Z" fill="#F26D5F"/>
<path fill-rule="evenodd" clip-rule="evenodd" d="M4.6665 19.3335H35.3332V28.6668C35.3311 29.3734 35.0495 30.0505 34.5498 30.5502C34.0502 31.0498 33.3731 31.3314 32.6665 31.3335H7.33317C6.62656 31.3314 5.94949 31.0498 5.44984 30.5502C4.95019 30.0505 4.66857 29.3734 4.6665 28.6668V19.3335ZM13.6665 19.3335C16.6665 19.3335 16.9998 23.1668 19.9998 23.1668C22.9998 23.1668 23.3332 19.3335 26.3332 19.3335H13.6665Z" fill="black"/>
<path fill-rule="evenodd" clip-rule="evenodd" d="M4.6665 19.3335H35.3332V28.6668C35.3311 29.3734 35.0495 30.0505 34.5498 30.5502C34.0502 31.0498 33.3731 31.3314 32.6665 31.3335H7.33317C6.62656 31.3314 5.94949 31.0498 5.44984 30.5502C4.95019 30.0505 4.66857 29.3734 4.6665 28.6668V19.3335ZM13.6665 19.3335C16.6665 19.3335 16.9998 23.1668 19.9998 23.1668C22.9998 23.1668 23.3332 19.3335 26.3332 19.3335H13.6665Z" fill="#D9D6CC"/>
</g>
<defs>
<clipPath id="clip0_233_45459">
<path d="M0 20C0 8.95431 8.95431 0 20 0C31.0457 0 40 8.95431 40 20C40 31.0457 31.0457 40 20 40C8.95431 40 0 31.0457 0 20Z" fill="white"/>
</clipPath>
</defs>
</svg>
