<svg width="24" height="24" viewBox="0 0 24 24" fill="none" xmlns="http://www.w3.org/2000/svg">
<path fill-rule="evenodd" clip-rule="evenodd" d="M21.4702 1.46901C21.7601 1.17944 22.2398 1.17944 22.5298 1.46901C22.8198 1.75901 22.8198 2.23956 22.5298 2.52956L15.0639 9.9944C15.0624 9.99601 15.0616 9.99866 15.06 10.0003L2.52976 22.5305C2.37976 22.6805 2.18948 22.7503 1.99948 22.7503C1.80965 22.7502 1.62006 22.6804 1.47019 22.5305C1.18019 22.2405 1.18019 21.761 1.47019 21.471L4.84421 18.095C3.88124 17.2293 3.01133 16.191 2.26022 15.0003C1.20028 13.3503 1.20024 10.6603 2.26022 9.00026C4.70022 5.18039 8.25052 2.98073 12.0005 2.98073C14.089 2.98081 16.1499 3.66631 17.979 4.95924L21.4702 1.46901ZM12.0005 4.48073C8.77045 4.48073 5.67999 6.4208 3.51999 9.81081C2.77017 10.9809 2.77005 13.0208 3.51999 14.1907C4.22336 15.2879 5.02537 16.2424 5.90573 17.0335L8.45554 14.4837C7.94494 13.7589 7.67046 12.8981 7.67038 12.0003C7.67038 9.61041 9.60968 7.67039 11.9995 7.67018C12.8975 7.67018 13.759 7.94465 14.4839 8.45534L16.9008 6.03737C15.3794 5.01512 13.6944 4.48081 12.0005 4.48073ZM11.9995 9.17018C10.4397 9.17039 9.17038 10.4404 9.17038 12.0003C9.17044 12.5 9.2997 12.9799 9.53952 13.3997L13.3999 9.5403C12.9799 9.3003 12.4995 9.17018 11.9995 9.17018Z" fill="currentColor"/>
<path d="M19.5698 7.34987C19.8898 7.08987 20.3603 7.12926 20.6303 7.45924C21.0203 7.93915 21.3998 8.45939 21.7397 8.99928C22.7997 10.6493 22.7997 13.3393 21.7397 14.9993C19.2998 18.8191 15.7503 21.0196 12.0005 21.0198C10.6705 21.0198 9.3696 20.749 8.1196 20.219C7.73997 20.0588 7.56026 19.6193 7.72019 19.2395C7.88013 18.8597 8.31979 18.6794 8.69968 18.8391C9.75957 19.2891 10.8698 19.5197 11.9897 19.5198C15.2197 19.5198 18.3102 17.5796 20.4702 14.1897C21.2201 13.0198 21.22 10.9799 20.4702 9.80983C20.1602 9.31988 19.8204 8.8494 19.4604 8.40944C19.2005 8.08955 19.2501 7.61992 19.5698 7.34987Z" fill="currentColor"/>
<path d="M15.6499 11.97C16.0597 12.05 16.3302 12.44 16.2505 12.8499C15.9305 14.5797 14.5503 15.9496 12.8305 16.2698C12.7805 16.2598 12.7399 16.2698 12.6899 16.2698C12.34 16.2697 12.0197 16.0203 11.9497 15.6604C11.8697 15.2504 12.1403 14.8603 12.5503 14.7903C13.6501 14.5903 14.5699 13.6704 14.77 12.5706C14.85 12.1607 15.24 11.9001 15.6499 11.97Z" fill="currentColor"/>
</svg>
