<svg width="24" height="24" viewBox="0 0 24 24" fill="none" xmlns="http://www.w3.org/2000/svg">
<path d="M6.19043 13.0296C6.4804 12.7401 6.96012 12.7399 7.25 13.0296C7.54 13.3196 7.54 13.8001 7.25 14.0901L4.81934 16.5198H21C21.41 16.5198 21.75 16.8598 21.75 17.2698C21.7498 17.6797 21.4099 18.0198 21 18.0198H4.7998L7.25 20.47C7.53988 20.7599 7.53977 21.2396 7.25 21.5296C7.11 21.6796 6.91973 21.7503 6.71973 21.7503C6.52981 21.7502 6.34036 21.6795 6.19043 21.5296L2.46973 17.8098C2.35565 17.6957 2.28423 17.5479 2.26074 17.389C2.25537 17.3563 2.25188 17.3232 2.25098 17.2893C2.25094 17.2862 2.25 17.2827 2.25 17.2796V17.2698C2.25 17.0442 2.35474 16.8416 2.51562 16.7034L6.19043 13.0296Z" fill="currentColor"/>
<path d="M16.75 2.47977C17.0399 2.19022 17.5197 2.19016 17.8096 2.47977L21.5303 6.20047C21.6375 6.30789 21.7087 6.44492 21.7363 6.59305C21.7448 6.63772 21.75 6.68385 21.75 6.73075C21.75 6.7778 21.7439 6.82364 21.7354 6.86844C21.7075 7.01613 21.6373 7.15292 21.5303 7.26004L17.8096 10.9798C17.6597 11.1197 17.4701 11.2003 17.2803 11.2005C17.0903 11.2005 16.9 11.1298 16.75 10.9798C16.4601 10.6898 16.46 10.2102 16.75 9.9202L19.1885 7.48075H3C2.59009 7.48075 2.25016 7.14062 2.25 6.73075C2.25 6.32075 2.59 5.98075 3 5.98075H19.1904L16.75 3.54032C16.46 3.25032 16.46 2.76977 16.75 2.47977Z" fill="currentColor"/>
</svg>
