<svg width="24" height="24" viewBox="0 0 24 24" fill="none" xmlns="http://www.w3.org/2000/svg">
<path fill-rule="evenodd" clip-rule="evenodd" d="M17.8301 14.2401C18.11 14.2402 18.33 14.4602 18.3301 14.7401V17.9999C18.3301 20.2099 16.54 21.9999 14.3301 21.9999H6C3.79 21.9999 2 20.2099 2 17.9999V14.7401C2.00003 14.4602 2.22002 14.2401 2.5 14.2401H17.8301ZM6.7998 17.7499C6.39001 17.7501 6.04997 18.0901 6.0498 18.4999C6.0498 18.9098 6.38991 19.2498 6.7998 19.2499H9.68945C10.0994 19.2499 10.4395 18.9099 10.4395 18.4999C10.4393 18.09 10.0993 17.7499 9.68945 17.7499H6.7998Z" fill="currentColor"/>
<path d="M14.3301 7.99992C16.54 7.99996 18.33 9.78998 18.3301 11.9999V12.2401C18.33 12.5201 18.11 12.7401 17.8301 12.7401H2.5C2.22005 12.7401 2.00008 12.5201 2 12.2401V11.9999C2.00005 9.78996 3.79003 7.99992 6 7.99992H14.3301Z" fill="currentColor"/>
<path d="M16.8184 4.47648C18.3211 3.98913 19.9454 4.81402 20.4336 6.31925C20.5609 6.71304 20.3449 7.13588 19.9512 7.26359C19.5573 7.39115 19.1347 7.17489 19.0068 6.78117C18.7749 6.06666 17.9983 5.67078 17.2812 5.90324C16.8874 6.03079 16.4638 5.81551 16.3359 5.42179C16.2082 5.02788 16.4245 4.60438 16.8184 4.47648Z" fill="currentColor"/>
<path d="M16.5566 1.67667C17.8154 1.26494 19.1926 1.37057 20.3711 1.9716C21.5483 2.57207 22.4412 3.61929 22.8525 4.87687C22.9812 5.27047 22.7666 5.6934 22.373 5.82218C21.9794 5.95093 21.5555 5.73636 21.4268 5.34269C21.1381 4.46056 20.512 3.72702 19.6895 3.30753C18.8681 2.88862 17.9045 2.81433 17.0234 3.10245C16.6298 3.23122 16.206 3.0166 16.0771 2.62296C15.9484 2.22934 16.1631 1.8055 16.5566 1.67667Z" fill="currentColor"/>
</svg>
