<svg width="24" height="24" viewBox="0 0 24 24" fill="none" xmlns="http://www.w3.org/2000/svg">
<path d="M11.47 2.97C11.76 2.68016 12.2406 2.68005 12.5305 2.97L18.5999 9.04031C18.8899 9.33031 18.8899 9.81089 18.5999 10.1009C18.46 10.2505 18.2603 10.3205 18.0706 10.3206C17.8807 10.3206 17.6902 10.2506 17.5403 10.1009L12.7503 5.31082V20.5003C12.7501 20.91 12.41 21.2501 12.0003 21.2503C11.5904 21.2503 11.2505 20.9101 11.2503 20.5003V5.31082L6.46022 10.1009C6.17021 10.3907 5.68962 10.3908 5.39967 10.1009C5.10972 9.81094 5.10983 9.33032 5.39967 9.04031L11.47 2.97Z" fill="currentColor"/>
</svg>
