<svg width="24" height="24" viewBox="0 0 24 24" fill="none" xmlns="http://www.w3.org/2000/svg">
<path fill-rule="evenodd" clip-rule="evenodd" d="M15 1.25C15.41 1.25 15.75 1.59 15.75 2V3.75H16.5C17.2497 3.75 17.7996 3.77966 18.2695 3.84961C21.5995 4.21961 22.25 6.2 22.25 9.5V14.5C22.25 17.7999 21.5901 19.7901 18.2402 20.1602C17.8002 20.2202 17.25 20.25 16.5 20.25H15.75V22C15.75 22.41 15.41 22.75 15 22.75C14.59 22.75 14.25 22.41 14.25 22V2C14.25 1.59 14.59 1.25 15 1.25ZM15.75 18.75H16.5C17.1799 18.75 17.6598 18.7199 18.0498 18.6699C20.0798 18.4499 20.75 17.81 20.75 14.5V9.5C20.75 6.19005 20.08 5.56009 18.0801 5.33008C17.6601 5.27008 17.18 5.25 16.5 5.25H15.75V18.75Z" fill="currentColor"/>
<path d="M10.96 3.75C11.37 3.75 11.71 4.09 11.71 4.5C11.71 4.91 11.37 5.25 10.96 5.25H7.5C6.82011 5.25 6.34016 5.28009 5.9502 5.33008C3.9202 5.55008 3.25 6.19 3.25 9.5V14.5C3.25 17.81 3.91999 18.4399 5.91992 18.6699C6.33992 18.7299 6.82 18.75 7.5 18.75H11.0195C11.4295 18.75 11.7695 19.09 11.7695 19.5C11.7695 19.91 11.4295 20.25 11.0195 20.25H7.5C6.75027 20.25 6.20036 20.2203 5.73047 20.1504C2.40047 19.7804 1.75 17.8 1.75 14.5V9.5C1.75 6.20007 2.40995 4.20991 5.75977 3.83984C6.19977 3.77984 6.75 3.75 7.5 3.75H10.96Z" fill="currentColor"/>
<path d="M5.99023 11.2891C6.36028 10.9193 7.03023 10.9191 7.41016 11.2891C7.5901 11.479 7.70015 11.7391 7.7002 11.999C7.7002 12.1289 7.67004 12.259 7.62012 12.3789C7.57015 12.4988 7.50006 12.609 7.41016 12.709C7.31021 12.7989 7.2 12.869 7.08008 12.9189C6.96015 12.9689 6.83011 12.999 6.7002 12.999C6.57028 12.999 6.44025 12.9689 6.32031 12.9189C6.20033 12.869 6.09022 12.799 5.99023 12.709C5.90023 12.609 5.81953 12.4989 5.76953 12.3789C5.71965 12.259 5.7002 12.1289 5.7002 11.999C5.70024 11.7391 5.81027 11.479 5.99023 11.2891Z" fill="currentColor"/>
<path d="M9.99023 11.2891C10.3603 10.9193 11.0402 10.9191 11.4102 11.2891C11.5901 11.479 11.7001 11.7391 11.7002 11.999C11.7002 12.1289 11.67 12.259 11.6201 12.3789C11.5701 12.4988 11.5001 12.609 11.4102 12.709C11.3102 12.7989 11.2 12.8689 11.0801 12.9189C10.9601 12.9689 10.8301 12.999 10.7002 12.999C10.5703 12.999 10.4403 12.9689 10.3203 12.9189C10.2003 12.869 10.0903 12.799 9.99023 12.709C9.90023 12.609 9.82953 12.4989 9.76953 12.3789C9.72959 12.259 9.7002 12.1289 9.7002 11.999C9.70024 11.7391 9.81027 11.479 9.99023 11.2891Z" fill="currentColor"/>
</svg>
