<svg width="24" height="24" viewBox="0 0 24 24" fill="none" xmlns="http://www.w3.org/2000/svg">
<g clip-path="url(#clip0_6038_31769)">
<path d="M14.2901 23.1013C13.9897 23.4017 13.5085 23.408 13.2156 23.1151C12.9228 22.8222 12.9291 22.3411 13.2295 22.0407L22.0407 13.2295C22.3411 12.9291 22.8222 12.9228 23.1151 13.2156C23.408 13.5085 23.4017 13.9897 23.1013 14.2901L14.2901 23.1013Z" fill="currentColor"/>
<path d="M17.8256 23.8084C17.5252 24.1088 17.0441 24.1151 16.7512 23.8222C16.4583 23.5294 16.4646 23.0482 16.765 22.7478L22.7478 16.765C23.0482 16.4646 23.5294 16.4583 23.8222 16.7512C24.1151 17.0441 24.1088 17.5252 23.8084 17.8256L17.8256 23.8084Z" fill="currentColor"/>
</g>
<defs>
<clipPath id="clip0_6038_31769">
<rect width="24" height="24" fill="white"/>
</clipPath>
</defs>
</svg>
