<svg width="24" height="24" viewBox="0 0 24 24" fill="none" xmlns="http://www.w3.org/2000/svg">
<path d="M10.5205 22.75H10.5098L10.5146 22.749L10.5205 22.75Z" fill="currentColor"/>
<path fill-rule="evenodd" clip-rule="evenodd" d="M19.4004 1.25C20.9203 1.25016 22.1504 2.4801 22.1504 4V5.87988C22.1504 6.60988 21.8598 7.31031 21.3398 7.82031L16.04 13.1201C15.8001 13.3601 15.6699 13.67 15.6699 14V19.79C15.6699 20.81 14.9802 21.7004 13.9902 21.9404L11.0498 22.6797C10.8714 22.7193 10.6931 22.7485 10.5146 22.749C10.0266 22.7478 9.54868 22.589 9.16016 22.2803C8.62023 21.8603 8.31063 21.2202 8.31055 20.5303V14.0098C8.31049 13.6799 8.18029 13.3598 7.94043 13.1299L2.63965 7.82031C2.11969 7.30032 1.83008 6.60986 1.83008 5.87988V4C1.83008 2.48 3.06008 1.25 4.58008 1.25H19.4004ZM4.58984 2.75C3.89995 2.75013 3.33984 3.31008 3.33984 4V5.87988C3.33984 6.2098 3.47007 6.52978 3.70996 6.75977L9.00977 12.0596C9.52977 12.5796 9.82031 13.27 9.82031 14V20.5195C9.82031 20.7395 9.92057 20.9498 10.1006 21.0898C10.2805 21.2297 10.4999 21.2796 10.7197 21.2197L13.6602 20.4805C13.9801 20.4005 14.2098 20.1102 14.21 19.7803V13.9902C14.21 13.2602 14.5005 12.5598 15.0205 12.0498L20.3203 6.75C20.5602 6.51004 20.6904 6.20002 20.6904 5.87012V3.99023C20.6904 3.30034 20.1303 2.74041 19.4404 2.74023H4.58984V2.75Z" fill="currentColor"/>
</svg>
