<svg width="24" height="24" viewBox="0 0 24 24" fill="none" xmlns="http://www.w3.org/2000/svg">
<path fill-rule="evenodd" clip-rule="evenodd" d="M13.96 3.77383C14.24 3.65863 14.5603 3.72555 14.7803 3.92715L22.2803 11.0502C22.4202 11.1846 22.5 11.3671 22.5 11.559C22.5 11.7509 22.4202 11.9334 22.2803 12.0678L14.7803 19.3441C14.5703 19.5553 14.2399 19.6138 13.96 19.5082C13.68 19.393 13.5 19.1331 13.5 18.8451V15.6195C11.47 15.5715 5.38992 15.9465 2.91992 20.6889C2.78987 20.9191 2.52989 21.0727 2.25 21.0727C2.19003 21.0727 2.13007 21.0627 2.08008 21.0531C1.74019 20.9764 1.50016 20.6888 1.5 20.3529V16.2533C1.50002 13.1046 2.90964 10.7715 5.68945 9.33145C7.64945 8.31385 10.27 7.76681 13.5 7.69961V4.43594C13.5 4.148 13.6801 3.87948 13.96 3.77383ZM14.9902 8.41055C14.9901 8.60241 14.9094 8.78502 14.7695 8.91934C14.6296 9.05343 14.4399 9.13021 14.2402 9.13027C14.2402 9.13027 14.24 9.13027 14.2305 9.13027C10.9206 9.13027 8.29037 9.62952 6.40039 10.599C4.11041 11.7894 2.99025 13.6326 2.99023 16.2533V17.9906C6.99028 13.5942 13.9806 14.1698 14.3105 14.1986C14.6904 14.2372 14.9902 14.5451 14.9902 14.9193V17.0883L20.6797 11.5688L14.9902 6.16348V8.41055Z" fill="currentColor"/>
</svg>
