<svg width="24" height="24" viewBox="0 0 24 24" fill="none" xmlns="http://www.w3.org/2000/svg">
<path fill-rule="evenodd" clip-rule="evenodd" d="M16.1904 2C19.83 2.00017 22.0001 4.16997 21.9902 7.80957V16.1904C21.9901 19.8302 19.8195 22 16.1797 22H7.80957C4.16983 21.9998 2 19.8295 2 16.1797V7.80957C2.00017 4.16997 4.16997 2.00017 7.80957 2H16.1904ZM15.9004 7.24023C15.4804 7.19023 15.1201 7.50016 15.0801 7.91016C15.0402 8.3201 15.34 8.69047 15.75 8.73047C16.36 8.79048 16.9401 9.07028 17.3701 9.53027C18.4299 10.6302 18.4299 12.4399 17.3701 13.5498L15.1797 15.8496C14.1797 16.8996 12.4402 16.8896 11.4502 15.8496C10.3903 14.7496 10.3902 12.94 11.4502 11.8301L12.54 10.6797C12.8199 10.3797 12.8097 9.91006 12.5098 9.62012C12.2098 9.34018 11.7402 9.35041 11.4502 9.65039L10.3604 10.7998C8.76035 12.4798 8.76036 15.2096 10.3604 16.8896C11.1403 17.7195 12.1897 18.1698 13.3096 18.1699C14.4296 18.1699 15.4798 17.7096 16.2598 16.8896L18.4502 14.5898C20.05 12.9098 20.0499 10.1699 18.46 8.5C17.7801 7.78011 16.8702 7.34032 15.9004 7.24023ZM10.6904 5.83984C9.57046 5.83984 8.52023 6.30015 7.74023 7.12012L5.5498 9.41992C3.94993 11.0999 3.95003 13.8298 5.5498 15.5098C6.2298 16.2298 7.14035 16.6795 8.11035 16.7695H8.17969C8.55969 16.7695 8.88992 16.4796 8.91992 16.0996C8.9597 15.6898 8.65986 15.3203 8.25 15.2803C7.64008 15.2203 7.05986 14.9404 6.62988 14.4805C5.5699 13.3805 5.56992 11.57 6.62988 10.46L8.82031 8.16016C9.82032 7.12024 11.5598 7.1202 12.5498 8.16016C13.6098 9.26013 13.6097 11.0697 12.5498 12.1797L11.46 13.3301C11.18 13.6301 11.1903 14.0997 11.4902 14.3896C11.7901 14.6696 12.2598 14.6601 12.5498 14.3604L13.6396 13.21C15.2396 11.53 15.2396 8.80012 13.6396 7.12012C12.8598 6.2903 11.8102 5.83996 10.6904 5.83984Z" fill="currentColor"/>
</svg>
