<svg width="24" height="24" viewBox="0 0 24 24" fill="none" xmlns="http://www.w3.org/2000/svg">
<path d="M9.04032 5.39969C9.33028 5.11016 9.81004 5.11004 10.0999 5.39969C10.3899 5.68969 10.3899 6.17023 10.0999 6.46023L5.30985 11.2503H20.5003C20.9101 11.2505 21.2503 11.5904 21.2503 12.0003C21.2501 12.41 20.91 12.7501 20.5003 12.7503H5.30985L10.0999 17.5403C10.3897 17.8303 10.3898 18.3099 10.0999 18.5999C9.95993 18.7499 9.75961 18.8196 9.56961 18.8196C9.37976 18.8195 9.19022 18.7497 9.04032 18.5999L2.97 12.5305C2.68 12.2405 2.68 11.76 2.97 11.47L9.04032 5.39969Z" fill="currentColor"/>
</svg>
