<svg width="24" height="24" viewBox="0 0 24 24" fill="none" xmlns="http://www.w3.org/2000/svg">
<path d="M6.85394 10.1204C6.85394 11.1846 5.9912 12.0473 4.92697 12.0473C3.86273 12.0473 3 11.1846 3 10.1204C3 9.05614 3.86273 8.19341 4.92697 8.19341C5.9912 8.19341 6.85394 9.05614 6.85394 10.1204Z" fill="currentColor"/>
<path d="M21 10.1204C21 11.1846 20.1373 12.0473 19.073 12.0473C18.0088 12.0473 17.1461 11.1846 17.1461 10.1204C17.1461 9.05614 18.0088 8.19341 19.073 8.19341C20.1373 8.19341 21 9.05614 21 10.1204Z" fill="currentColor"/>
<path d="M15.0546 6.0496C15.0546 7.73385 13.6893 9.0992 12.005 9.0992C10.3208 9.0992 8.95545 7.73385 8.95545 6.0496C8.95545 4.36535 10.3208 3 12.005 3C13.6893 3 15.0546 4.36535 15.0546 6.0496Z" fill="currentColor"/>
<path d="M11.0238 13.7809C11.0238 14.5479 10.402 15.1696 9.635 15.1696C8.86801 15.1696 8.24625 14.5479 8.24625 13.7809C8.24625 13.0139 8.86801 12.3921 9.635 12.3921C10.402 12.3921 11.0238 13.0139 11.0238 13.7809Z" fill="currentColor"/>
<path d="M15.7638 13.7809C15.7638 14.5479 15.1421 15.1696 14.3751 15.1696C13.6081 15.1696 12.9863 14.5479 12.9863 13.7809C12.9863 13.0139 13.6081 12.3921 14.3751 12.3921C15.1421 12.3921 15.7638 13.0139 15.7638 13.7809Z" fill="currentColor"/>
<path d="M8.9401 18.8705C8.9401 20.0466 7.98669 21 6.8106 21C5.63451 21 4.68111 20.0466 4.68111 18.8705C4.68111 17.6944 5.63451 16.741 6.8106 16.741C7.98669 16.741 8.9401 17.6944 8.9401 18.8705Z" fill="currentColor"/>
<path d="M19.329 18.8705C19.329 20.0466 18.3756 21 17.1995 21C16.0234 21 15.07 20.0466 15.07 18.8705C15.07 17.6944 16.0234 16.741 17.1995 16.741C18.3756 16.741 19.329 17.6944 19.329 18.8705Z" fill="currentColor"/>
</svg>
