<svg width="24" height="24" viewBox="0 0 24 24" fill="none" xmlns="http://www.w3.org/2000/svg">
<path fill-rule="evenodd" clip-rule="evenodd" d="M14.4004 1.26008C15.2903 1.18008 16.1708 1.4895 16.8008 2.11946L21.8808 7.19953C22.5108 7.82953 22.8302 8.70993 22.7402 9.59993C22.6502 10.4898 22.1708 11.2904 21.4209 11.7904L17.9502 14.0999C17.4803 14.4099 17.1505 14.8801 17.0205 15.43L15.5508 21.3294C15.3908 21.9794 14.8802 22.5 14.2402 22.68C14.0803 22.73 13.9101 22.7503 13.7402 22.7503H13.7304C13.2404 22.7503 12.7601 22.5595 12.4101 22.1995L7.63474 17.4241L2.53025 22.5296C2.38025 22.6796 2.18997 22.7503 1.99997 22.7503C1.81013 22.7502 1.62055 22.6795 1.47067 22.5296C1.1808 22.2396 1.18072 21.76 1.47067 21.47L6.57517 16.3646L1.80075 11.5902C1.32075 11.1202 1.14028 10.4198 1.32028 9.76985C1.5003 9.11987 2.01089 8.62027 2.67087 8.46028L8.57028 6.97981C9.11016 6.83984 9.59035 6.51018 9.90036 6.04036L12.2099 2.56965C12.7099 1.81967 13.5104 1.3401 14.4004 1.26008ZM14.5302 2.75032C14.0904 2.79036 13.6904 3.02986 13.4404 3.39973L11.1308 6.86946C10.6109 7.64934 9.8307 8.19994 8.92087 8.43L3.02048 9.9095C2.89048 9.9395 2.79071 10.0402 2.76071 10.1702C2.72084 10.3001 2.76067 10.4297 2.85056 10.5296L8.11716 15.8021C8.13162 15.8144 8.14647 15.8265 8.16013 15.8402C8.17653 15.8566 8.19246 15.8734 8.207 15.8909L13.4599 21.1497C13.5499 21.2397 13.6903 21.2796 13.8203 21.2396C13.9502 21.1996 14.05 21.0999 14.08 20.97L15.5508 15.0697C15.7808 14.1598 16.3304 13.3796 17.1103 12.8597L20.58 10.5501C20.95 10.3002 21.1904 9.91014 21.2304 9.46028C21.2704 9.02034 21.1207 8.57984 20.8008 8.26985L15.7304 3.18C15.4505 2.90006 15.0706 2.75038 14.6806 2.75032C14.6806 2.75032 14.5802 2.75032 14.5302 2.75032Z" fill="currentColor"/>
</svg>
