<svg width="24" height="24" viewBox="0 0 24 24" fill="none" xmlns="http://www.w3.org/2000/svg">
<path d="M12 17.9199C12.41 17.9199 12.7499 18.26 12.75 18.6699V22C12.75 22.41 12.41 22.75 12 22.75C11.59 22.75 11.25 22.41 11.25 22V18.6699C11.2501 18.26 11.59 17.9199 12 17.9199Z" fill="currentColor"/>
<path d="M7.04004 15.9004C7.33004 15.6104 7.81059 15.6104 8.10059 15.9004C8.39007 16.1904 8.39019 16.6701 8.10059 16.96L5.45996 19.5996C5.30996 19.7496 5.11969 19.8203 4.92969 19.8203C4.73983 19.8202 4.55028 19.7495 4.40039 19.5996C4.11045 19.3096 4.11041 18.83 4.40039 18.54L7.04004 15.9004Z" fill="currentColor"/>
<path d="M16.7705 16.7695C17.0604 16.48 17.5402 16.4799 17.8301 16.7695L19.6006 18.54C19.8902 18.8299 19.8901 19.3096 19.6006 19.5996C19.4506 19.7496 19.2603 19.8203 19.0703 19.8203C18.8803 19.8203 18.69 19.7496 18.54 19.5996L16.7705 17.8301C16.4805 17.5401 16.4805 17.0595 16.7705 16.7695Z" fill="currentColor"/>
<path d="M5.75977 11.25C6.16977 11.25 6.50977 11.59 6.50977 12C6.50977 12.41 6.16977 12.75 5.75977 12.75H2C1.59 12.75 1.25 12.41 1.25 12C1.25 11.59 1.59 11.25 2 11.25H5.75977Z" fill="currentColor"/>
<path d="M22 11.25C22.41 11.25 22.75 11.59 22.75 12C22.75 12.41 22.41 12.75 22 12.75H20.3301C19.9201 12.75 19.5801 12.41 19.5801 12C19.5801 11.59 19.9201 11.25 20.3301 11.25H22Z" fill="currentColor"/>
<path d="M4.41016 4.41016C4.70016 4.12022 5.17975 4.12018 5.46973 4.41016L8.11035 7.0498C8.4002 7.3398 8.40025 7.82039 8.11035 8.11035C7.9604 8.2603 7.77001 8.33003 7.58008 8.33008C7.39013 8.33008 7.19978 8.26026 7.0498 8.11035L4.41016 5.46973C4.12016 5.17973 4.12016 4.70016 4.41016 4.41016Z" fill="currentColor"/>
<path d="M12 1.25C12.41 1.25 12.75 1.59 12.75 2V5.75977C12.75 6.16977 12.41 6.50977 12 6.50977C11.59 6.50977 11.25 6.16977 11.25 5.75977V2C11.25 1.59 11.59 1.25 12 1.25Z" fill="currentColor"/>
<path d="M18.54 4.40039C18.83 4.11039 19.3096 4.11039 19.5996 4.40039C19.8896 4.6904 19.8896 5.16998 19.5996 5.45996L19.0098 6.0498C18.8598 6.1998 18.6695 6.26953 18.4795 6.26953C18.2896 6.26943 18.1001 6.19966 17.9502 6.0498C17.6602 5.7598 17.6602 5.28023 17.9502 4.99023L18.54 4.40039Z" fill="currentColor"/>
</svg>
