<svg width="24" height="24" viewBox="0 0 24 24" fill="none" xmlns="http://www.w3.org/2000/svg">
<path d="M8.2998 15.75C8.7398 16.39 9 17.16 9 18C9 18.7499 8.78982 19.4596 8.41992 20.0596C7.72992 21.2196 6.46 22 5 22C4.16 22 3.39 21.7398 2.75 21.2998C2.75997 21.2899 2.77031 21.2902 2.78027 21.2803L8.28027 15.7803C8.29024 15.7703 8.2899 15.76 8.2998 15.75Z" fill="currentColor"/>
<path d="M5 14C5.84 14 6.61023 14.2602 7.24023 14.7002C7.23027 14.7102 7.21992 14.7098 7.20996 14.7197L1.70996 20.2197C1.70996 20.2197 1.7102 20.2302 1.7002 20.2402C1.6602 20.1802 1.62008 20.1196 1.58008 20.0596C1.21018 19.4596 1 18.7499 1 18C1 15.79 2.79 14 5 14Z" fill="currentColor"/>
<path fill-rule="evenodd" clip-rule="evenodd" d="M17 4C20 4 22 5.5 22 9V15.0098C22 18.5098 20 20.0098 17 20.0098H10.8096C10.4898 20.0095 10.2404 19.72 10.3203 19.4102C10.4303 19.0102 10.49 18.5997 10.5 18.1797C10.5698 15.5098 8.63966 13.0696 6.00977 12.5996C4.8199 12.3897 3.68987 12.5598 2.70996 13.0098C2.37996 13.1598 2 12.9296 2 12.5596V9C2 5.5 4 4 7 4H17ZM18.5 9.25C18.09 9.25 17.75 9.59 17.75 10V14C17.75 14.41 18.09 14.75 18.5 14.75C18.91 14.75 19.25 14.41 19.25 14V10C19.25 9.59 18.91 9.25 18.5 9.25ZM12 9.5C10.62 9.5 9.5 10.62 9.5 12C9.5 13.38 10.62 14.5 12 14.5C13.38 14.5 14.5 13.38 14.5 12C14.5 10.62 13.38 9.5 12 9.5Z" fill="currentColor"/>
</svg>
