<svg width="24" height="24" viewBox="0 0 24 24" fill="none" xmlns="http://www.w3.org/2000/svg">
<path d="M18.6998 14.3299C19.0398 13.9999 19.5797 13.9999 19.9097 14.3299C20.2396 14.6599 20.2397 15.2099 19.9097 15.5399L12.9996 22.449C12.8896 22.569 12.7294 22.6796 12.5494 22.7596C12.3695 22.8395 12.1797 22.8699 11.9898 22.8699C11.7998 22.8699 11.6197 22.8198 11.4498 22.7498C11.2599 22.6699 11.1102 22.5596 10.9703 22.4197L4.08941 15.5399C3.75954 15.21 3.75979 14.6599 4.08941 14.3299C4.4294 13.9999 4.96937 13.9999 5.29937 14.3299L11.9996 21.0291L18.6998 14.3299Z" fill="currentColor"/>
<path d="M19.3101 9.9295H19.2994L19.3043 9.92853L19.3101 9.9295Z" fill="currentColor"/>
<path d="M11.44 1.24884C11.7997 1.09904 12.1896 1.09909 12.5494 1.24884C12.7294 1.32883 12.8901 1.43893 13.0201 1.57892L19.9097 8.46954C20.2396 8.79956 20.2397 9.34955 19.9097 9.6795C19.7409 9.84823 19.5227 9.92745 19.3043 9.92853C19.0862 9.92719 18.8683 9.84799 18.6998 9.6795L11.9996 2.97931L5.29937 9.6795C4.95935 10.0091 4.41929 10.0094 4.08941 9.6795C3.75957 9.34961 3.75977 8.79957 4.08941 8.46954L10.9898 1.55939C11.0998 1.43939 11.26 1.32884 11.44 1.24884Z" fill="currentColor"/>
</svg>
