<svg width="24" height="24" viewBox="0 0 24 24" fill="none" xmlns="http://www.w3.org/2000/svg">
<path d="M1.99982 22.8592H1.99005L1.99494 22.8582L1.99982 22.8592Z" fill="currentColor"/>
<path d="M21.9998 22.8592H21.9901L21.9949 22.8582L21.9998 22.8592Z" fill="currentColor"/>
<path d="M8.15021 14.9803C8.6202 14.9803 9.01056 15.3606 9.01056 15.8406V21.2205C9.01056 21.6905 8.6302 22.0808 8.15021 22.0808V22.0906C7.68021 22.0906 7.28986 21.7103 7.28986 21.2303V17.9197L2.60041 22.6092C2.43165 22.7779 2.21332 22.857 1.99494 22.8582C1.77666 22.8569 1.55911 22.7778 1.39044 22.6092C1.06045 22.2792 1.06044 21.7292 1.39044 21.3992L6.08869 16.701H2.77033C2.30037 16.701 1.91004 16.3206 1.90998 15.8406C1.90998 15.3606 2.29033 14.9803 2.77033 14.9803H8.15021Z" fill="currentColor"/>
<path d="M21.2303 14.99C21.7002 14.9901 22.0906 15.3704 22.0906 15.8504C22.0905 16.3303 21.7102 16.7097 21.2303 16.7098H17.91L22.6004 21.3992C22.9303 21.7291 22.9301 22.2791 22.6004 22.6092C22.4316 22.7779 22.2134 22.857 21.9949 22.8582C21.7767 22.8569 21.5591 22.7778 21.3904 22.6092L16.7 17.9187V21.24C16.7 21.7099 16.3204 22.1001 15.8406 22.1004L15.8504 22.0906C15.3804 22.0906 14.9901 21.7102 14.9901 21.2303V15.8504C14.9901 15.3804 15.3704 14.99 15.8504 14.99H21.2303Z" fill="currentColor"/>
<path d="M21.3904 1.40018C21.7204 1.07018 22.2704 1.07018 22.6004 1.40018C22.9301 1.73021 22.9303 2.28023 22.6004 2.61014L17.909 7.30057H21.2401C21.71 7.30057 22.1003 7.68004 22.1004 8.15995C22.1004 8.63995 21.7201 9.0203 21.2401 9.0203L21.2303 9.01053H15.8504C15.8104 9.01053 15.7709 9.0061 15.7322 9.00077C15.553 8.97694 15.3796 8.89905 15.2401 8.75955C15.1508 8.6702 15.0857 8.56478 15.0447 8.45194C15.0097 8.35829 14.9901 8.25675 14.9901 8.15018V2.7703C14.9901 2.3003 15.3704 1.90995 15.8504 1.90995C16.3303 1.91005 16.7098 2.29037 16.7098 2.7703V6.07987L21.3904 1.40018Z" fill="currentColor"/>
<path d="M1.39044 1.40018C1.72044 1.07018 2.27041 1.07018 2.60041 1.40018L7.3006 6.10037V2.7703C7.3006 2.30036 7.68007 1.91006 8.15998 1.90995C8.63998 1.90995 9.02033 2.2903 9.02033 2.7703V8.15018C9.02031 8.62017 8.63997 9.01053 8.15998 9.01053H2.77033C2.30034 9.01053 1.90999 8.63017 1.90998 8.15018C1.90998 7.67018 2.29033 7.28983 2.77033 7.28983H6.07013L1.39044 2.61014C1.06044 2.28014 1.06044 1.73018 1.39044 1.40018Z" fill="currentColor"/>
</svg>
