<svg width="24" height="24" viewBox="0 0 24 24" fill="none" xmlns="http://www.w3.org/2000/svg">
<path fill-rule="evenodd" clip-rule="evenodd" d="M12.0303 1.17969C13.0584 1.17977 13.9702 1.73407 14.4405 2.62012C16.9694 3.59592 18.7706 6.05247 18.7706 8.91992V11.8096C18.7706 12.2696 18.9905 13.0802 19.2305 13.4902L20.3702 15.3896C20.8001 16.1096 20.8798 16.9796 20.5899 17.7695C20.2999 18.5595 19.6699 19.1599 18.8799 19.4199C17.8057 19.7812 16.7002 20.0524 15.5792 20.2373C15.085 21.7311 13.6783 22.8105 12.0196 22.8105C11.0299 22.8104 10.07 22.4107 9.37018 21.7109C8.95502 21.2958 8.6462 20.7884 8.46295 20.2383C7.33954 20.0534 6.23056 19.7816 5.15045 19.4199C4.31045 19.1299 3.66971 18.5395 3.38971 17.7695C3.09992 16.9997 3.20031 16.1495 3.66022 15.3896L4.80963 13.4795C5.04961 13.0795 5.27057 12.2795 5.27057 11.8096V8.91992C5.27057 6.04321 7.08229 3.57969 9.62409 2.61035C10.0961 1.73645 11.0066 1.17969 12.0303 1.17969ZM13.7774 20.459C13.1932 20.5059 12.6069 20.5303 12.0206 20.5303C11.4338 20.5303 10.8466 20.5059 10.2618 20.459C10.3144 20.5254 10.3695 20.5901 10.4298 20.6504C10.8497 21.0703 11.4297 21.3104 12.0196 21.3105C12.7309 21.3105 13.3647 20.9764 13.7774 20.459ZM12.7227 3.71777C12.2414 3.66344 11.7703 3.66342 11.3126 3.71875C8.75473 4.06515 6.77057 6.26066 6.77057 8.91992V11.8096C6.77057 12.5396 6.46967 13.62 6.09967 14.25L4.95026 16.1602C4.73032 16.5301 4.66988 16.92 4.79987 17.25C4.91987 17.59 5.21997 17.8502 5.62995 17.9902C9.80988 19.3902 14.24 19.3902 18.42 17.9902C18.7799 17.8703 19.0605 17.6001 19.1905 17.2402C19.3205 16.8803 19.2899 16.4901 19.0899 16.1602L17.9405 14.25C17.5605 13.6 17.2706 12.5298 17.2706 11.7998V8.91992C17.2706 6.25823 15.2903 4.0611 12.7227 3.71777Z" fill="currentColor"/>
</svg>
