<svg width="24" height="24" viewBox="0 0 24 24" fill="none" xmlns="http://www.w3.org/2000/svg">
<path fill-rule="evenodd" clip-rule="evenodd" d="M8.26953 12.75C10.2795 12.75 11.25 13.7305 11.25 15.7305V19.7695C11.25 21.7695 10.2695 22.75 8.26953 22.75H4.23047C2.22047 22.75 1.25 21.7695 1.25 19.7695V15.7305C1.25 13.7205 2.23047 12.75 4.23047 12.75H8.26953ZM4.23047 14.25C3.05047 14.25 2.75 14.5505 2.75 15.7305V19.7695C2.75 20.9495 3.05047 21.25 4.23047 21.25H8.26953C9.44953 21.25 9.75 20.9495 9.75 19.7695V15.7305C9.75 14.5505 9.44953 14.25 8.26953 14.25H4.23047Z" fill="currentColor"/>
<path fill-rule="evenodd" clip-rule="evenodd" d="M19.7695 12.75C21.7795 12.75 22.75 13.7305 22.75 15.7305V19.7695C22.75 21.7695 21.7695 22.75 19.7695 22.75H15.7305C13.7205 22.75 12.75 21.7695 12.75 19.7695V15.7305C12.75 13.7205 13.7305 12.75 15.7305 12.75H19.7695ZM15.7305 14.25C14.5505 14.25 14.25 14.5505 14.25 15.7305V19.7695C14.25 20.9495 14.5505 21.25 15.7305 21.25H19.7695C20.9495 21.25 21.25 20.9495 21.25 19.7695V15.7305C21.25 14.5505 20.9495 14.25 19.7695 14.25H15.7305Z" fill="currentColor"/>
<path fill-rule="evenodd" clip-rule="evenodd" d="M8.26953 1.25C10.2795 1.25 11.25 2.14047 11.25 3.98047V8.50977C11.25 10.3598 10.2695 11.25 8.26953 11.25H4.23047C2.22047 11.25 1.25 10.3595 1.25 8.51953V3.98047C1.25 2.14047 2.23047 1.25 4.23047 1.25H8.26953ZM4.23047 2.75C2.89047 2.75 2.75 3.13047 2.75 3.98047V8.50977C2.75 9.36977 2.89047 9.74023 4.23047 9.74023H8.26953C9.60953 9.74023 9.75 9.35977 9.75 8.50977V3.98047C9.75 3.12047 9.60953 2.75 8.26953 2.75H4.23047Z" fill="currentColor"/>
<path fill-rule="evenodd" clip-rule="evenodd" d="M19.7695 1.25C21.7795 1.25 22.75 2.14047 22.75 3.98047V8.50977C22.75 10.3598 21.7695 11.25 19.7695 11.25H15.7305C13.7205 11.25 12.75 10.3595 12.75 8.51953V3.98047C12.75 2.14047 13.7305 1.25 15.7305 1.25H19.7695ZM15.7305 2.75C14.3905 2.75 14.25 3.13047 14.25 3.98047V8.50977C14.25 9.36977 14.3905 9.74023 15.7305 9.74023H19.7695C21.1095 9.74023 21.25 9.35977 21.25 8.50977V3.98047C21.25 3.12047 21.1095 2.75 19.7695 2.75H15.7305Z" fill="currentColor"/>
</svg>
