<svg width="24" height="24" viewBox="0 0 24 24" fill="none" xmlns="http://www.w3.org/2000/svg">
<path d="M18.4698 4.46979C18.7627 4.1769 19.2374 4.1769 19.5303 4.46979C19.8232 4.76269 19.8232 5.23746 19.5303 5.53034L13.0606 12.0001L19.5303 18.4698C19.8232 18.7627 19.8232 19.2375 19.5303 19.5303C19.2375 19.8232 18.7627 19.8232 18.4698 19.5303L12.0001 13.0606L5.53034 19.5303C5.23746 19.8232 4.76269 19.8232 4.46979 19.5303C4.1769 19.2374 4.1769 18.7627 4.46979 18.4698L10.9395 12.0001L4.46979 5.53034C4.1769 5.23745 4.1769 4.76268 4.46979 4.46979C4.76268 4.1769 5.23745 4.1769 5.53034 4.46979L12.0001 10.9395L18.4698 4.46979Z" fill="currentColor"/>
</svg>
