<svg width="24" height="24" viewBox="0 0 24 24" fill="none" xmlns="http://www.w3.org/2000/svg">
<path d="M12.0003 2.75C12.4101 2.75015 12.7503 3.09009 12.7503 3.5V18.6904L17.5403 13.9004C17.8303 13.6104 18.3099 13.6104 18.5999 13.9004C18.8898 14.1904 18.8898 14.67 18.5999 14.96L12.5296 21.0303C12.3797 21.18 12.19 21.2499 12.0003 21.25C11.8103 21.25 11.62 21.1802 11.47 21.0303L5.39967 14.96C5.10999 14.67 5.11005 14.1903 5.39967 13.9004C5.68967 13.6104 6.17022 13.6104 6.46022 13.9004L11.2503 18.6904V3.5C11.2503 3.09 11.5903 2.75 12.0003 2.75Z" fill="currentColor"/>
</svg>
