<svg width="24" height="24" viewBox="0 0 24 24" fill="none" xmlns="http://www.w3.org/2000/svg">
<path d="M13.9004 5.39969C14.1903 5.11014 14.67 5.1101 14.96 5.39969L21.0303 11.47C21.3202 11.76 21.3203 12.2406 21.0303 12.5305L14.96 18.5999C14.81 18.7499 14.6197 18.8206 14.4297 18.8206C14.2398 18.8205 14.0503 18.7498 13.9004 18.5999C13.6104 18.3099 13.6104 17.8303 13.9004 17.5403L18.6904 12.7503H3.5C3.09009 12.7503 2.75015 12.4102 2.75 12.0003C2.75 11.5903 3.09 11.2503 3.5 11.2503H18.6904L13.9004 6.46024C13.6104 6.17024 13.6104 5.68969 13.9004 5.39969Z" fill="currentColor"/>
</svg>
