<svg width="24" height="24" viewBox="0 0 24 24" fill="none" xmlns="http://www.w3.org/2000/svg">
<path d="M11.29 15.5394C11.66 15.1694 12.34 15.1694 12.71 15.5394C12.8899 15.7294 13 15.9895 13 16.2494C13 16.3793 12.9699 16.5094 12.9199 16.6293C12.8699 16.7492 12.7999 16.8594 12.71 16.9594C12.52 17.1493 12.27 17.2494 12 17.2494C11.73 17.2494 11.48 17.1493 11.29 16.9594C11.2001 16.8594 11.1303 16.7492 11.0703 16.6293C11.0203 16.5094 11 16.3793 11 16.2494C11 15.9895 11.1101 15.7294 11.29 15.5394Z" fill="currentColor"/>
<path d="M12 7.00038C12.41 7.00038 12.75 7.34038 12.75 7.75038V13.0004C12.7498 13.4102 12.4099 13.7504 12 13.7504C11.5901 13.7504 11.2502 13.4102 11.25 13.0004V7.75038C11.25 7.34038 11.59 7.00038 12 7.00038Z" fill="currentColor"/>
<path fill-rule="evenodd" clip-rule="evenodd" d="M10.0498 1.76893C11.2498 1.06895 12.7402 1.06898 13.9502 1.76893L19.8906 5.1996C21.0903 5.89967 21.8398 7.18968 21.8398 8.57948V15.4193C21.8398 16.8091 21.0904 18.0992 19.8906 18.7992L13.9502 22.2289C13.3502 22.5789 12.67 22.7494 12 22.7494C11.3301 22.7494 10.6497 22.5789 10.0498 22.2289L4.11035 18.7992C2.91042 18.0992 2.16024 16.8092 2.16016 15.4193V8.57948C2.16016 7.18951 2.91039 5.89961 4.11035 5.1996L10.0498 1.76893ZM12 2.7494C11.5901 2.74944 11.1697 2.85877 10.7998 3.06874L4.86035 6.4994C4.12035 6.9294 3.66016 7.71948 3.66016 8.57948V15.4193C3.66024 16.2692 4.12042 17.0694 4.86035 17.4994L10.7998 20.9291C11.5398 21.3591 12.4604 21.3591 13.1904 20.9291L19.1299 17.4994C19.8698 17.0694 20.33 16.2792 20.3301 15.4193V8.57948C20.3301 7.72948 19.8699 6.9294 19.1299 6.4994L13.1904 3.06874C12.8304 2.85874 12.41 2.7494 12 2.7494Z" fill="currentColor"/>
</svg>
