<svg width="24" height="24" viewBox="0 0 24 24" fill="none" xmlns="http://www.w3.org/2000/svg">
<path fill-rule="evenodd" clip-rule="evenodd" d="M9.21973 3.90761C9.4297 3.70604 9.7601 3.63817 10.04 3.75332C10.32 3.86852 10.5 4.1284 10.5 4.4164V7.68007C13.72 7.74727 16.3505 8.30391 18.3105 9.31191C21.0904 10.7519 22.5 13.0851 22.5 16.2338V20.3324C22.5 20.6684 22.2599 20.9568 21.9199 21.0336C21.8699 21.0624 21.81 21.0717 21.75 21.0717C21.4701 21.0717 21.2101 20.9187 21.0801 20.6693C18.6101 15.9269 12.53 15.5424 10.5 15.6V18.8256C10.5 19.1135 10.3199 19.382 10.04 19.4877C9.76008 19.6029 9.43973 19.5358 9.21973 19.3246L1.71973 12.0482C1.5798 11.9139 1.50004 11.7314 1.5 11.5395C1.5 11.3475 1.57985 11.165 1.71973 11.0307L9.21973 3.90761ZM3.2998 11.559L8.99023 17.0785V14.9086C8.9904 14.5344 9.28009 14.2273 9.66992 14.1889C9.74992 14.1889 10.1603 14.1508 10.7803 14.1508C12.9704 14.1508 17.8801 14.5634 21 17.9809V16.2436C21 13.6228 19.8898 11.7797 17.5898 10.5893C15.6998 9.61005 13.0698 9.1205 9.75977 9.1205H9.74023C9.54023 9.1205 9.34996 9.04299 9.20996 8.90859C9.07006 8.77421 8.99023 8.59173 8.99023 8.3998V6.15371L3.2998 11.559Z" fill="currentColor"/>
</svg>
