<svg width="24" height="24" viewBox="0 0 24 24" fill="none" xmlns="http://www.w3.org/2000/svg">
<path d="M9.01022 2.75C9.42011 2.75013 9.76022 3.09008 9.76022 3.5V20.5C9.76022 20.6238 9.72497 20.7392 9.67038 20.8428C9.63612 20.9095 9.59504 20.9738 9.53952 21.0293C9.52742 21.0406 9.51306 21.0491 9.50046 21.0596C9.3681 21.176 9.19771 21.2499 9.01022 21.25L8.93405 21.2461C8.91525 21.2441 8.89678 21.2407 8.87839 21.2373C8.87285 21.2363 8.86731 21.2355 8.86179 21.2344C8.85645 21.2333 8.85146 21.2307 8.84616 21.2295C8.71363 21.2001 8.58647 21.1358 8.47995 21.0293L3.47019 16.0195C3.18019 15.7295 3.18019 15.25 3.47019 14.96C3.76019 14.67 4.23976 14.67 4.52976 14.96L8.26022 18.6904V3.5C8.26022 3.09 8.60022 2.75 9.01022 2.75Z" fill="currentColor"/>
<path d="M14.9897 2.75C15.0421 2.75 15.0935 2.75606 15.143 2.7666C15.2853 2.79374 15.4209 2.86185 15.5298 2.9707L20.5395 7.98047C20.8295 8.27046 20.8295 8.75004 20.5395 9.04004C20.3896 9.18994 20.2001 9.26065 20.0102 9.26074C19.8202 9.26074 19.63 9.19004 19.48 9.04004L15.7397 5.2998V20.5C15.7397 20.91 15.4097 21.25 14.9897 21.25C14.5798 21.2499 14.2397 20.9099 14.2397 20.5V3.5C14.2397 3.09008 14.5798 2.75013 14.9897 2.75Z" fill="currentColor"/>
</svg>
