<svg width="24" height="24" viewBox="0 0 24 24" fill="none" xmlns="http://www.w3.org/2000/svg">
<path d="M14.9697 12.75C15.9197 12.75 16.7002 13.3802 16.7002 14.1602C16.7001 14.9401 15.9197 15.5801 14.9697 15.5801H9.53027V12.75H14.9697Z" fill="currentColor"/>
<path d="M14.2002 8.41016C15.0001 8.41028 15.6201 9.17015 15.6201 9.83008C15.6201 10.6101 14.9801 11.2501 14.2002 11.2402H9.53027V8.41016H14.2002Z" fill="currentColor"/>
<path fill-rule="evenodd" clip-rule="evenodd" d="M12 2C17.52 2 22 6.48 22 12C22 17.52 17.52 22 12 22C6.48 22 2 17.52 2 12C2 6.48 6.48 2 12 2ZM12.5703 4.75C12.1603 4.75 11.8203 5.09 11.8203 5.5V6.91992H10.6104V5.5C10.6104 5.09012 10.2702 4.75019 9.86035 4.75C9.45035 4.75 9.11035 5.09 9.11035 5.5V6.91992H7.0498C6.63992 6.92003 6.29985 7.26002 6.2998 7.66992C6.2998 8.07986 6.63989 8.41981 7.0498 8.41992H8.03027V15.5801H7.0498C6.63989 15.5802 6.2998 15.9201 6.2998 16.3301C6.29985 16.74 6.63992 17.08 7.0498 17.0801H9.11035V18.5C9.11035 18.91 9.45035 19.25 9.86035 19.25C10.2702 19.2498 10.6104 18.9099 10.6104 18.5V17.0801H11.8203V18.5C11.8203 18.91 12.1603 19.25 12.5703 19.25C12.9802 19.2498 13.3203 18.9099 13.3203 18.5V17.0801H14.9697C16.7497 17.0801 18.2002 15.7697 18.2002 14.1797C18.2001 13.0698 17.5099 12.1101 16.5 11.6201C16.88 11.1201 17.1201 10.5098 17.1201 9.83984C17.12 8.27997 15.7501 6.92004 14.2002 6.91992H13.3203V5.5C13.3203 5.0901 12.9802 4.75017 12.5703 4.75Z" fill="currentColor"/>
</svg>
