<svg width="24" height="24" viewBox="0 0 24 24" fill="none" xmlns="http://www.w3.org/2000/svg">
<path d="M3.92969 14.1494C6.73963 12.2895 11.2901 12.2895 14.0801 14.1494C15.3401 14.9894 16.03 16.1304 16.04 17.3604C16.0399 18.6002 15.3399 19.74 14.0801 20.5898C12.6801 21.5298 10.84 22 9 22C7.16 22 5.31992 21.5298 3.91992 20.5898C2.65995 19.7498 1.95996 18.6099 1.95996 17.3799C1.95997 16.1499 2.65969 14.9994 3.92969 14.1494Z" fill="currentColor"/>
<path d="M13.9902 12.79C16.2002 12.1502 18.9805 12.58 20.6904 13.96C21.6104 14.7 22.0802 15.6308 21.9902 16.5908C21.9101 17.5607 21.2899 18.4008 20.25 18.9707C19.2501 19.5206 17.9901 19.78 16.7402 19.75C17.46 19.1001 17.8799 18.2904 17.96 17.4307C18.06 16.1907 17.4699 15.0008 16.29 14.0508C15.6201 13.5208 14.8402 13.1 13.9902 12.79Z" fill="currentColor"/>
<path d="M9 2C11.62 2 13.75 4.13 13.75 6.75C13.74 9.32 11.7299 11.4002 9.16992 11.4902H9.09961C9.03965 11.4803 8.95973 11.4803 8.87988 11.4902C6.25994 11.4002 4.25 9.31996 4.25 6.75C4.25 4.13 6.38 2 9 2Z" fill="currentColor"/>
<path d="M16.1104 4.07031C18.0702 3.90045 19.8201 5.36004 19.9902 7.33984C20.1502 9.27976 18.7702 10.9798 16.8604 11.21H16.8105C16.7505 11.21 16.6896 11.2105 16.6396 11.2305C15.67 11.2803 14.7802 10.9701 14.1104 10.4004C15.1402 9.48049 15.7302 8.10039 15.6104 6.60059C15.5404 5.79059 15.2598 5.04992 14.8398 4.41992C15.2198 4.22992 15.6604 4.11031 16.1104 4.07031Z" fill="currentColor"/>
</svg>
