<svg width="24" height="24" viewBox="0 0 24 24" fill="none" xmlns="http://www.w3.org/2000/svg">
<path d="M10.6797 9.81152L11.0303 9.87891C12.0102 10.071 12.7197 10.8965 12.7197 11.8564V15.543C12.7198 15.8116 12.9099 16.0419 13.1797 16.0996L13.6396 16.2148C14.0396 16.3108 14.2897 16.7049 14.1797 17.0889C14.1095 17.415 13.7998 17.6357 13.46 17.6357C13.4 17.6357 13.3402 17.6258 13.2803 17.6162L12.8203 17.501C11.8803 17.2802 11.2305 16.4741 11.2305 15.543V11.8564C11.2304 11.5781 11.03 11.3476 10.75 11.29L10.3896 11.2227C9.97993 11.1456 9.71984 10.7618 9.7998 10.3779C9.87982 9.98452 10.2799 9.73499 10.6797 9.81152Z" fill="currentColor"/>
<path d="M12 6.91211C12.55 6.91211 12.9999 7.34413 13 7.87207C13 8.40007 12.5598 8.83203 12.0098 8.83203C11.4599 8.83191 11 8.4 11 7.87207C11.0001 7.34413 11.4403 6.91211 11.9902 6.91211H12Z" fill="currentColor"/>
<path fill-rule="evenodd" clip-rule="evenodd" d="M12 2.07422C17.9299 2.07422 22.7499 6.70083 22.75 12.3936C22.75 18.0864 17.93 22.7139 12 22.7139C6.07 22.7139 1.25 18.0864 1.25 12.3936C1.25014 6.70083 6.07009 2.07422 12 2.07422ZM12 3.51367C6.90008 3.51367 2.75014 7.49763 2.75 12.3936C2.75 17.2896 6.9 21.2734 12 21.2734C17.1 21.2734 21.25 17.2896 21.25 12.3936C21.2499 7.49763 17.0999 3.51367 12 3.51367Z" fill="currentColor"/>
</svg>
