<svg width="24" height="24" viewBox="0 0 24 24" fill="none" xmlns="http://www.w3.org/2000/svg">
<path fill-rule="evenodd" clip-rule="evenodd" d="M14 13.25C16.0841 13.25 17.8253 14.7654 18.1816 16.75H22C22.41 16.75 22.75 17.09 22.75 17.5C22.75 17.91 22.41 18.25 22 18.25H18.1826C17.8264 20.2347 16.0842 21.75 14 21.75C11.66 21.75 9.75 19.84 9.75 17.5C9.75 15.16 11.66 13.25 14 13.25ZM14 14.75C12.48 14.75 11.25 15.98 11.25 17.5C11.25 19.02 12.48 20.25 14 20.25C15.52 20.25 16.75 19.02 16.75 17.5C16.75 15.98 15.52 14.75 14 14.75Z" fill="currentColor"/>
<path d="M8 16.75C8.41 16.75 8.75 17.09 8.75 17.5C8.75 17.91 8.41 18.25 8 18.25H2C1.59 18.25 1.25 17.91 1.25 17.5C1.25 17.09 1.59 16.75 2 16.75H8Z" fill="currentColor"/>
<path fill-rule="evenodd" clip-rule="evenodd" d="M10 2.25C12.34 2.25 14.25 4.16 14.25 6.5C14.25 8.84 12.34 10.75 10 10.75C7.91583 10.75 6.17361 9.23466 5.81738 7.25H2C1.59 7.25 1.25 6.91 1.25 6.5C1.25 6.09 1.59 5.75 2 5.75H5.81836C6.17465 3.76542 7.91589 2.25 10 2.25ZM10 3.75C8.48 3.75 7.25 4.98 7.25 6.5C7.25 8.02 8.48 9.25 10 9.25C11.52 9.25 12.75 8.02 12.75 6.5C12.75 4.98 11.52 3.75 10 3.75Z" fill="currentColor"/>
<path d="M22 5.75C22.41 5.75 22.75 6.09 22.75 6.5C22.75 6.91 22.41 7.25 22 7.25H16C15.59 7.25 15.25 6.91 15.25 6.5C15.25 6.09 15.59 5.75 16 5.75H22Z" fill="currentColor"/>
</svg>
