<svg width="24" height="24" viewBox="0 0 24 24" fill="none" xmlns="http://www.w3.org/2000/svg">
<path d="M6.7298 2.25C6.77707 2.25 6.82348 2.25505 6.86847 2.26367C7.01626 2.29151 7.15291 2.36263 7.26007 2.46973L10.9798 6.19043C11.2698 6.48043 11.2698 6.96001 10.9798 7.25C10.8299 7.39978 10.6403 7.46965 10.4505 7.46973C10.2605 7.46973 10.0702 7.39999 9.92023 7.25L7.4798 4.80957V21C7.4798 21.41 7.1398 21.75 6.7298 21.75C6.31988 21.7499 5.9798 21.4099 5.9798 21V4.80957L3.54035 7.25C3.25035 7.54 2.7698 7.54 2.4798 7.25C2.19013 6.96012 2.19028 6.48041 2.4798 6.19043L6.2005 2.46973C6.30798 2.36236 6.44484 2.29035 6.59308 2.2627C6.63748 2.2543 6.6832 2.25001 6.7298 2.25Z" fill="currentColor"/>
<path d="M17.2698 2.25C17.6798 2.25 18.0198 2.59 18.0198 3V19.1992L20.47 16.75C20.76 16.46 21.2396 16.46 21.5296 16.75C21.8196 17.04 21.8196 17.5196 21.5296 17.8096L17.8099 21.5303C17.7004 21.6396 17.5538 21.7098 17.4046 21.7363C17.3668 21.7431 17.3281 21.7481 17.2884 21.749C17.2856 21.7491 17.2824 21.75 17.2796 21.75L17.2757 21.749L17.2698 21.75C17.0459 21.75 16.8455 21.6462 16.7073 21.4873L13.0296 17.8096C12.74 17.5197 12.74 17.0399 13.0296 16.75C13.3196 16.46 13.8002 16.46 14.0902 16.75L16.5198 19.1797V3C16.5198 2.59005 16.8599 2.25009 17.2698 2.25Z" fill="currentColor"/>
</svg>
