<svg width="24" height="24" viewBox="0 0 24 24" fill="none" xmlns="http://www.w3.org/2000/svg">
<path fill-rule="evenodd" clip-rule="evenodd" d="M17.0996 1.25C21.0096 1.25 22.75 2.99039 22.75 6.90039V11.0996C22.75 15.0096 21.0096 16.75 17.0996 16.75H16.75V17.0996C16.75 21.0096 15.0096 22.75 11.0996 22.75H6.90039C2.99039 22.75 1.25 21.0096 1.25 17.0996V12.9004C1.25 8.99039 2.99039 7.25 6.90039 7.25H7.25V6.90039C7.25 2.99039 8.99039 1.25 12.9004 1.25H17.0996ZM6.90039 8.75C3.80039 8.75 2.75 9.80039 2.75 12.9004V17.0996C2.75 20.1996 3.80039 21.25 6.90039 21.25H11.0996C14.1996 21.25 15.25 20.1996 15.25 17.0996V12.9004C15.25 9.80039 14.1996 8.75 11.0996 8.75H6.90039ZM12.9004 2.75C9.80039 2.75 8.75 3.80039 8.75 6.90039V7.25H11.0996C15.0096 7.25 16.75 8.99039 16.75 12.9004V15.25H17.0996C20.1996 15.25 21.25 14.1996 21.25 11.0996V6.90039C21.25 3.80039 20.1996 2.75 17.0996 2.75H12.9004Z" fill="currentColor"/>
</svg>
