<svg width="24" height="24" viewBox="0 0 24 24" fill="none" xmlns="http://www.w3.org/2000/svg">
<path fill-rule="evenodd" clip-rule="evenodd" d="M17 2C19.75 2 22 4.25 22 7V17C22 19.75 19.75 22 17 22H7C4.25 22 2 19.75 2 17V7C2 4.25 4.25 2 7 2H17ZM14.1895 6.25977C13.1897 6.26001 12.3799 7.07046 12.3799 8.07031C12.3799 8.15005 12.3894 8.22984 12.3994 8.30957C12.3495 8.3295 12.2999 8.34017 12.25 8.37012L8.93945 10.3896C8.88963 10.4196 8.8602 10.4601 8.82031 10.5C8.53031 10.3 8.17004 10.1797 7.79004 10.1797C6.79004 10.1797 5.97949 10.9902 5.97949 11.9902C5.97962 12.9901 6.79012 13.7998 7.79004 13.7998C8.17001 13.7998 8.53032 13.6804 8.82031 13.4805C8.86002 13.5202 8.88986 13.56 8.93945 13.5898L12.25 15.6104C12.2998 15.6402 12.3496 15.6598 12.3994 15.6797C12.3894 15.7597 12.3799 15.8302 12.3799 15.9102C12.38 16.9099 13.1897 17.7195 14.1895 17.7197C15.1894 17.7197 15.9999 16.9101 16 15.9102C16 14.9102 15.1895 14.0996 14.1895 14.0996C13.7996 14.0997 13.4393 14.2198 13.1494 14.4297C13.1196 14.3997 13.0898 14.3599 13.04 14.3301L9.73047 12.3096C9.68047 12.2896 9.63008 12.2798 9.58008 12.2598C9.60005 12.1699 9.61035 12.0899 9.61035 12C9.61035 11.9101 9.60002 11.8303 9.58008 11.7305C9.63008 11.7205 9.68047 11.6999 9.73047 11.6699L13.04 9.65039C13.08 9.63043 13.1095 9.57982 13.1494 9.5498C13.4393 9.74973 13.7996 9.87978 14.1895 9.87988C15.1893 9.87988 15.9998 9.07017 16 8.07031C16 7.07031 15.1895 6.25977 14.1895 6.25977Z" fill="currentColor"/>
</svg>
