<svg width="24" height="24" viewBox="0 0 24 24" fill="none" xmlns="http://www.w3.org/2000/svg">
<path fill-rule="evenodd" clip-rule="evenodd" d="M19.5195 12.75C21.5295 12.75 22.5 13.7305 22.5 15.7305V19.7695C22.5 21.7695 21.5195 22.75 19.5195 22.75H4.48047C2.47047 22.75 1.5 21.7695 1.5 19.7695V15.7305C1.5 13.7205 2.48047 12.75 4.48047 12.75H19.5195ZM4.48047 14.25C3.30047 14.25 3 14.5505 3 15.7305V19.7695C3 20.9495 3.30047 21.25 4.48047 21.25H19.5195C20.6995 21.25 21 20.9495 21 19.7695V15.7305C21 14.5505 20.6995 14.25 19.5195 14.25H4.48047Z" fill="currentColor"/>
<path fill-rule="evenodd" clip-rule="evenodd" d="M19.5195 1.25C21.5295 1.25 22.5 2.14047 22.5 3.98047V8.50977C22.5 10.3598 21.5195 11.25 19.5195 11.25H4.48047C2.47047 11.25 1.5 10.3595 1.5 8.51953V3.98047C1.5 2.14047 2.48047 1.25 4.48047 1.25H19.5195ZM4.48047 2.75C3.14047 2.75 3 3.13047 3 3.98047V8.50977C3 9.36977 3.14047 9.74023 4.48047 9.74023H19.5195C20.8595 9.74023 21 9.35977 21 8.50977V3.98047C21 3.12047 20.8595 2.75 19.5195 2.75H4.48047Z" fill="currentColor"/>
</svg>
