<svg width="24" height="24" viewBox="0 0 24 24" fill="none" xmlns="http://www.w3.org/2000/svg">
<path d="M5.05368 8.23523C5.4631 8.64466 5.26976 9.34418 4.70818 9.48522L3.0205 9.90909C2.89063 9.93906 2.79084 10.04 2.76073 10.1698C2.72089 10.2996 2.76082 10.4293 2.85058 10.5292L8.11718 15.8017C8.13157 15.814 8.14654 15.8262 8.16015 15.8398C8.17648 15.8561 8.19253 15.8731 8.20702 15.8905L13.46 21.1493C13.5499 21.2393 13.6903 21.2792 13.8203 21.2392C13.9502 21.1992 14.05 21.0995 14.0801 20.9696L14.4959 19.2995C14.6382 18.7283 15.3494 18.531 15.7657 18.9472C15.9535 19.135 16.0291 19.4076 15.9649 19.6653L15.5508 21.329C15.3908 21.979 14.8802 22.4996 14.2402 22.6796C14.0803 22.7295 13.9101 22.7499 13.7402 22.7499H13.7305C13.2405 22.7499 12.7601 22.5591 12.4101 22.1991L7.63476 17.4237L2.53027 22.5292C2.38027 22.6792 2.18999 22.7499 1.99999 22.7499C1.81015 22.7498 1.62057 22.6791 1.47069 22.5292C1.18101 22.2392 1.1808 21.7595 1.47069 21.4696L6.57519 16.3642L1.80077 11.5898C1.32092 11.1198 1.14033 10.4193 1.3203 9.76944C1.50041 9.11965 2.01103 8.61984 2.67089 8.45987L4.34504 8.03937C4.59926 7.97552 4.86833 8.04989 5.05368 8.23523Z" fill="currentColor"/>
<path d="M14.4004 1.25967C15.2902 1.1797 16.1708 1.48924 16.8008 2.11905L21.8809 7.19913C22.5108 7.82903 22.8301 8.70966 22.7402 9.59952C22.6502 10.4894 22.1707 11.2899 21.4209 11.7899L17.9502 14.0995C17.7316 14.2437 17.4336 14.2519 17.2484 14.0667L17.0503 13.8686C16.7595 13.5778 16.755 13.0985 17.0961 12.8688C17.1009 12.8656 17.1056 12.8624 17.1103 12.8593L20.5801 10.5497C20.9499 10.2998 21.1904 9.90965 21.2305 9.45987C21.2703 9.02006 21.1206 8.57934 20.8008 8.26944L15.7305 3.1796C15.4505 2.89978 15.0705 2.74997 14.6807 2.74991C14.6807 2.74991 14.5803 2.74991 14.5303 2.74991C14.0905 2.78995 13.6904 3.02962 13.4404 3.39932L11.1309 6.86905C11.1245 6.87855 11.1181 6.88802 11.1117 6.89746C10.8832 7.23323 10.4097 7.22793 10.1225 6.94073L9.93216 6.75044C9.74464 6.56292 9.75433 6.2613 9.90038 6.03995L12.21 2.56925C12.71 1.81942 13.5105 1.33968 14.4004 1.25967Z" fill="currentColor"/>
<path d="M1.46973 1.46972C1.76262 1.17683 2.23738 1.17683 2.53028 1.46972L22.5303 21.4697C22.8232 21.7626 22.8232 22.2374 22.5303 22.5303C22.2374 22.8232 21.7626 22.8232 21.4697 22.5303L1.46973 2.53027C1.17684 2.23737 1.17684 1.76261 1.46973 1.46972Z" fill="currentColor"/>
</svg>
