<svg width="24" height="24" viewBox="0 0 24 24" fill="none" xmlns="http://www.w3.org/2000/svg">
<path fill-rule="evenodd" clip-rule="evenodd" d="M11.9999 7.66992C14.3899 7.66993 16.33 9.61003 16.33 12C16.3299 14.3899 14.3899 16.3301 11.9999 16.3301C9.60995 16.3301 7.66987 14.39 7.66982 12C7.66982 9.61002 9.60991 7.66992 11.9999 7.66992ZM11.9999 9.16992C10.4399 9.16992 9.16982 10.44 9.16982 12C9.16987 13.56 10.4399 14.8301 11.9999 14.8301C13.5599 14.8301 14.8299 13.5599 14.83 12C14.83 10.44 13.5599 9.16993 11.9999 9.16992Z" fill="currentColor"/>
<path fill-rule="evenodd" clip-rule="evenodd" d="M11.9999 2.98047C15.7498 2.98047 19.3001 5.18019 21.7401 9C22.8001 10.65 22.8001 13.341 21.7401 15.001C19.3001 18.8208 15.7498 21.0205 11.9999 21.0205C8.24003 21.0204 4.68985 18.8208 2.24989 15.001C1.1899 13.351 1.1899 10.66 2.24989 9C4.69985 5.18022 8.25003 2.98054 11.9999 2.98047ZM11.9999 4.48047C8.76997 4.48054 5.68036 6.42067 3.5204 9.81055C2.7704 10.9806 2.7704 13.0204 3.5204 14.1904C5.68036 17.5803 8.76997 19.5204 11.9999 19.5205C15.2299 19.5205 18.3204 17.5804 20.4804 14.1904C21.2302 13.0205 21.2302 10.9805 20.4804 9.81055C18.3204 6.42055 15.2299 4.48047 11.9999 4.48047Z" fill="currentColor"/>
</svg>
