<svg width="24" height="24" viewBox="0 0 24 24" fill="none" xmlns="http://www.w3.org/2000/svg">
<path fill-rule="evenodd" clip-rule="evenodd" d="M8.79004 2.91923C10.3001 1.74942 12.7104 1.68941 14.2803 2.78935L20.04 6.81963C21.14 7.58963 22.0098 9.24989 22.0098 10.5999V17.3802C22.0095 19.93 19.9395 21.9993 17.3896 21.9993H6.61035C4.06035 21.9993 1.99023 19.9194 1.99023 17.3694V10.47C1.99023 9.21001 2.78027 7.60939 3.78027 6.82939L8.79004 2.91923ZM12 14.2493C11.5901 14.2493 11.2502 14.5895 11.25 14.9993V17.9993C11.25 18.4093 11.59 18.7493 12 18.7493C12.41 18.7493 12.75 18.4093 12.75 17.9993V14.9993C12.7498 14.5895 12.4099 14.2493 12 14.2493Z" fill="currentColor"/>
</svg>
