<svg width="24" height="24" viewBox="0 0 24 24" fill="none" xmlns="http://www.w3.org/2000/svg">
<path d="M14.79 16.291C15.02 16.061 15.3704 15.9505 15.6904 16.0205C15.7603 16.0305 15.82 16.0511 15.8799 16.0811C15.9398 16.101 15.9997 16.131 16.0596 16.1709C16.1096 16.2009 16.16 16.251 16.21 16.291C16.3899 16.481 16.5 16.741 16.5 17.001C16.5 17.261 16.3899 17.521 16.21 17.7109C16.02 17.8909 15.76 18.001 15.5 18.001C15.24 18.001 14.98 17.8909 14.79 17.7109C14.7 17.6209 14.6301 17.5109 14.5801 17.3809C14.5301 17.2609 14.5 17.1309 14.5 17.001C14.5 16.871 14.5301 16.7411 14.5801 16.6211C14.6301 16.4911 14.7001 16.381 14.79 16.291Z" fill="currentColor"/>
<path d="M7.79004 16.2891C8.16003 15.9192 8.83997 15.9192 9.20996 16.2891C9.38992 16.479 9.49995 16.7391 9.5 16.999C9.5 17.259 9.38991 17.519 9.20996 17.709C9.01996 17.889 8.76 17.999 8.5 17.999C8.37 17.999 8.24011 17.9689 8.12012 17.9189C8.00012 17.8689 7.89004 17.799 7.79004 17.709C7.61009 17.519 7.5 17.259 7.5 16.999C7.50003 16.8691 7.5301 16.7391 7.58008 16.6191C7.63008 16.4892 7.70005 16.379 7.79004 16.2891Z" fill="currentColor"/>
<path d="M11.29 16.2891C11.66 15.9192 12.34 15.9192 12.71 16.2891C12.7999 16.379 12.8699 16.4892 12.9199 16.6191C12.9699 16.7391 13 16.8691 13 16.999C13 17.259 12.8899 17.519 12.71 17.709C12.52 17.889 12.26 17.999 12 17.999C11.74 17.999 11.48 17.889 11.29 17.709C11.1101 17.519 11 17.259 11 16.999C11 16.8691 11.0301 16.7391 11.0801 16.6191C11.1301 16.4892 11.2001 16.379 11.29 16.2891Z" fill="currentColor"/>
<path d="M11.6201 12.5811C11.9801 12.4211 12.43 12.511 12.71 12.791C12.8899 12.981 13 13.241 13 13.501C13 13.5609 12.9905 13.6312 12.9805 13.7012C12.9755 13.7312 12.9671 13.761 12.957 13.791L12.8828 13.9707C12.8678 14.0007 12.8501 14.0305 12.8301 14.0605C12.8001 14.1105 12.75 14.1609 12.71 14.2109C12.52 14.3909 12.26 14.501 12 14.501C11.87 14.501 11.7401 14.4709 11.6201 14.4209C11.4902 14.3709 11.39 14.3009 11.29 14.2109C11.1101 14.021 11.0001 13.7709 11 13.501C11 13.3711 11.0301 13.241 11.0801 13.1211C11.1301 13.0011 11.2001 12.891 11.29 12.791C11.39 12.701 11.4901 12.6311 11.6201 12.5811Z" fill="currentColor"/>
<path d="M15.1201 12.5811C15.4901 12.4211 15.93 12.511 16.21 12.791C16.3899 12.981 16.5 13.241 16.5 13.501C16.5 13.5609 16.4905 13.6312 16.4805 13.7012C16.4755 13.7312 16.4671 13.761 16.457 13.791L16.3828 13.9707C16.3678 14.0007 16.3501 14.0305 16.3301 14.0605C16.3001 14.1105 16.25 14.1609 16.21 14.2109C16.02 14.3909 15.76 14.501 15.5 14.501C15.37 14.501 15.2401 14.4709 15.1201 14.4209C14.9902 14.3709 14.89 14.3009 14.79 14.2109C14.75 14.1609 14.7099 14.1105 14.6699 14.0605C14.6499 14.0305 14.6322 14.0007 14.6172 13.9707L14.543 13.791C14.5329 13.761 14.5245 13.7312 14.5195 13.7012C14.5095 13.6312 14.5 13.5609 14.5 13.501C14.5 13.241 14.6101 12.981 14.79 12.791C14.89 12.701 14.9901 12.6311 15.1201 12.5811Z" fill="currentColor"/>
<path d="M8.12012 12.5801C8.48002 12.4302 8.93 12.5102 9.20996 12.79C9.38989 12.98 9.49991 13.2401 9.5 13.5C9.5 13.56 9.49046 13.6303 9.48047 13.7002C9.47049 13.7601 9.44984 13.82 9.41992 13.8799C9.39992 13.9399 9.37008 14.0005 9.33008 14.0605C9.30011 14.1104 9.2499 14.1601 9.20996 14.21C9.01996 14.39 8.76 14.5 8.5 14.5C8.37 14.5 8.24012 14.4699 8.12012 14.4199C7.99013 14.3699 7.89003 14.3 7.79004 14.21C7.61013 14.02 7.5 13.7699 7.5 13.5C7.50005 13.3701 7.53012 13.24 7.58008 13.1201C7.63007 13.0002 7.70009 12.89 7.79004 12.79C7.88999 12.7001 7.99018 12.6301 8.12012 12.5801Z" fill="currentColor"/>
<path fill-rule="evenodd" clip-rule="evenodd" d="M16 1.25C16.41 1.25 16.75 1.59 16.75 2V2.78223C19.9361 3.0554 21.75 5.10783 21.75 8.5V17C21.75 20.65 19.65 22.75 16 22.75H8C4.35 22.75 2.25 20.65 2.25 17V8.5C2.25 5.10783 4.06389 3.0554 7.25 2.78223V2C7.25 1.59 7.59 1.25 8 1.25C8.41 1.25 8.75 1.59 8.75 2V2.75H15.25V2C15.25 1.59 15.59 1.25 16 1.25ZM3.75 9.83984V17C3.75 19.86 5.14 21.25 8 21.25H16C18.86 21.25 20.25 19.86 20.25 17V9.83984H3.75ZM8.75 5C8.75 5.41 8.41 5.75 8 5.75C7.59 5.75 7.25 5.41 7.25 5V4.28516C4.94553 4.51257 3.79859 5.84537 3.75195 8.33984H20.248C20.2014 5.84537 19.0545 4.51257 16.75 4.28516V5C16.75 5.41 16.41 5.75 16 5.75C15.59 5.75 15.25 5.41 15.25 5V4.25H8.75V5Z" fill="currentColor"/>
</svg>
