<svg width="24" height="24" viewBox="0 0 24 24" fill="none" xmlns="http://www.w3.org/2000/svg">
<path fill-rule="evenodd" clip-rule="evenodd" d="M16.1904 2C19.83 2.00017 22.0001 4.16997 21.9902 7.80957V16.1904C21.9901 19.8302 19.8195 22 16.1797 22H7.80957C4.16983 21.9998 2 19.8295 2 16.1797V7.80957C2.00017 4.16997 4.16997 2.00017 7.80957 2H16.1904ZM16.3604 7.62988C14.5104 5.77988 11.4896 5.77988 9.63965 7.62988L7.21973 10.0498C6.42981 10.8397 6.00006 11.8899 6 13.0098C6 14.1298 6.44023 15.1802 7.24023 15.9502C7.53019 16.2399 8.00986 16.2399 8.2998 15.9502C8.5898 15.6602 8.5898 15.1796 8.2998 14.8896C7.78998 14.3897 7.50977 13.7099 7.50977 13C7.50977 12.2901 7.78998 11.6203 8.2998 11.1104L10.7197 8.69043C11.9897 7.42043 14.0503 7.42043 15.3203 8.69043C16.5899 9.96041 16.5901 12.0202 15.3203 13.29L13.0996 15.5098C12.6096 15.9997 11.8201 15.9997 11.3301 15.5098C11.0901 15.2798 10.96 14.9598 10.96 14.6299C10.96 14.2999 11.0901 13.99 11.3301 13.75L12.7402 12.3398C13.03 12.0499 13.0299 11.5702 12.7402 11.2803C12.4502 10.9903 11.9697 10.9903 11.6797 11.2803L10.2695 12.6904C9.74984 13.2004 9.45999 13.9001 9.45996 14.6299C9.45996 15.3598 9.74958 16.0503 10.2695 16.5703C10.7995 17.1003 11.51 17.3701 12.21 17.3701C12.91 17.3701 13.6104 17.1103 14.1504 16.5703L16.3701 14.3496C18.2198 12.4996 18.2201 9.47981 16.3604 7.62988Z" fill="currentColor"/>
</svg>
