<svg width="24" height="24" viewBox="0 0 24 24" fill="none" xmlns="http://www.w3.org/2000/svg">
<path d="M15.3301 15.6895C15.7399 15.6895 16.0798 16.0297 16.0801 16.4395C16.0801 16.8495 15.7401 17.1895 15.3301 17.1895H8.66016C8.25016 17.1895 7.91016 16.8495 7.91016 16.4395C7.91041 16.0297 8.25031 15.6895 8.66016 15.6895H15.3301Z" fill="currentColor"/>
<path d="M12 6.81055C12.1236 6.81055 12.2393 6.84402 12.3428 6.89844C12.4097 6.93271 12.4737 6.97466 12.5293 7.03027L14.75 9.25C15.0397 9.53989 15.0396 10.0196 14.75 10.3096C14.6 10.4596 14.4097 10.5303 14.2197 10.5303C14.0297 10.5303 13.8395 10.4596 13.6895 10.3096L12.75 9.37012V13.1201C12.75 13.5301 12.41 13.8701 12 13.8701V13.8604C11.5901 13.8604 11.2501 13.5202 11.25 13.1104V9.36914L10.3096 10.3096C10.0196 10.5996 9.54 10.5996 9.25 10.3096C8.96008 10.0196 8.96003 9.53997 9.25 9.25L11.4697 7.03027C11.5276 6.97244 11.5941 6.92832 11.6641 6.89355C11.7657 6.84153 11.8793 6.81055 12 6.81055Z" fill="currentColor"/>
<path fill-rule="evenodd" clip-rule="evenodd" d="M17 1.25C20.17 1.25 22.75 3.83 22.75 7V17C22.75 20.17 20.17 22.75 17 22.75H7C3.83 22.75 1.25 20.17 1.25 17V7C1.25 3.83 3.83 1.25 7 1.25H17ZM7 2.75C4.66 2.75 2.75 4.66 2.75 7V17C2.75 19.34 4.66 21.25 7 21.25H17C19.34 21.25 21.25 19.34 21.25 17V7C21.25 4.66 19.34 2.75 17 2.75H7Z" fill="currentColor"/>
</svg>
