<svg width="24" height="24" viewBox="0 0 24 24" fill="none" xmlns="http://www.w3.org/2000/svg">
<path fill-rule="evenodd" clip-rule="evenodd" d="M12 2C12.6399 2 13.2699 2.05971 13.8799 2.17969C18.4999 3.04969 22 7.12 22 12C22 12.58 21.9504 13.1404 21.8604 13.6904L21.7744 14.1289C20.793 18.6308 16.7954 22 12 22C6.48 22 2 17.52 2 12C2 9.21 3.15023 6.68012 4.99023 4.87012C6.79023 3.09016 9.27002 2 12 2ZM14.041 3.74609C13.8938 4.13881 13.586 4.47101 13.0996 4.66016C11.3402 5.36019 12.5995 6.64049 11.0996 7.44043C10.0996 7.96014 8.59937 7.82975 7.09961 6.25C6.85563 5.98726 6.63938 5.76449 6.43359 5.57715C6.29956 5.69398 6.16757 5.8145 6.04004 5.94043C4.40016 7.55041 3.5 9.70009 3.5 12C3.5 16.4631 6.95056 20.1265 11.3262 20.4707C11.3823 20.1913 11.5065 19.9062 11.6699 19.6201C12.1699 18.7736 12.4199 17.7804 12.4199 16.6406C12.4199 14.9406 13.4301 14.1404 17 14.8604C18.1744 15.0938 19.1097 13.9765 20.3408 13.6377C20.3536 13.5721 20.3685 13.5067 20.3799 13.4404C20.4599 12.9504 20.5 12.48 20.5 12C20.5 8.06199 17.8113 4.66284 14.041 3.74609Z" fill="currentColor"/>
</svg>
