<svg width="24" height="24" viewBox="0 0 24 24" fill="none" xmlns="http://www.w3.org/2000/svg">
<path fill-rule="evenodd" clip-rule="evenodd" d="M12 8.25036C14.07 8.25036 15.75 9.93036 15.75 12.0004C15.7498 14.0702 14.0699 15.7504 12 15.7504C9.93012 15.7504 8.2502 14.0702 8.25 12.0004C8.25 9.93036 9.93 8.25036 12 8.25036ZM12 9.75036C10.76 9.75036 9.75 10.7604 9.75 12.0004C9.7502 13.2402 10.7601 14.2504 12 14.2504C13.2399 14.2504 14.2498 13.2402 14.25 12.0004C14.25 10.7604 13.24 9.75036 12 9.75036Z" fill="currentColor"/>
<path fill-rule="evenodd" clip-rule="evenodd" d="M7.59961 2.14001C8.72961 1.47001 10.2204 1.86013 10.9004 3.01013L11.0195 3.21032C11.6095 4.23028 12.4198 4.23019 13.0098 3.21032L13.1201 3.0199C13.8002 1.86017 15.2898 1.47084 16.4297 2.15075L18.1504 3.14001C18.7603 3.49002 19.1997 4.06044 19.3896 4.75036C19.5696 5.44034 19.4799 6.15014 19.1299 6.76013C18.84 7.26988 18.76 7.72987 18.9297 8.0199C19.0997 8.3099 19.5301 8.47986 20.1201 8.47986C21.58 8.47992 22.7695 9.6703 22.7695 11.1302V12.89C22.7695 14.35 21.5801 15.5403 20.1201 15.5404C19.5301 15.5404 19.0997 15.7104 18.9297 16.0004C18.7598 16.2903 18.83 16.7503 19.1299 17.2601C19.4798 17.87 19.5795 18.59 19.3896 19.2699C19.2097 19.9598 18.7702 20.5302 18.1504 20.8802L16.4199 21.8705C16.04 22.0804 15.6299 22.1898 15.21 22.1898C15 22.1898 14.79 22.1607 14.5801 22.1107C13.9602 21.9407 13.4404 21.5503 13.1104 21.0004L12.9902 20.8002C12.4003 19.7802 11.59 19.7803 11 20.8002L10.8896 20.9906C10.5596 21.5504 10.0398 21.9508 9.41992 22.1107C8.79001 22.2806 8.13978 22.1906 7.58984 21.8607L5.87012 20.8705C5.26012 20.5205 4.81988 19.9501 4.62988 19.2601C4.44997 18.5703 4.53978 17.8603 4.88965 17.2504C5.17959 16.7405 5.25972 16.2806 5.08984 15.9906C4.91988 15.7007 4.49019 15.5307 3.90039 15.5306C2.44039 15.5306 1.25 14.3402 1.25 12.8802V11.1205C1.25 9.66047 2.44039 8.47009 3.90039 8.47009C4.49019 8.47002 4.91988 8.30007 5.08984 8.01013C5.25981 7.72013 5.18963 7.26034 4.88965 6.75036C4.53975 6.14048 4.45001 5.42047 4.62988 4.7406C4.80988 4.0506 5.25012 3.48025 5.87012 3.13025L7.59961 2.14001ZM15.6504 3.43005C15.2204 3.17005 14.6496 3.32013 14.3896 3.76013L14.2803 3.95056C13.7103 4.94042 12.8801 5.50027 11.9902 5.50036C11.1003 5.50036 10.2702 4.94038 9.7002 3.95056L9.58984 3.75036C9.33984 3.33037 8.77961 3.18005 8.34961 3.43005L6.62012 4.43005C6.36013 4.58004 6.16009 4.83027 6.08008 5.13025C6.00008 5.43025 6.04043 5.74036 6.19043 6.00036C6.7603 6.98029 6.82961 7.99019 6.38965 8.76013C5.94969 9.53002 5.04019 9.96999 3.90039 9.97009C3.26039 9.97009 2.75 10.4805 2.75 11.1205V12.8802C2.75 13.5102 3.26039 14.0306 3.90039 14.0306C5.04021 14.0307 5.9497 14.4707 6.38965 15.2406C6.82958 16.0106 6.76034 17.0204 6.19043 18.0004C6.04043 18.2604 6.00008 18.5705 6.08008 18.8705C6.16011 19.1704 6.35041 19.4107 6.61035 19.5707L8.33984 20.5599C8.54984 20.6899 8.80027 20.7205 9.03027 20.6605C9.27018 20.6005 9.46965 20.4398 9.59961 20.2299L9.70996 20.0404C10.28 19.0604 11.11 18.4906 12 18.4906C12.89 18.4906 13.72 19.0504 14.29 20.0404L14.4004 20.2299C14.5204 20.4399 14.72 20.5908 14.96 20.6508C15.1999 20.7107 15.4397 20.6799 15.6396 20.5599L17.3701 19.5599C17.6299 19.41 17.8301 19.1605 17.9102 18.8607C17.9901 18.5608 17.9497 18.2506 17.7998 17.9906C17.2298 17.0106 17.1596 15.9999 17.5996 15.2299C18.0396 14.46 18.95 14.0199 20.0898 14.0199C20.7298 14.0199 21.2401 13.5104 21.2402 12.8705V11.1107C21.2402 10.4807 20.7298 9.96032 20.0898 9.96032C18.9499 9.96028 18.0396 9.52033 17.5996 8.75036C17.1597 7.98046 17.23 6.97045 17.7998 5.9906C17.9498 5.73066 17.9901 5.42041 17.9102 5.12048C17.8302 4.82048 17.6399 4.58029 17.3799 4.42029L15.6504 3.43005Z" fill="currentColor"/>
</svg>
