<svg width="24" height="24" viewBox="0 0 24 24" fill="none" xmlns="http://www.w3.org/2000/svg">
<path fill-rule="evenodd" clip-rule="evenodd" d="M17 2C19.76 2 22 4.24 22 7V10.8896C22 11.6696 21.36 12.3095 20.5801 12.3096H18.1602C14.9302 12.3096 12.3096 14.9302 12.3096 18.1602V20.5801C12.3095 21.36 11.6696 22 10.8896 22H7C4.24 22 2 19.76 2 17V7C2 4.24 4.24 2 7 2H17ZM7.55957 6.80957C7.14991 6.80981 6.80981 7.14991 6.80957 7.55957C6.80957 7.96943 7.14976 8.30933 7.55957 8.30957H16.4502C16.8601 8.30946 17.2002 7.96951 17.2002 7.55957C17.2 7.14983 16.86 6.80968 16.4502 6.80957H7.55957Z" fill="currentColor"/>
<path d="M21.9697 14.0098C21.6297 18.2498 18.2498 21.6297 14.0098 21.9697C14.1997 21.5498 14.3096 21.08 14.3096 20.5801V18.1602C14.3096 16.0402 16.0402 14.3096 18.1602 14.3096H20.5801C21.08 14.3095 21.5498 14.1997 21.9697 14.0098Z" fill="currentColor"/>
</svg>
