<svg width="24" height="24" viewBox="0 0 24 24" fill="none" xmlns="http://www.w3.org/2000/svg">
<path d="M15.7197 8.62988C16.0097 8.33988 16.4903 8.33988 16.7803 8.62988C17.0699 8.91983 17.0699 9.39953 16.7803 9.68945L11.1104 15.3594C10.9704 15.4993 10.78 15.58 10.5801 15.5801C10.3801 15.5801 10.1898 15.4994 10.0498 15.3594L7.21973 12.5293C6.93004 12.2393 6.92998 11.7597 7.21973 11.4697C7.50973 11.1797 7.99027 11.1797 8.28027 11.4697L10.5801 13.7695L15.7197 8.62988Z" fill="currentColor"/>
<path fill-rule="evenodd" clip-rule="evenodd" d="M12 1.25C17.93 1.25 22.75 6.07 22.75 12C22.75 17.93 17.93 22.75 12 22.75C6.07 22.75 1.25 17.93 1.25 12C1.25 6.07 6.07 1.25 12 1.25ZM12 2.75C6.9 2.75 2.75 6.9 2.75 12C2.75 17.1 6.9 21.25 12 21.25C17.1 21.25 21.25 17.1 21.25 12C21.25 6.9 17.1 2.75 12 2.75Z" fill="currentColor"/>
</svg>
