<svg width="24" height="24" viewBox="0 0 24 24" fill="none" xmlns="http://www.w3.org/2000/svg">
<path d="M16.4707 15.9199C16.7607 15.6302 17.2403 15.6301 17.5303 15.9199C17.8203 16.2099 17.8203 16.6905 17.5303 16.9805L17.0703 17.4404C16.5204 17.9902 15.7505 18.3095 14.9707 18.3096H9.03027C8.25048 18.3095 7.48061 17.9902 6.93066 17.4404L6.4707 16.9805C6.1807 16.6905 6.1807 16.2099 6.4707 15.9199C6.76068 15.6301 7.24032 15.6301 7.53027 15.9199L7.99023 16.3799C8.2602 16.6498 8.64033 16.8095 9.03027 16.8096H14.9707C15.3606 16.8095 15.7408 16.6498 16.0107 16.3799L16.4707 15.9199Z" fill="currentColor"/>
<path d="M12 6.80957C12.4099 6.80957 12.7498 7.14976 12.75 7.55957V11.2998L14.0596 9.99023C14.3495 9.70028 14.8291 9.70036 15.1191 9.99023C15.4091 10.2802 15.4091 10.7598 15.1191 11.0498L12.5674 13.6016C12.4291 13.7637 12.2266 13.8701 12 13.8701V13.8604C11.9523 13.8604 11.9057 13.8545 11.8604 13.8457C11.7129 13.8177 11.5767 13.7466 11.4697 13.6396L8.87988 11.0498C8.58988 10.7598 8.58988 10.2802 8.87988 9.99023C9.16989 9.70026 9.64946 9.70024 9.93945 9.99023L11.25 11.2998V7.55957C11.2502 7.14976 11.5901 6.80957 12 6.80957Z" fill="currentColor"/>
<path fill-rule="evenodd" clip-rule="evenodd" d="M17 1.25C20.17 1.25 22.75 3.83 22.75 7V17C22.75 20.17 20.17 22.75 17 22.75H7C3.83 22.75 1.25 20.17 1.25 17V7C1.25 3.83 3.83 1.25 7 1.25H17ZM7 2.75C4.66 2.75 2.75 4.66 2.75 7V17C2.75 19.34 4.66 21.25 7 21.25H17C19.34 21.25 21.25 19.34 21.25 17V7C21.25 4.66 19.34 2.75 17 2.75H7Z" fill="currentColor"/>
</svg>
