<svg width="24" height="24" viewBox="0 0 24 24" fill="none" xmlns="http://www.w3.org/2000/svg">
<path fill-rule="evenodd" clip-rule="evenodd" d="M18.0098 2C20.2198 2 22.0098 3.79 22.0098 6V14.6699C22.0098 16.8799 20.2198 18.6699 18.0098 18.6699H12.6504L8.66992 21.8496C8.46993 22.0096 8.19019 22.0397 7.9502 21.9297C7.71029 21.8197 7.55969 21.5802 7.55957 21.3203V18.6699H6C3.79 18.6699 2 16.8799 2 14.6699V6C2 3.79 3.79 2 6 2H18.0098ZM10.8701 7.58984C10.5801 7.29986 10.0996 7.29985 9.80957 7.58984L7.58984 9.80957C7.29985 10.0996 7.29986 10.5801 7.58984 10.8701L9.80957 13.0898C9.95953 13.2398 10.1499 13.3095 10.3398 13.3096C10.5298 13.3096 10.7201 13.2398 10.8701 13.0898C11.1599 12.7999 11.1599 12.3202 10.8701 12.0303L9.17969 10.3398L10.8701 8.65039C11.1601 8.36039 11.1601 7.87984 10.8701 7.58984ZM14.21 7.58008C13.92 7.29013 13.4404 7.29023 13.1504 7.58008C12.8604 7.87008 12.8604 8.34965 13.1504 8.63965L14.8398 10.3301L13.1504 12.0195C12.8604 12.3095 12.8604 12.7901 13.1504 13.0801C13.3003 13.2298 13.4899 13.2997 13.6797 13.2998C13.8697 13.2998 14.06 13.23 14.21 13.0801L16.4297 10.8604C16.7197 10.5704 16.7197 10.0898 16.4297 9.7998L14.21 7.58008Z" fill="currentColor"/>
</svg>
