<svg width="24" height="24" viewBox="0 0 24 24" fill="none" xmlns="http://www.w3.org/2000/svg">
<path d="M9.08008 13.71C9.42001 13.3803 9.96007 13.3803 10.29 13.71C10.62 14.0399 10.6198 14.5899 10.29 14.9199L4.05957 21.1504H8.16016C8.63 21.1504 9.02027 21.53 9.02051 22.0098C9.02051 22.4898 8.64015 22.8701 8.16016 22.8701L8.15039 22.8604H1.99023L1.99219 22.8594C1.98006 22.8593 1.96807 22.858 1.95605 22.8574C1.75097 22.8474 1.54828 22.769 1.38965 22.6104C1.29128 22.5119 1.22326 22.3935 1.18359 22.2676C1.15614 22.1835 1.13965 22.0938 1.13965 22V15.8506C1.13965 15.3806 1.52006 14.9903 2 14.9902C2.48 14.9902 2.86035 15.3706 2.86035 15.8506V19.9297L9.08008 13.71Z" fill="currentColor"/>
<path d="M13.7002 13.71C14.0402 13.3803 14.5802 13.3802 14.9102 13.71L21.1504 19.9502V15.8408C21.1504 15.371 21.53 14.9807 22.0098 14.9805C22.4898 14.9805 22.8701 15.3608 22.8701 15.8408V21.9902C22.8701 22.2943 22.7101 22.5636 22.4678 22.7168C22.3257 22.8112 22.1635 22.8576 22 22.8594L15.8506 22.8604C15.3807 22.8604 14.9905 22.4808 14.9902 22.001C14.9902 21.521 15.3706 21.1406 15.8506 21.1406H19.9199L13.7002 14.9199C13.3704 14.5899 13.3703 14.0399 13.7002 13.71Z" fill="currentColor"/>
<path d="M9.69043 10.5498H9.67969C9.68119 10.5498 9.68307 10.5488 9.68457 10.5488C9.68641 10.5488 9.68859 10.5498 9.69043 10.5498Z" fill="currentColor"/>
<path d="M14.3105 10.5498H14.2998C14.3013 10.5498 14.3031 10.5488 14.3047 10.5488C14.3065 10.5488 14.3087 10.5498 14.3105 10.5498Z" fill="currentColor"/>
<path d="M8.15039 1.14062C8.62028 1.14076 9.00977 1.52106 9.00977 2.00098C9.00959 2.48073 8.63016 2.86022 8.15039 2.86035H4.06055L10.29 9.08984C10.62 9.41984 10.62 9.96984 10.29 10.2998C10.1212 10.4686 9.90306 10.5477 9.68457 10.5488C9.46641 10.5475 9.24866 10.4684 9.08008 10.2998L2.86035 4.08008V8.16016C2.86035 8.63016 2.48 9.02051 2 9.02051V9.01074C1.53006 9.01067 1.13965 8.63034 1.13965 8.15039V2.00098C1.13965 1.53102 1.52006 1.1407 2 1.14062H8.15039Z" fill="currentColor"/>
<path d="M21.9902 1.14062C22.4601 1.14076 22.8496 1.52106 22.8496 2.00098V8.15039C22.8496 8.61871 22.4727 9.00699 21.9951 9.00977C21.5273 9.00715 21.1396 8.62873 21.1396 8.15039V4.06934L14.9102 10.2998C14.7413 10.4686 14.5231 10.5477 14.3047 10.5488C14.0865 10.5475 13.8688 10.4684 13.7002 10.2998C13.3702 9.96984 13.3702 9.41984 13.7002 9.08984L19.9287 2.86035H15.8398C15.37 2.86028 14.9807 2.48077 14.9805 2.00098C14.9805 1.52102 15.3599 1.1407 15.8398 1.14062H21.9902Z" fill="currentColor"/>
<path d="M22 9.01074H21.9902C21.9919 9.01074 21.9935 9.00978 21.9951 9.00977C21.9967 9.00977 21.9984 9.01074 22 9.01074Z" fill="currentColor"/>
</svg>
