<svg width="24" height="24" viewBox="0 0 24 24" fill="none" xmlns="http://www.w3.org/2000/svg">
<path fill-rule="evenodd" clip-rule="evenodd" d="M12.3096 2C12.8596 2 13.3096 2.45 13.3096 3V5.88965C13.3096 8.25965 15.2404 10.1904 17.6104 10.1904H20.5C21.05 10.1904 21.5 10.6404 21.5 11.1904V16.4297C21.5 19.9997 19.0097 22 15.9297 22H8.07031C4.99031 22 2.5 19.9997 2.5 16.4297V7.57031C2.5 4.00031 4.99031 2 8.07031 2H12.3096ZM7.5 16.25C7.09 16.25 6.75 16.59 6.75 17C6.75 17.41 7.09 17.75 7.5 17.75H11.5C11.91 17.75 12.25 17.41 12.25 17C12.25 16.59 11.91 16.25 11.5 16.25H7.5ZM7.5 12.25C7.09 12.25 6.75 12.59 6.75 13C6.75 13.41 7.09 13.75 7.5 13.75H13.5C13.91 13.75 14.25 13.41 14.25 13C14.25 12.59 13.91 12.25 13.5 12.25H7.5Z" fill="currentColor"/>
<path d="M14.6797 2.65039C14.6798 2.08045 15.3898 1.80096 15.7998 2.21094C17.2797 3.69088 19.8598 6.30001 21.2998 7.75C21.6998 8.14995 21.3999 8.82015 20.8301 8.82031C19.7001 8.82031 18.3797 8.82055 17.4297 8.81055C15.9198 8.81045 14.6798 7.6005 14.6797 6.14062V2.65039Z" fill="currentColor"/>
</svg>
