<svg width="24" height="24" viewBox="0 0 24 24" fill="none" xmlns="http://www.w3.org/2000/svg">
<path d="M2.37012 13.6904C2.37012 13.2305 2.70968 13.0209 3.09961 13.2607C3.72961 13.6507 4.4602 13.8799 5.2002 13.8799H8.75977C9.10965 13.8799 9.60952 14.0704 9.84961 14.3203C10.4196 14.9003 11.19 15.2207 12 15.2207C12.8199 15.2207 13.5902 14.8905 14.1602 14.3105C14.4002 14.0605 14.8905 13.8701 15.2305 13.8701H18.7998C19.5396 13.8701 20.2698 13.6406 20.8896 13.2607C21.2796 13.0207 21.6201 13.2304 21.6201 13.6904V17.8906C21.6199 19.9505 19.9398 21.6299 17.8799 21.6299H6.11035C4.05046 21.6299 2.37029 19.9505 2.37012 17.8906V13.6904Z" fill="currentColor"/>
<path fill-rule="evenodd" clip-rule="evenodd" d="M13.0703 1.62988C14.6602 1.63 15.9501 2.9199 15.9502 4.50977V5.58008H17.8896C18.9096 5.58008 19.8298 5.99018 20.5098 6.66016C21.4098 7.54016 21.7197 8.85982 21.4697 10.0898L21.4404 10.2402C21.2003 11.4301 20.0097 12.4004 18.7998 12.4004H15.2305C14.4306 12.4004 13.6706 12.7201 13.1006 13.29C12.4907 13.8899 11.4304 13.8699 10.8604 13.2402C10.3204 12.6403 9.49032 12.4005 8.69043 12.4004H5.23047C4.02058 12.4004 2.83022 11.4301 2.58008 10.2402L2.54004 10.0498C2.35007 9.10983 2.46049 8.10977 2.98047 7.2998C3.64049 6.25993 4.80021 5.58008 6.12012 5.58008H8.06055V4.5C8.06055 2.92 9.34064 1.62988 10.9307 1.62988H13.0703ZM10.9307 3.11035C10.1607 3.11035 9.53034 3.73982 9.53027 4.50977V5.58008H14.46V4.50977C14.4599 3.73994 13.8303 3.11054 13.0605 3.11035H10.9307Z" fill="currentColor"/>
</svg>
