<svg width="24" height="24" viewBox="0 0 24 24" fill="none" xmlns="http://www.w3.org/2000/svg">
<path d="M17.6604 6.24023C18.0702 6.24046 18.4104 6.56651 18.4104 6.95996V15.2354C18.4103 15.6287 18.0702 15.9548 17.6604 15.9551C17.2505 15.9551 16.9105 15.6289 16.9104 15.2354V8.68848L6.87039 18.3271C6.7304 18.4711 6.5401 18.5381 6.34012 18.5381C6.15014 18.5381 5.95983 18.4711 5.80985 18.3271C5.52006 18.0489 5.52024 17.588 5.80985 17.3096L15.8421 7.67969H9.04031C8.63031 7.67969 8.29031 7.35356 8.29031 6.95996C8.29033 6.56637 8.63032 6.24023 9.04031 6.24023H17.6604Z" fill="currentColor"/>
</svg>
