<svg width="24" height="24" viewBox="0 0 24 24" fill="none" xmlns="http://www.w3.org/2000/svg">
<path fill-rule="evenodd" clip-rule="evenodd" d="M5 14C7.21 14 9 15.8 9 18C9 18.47 8.91953 18.9201 8.76953 19.3301C8.22947 20.89 6.73992 22 5 22C2.8 22 1 20.21 1 18C1 17.0501 1.3298 16.1802 1.88965 15.4902C2.61965 14.5902 3.75 14 5 14ZM3.08984 18.2803C2.82007 18.2804 2.59985 18.4898 2.59961 18.7695V18.8701C2.59967 19.52 3.11991 20.0399 3.75977 20.04H5.76953C5.66968 20.22 5.68971 20.4604 5.84961 20.6104C5.93961 20.7104 6.0702 20.75 6.2002 20.75C6.33004 20.75 6.4501 20.7102 6.54004 20.6104L7.25977 19.9004C7.29974 19.8604 7.34034 19.8002 7.36035 19.7402C7.41033 19.6203 7.41007 19.4801 7.37012 19.3701C7.34012 19.3101 7.29977 19.25 7.25977 19.21L6.54004 18.4902C6.36006 18.3003 6.05036 18.3003 5.86035 18.4902C5.70035 18.6502 5.68027 18.8803 5.78027 19.0703H3.76953C3.65981 19.0701 3.58013 18.9799 3.58008 18.8701V18.7695C3.57983 18.4898 3.35969 18.2803 3.08984 18.2803ZM4.13965 15.3896C3.95965 15.1901 3.64986 15.1899 3.45996 15.3896L2.74023 16.0996C2.69027 16.1396 2.65986 16.2098 2.62988 16.2598C2.5899 16.3797 2.58993 16.5099 2.62988 16.6299C2.65988 16.6899 2.70023 16.75 2.74023 16.79L3.45996 17.5098C3.54991 17.5997 3.67986 17.6503 3.7998 17.6504C3.9398 17.6504 4.06039 17.5998 4.15039 17.5098C4.3101 17.3498 4.3304 17.1196 4.23047 16.9297H6.23047C6.34019 16.9299 6.41987 17.0201 6.41992 17.1299V17.2305C6.42017 17.5102 6.64031 17.7197 6.91016 17.7197C7.17993 17.7196 7.40015 17.5102 7.40039 17.2305H7.38965V17.1299C7.38959 16.4801 6.87022 15.9602 6.23047 15.96H4.21973C4.31973 15.78 4.29965 15.5396 4.13965 15.3896Z" fill="currentColor"/>
<path fill-rule="evenodd" clip-rule="evenodd" d="M17 4C20 4 22 5.5 22 9V15.0098C22 18.5098 20 20.0098 17 20.0098H10.8096C10.4898 20.0095 10.2404 19.72 10.3203 19.4102C10.4303 19.0102 10.49 18.5997 10.5 18.1797C10.5698 15.5098 8.63966 13.0696 6.00977 12.5996C4.8199 12.3897 3.68987 12.5598 2.70996 13.0098C2.37996 13.1598 2 12.9296 2 12.5596V9C2 5.5 4 4 7 4H17ZM18.5 9.25C18.09 9.25 17.75 9.59 17.75 10V14C17.75 14.41 18.09 14.75 18.5 14.75C18.91 14.75 19.25 14.41 19.25 14V10C19.25 9.59 18.91 9.25 18.5 9.25ZM12 9.5C10.62 9.5 9.5 10.62 9.5 12C9.5 13.38 10.62 14.5 12 14.5C13.38 14.5 14.5 13.38 14.5 12C14.5 10.62 13.38 9.5 12 9.5Z" fill="currentColor"/>
</svg>
