<svg width="24" height="24" viewBox="0 0 24 24" fill="none" xmlns="http://www.w3.org/2000/svg">
<path d="M5.36951 11.4601C5.58951 11.2501 5.90982 11.1799 6.18982 11.2999C6.46982 11.4199 6.65978 11.6901 6.64978 12.0001V14.9005H12.0004C12.4102 14.9007 12.7504 15.2406 12.7504 15.6505C12.7503 16.0603 12.4102 16.4003 12.0004 16.4005H6.64978V19.3097C6.64978 19.6097 6.46982 19.8801 6.18982 20.0001C6.08991 20.04 5.99971 20.0597 5.89978 20.0597C5.69984 20.0596 5.50947 19.9799 5.36951 19.8399L1.71033 16.1798C1.42033 15.8898 1.42033 15.4092 1.71033 15.1192L5.36951 11.4601Z" fill="currentColor"/>
<path d="M17.8002 3.99034C18.0802 3.87039 18.4105 3.94052 18.6205 4.1505L22.2797 7.80967C22.3355 7.86555 22.3772 7.93096 22.4115 7.99815C22.4657 8.10145 22.5004 8.21665 22.5004 8.33995C22.5003 8.50954 22.4385 8.6646 22.3412 8.79112C22.3347 8.79926 22.3285 8.80764 22.3217 8.81553C22.2958 8.84647 22.2681 8.87498 22.2377 8.90147L18.6205 12.5206C18.4805 12.6606 18.2902 12.7403 18.0902 12.7403C17.9902 12.7403 17.8902 12.7198 17.8002 12.6798C17.5202 12.5698 17.3403 12.2903 17.3402 11.9903V9.08995H12.0004C11.5904 9.08995 11.2504 8.7499 11.2504 8.33995C11.2504 7.92995 11.5904 7.58995 12.0004 7.58995H17.3402V4.67979C17.3404 4.37994 17.5203 4.11029 17.8002 3.99034Z" fill="currentColor"/>
</svg>
