<svg width="24" height="24" viewBox="0 0 24 24" fill="none" xmlns="http://www.w3.org/2000/svg">
<path d="M5.81965 6.45169C6.10965 6.17329 6.59019 6.17329 6.88019 6.45169L16.9105 16.0806V9.54251C16.9106 9.14905 17.2506 8.82278 17.6605 8.82278C18.0701 8.82303 18.4103 9.1492 18.4105 9.54251V17.8179C18.4105 17.9783 18.3536 18.1232 18.263 18.2417C18.2458 18.2643 18.2276 18.2863 18.2073 18.3072C18.1945 18.3204 18.1812 18.333 18.1673 18.3452C18.1415 18.3682 18.115 18.389 18.0872 18.4077C18.0822 18.4111 18.0777 18.4152 18.0726 18.4185C18.0564 18.4288 18.0385 18.4359 18.0218 18.4449C17.9974 18.4578 17.9735 18.4716 17.9476 18.482C17.9202 18.4929 17.8918 18.4997 17.8636 18.5074C17.8435 18.5128 17.8238 18.5201 17.803 18.524L17.8021 18.5249L17.6605 18.5376H9.04035C8.63035 18.5376 8.29035 18.2115 8.29035 17.8179C8.2904 17.4243 8.63038 17.0982 9.04035 17.0982H15.8499L5.81965 7.46927C5.5299 7.19093 5.52995 6.73006 5.81965 6.45169Z" fill="currentColor"/>
</svg>
