<svg width="24" height="24" viewBox="0 0 24 24" fill="none" xmlns="http://www.w3.org/2000/svg">
<path d="M15.0136 1.48525C15.2976 1.18381 15.7726 1.17015 16.0742 1.454C16.3757 1.73799 16.3904 2.21302 16.1064 2.51454L12.7499 6.07704V10.6649L16.4609 8.40614L17.7148 3.59169C17.8191 3.19093 18.2281 2.95043 18.6288 3.05458C19.0296 3.15894 19.2699 3.56794 19.1659 3.96864L18.0224 8.36025L22.1972 9.49599C22.5967 9.60471 22.832 10.0173 22.7236 10.4169C22.6147 10.8162 22.2032 11.0518 21.8036 10.9433L17.2226 9.69716L13.4247 12.0106L14.5009 12.6893L17.2197 14.3026L21.8036 13.0565C22.2031 12.9479 22.6147 13.1836 22.7236 13.5829C22.8321 13.9825 22.5967 14.3951 22.1972 14.5038L18.0224 15.6386L19.1659 20.0311C19.2701 20.4319 19.0296 20.8419 18.6288 20.9462C18.2281 21.0503 17.8192 20.8097 17.7148 20.4091L16.4618 15.5976L13.7265 13.9755C13.7208 13.9721 13.7155 13.9673 13.7099 13.9638L12.7499 13.3583V17.9208L16.1064 21.4852C16.3901 21.7868 16.3754 22.2618 16.0742 22.5458C15.7726 22.8297 15.2976 22.8151 15.0136 22.5136L11.9999 19.3134L8.98626 22.5136C8.70227 22.8152 8.22725 22.8297 7.92571 22.5458C7.62459 22.2618 7.61061 21.7867 7.89446 21.4852L11.2499 17.9208V13.3583L10.2909 13.9638C10.2852 13.9674 10.2791 13.9721 10.2734 13.9755L7.53802 15.5976L6.28607 20.4091C6.18167 20.8096 5.77262 21.0502 5.372 20.9462C4.97122 20.8419 4.7307 20.432 4.83489 20.0311L5.97747 15.6386L1.80267 14.5038C1.40336 14.3949 1.16778 13.9824 1.2763 13.5829C1.38518 13.1835 1.79768 12.9479 2.1972 13.0565L6.77923 14.3026L9.49798 12.6893L10.5751 12.0097L6.7763 9.69716L2.1972 10.9433C1.79764 11.0519 1.38519 10.8163 1.2763 10.4169C1.16791 10.0174 1.40338 9.60484 1.80267 9.49599L5.9765 8.36025L4.83489 3.96864C4.73079 3.56789 4.97126 3.15888 5.372 3.05458C5.77273 2.95053 6.18177 3.19096 6.28607 3.59169L7.539 8.40712L11.2499 10.6649V6.07704L7.89446 2.51454C7.61067 2.21309 7.62448 1.73798 7.92571 1.454C8.22712 1.17015 8.70224 1.18408 8.98626 1.48525L11.9999 4.68447L15.0136 1.48525Z" fill="currentColor"/>
</svg>
