<svg width="24" height="24" viewBox="0 0 24 24" fill="none" xmlns="http://www.w3.org/2000/svg">
<path d="M21 21.2502C21.41 21.2502 21.75 21.5902 21.75 22.0002C21.7499 22.4101 21.4099 22.7502 21 22.7502H3C2.59007 22.7502 2.25012 22.4101 2.25 22.0002C2.25 21.5902 2.59 21.2502 3 21.2502H21Z" fill="currentColor"/>
<path fill-rule="evenodd" clip-rule="evenodd" d="M12.7197 3.09983C14.7697 0.929882 16.9101 0.869318 19.0801 2.91916C21.2501 4.96916 21.3098 7.10952 19.2598 9.27952L11.0498 17.9699C10.6298 18.4198 9.85008 18.8396 9.24023 18.9397L6.01953 19.4895C5.84973 19.4995 5.69988 19.5197 5.54004 19.5198C4.93004 19.5198 4.3602 19.3092 3.9502 18.9192C3.43034 18.4292 3.17964 17.6897 3.26953 16.8899L3.63965 13.6496C3.70965 13.0396 4.07977 12.2293 4.50977 11.7893L12.7197 3.09983ZM5.59961 12.8098C5.39967 13.02 5.16986 13.5199 5.12988 13.8098L4.75977 17.05C4.71989 17.3798 4.80055 17.6496 4.98047 17.8196C5.16044 17.9894 5.42998 18.0492 5.75977 17.9992L8.98047 17.4494C9.2705 17.3992 9.75028 17.1398 9.9502 16.9299L15.8701 10.6623C13.8648 10.0282 12.2567 8.50703 11.5176 6.53733L5.59961 12.8098ZM15.9297 2.9094C15.1598 2.90953 14.4895 3.38969 13.8096 4.10959L12.7129 5.27073C13.1847 7.40554 14.901 9.04289 17.0547 9.40842L18.1602 8.23948C19.4001 6.91953 19.85 5.69919 18.04 3.99924C17.2401 3.22934 16.5497 2.9094 15.9297 2.9094Z" fill="currentColor"/>
</svg>
