<svg width="24" height="24" viewBox="0 0 24 24" fill="none" xmlns="http://www.w3.org/2000/svg">
<path d="M13.6895 9.24042C13.9795 8.95042 14.46 8.95042 14.75 9.24042C15.0396 9.5304 15.0397 10.0101 14.75 10.3L13.0586 11.9943L14.75 13.6896C15.04 13.9796 15.0399 14.4602 14.75 14.7502C14.6 14.9002 14.4097 14.9699 14.2197 14.9699C14.0297 14.9699 13.8395 14.9002 13.6895 14.7502L11.999 13.0558L10.3096 14.7502C10.1596 14.9001 9.96924 14.9699 9.7793 14.9699C9.58953 14.9698 9.39985 14.8999 9.25 14.7502C8.96 14.4602 8.96 13.9796 9.25 13.6896L10.9404 11.9943L9.25 10.3C8.96003 10.01 8.96008 9.53042 9.25 9.24042C9.54 8.95042 10.0196 8.95042 10.3096 9.24042L11.999 10.9338L13.6895 9.24042Z" fill="currentColor"/>
<path fill-rule="evenodd" clip-rule="evenodd" d="M10.6797 1.79999C11.3697 1.11002 12.6196 1.11008 13.3096 1.79999L15 3.48944C15.23 3.71941 15.5499 3.85952 15.8799 3.85956H17.3799C18.8998 3.85956 20.1298 5.08964 20.1299 6.60956V8.10956C20.1299 8.43949 20.2601 8.75945 20.5 8.98944L22.1904 10.6799C22.5402 11.0199 22.7305 11.5003 22.7305 12.0002C22.7303 12.5 22.5296 12.9696 22.1797 13.3195L20.4902 15.0099C20.2602 15.2399 20.1201 15.5598 20.1201 15.8898V17.3898C20.1201 18.9097 18.89 20.1398 17.3701 20.1398H15.8701C15.5401 20.1398 15.2202 20.2699 14.9902 20.5099L13.2998 22.1994C12.9599 22.5493 12.4803 22.7393 11.9805 22.7394L12 22.7502C11.51 22.7502 11.0297 22.5494 10.6797 22.1994L8.99023 20.5099C8.75032 20.27 8.44022 20.1399 8.11035 20.1398H6.61035C5.09039 20.1398 3.86042 18.9098 3.86035 17.3898V15.8898C3.86035 15.5599 3.73008 15.2399 3.49023 15.0099L1.7998 13.3195C1.45004 12.9796 1.25013 12.4999 1.25 12.0002C1.25 11.5003 1.44991 11.0298 1.7998 10.6799L3.49023 8.98944C3.72007 8.75946 3.86035 8.43943 3.86035 8.10956V6.60956C3.86045 5.08964 5.09041 3.85956 6.61035 3.85956H8.11035C8.44023 3.85946 8.76032 3.72935 8.99023 3.48944L10.6797 1.79999ZM12.25 2.84979C12.12 2.71982 11.8703 2.71988 11.7402 2.84979L10.0498 4.54022C9.52993 5.05992 8.84006 5.3497 8.11035 5.34979H6.59961C5.90979 5.35 5.34961 5.90992 5.34961 6.59979V8.09979C5.3496 8.81971 5.05971 9.52929 4.5498 10.0392L2.86035 11.7297C2.79036 11.7997 2.75001 11.8897 2.75 11.9797C2.75 12.0696 2.78973 12.1696 2.84961 12.2297L4.54004 13.9299C5.04989 14.4398 5.3495 15.1495 5.34961 15.8693V17.3693C5.34961 18.0592 5.90979 18.6191 6.59961 18.6193H8.09961C8.82961 18.6193 9.52004 18.9099 10.04 19.4299L11.7305 21.1193C11.8605 21.2493 12.1102 21.2493 12.2402 21.1193L13.9297 19.4299C14.4497 18.9099 15.1401 18.6193 15.8701 18.6193H17.3701C18.0601 18.6193 18.6201 18.0593 18.6201 17.3693V15.8693C18.6202 15.1396 18.9099 14.4497 19.4297 13.9299L21.1201 12.2394C21.19 12.1695 21.2305 12.0794 21.2305 11.9894C21.2304 11.8995 21.1898 11.7994 21.1299 11.7394L19.4404 10.0392C18.9205 9.51929 18.6299 8.82976 18.6299 8.09979V6.59979C18.6299 5.90979 18.0699 5.34979 17.3799 5.34979H15.8799C15.1501 5.34976 14.4603 5.05991 13.9404 4.54022L12.25 2.84979Z" fill="currentColor"/>
</svg>
