<svg width="24" height="24" viewBox="0 0 24 24" fill="none" xmlns="http://www.w3.org/2000/svg">
<path d="M14.96 6.24023C15.3699 6.24032 15.7099 6.56642 15.71 6.95996C15.71 7.35351 15.3699 7.6796 14.96 7.67969H8.1582L18.1904 17.3096C18.48 17.588 18.4802 18.0489 18.1904 18.3271C18.0404 18.4711 17.8501 18.5381 17.6602 18.5381C17.4702 18.5381 17.2799 18.4711 17.1299 18.3271L7.08984 8.68848V15.2354C7.08975 15.6289 6.75979 15.9551 6.33984 15.9551C5.9299 15.9551 5.58994 15.6289 5.58984 15.2354V6.95996C5.58986 6.56637 5.92985 6.24023 6.33984 6.24023H14.96Z" fill="currentColor"/>
</svg>
