<svg width="24" height="24" viewBox="0 0 24 24" fill="none" xmlns="http://www.w3.org/2000/svg">
<path d="M17.1201 6.45145C17.4101 6.17307 17.8907 6.17306 18.1807 6.45145C18.4705 6.72977 18.4703 7.19063 18.1807 7.46902L8.15039 17.0979H14.96C15.3698 17.098 15.7098 17.4243 15.71 17.8177C15.71 18.2112 15.3799 18.5383 14.96 18.5384H6.33984L6.19824 18.5257C6.05764 18.5 5.92305 18.4344 5.81055 18.3264C5.76274 18.2805 5.7254 18.2283 5.69336 18.1741C5.62928 18.0683 5.58984 17.9473 5.58984 17.8177V9.54324C5.58984 9.14964 5.92984 8.82254 6.33984 8.82254C6.74984 8.82254 7.08984 9.14964 7.08984 9.54324V16.0804L17.1201 6.45145Z" fill="currentColor"/>
</svg>
