<svg width="24" height="24" viewBox="0 0 24 24" fill="none" xmlns="http://www.w3.org/2000/svg">
<path d="M5.75 8.33984C5.92001 7.95996 6.3603 7.79033 6.74023 7.9502L11.4102 9.99023C11.7801 10.1502 12.2101 10.1502 12.5801 9.99023L17.25 7.96973C17.63 7.79973 18.0702 7.98035 18.2402 8.36035C18.4002 8.74033 18.2305 9.1806 17.8506 9.35059L13.1807 11.3701C12.8007 11.5301 12.4 11.6104 12 11.6104V11.6201C11.5902 11.6201 11.1904 11.54 10.8105 11.3701L6.14062 9.33008C5.76062 9.16008 5.59 8.71984 5.75 8.33984Z" fill="currentColor"/>
<path fill-rule="evenodd" clip-rule="evenodd" d="M17.5498 2.91992C20.4098 2.91992 22.7402 5.25035 22.7402 8.11035V15.8896C22.7402 18.7496 20.4098 21.0801 17.5498 21.0801H6.44043C3.58043 21.0801 1.25 18.7496 1.25 15.8896V8.11035C1.25 5.25035 3.58043 2.91992 6.44043 2.91992H17.5498ZM6.44043 4.41992C4.40043 4.41992 2.75 6.08035 2.75 8.11035V15.8896C2.75 17.9296 4.41043 19.5801 6.44043 19.5801H17.5498C19.5898 19.5801 21.2402 17.9196 21.2402 15.8896V8.11035C21.2402 6.07035 19.5798 4.41992 17.5498 4.41992H6.44043Z" fill="currentColor"/>
</svg>
