<svg preserveAspectRatio="none" width="100%" height="100%" overflow="visible" style="display: block;" viewBox="0 0 33 28" fill="none" xmlns="http://www.w3.org/2000/svg">
<g id="Frame">
<path id="Vector" d="M9.31982 21.6606H23.6802C25.4233 21.6606 26.2866 20.7974 26.2866 19.0874V8.95215C26.2866 7.24219 25.4233 6.37891 23.6802 6.37891H9.31982C7.58496 6.37891 6.71338 7.23389 6.71338 8.95215V19.0874C6.71338 20.8057 7.58496 21.6606 9.31982 21.6606ZM9.33643 20.3242C8.50635 20.3242 8.0498 19.8843 8.0498 19.021V9.01855C8.0498 8.15527 8.50635 7.71533 9.33643 7.71533H13.0386V20.3242H9.33643ZM23.6636 7.71533C24.4854 7.71533 24.9502 8.15527 24.9502 9.01855V19.021C24.9502 19.8843 24.4854 20.3242 23.6636 20.3242H14.3418V7.71533H23.6636ZM11.4365 10.7949C11.6938 10.7949 11.9097 10.5708 11.9097 10.3301C11.9097 10.0811 11.6938 9.86523 11.4365 9.86523H9.66016C9.41113 9.86523 9.18701 10.0811 9.18701 10.3301C9.18701 10.5708 9.41113 10.7949 9.66016 10.7949H11.4365ZM11.4365 12.9448C11.6938 12.9448 11.9097 12.7207 11.9097 12.4717C11.9097 12.2227 11.6938 12.0151 11.4365 12.0151H9.66016C9.41113 12.0151 9.18701 12.2227 9.18701 12.4717C9.18701 12.7207 9.41113 12.9448 9.66016 12.9448H11.4365ZM11.4365 15.0864C11.6938 15.0864 11.9097 14.8789 11.9097 14.6299C11.9097 14.3809 11.6938 14.165 11.4365 14.165H9.66016C9.41113 14.165 9.18701 14.3809 9.18701 14.6299C9.18701 14.8789 9.41113 15.0864 9.66016 15.0864H11.4365Z" fill="var(--fill-0, #737373)"/>
</g>
</svg>
