<svg preserveAspectRatio="none" width="100%" height="100%" overflow="visible" style="display: block;" viewBox="0 0 21 21" fill="none" xmlns="http://www.w3.org/2000/svg">
<g id="frame">
<path id="vector" d="M8.48644 13.4253V7.57352L13.6308 10.4997L8.48644 13.4253ZM19.9288 5.73142C19.6965 4.87764 19.0403 4.21745 18.2062 3.98383L18.1884 3.97989C16.093 3.71345 13.6695 3.5612 11.2099 3.5612C10.9598 3.5612 10.7105 3.56252 10.4618 3.5658L10.4998 3.56514C10.2885 3.56252 10.0398 3.56055 9.78975 3.56055C7.33013 3.56055 4.90529 3.7128 2.52507 4.00745L2.80988 3.97858C1.95872 4.2168 1.30247 4.87633 1.07475 5.71305L1.07082 5.73011C0.808316 7.11414 0.658691 8.70686 0.658691 10.3344C0.658691 10.3921 0.658691 10.4499 0.659348 10.507V10.4978C0.659348 10.5463 0.658691 10.6041 0.658691 10.6618C0.658691 12.2893 0.808973 13.8814 1.09575 15.4255L1.07082 15.2654C1.30313 16.1192 1.95938 16.7794 2.79347 17.013L2.81119 17.017C4.9066 17.2834 7.33013 17.4356 9.78975 17.4356C10.0391 17.4356 10.2885 17.4343 10.5379 17.431L10.4998 17.4317C10.7111 17.4343 10.9605 17.4363 11.2099 17.4363C13.6702 17.4363 16.0943 17.284 18.4746 16.9894L18.1898 17.0183C19.0416 16.7807 19.6978 16.1205 19.9262 15.2838L19.9301 15.2667C20.192 13.8827 20.3416 12.29 20.3416 10.6631C20.3416 10.6054 20.3416 10.5476 20.3409 10.4905V10.4991C20.3409 10.4505 20.3416 10.3928 20.3416 10.335C20.3416 8.70752 20.1913 7.11545 19.9045 5.5713L19.9288 5.73142Z" fill="var(--fill-0, #0F0F0F)"/>
</g>
</svg>
