<svg preserveAspectRatio="none" width="100%" height="100%" overflow="visible" style="display: block;" viewBox="0 0 21.5 21.5" fill="none" xmlns="http://www.w3.org/2000/svg">
<g id="Vector">
<path d="M14.4697 7.37988C14.7597 7.08988 15.2403 7.08988 15.5303 7.37988C15.8199 7.66983 15.8199 8.14953 15.5303 8.43945L9.86035 14.1094C9.72039 14.2493 9.53001 14.33 9.33008 14.3301C9.13008 14.3301 8.9398 14.2494 8.7998 14.1094L5.96973 11.2793C5.68004 10.9893 5.67998 10.5097 5.96973 10.2197C6.25973 9.92973 6.74027 9.92973 7.03027 10.2197L9.33008 12.5195L14.4697 7.37988Z" fill="var(--fill-0, #42B03B)"/>
<path fill-rule="evenodd" clip-rule="evenodd" d="M10.75 0C16.68 0 21.5 4.82 21.5 10.75C21.5 16.68 16.68 21.5 10.75 21.5C4.82 21.5 0 16.68 0 10.75C0 4.82 4.82 0 10.75 0ZM10.75 1.5C5.65 1.5 1.5 5.65 1.5 10.75C1.5 15.85 5.65 20 10.75 20C15.85 20 20 15.85 20 10.75C20 5.65 15.85 1.5 10.75 1.5Z" fill="var(--fill-0, #42B03B)"/>
</g>
</svg>
