<svg preserveAspectRatio="none" width="100%" height="100%" overflow="visible" style="display: block;" viewBox="0 0 7.47708 7.17375" fill="none" xmlns="http://www.w3.org/2000/svg">
<path id="Vector" d="M7.03958 0C7.27863 0.000133435 7.47707 0.190329 7.47708 0.41984V5.24715C7.47703 5.47663 7.2786 5.66686 7.03958 5.66699C6.80045 5.66699 6.60214 5.47671 6.60208 5.24715V1.42814L0.745394 7.0507C0.663729 7.13468 0.552723 7.17375 0.436067 7.17375C0.325247 7.17374 0.214231 7.13469 0.126741 7.0507C-0.042299 6.88836 -0.0421952 6.61952 0.126741 6.45711L5.97887 0.839681H2.01118C1.77201 0.839681 1.57368 0.64944 1.57368 0.41984C1.57369 0.190248 1.77202 0 2.01118 0H7.03958Z" fill="var(--fill-0, #737373)"/>
</svg>
