<svg preserveAspectRatio="none" width="100%" height="100%" overflow="visible" style="display: block;" viewBox="0 0 13.3268 13.3333" fill="none" xmlns="http://www.w3.org/2000/svg">
<path id="Vector" fill-rule="evenodd" clip-rule="evenodd" d="M9.46029 0C11.8867 0.0001137 13.3334 1.44665 13.3268 3.87305V9.46029C13.3267 11.8868 11.8797 13.3333 9.45312 13.3333H3.87305C1.44655 13.3332 0 11.8864 0 9.45312V3.87305C0.000113826 1.44665 1.44665 0.000113826 3.87305 0H9.46029ZM9.57357 3.75325C8.34023 2.51992 6.32643 2.51992 5.0931 3.75325L3.47982 5.36654C2.9532 5.89316 2.66671 6.59325 2.66667 7.33984C2.66667 8.08651 2.96016 8.7868 3.49349 9.30013C3.68679 9.49328 4.00657 9.49328 4.19987 9.30013C4.3932 9.1068 4.3932 8.78643 4.19987 8.5931C3.85999 8.25978 3.67318 7.80658 3.67318 7.33333C3.67318 6.86008 3.85999 6.41354 4.19987 6.07357L5.81315 4.46029C6.65982 3.61362 8.03354 3.61362 8.88021 4.46029C9.7266 5.30694 9.7267 6.6801 8.88021 7.52669L7.39974 9.00651C7.07307 9.33312 6.5467 9.33316 6.22005 9.00651C6.06008 8.85318 5.97331 8.6399 5.97331 8.41992C5.97333 8.19995 6.06007 7.99331 6.22005 7.83333L7.16016 6.89323C7.3533 6.69994 7.35328 6.38016 7.16016 6.18685C6.96682 5.99352 6.64646 5.99352 6.45312 6.18685L5.51302 7.12695C5.16656 7.46691 4.97333 7.93342 4.97331 8.41992C4.97331 8.90656 5.16639 9.36688 5.51302 9.71354C5.86635 10.0669 6.33998 10.2467 6.80664 10.2467C7.27331 10.2467 7.74026 10.0735 8.10026 9.71354L9.58008 8.23307C10.8132 6.99975 10.8134 4.98654 9.57357 3.75325Z" fill="var(--fill-0, #A3A3A3)"/>
</svg>
