<svg preserveAspectRatio="none" width="100%" height="100%" overflow="visible" style="display: block;" viewBox="0 0 13.3333 13.2744" fill="none" xmlns="http://www.w3.org/2000/svg">
<path id="Vector" fill-rule="evenodd" clip-rule="evenodd" d="M6.51302 0.055C6.68635 -0.0183333 6.87354 -0.0183333 7.04687 0.055L12.9336 2.62141C13.1734 2.72806 13.3332 2.96818 13.3333 3.23469V5.12857H12.3535V11.0543H12.5931L13.3333 12.5348V13.2744H0V12.5348L0.740234 11.0543H0.979818V5.12857H0V3.33495C1.05503e-05 3.06838 0.159874 2.82838 0.39974 2.72167L6.51302 0.055ZM9.12695 11.0543H11.3535V5.12857H9.12695V11.0543ZM5.20638 11.0543H8.12695V5.12857H5.20638V11.0543ZM1.97982 11.0543H4.20638V5.12857H1.97982V11.0543Z" fill="var(--fill-0, #A3A3A3)"/>
</svg>
