<svg preserveAspectRatio="none" width="100%" height="100%" overflow="visible" style="display: block;" viewBox="0 0 11.25 10.875" fill="none" xmlns="http://www.w3.org/2000/svg">
<g id="Vector">
<path d="M7.68192 6.53755C7.68192 5.4375 7.02745 5.06033 5.7185 4.9032C4.78353 4.77745 4.59654 4.52603 4.59654 4.08595C4.59654 3.64587 4.90822 3.36307 5.5315 3.36307C6.09248 3.36307 6.40416 3.55165 6.55996 4.02311C6.59115 4.11741 6.68465 4.18024 6.77815 4.18024H7.27674C7.40143 4.18024 7.49493 4.08595 7.49493 3.96028V3.92882C7.37024 3.23732 6.80926 2.70302 6.09248 2.64019V1.88585C6.09248 1.7601 5.99899 1.66581 5.84318 1.63435H5.3757C5.25101 1.63435 5.15752 1.72864 5.12633 1.88585V2.60873C4.19136 2.73448 3.59927 3.36307 3.59927 4.14886C3.59927 5.18608 4.22255 5.59463 5.5315 5.75183C6.40416 5.90896 6.68465 6.09755 6.68465 6.60046C6.68465 7.10338 6.24828 7.4491 5.65619 7.4491C4.84584 7.4491 4.56535 7.10331 4.47185 6.63184C4.44074 6.50617 4.34724 6.44326 4.25374 6.44326H3.72388C3.59927 6.44326 3.50577 6.53755 3.50577 6.6633V6.69476C3.63038 7.48048 4.12906 8.04623 5.15752 8.20343V8.95777C5.15752 9.08345 5.25101 9.17774 5.40682 9.20919H5.8743C5.99898 9.20919 6.09248 9.1149 6.12367 8.95777V8.20343C7.05864 8.04623 7.68192 7.38618 7.68192 6.53755Z" fill="var(--fill-0, white)"/>
<path d="M4.03556 9.83778C1.60466 8.95777 0.358012 6.22329 1.26186 3.80307C1.72934 2.48298 2.7578 1.47722 4.03556 1.00576C4.16025 0.942923 4.22255 0.848631 4.22255 0.691427V0.251421C4.22255 0.125673 4.16025 0.0313805 4.03556 0C4.00437 0 3.94206 -2.0143e-07 3.91087 0.0313803C0.950181 0.974304 -0.670449 4.14886 0.264515 7.13476C0.825494 8.89486 2.16563 10.2464 3.91087 10.8122C4.03556 10.875 4.16025 10.8122 4.19136 10.6864C4.22255 10.655 4.22255 10.6236 4.22255 10.5607V10.1207C4.22255 10.0264 4.12906 9.9007 4.03556 9.83778ZM7.33913 0.0313803C7.21444 -0.0314561 7.08975 0.0313804 7.05864 0.157129C7.02745 0.188585 7.02745 0.219965 7.02745 0.282877V0.722883C7.02745 0.848631 7.12094 0.974304 7.21444 1.03722C9.64534 1.91723 10.892 4.65171 9.98814 7.07193C9.52066 8.39202 8.4922 9.39778 7.21444 9.86924C7.08975 9.93208 7.02745 10.0264 7.02745 10.1836V10.6236C7.02745 10.7493 7.08975 10.8436 7.21444 10.875C7.24563 10.875 7.30793 10.875 7.33913 10.8436C10.2998 9.9007 11.9204 6.72614 10.9855 3.74024C10.4245 1.94868 9.05318 0.597134 7.33913 0.0313803Z" fill="var(--fill-0, white)"/>
</g>
</svg>
