<svg preserveAspectRatio="none" width="100%" height="100%" overflow="visible" style="display: block;" viewBox="0 0 15.4999 15.4999" fill="none" xmlns="http://www.w3.org/2000/svg">
<path id="Vector" d="M14.2197 0.21967C14.5126 -0.073222 14.9873 -0.0732223 15.2802 0.21967C15.5731 0.512567 15.5731 0.987342 15.2802 1.28022L8.81049 7.74994L15.2802 14.2197C15.5731 14.5126 15.5731 14.9873 15.2802 15.2802C14.9873 15.5731 14.5126 15.5731 14.2197 15.2802L7.74994 8.81049L1.28022 15.2802C0.987342 15.5731 0.512567 15.5731 0.21967 15.2802C-0.0732234 14.9873 -0.0732231 14.5126 0.21967 14.2197L6.6894 7.74994L0.21967 1.28022C-0.0732227 0.987323 -0.0732226 0.512563 0.21967 0.21967C0.512563 -0.0732234 0.987323 -0.073223 1.28022 0.21967L7.74994 6.6894L14.2197 0.21967Z" fill="var(--fill-0, #0F0F0F)"/>
</svg>
