<svg preserveAspectRatio="none" width="100%" height="100%" overflow="visible" style="display: block;" viewBox="0 0 88.2369 6.58398" fill="none" xmlns="http://www.w3.org/2000/svg">
<path id="Vector" opacity="0.3" d="M0.159376 1.79937L1.45505 2.87147L2.49158 2.33542L3.00985 3.06896L3.78726 2.61755V3.68965L5.86033 2.58934L7.156 4.6489L7.67427 3.71786L8.19254 3.60501L8.96994 2.75862L9.48821 5.0721L10.5247 3.97178L11.043 4.45141L11.8204 2.02507L12.3387 2.98432L13.1161 2.39185L13.6344 3.06896L14.93 2.95611L15.4483 2.02507L16.2257 2.33542L17.0031 3.52037L17.5214 3.71786L18.2988 5.0721L20.8901 2.98432L21.6675 3.97178L22.1858 0.981188L22.7041 3.21003L23.4815 3.26645L24.2589 3.04075L25.0363 2.02507L25.5545 4.11285L26.0728 2.19435H26.8502L27.3685 1.26332L27.8867 3.35109L28.6641 2.47649L29.4415 3.29467L29.9598 2.19435L30.7372 1.79937L32.8103 3.35109L34.106 2.39185L34.8893 3.68005L35.6727 2.31641L36.195 2.06073L36.9784 2.51528L37.7618 3.68005L38.284 1.26332L39.3285 1.40732L40.1119 2.60051L41.6787 1.9471L42.1187 2.51528L42.9843 2.2596L43.7677 2.39185L44.2899 1.97551L44.8122 2.96982L46.379 1.86187L47.4235 3.96414L48.2069 5.81073L49.5125 0.810733L50.2959 2.82778L51.0793 2.74255L51.6015 2.20278L52.1238 3.65164L52.9071 1.54937L54.2128 4.4471L54.9962 3.48119L55.5184 4.30505L56.3018 4.50391L56.8241 2.8846L57.6074 5.10051L58.3908 3.56642L58.9131 4.56073L59.6965 4.95846L60.741 4.33346L61.5244 3.76528H62.3077L62.83 3.5096L63.3523 2.5721L64.1356 4.50391L64.919 3.56642L65.4413 4.30505L66.2247 4.21982L66.7469 3.96414L67.5303 2.77096L68.3137 3.36755L68.8359 4.64596L69.6193 2.48687L70.1416 3.53801L70.6638 3.28232H71.4472L72.2306 3.14028L73.014 3.56642L73.5362 2.37323L74.0585 3.53801L74.8419 3.11187L75.6253 3.33914L76.4086 2.28801L77.7143 3.39596L78.2365 4.78801L78.7588 3.96414L79.5422 4.02096L80.0644 4.7596L80.8478 4.02096L81.6312 4.7596L82.1534 4.30505L83.4591 4.02096L84.2425 2.65732L85.5481 5.72551L86.3315 4.64596L87.1149 4.95846L87.376 2.5721L88.1594 2.82778" stroke="var(--stroke-0, #A3A3A3)" stroke-width="0.5"/>
</svg>
