<svg preserveAspectRatio="none" width="100%" height="100%" overflow="visible" style="display: block;" viewBox="0 0 16.0015 16.001" fill="none" xmlns="http://www.w3.org/2000/svg">
<g id="group">
<path id="vector" d="M7.99737 5.33175C6.52862 5.33175 5.32862 6.53175 5.32862 8.0005C5.32862 9.46925 6.52862 10.6692 7.99737 10.6692C9.46612 10.6692 10.6661 9.46925 10.6661 8.0005C10.6661 6.53175 9.46612 5.33175 7.99737 5.33175ZM16.0005 8.0005C16.0005 6.89425 16.0099 5.8005 15.9474 4.69737C15.8849 3.41612 15.5942 2.28175 14.6567 1.34425C13.7192 0.406749 12.5849 0.116124 11.3036 0.0536243C10.1974 -0.00887574 9.10362 0.00049926 8.0005 0.00049926C6.89425 0.00049926 5.8005 -0.00887574 4.69737 0.0536243C3.41612 0.116124 2.28175 0.406749 1.34425 1.34425C0.406749 2.28175 0.116124 3.41612 0.0536243 4.69737C-0.00887574 5.80362 0.00049926 6.89737 0.00049926 8.0005C0.00049926 9.10362 -0.00887574 10.2005 0.0536243 11.3036C0.116124 12.5849 0.406749 13.7192 1.34425 14.6567C2.28175 15.5942 3.41612 15.8849 4.69737 15.9474C5.80362 16.0099 6.89737 16.0005 8.0005 16.0005C9.10675 16.0005 10.2005 16.0099 11.3036 15.9474C12.5849 15.8849 13.7224 15.5942 14.6567 14.6567C15.5942 13.7192 15.8849 12.5849 15.9474 11.3036C16.013 10.2005 16.0005 9.10675 16.0005 8.0005ZM7.99737 12.1067C5.7255 12.1067 3.89112 10.2724 3.89112 8.0005C3.89112 5.72862 5.7255 3.89425 7.99737 3.89425C10.2692 3.89425 12.1036 5.72862 12.1036 8.0005C12.1036 10.2724 10.2692 12.1067 7.99737 12.1067ZM12.2724 4.68487C11.7411 4.68487 11.313 4.25675 11.313 3.7255C11.313 3.19425 11.7411 2.76612 12.2724 2.76612C12.8036 2.76612 13.2317 3.19425 13.2317 3.7255C13.2317 4.25675 12.8036 4.68487 12.2724 4.68487Z" fill="var(--fill-0, #0F0F0F)"/>
</g>
</svg>
