<svg preserveAspectRatio="none" width="100%" height="100%" overflow="visible" style="display: block;" viewBox="0 0 8.54524 8.19857" fill="none" xmlns="http://www.w3.org/2000/svg">
<path id="Vector" d="M8.04524 0C8.31844 0.000152497 8.54523 0.217518 8.54524 0.479818V5.99674C8.54518 6.259 8.3184 6.47641 8.04524 6.47656C7.77194 6.47656 7.5453 6.2591 7.54524 5.99674V1.63216L0.851878 8.05794C0.758548 8.15392 0.631683 8.19857 0.498363 8.19857C0.371711 8.19856 0.244836 8.15393 0.144847 8.05794C-0.0483418 7.87241 -0.048223 7.56516 0.144847 7.37956L6.833 0.959635H2.29849C2.02516 0.959635 1.79849 0.742218 1.79849 0.479818C1.7985 0.217426 2.02517 0 2.29849 0H8.04524Z" fill="var(--fill-0, #A3A3A3)"/>
</svg>
