<svg preserveAspectRatio="none" width="100%" height="100%" overflow="visible" style="display: block;" viewBox="0 0 88 22" fill="none" xmlns="http://www.w3.org/2000/svg">
<path id="Vector" opacity="0.3" d="M1.29567 2.16531L0 1.03881V22H88V2.1194L87.2166 1.85075L86.9555 4.35821L86.1721 4.02985L85.3887 5.16418L84.0831 1.9403L83.2997 3.37313L81.9941 3.67164L81.4718 4.14925L80.6884 3.37313L79.905 4.14925L79.3828 3.37313L78.5994 3.31343L78.0772 4.17911L77.5549 2.71642L76.2493 1.55224L75.4659 2.65672L74.6825 2.41791L73.8991 2.86567L73.3769 1.64179L72.8546 2.89552L72.0712 2.44776L71.2878 2.59702H70.5045L69.9822 2.86567L69.4599 1.76119L68.6766 4.02985L68.1543 2.68657L67.3709 2.0597L66.5875 3.31343L66.0653 3.58209L65.2819 3.67164L64.7596 2.89552L63.9763 3.8806L63.1929 1.85075L62.6706 2.83582L62.1484 3.10448H61.365L60.5816 3.70149L59.5371 4.35821L58.7537 3.9403L58.2315 2.89552L57.4481 4.50746L56.6647 2.17911L56.1424 3.8806L55.3591 3.67164L54.8368 2.80597L54.0534 3.8209L52.7478 0.776119L51.9644 2.98507L51.4421 1.46269L50.9199 2.02985L50.1365 2.1194L49.3531 0L48.0475 5.25373L47.2641 3.31343L46.2196 1.10448L44.6528 2.26866L44.1306 1.22388L43.6083 1.66135L42.8249 1.52239L41.9594 1.79104L41.5193 1.19403L39.9525 1.8806L39.1691 0.626866L38.1246 0.475553L37.6024 3.01493L36.819 1.79104L36.0356 1.31343L35.5134 1.58209L34.73 3.01493L33.9466 1.66135L32.6509 2.66927L30.5778 1.03881L29.8004 1.45383L29.2822 2.60998L28.5048 1.75028L27.7274 2.66927L27.2091 0.475553L26.6908 1.45383H25.9134L25.3952 3.46969L24.8769 1.27597L24.0995 2.34318L23.3221 2.58034L22.5447 2.52105L22.0264 0.179105L21.5081 3.32146L20.7307 2.28389L18.1394 4.47761L17.362 3.05466L16.8437 2.84714L16.0663 1.60206L15.2889 1.27597L14.7707 2.25425L13.475 2.37283L12.9567 1.66135L12.1793 2.28389L11.661 1.27597L10.8836 3.82543L10.3654 3.32146L9.32883 4.47761L8.81057 2.04673L8.03316 2.93608L7.51489 3.05466L6.99662 4.03294L5.70095 1.86886L3.62788 3.02501V1.89851L2.85048 2.37283L2.33221 1.60206L1.29567 2.16531Z" fill="url(#paint0_linear_6392_143813)"/>
<defs>
<linearGradient id="paint0_linear_6392_143813" x1="44" y1="0" x2="44" y2="23.3333" gradientUnits="userSpaceOnUse">
<stop stop-color="#A3A3A3"/>
<stop offset="1" stop-color="#A3A3A3" stop-opacity="0"/>
</linearGradient>
</defs>
</svg>
