<svg preserveAspectRatio="none" width="100%" height="100%" overflow="visible" style="display: block;" viewBox="0 0 15.5664 17.9167" fill="none" xmlns="http://www.w3.org/2000/svg">
<g id="Vector">
<path d="M7.7832 10.8333C12.0749 10.8333 15.5664 13.7333 15.5664 17.2917C15.5664 17.6333 15.2831 17.9167 14.9414 17.9167C14.5998 17.9166 14.3164 17.6333 14.3164 17.2917C14.3164 14.4167 11.3832 12.0833 7.7832 12.0833C4.18324 12.0834 1.25 14.4167 1.25 17.2917C1.25 17.6333 0.966667 17.9167 0.625 17.9167C0.283333 17.9167 0 17.6333 0 17.2917C0 13.7334 3.49157 10.8334 7.7832 10.8333Z" fill="var(--fill-0, #0F0F0F)"/>
<path fill-rule="evenodd" clip-rule="evenodd" d="M7.7832 0C10.4249 0 12.5749 2.15 12.5749 4.79167C12.5749 7.43333 10.4249 9.58333 7.7832 9.58333C5.14154 9.58333 2.99154 7.43333 2.99154 4.79167C2.99154 2.15 5.14154 0 7.7832 0ZM7.7832 1.25C5.8332 1.25 4.24154 2.84167 4.24154 4.79167C4.24154 6.74167 5.8332 8.33333 7.7832 8.33333C9.7332 8.33333 11.3249 6.74167 11.3249 4.79167C11.3249 2.84167 9.7332 1.25 7.7832 1.25Z" fill="var(--fill-0, #0F0F0F)"/>
</g>
</svg>
