<svg preserveAspectRatio="none" width="100%" height="100%" overflow="visible" style="display: block;" viewBox="0 0 21.4805 21.4676" fill="none" xmlns="http://www.w3.org/2000/svg">
<g id="Vector">
<path d="M12.4395 7.95788C12.7295 7.66788 13.21 7.66788 13.5 7.95788C13.7896 8.24787 13.7897 8.72756 13.5 9.01745L11.8086 10.7118L13.5 12.4071C13.79 12.6971 13.7899 13.1776 13.5 13.4676C13.35 13.6176 13.1597 13.6874 12.9697 13.6874C12.7797 13.6874 12.5895 13.6176 12.4395 13.4676L10.749 11.7733L9.05957 13.4676C8.90959 13.6175 8.71924 13.6874 8.5293 13.6874C8.33953 13.6873 8.14985 13.6174 8 13.4676C7.71 13.1776 7.71 12.6971 8 12.4071L9.69043 10.7118L8 9.01745C7.71003 8.72748 7.71008 8.24789 8 7.95788C8.29 7.66788 8.76957 7.66788 9.05957 7.95788L10.749 9.65124L12.4395 7.95788Z" fill="var(--fill-0, #FF3B30)"/>
<path fill-rule="evenodd" clip-rule="evenodd" d="M9.42969 0.517454C10.1197 -0.172515 11.3696 -0.172454 12.0596 0.517454L13.75 2.20691C13.98 2.43688 14.2999 2.57699 14.6299 2.57702H16.1299C17.6498 2.57702 18.8798 3.80711 18.8799 5.32702V6.82702C18.8799 7.15695 19.0101 7.47692 19.25 7.70691L20.9404 9.39734C21.2902 9.73732 21.4805 10.2178 21.4805 10.7176C21.4803 11.2175 21.2796 11.6871 20.9297 12.037L19.2402 13.7274C19.0102 13.9574 18.8701 14.2773 18.8701 14.6073V16.1073C18.8701 17.6272 17.64 18.8572 16.1201 18.8573H14.6201C14.2901 18.8573 13.9702 18.9874 13.7402 19.2274L12.0498 20.9169C11.7099 21.2668 11.2303 21.4568 10.7305 21.4569L10.75 21.4676C10.26 21.4676 9.77969 21.2669 9.42969 20.9169L7.74023 19.2274C7.50032 18.9875 7.19022 18.8574 6.86035 18.8573H5.36035C3.84039 18.8573 2.61042 17.6272 2.61035 16.1073V14.6073C2.61035 14.2774 2.48008 13.9574 2.24023 13.7274L0.549805 12.037C0.200037 11.6971 0.000125374 11.2174 0 10.7176C0 10.2177 0.199914 9.74732 0.549805 9.39734L2.24023 7.70691C2.47007 7.47693 2.61035 7.1569 2.61035 6.82702V5.32702C2.61045 3.80711 3.84041 2.57702 5.36035 2.57702H6.86035C7.19023 2.57693 7.51032 2.44682 7.74023 2.20691L9.42969 0.517454ZM11 1.56726C10.87 1.43729 10.6203 1.43735 10.4902 1.56726L8.7998 3.25769C8.27993 3.77739 7.59006 4.06717 6.86035 4.06726H5.34961C4.65979 4.06747 4.09961 4.62739 4.09961 5.31726V6.81726C4.0996 7.53718 3.80971 8.24676 3.2998 8.75671L1.61035 10.4471C1.54036 10.5171 1.50001 10.6072 1.5 10.6971C1.5 10.787 1.53973 10.8871 1.59961 10.9471L3.29004 12.6473C3.79989 13.1572 4.0995 13.867 4.09961 14.5868V16.0868C4.09961 16.7767 4.65979 17.3366 5.34961 17.3368H6.84961C7.57961 17.3368 8.27004 17.6273 8.79004 18.1473L10.4805 19.8368C10.6105 19.9667 10.8602 19.9668 10.9902 19.8368L12.6797 18.1473C13.1997 17.6273 13.8901 17.3368 14.6201 17.3368H16.1201C16.8101 17.3367 17.3701 16.7768 17.3701 16.0868V14.5868C17.3702 13.857 17.6599 13.1672 18.1797 12.6473L19.8701 10.9569C19.94 10.8869 19.9805 10.7968 19.9805 10.7069C19.9804 10.617 19.9398 10.5168 19.8799 10.4569L18.1904 8.75671C17.6705 8.23675 17.3799 7.54723 17.3799 6.81726V5.31726C17.3799 4.62726 16.8199 4.06726 16.1299 4.06726H14.6299C13.9001 4.06723 13.2103 3.77737 12.6904 3.25769L11 1.56726Z" fill="var(--fill-0, #FF3B30)"/>
</g>
</svg>
