<svg preserveAspectRatio="none" width="100%" height="100%" overflow="visible" style="display: block;" viewBox="0 0 33 28" fill="none" xmlns="http://www.w3.org/2000/svg">
<g id="Frame">
<path id="Vector" d="M13.1963 21.2197C13.4121 21.2197 13.5947 21.1367 13.7358 20.9956L20.3184 14.5625C20.4761 14.4048 20.5591 14.2139 20.5591 14.0063C20.5591 13.7905 20.4761 13.5913 20.3184 13.4502L13.7441 7.02539C13.5947 6.87598 13.4121 6.79297 13.1963 6.79297C12.7646 6.79297 12.4409 7.125 12.4409 7.55664C12.4409 7.75586 12.5239 7.95508 12.6567 8.09619L18.6997 14.0063L12.6567 19.9165C12.5239 20.0576 12.4409 20.2485 12.4409 20.4561C12.4409 20.8877 12.7646 21.2197 13.1963 21.2197Z" fill="var(--fill-0, #BFBFBF)"/>
</g>
</svg>
