<svg preserveAspectRatio="none" width="100%" height="100%" overflow="visible" style="display: block;" viewBox="0 0 14.3333 14.3333" fill="none" xmlns="http://www.w3.org/2000/svg">
<g id="Vector">
<path fill-rule="evenodd" clip-rule="evenodd" d="M4.67969 7.66667C6.01969 7.66667 6.66667 8.32031 6.66667 9.65365V12.3464C6.66667 13.6797 6.01302 14.3333 4.67969 14.3333H1.98698C0.646979 14.3333 0 13.6797 0 12.3464V9.65365C0 8.31365 0.653646 7.66667 1.98698 7.66667H4.67969ZM1.98698 8.66667C1.20031 8.66667 1 8.86698 1 9.65365V12.3464C1 13.133 1.20031 13.3333 1.98698 13.3333H4.67969C5.46635 13.3333 5.66667 13.133 5.66667 12.3464V9.65365C5.66667 8.86698 5.46635 8.66667 4.67969 8.66667H1.98698Z" fill="var(--fill-0, #737373)"/>
<path fill-rule="evenodd" clip-rule="evenodd" d="M12.3464 7.66667C13.6864 7.66667 14.3333 8.32031 14.3333 9.65365V12.3464C14.3333 13.6797 13.6797 14.3333 12.3464 14.3333H9.65365C8.31365 14.3333 7.66667 13.6797 7.66667 12.3464V9.65365C7.66667 8.31365 8.32031 7.66667 9.65365 7.66667H12.3464ZM9.65365 8.66667C8.86698 8.66667 8.66667 8.86698 8.66667 9.65365V12.3464C8.66667 13.133 8.86698 13.3333 9.65365 13.3333H12.3464C13.133 13.3333 13.3333 13.133 13.3333 12.3464V9.65365C13.3333 8.86698 13.133 8.66667 12.3464 8.66667H9.65365Z" fill="var(--fill-0, #737373)"/>
<path fill-rule="evenodd" clip-rule="evenodd" d="M4.67969 0C6.01969 0 6.66667 0.593646 6.66667 1.82031V4.83984C6.66667 6.07318 6.01302 6.66667 4.67969 6.66667H1.98698C0.646979 6.66667 0 6.07302 0 4.84635V1.82031C0 0.593646 0.653646 0 1.98698 0H4.67969ZM1.98698 1C1.09365 1 1 1.25365 1 1.82031V4.83984C1 5.41318 1.09365 5.66016 1.98698 5.66016H4.67969C5.57302 5.66016 5.66667 5.40651 5.66667 4.83984V1.82031C5.66667 1.24698 5.57302 1 4.67969 1H1.98698Z" fill="var(--fill-0, #737373)"/>
<path fill-rule="evenodd" clip-rule="evenodd" d="M12.3464 0C13.6864 0 14.3333 0.593646 14.3333 1.82031V4.83984C14.3333 6.07318 13.6797 6.66667 12.3464 6.66667H9.65365C8.31365 6.66667 7.66667 6.07302 7.66667 4.84635V1.82031C7.66667 0.593646 8.32031 0 9.65365 0H12.3464ZM9.65365 1C8.76031 1 8.66667 1.25365 8.66667 1.82031V4.83984C8.66667 5.41318 8.76031 5.66016 9.65365 5.66016H12.3464C13.2397 5.66016 13.3333 5.40651 13.3333 4.83984V1.82031C13.3333 1.24698 13.2397 1 12.3464 1H9.65365Z" fill="var(--fill-0, #737373)"/>
</g>
</svg>
