<svg preserveAspectRatio="none" width="100%" height="100%" overflow="visible" style="display: block;" viewBox="0 0 14.4 13.2" fill="none" xmlns="http://www.w3.org/2000/svg">
<path id="Vector" fill-rule="evenodd" clip-rule="evenodd" d="M8.66416 7.09599V7.09451C8.58215 7.10044 8.15945 7.12567 7.2164 7.12567C6.46345 7.12567 5.9334 7.10341 5.74703 7.09451V7.09673C2.84854 6.96986 0.685111 6.46756 0.685111 5.86658C0.685111 5.26635 2.84854 4.76405 5.74703 4.63495V6.59666C5.93638 6.61002 6.47911 6.64192 7.22907 6.64192C8.12889 6.64192 8.57991 6.60482 8.66416 6.5974V4.63643C11.5567 4.76479 13.7149 5.26709 13.7149 5.86658C13.7149 6.46756 11.5567 6.96838 8.66416 7.09599ZM8.66416 4.4324V2.67695H12.7003V0H1.71091V2.67695H5.74703V4.43166C2.46685 4.58153 0 5.22851 0 6.0031C0 6.7777 2.46685 7.42393 5.74703 7.57455V13.2H8.66416V7.57306C11.9391 7.42319 14.4 6.77695 14.4 6.0031C14.4 5.22925 11.9391 4.58301 8.66416 4.4324Z" fill="var(--fill-0, white)"/>
</svg>
