<svg preserveAspectRatio="none" width="100%" height="100%" overflow="visible" style="display: block;" viewBox="0 0 10.8151 10.3763" fill="none" xmlns="http://www.w3.org/2000/svg">
<path id="Vector" d="M10.1823 0C10.528 0.000193004 10.8151 0.275297 10.8151 0.607269V7.58963C10.815 7.92155 10.528 8.19671 10.1823 8.1969C9.83636 8.1969 9.54952 7.92167 9.54944 7.58963V2.0657L1.07816 10.1983C0.960037 10.3198 0.799474 10.3763 0.63074 10.3763C0.470447 10.3763 0.30987 10.3198 0.183322 10.1983C-0.0611825 9.96352 -0.0610323 9.57466 0.183322 9.33975L8.64801 1.21454H2.90903C2.56309 1.21454 2.27622 0.939369 2.27622 0.607269C2.27623 0.27518 2.5631 0 2.90903 0H10.1823Z" fill="var(--fill-0, white)"/>
</svg>
