<svg preserveAspectRatio="none" width="100%" height="100%" overflow="visible" style="display: block;" viewBox="0 0 88.394 22.7461" fill="none" xmlns="http://www.w3.org/2000/svg">
<path id="Vector" d="M0.182136 14.9178L0.566975 14.5085L1.46493 15.3271L2.36289 14.3039L3.00429 14.8155L3.64569 13.6899L3.90225 13.7922L4.28709 13.2806L5.18505 9.80155L5.44161 10.9271L5.69817 11.2341L6.08301 10.6202L6.46785 10.5178L6.72441 10.3132L7.23753 10.2109L7.75065 9.69923L8.13549 9.1876L8.77689 8.98295L9.67485 9.90388L10.188 10.2109L11.4708 8.26667L11.7273 6.73178L12.1122 6.93644L12.7536 4.7876L13.0101 5.1969L13.2667 4.58295L13.6515 4.68527L14.1646 5.40155L14.806 5.1969L15.0626 5.91318L15.4474 7.44806L16.0888 6.32248L16.602 3.35504L16.8585 3.66202L17.2434 3.15039L17.4999 2.22946L17.7565 0.796901L18.1413 0.387598L18.5262 0.899226L18.6544 2.53644L19.0393 2.74109L19.4241 2.63876L19.6807 2.33178L19.9372 3.15039H20.1938L20.8352 5.91318H21.0918L21.4766 6.42481L21.9897 4.48062L22.3746 4.27597L22.6311 3.45737L23.016 4.17364L23.2725 3.86667L23.5291 4.48062L23.9139 4.17364L24.1705 4.68527L24.427 4.3783L24.6836 5.70853L25.0684 5.40155L25.4533 7.03876L25.9664 8.98295L26.223 9.08527L26.6078 8.57364L27.1209 6.83411L27.5058 7.24341L27.7623 7.03876L28.0189 8.26667L28.6603 8.88062L28.9168 11.8481L29.5582 13.4853L29.9431 13.7922L30.4562 12.9736L30.841 13.2806L31.0976 12.462L31.3541 12.155H31.9955L32.3804 12.3597L32.6369 11.5411L33.0218 11.2341L33.5349 9.28992H33.8571L34.1763 8.98295L34.4329 9.80155L35.0743 9.39225L35.3308 9.49457L35.5874 9.28992L36.2288 9.69923L36.6136 9.39225L37.1267 11.6434L37.3833 11.4388L38.0247 12.462L38.4095 11.8481L38.6661 10.8248L39.0509 10.9271L39.5641 13.4853L39.9489 12.155L40.462 12.462L41.1034 11.5411H41.36L41.7448 10.8248L42.3862 10.1085L42.6428 8.98295L43.2842 9.80155L43.5407 12.155L43.9256 13.076L44.3104 19.8295L44.4387 17.5783L45.3367 22.1829L45.5932 21.876L45.9007 19.8295L46.2346 18.8062L46.6195 18.7039L46.876 19.3178L47.2609 19.1132H47.5174L47.774 21.6713L48.4154 21.262L48.6719 21.569L49.5699 20.2388L49.9547 19.3178H50.2583L50.7244 20.1364L51.1092 20.8527L51.4941 19.7271L51.6224 16.7597L52.392 15.0202L52.9052 14.3039L53.1617 12.769L53.5466 13.7922L54.188 14.2016L54.4445 13.3829L54.7011 14.0992L55.599 13.2806L56.2404 13.7922L56.497 13.4853L56.7536 10.6202L57.2667 10.4155L57.395 10.1085H57.9081L58.1646 9.80155L58.5495 11.4388H59.0626L59.5757 12.3597L59.8323 13.2806H60.2171L60.8585 12.3597L61.4999 12.155L61.7565 11.8481L61.8848 12.2574L62.2696 11.7457L62.6544 12.155H63.1676L63.5524 11.7457L64.0655 12.155H64.5786L64.9635 12.2574L65.6049 11.2341L65.8614 11.9504L66.2463 11.6434L67.1442 13.3829L67.4008 12.6667L67.6574 12.9736L68.1705 12.769L68.2988 12.9736L68.5553 12.2574L68.9402 12.155L69.5816 13.3829L69.8381 15.1225L70.7361 18.0899L70.9926 18.3969L71.5057 18.0899L72.2754 18.6016L72.532 17.5783L73.1734 16.7597L73.4299 15.3271L73.8148 15.7364L74.0713 15.1225H74.4562L74.7127 14.5085L74.9693 11.4388L75.3541 10.8248L75.6107 8.98295L76.2521 7.65271L76.7652 6.83411L77.1501 7.44806H77.6632L77.9197 0.182947L79.0743 6.32248L79.4591 6.01551L79.8439 7.75504L80.2288 7.03876L80.4853 6.01551L80.7419 6.62946L81.3833 5.70853H81.6399L81.8964 6.83411L82.2813 6.32248L82.5378 7.65271L83.4358 9.1876L84.0772 7.85737L84.3337 6.11783L84.7186 6.22016L85.6165 4.07132L85.8731 4.48062L86.1297 3.55969L86.5145 3.15039L86.7711 2.63876L87.1559 3.35504L88.1821 1.71783" stroke="var(--stroke-0, #42B03B)" stroke-width="0.5"/>
</svg>
