<svg preserveAspectRatio="none" width="100%" height="100%" overflow="visible" style="display: block;" viewBox="0 0 19.8 25.2" fill="none" xmlns="http://www.w3.org/2000/svg">
<path id="Vector" d="M19.7483 10.1306C20.1602 7.4827 18.0635 6.05934 15.1963 5.10981L16.1265 1.52296L13.8556 0.978897L12.9501 4.47132C12.3531 4.32815 11.74 4.19326 11.1307 4.05953L12.0427 0.544058L9.77318 0L8.84257 3.58569C8.34853 3.47754 7.8633 3.37065 7.39253 3.25803L7.39516 3.24675L4.26353 2.49485L3.65944 4.82689C3.65944 4.82689 5.34426 5.19822 5.30876 5.22107C6.22835 5.44175 6.39464 6.02705 6.36703 6.49097L5.30754 10.5772C5.37087 10.5927 5.453 10.6151 5.54364 10.6501C5.46787 10.632 5.38725 10.6123 5.3036 10.593L3.81856 16.3173C3.70618 16.5859 3.42092 16.989 2.77799 16.836C2.80075 16.8677 1.12746 16.4399 1.12746 16.4399L0 18.9392L2.95521 19.6476C3.50498 19.7801 4.04373 19.9188 4.57428 20.0492L3.63456 23.6772L5.90283 24.2213L6.83345 20.6318C7.45312 20.7936 8.05448 20.9427 8.64319 21.0834L7.71571 24.6559L9.98672 25.2L10.9263 21.5788C14.7987 22.2834 17.7104 21.9994 18.936 18.6317C19.9236 15.9204 18.8868 14.3565 16.8496 13.3366C18.3334 13.0076 19.4503 12.069 19.7483 10.1306ZM14.5598 17.126C13.858 19.8373 9.11002 18.3716 7.57066 18.0041L8.81769 13.1976C10.3569 13.5671 15.2932 14.2983 14.5598 17.126ZM15.2621 10.0913C14.6219 12.5576 10.6701 11.3046 9.38819 10.9974L10.5188 6.63821C11.8007 6.94545 15.9288 7.51888 15.2621 10.0913Z" fill="var(--fill-0, white)"/>
</svg>
