<svg preserveAspectRatio="none" width="100%" height="100%" overflow="visible" style="display: block;" viewBox="0 0 33 28" fill="none" xmlns="http://www.w3.org/2000/svg">
<g id="Frame">
<path id="Vector" d="M19.2642 20.9873L12.6816 14.5625C12.5239 14.4048 12.4409 14.2139 12.4409 14.0063C12.4409 13.7905 12.5322 13.583 12.6899 13.4502L19.2642 7.01709C19.4053 6.87598 19.5879 6.79297 19.8037 6.79297C20.2354 6.79297 20.5591 7.125 20.5591 7.55664C20.5591 7.75586 20.4761 7.95508 20.3433 8.09619L14.3003 14.0063L20.3433 19.9165C20.4761 20.0576 20.5591 20.2485 20.5591 20.4561C20.5591 20.8877 20.2354 21.2114 19.8037 21.2114C19.5879 21.2114 19.4053 21.1284 19.2642 20.9873Z" fill="var(--fill-0, #737373)"/>
</g>
</svg>
