<svg preserveAspectRatio="none" width="100%" height="100%" overflow="visible" style="display: block;" viewBox="0 0 13.1198 14.337" fill="none" xmlns="http://www.w3.org/2000/svg">
<g id="Vector">
<path d="M6.08659 9.53032C6.33326 9.28366 6.78654 9.28366 7.0332 9.53032C7.15316 9.65698 7.22656 9.83033 7.22656 10.0036C7.22654 10.0902 7.20649 10.1769 7.17318 10.2569C7.13985 10.3369 7.09318 10.4103 7.0332 10.4769C6.90654 10.6036 6.73988 10.6703 6.5599 10.6703C6.37992 10.6703 6.21325 10.6036 6.08659 10.4769C6.02662 10.4103 5.98009 10.3368 5.9401 10.2569C5.90679 10.1769 5.89324 10.0902 5.89323 10.0036C5.89323 9.83033 5.96663 9.65698 6.08659 9.53032Z" fill="var(--fill-0, white)"/>
<path d="M6.5599 3.83761C6.83323 3.83761 7.0599 4.06428 7.0599 4.33761V7.83761C7.05975 8.11083 6.83314 8.33761 6.5599 8.33761C6.28665 8.33761 6.06004 8.11083 6.0599 7.83761V4.33761C6.0599 4.06428 6.28656 3.83761 6.5599 3.83761Z" fill="var(--fill-0, white)"/>
<path fill-rule="evenodd" clip-rule="evenodd" d="M5.25977 0.349984C6.05975 -0.116672 7.05337 -0.11665 7.86003 0.349984L11.8203 2.63709C12.6201 3.10381 13.1198 3.96382 13.1198 4.89035V9.45024C13.1197 10.3768 12.6202 11.2368 11.8203 11.7035L7.86003 13.99C7.46003 14.2233 7.00656 14.337 6.5599 14.337C6.11327 14.3369 5.65973 14.2233 5.25977 13.99L1.30013 11.7035C0.500175 11.2369 5.63715e-05 10.3769 0 9.45024V4.89035C0 3.9637 0.500157 3.10377 1.30013 2.63709L5.25977 0.349984ZM6.5599 1.00363C6.2866 1.00365 6.00639 1.07654 5.75977 1.21652L1.80013 3.50363C1.3068 3.7903 1 4.31701 1 4.89035V9.45024C1.00006 10.0169 1.30684 10.5503 1.80013 10.837L5.75977 13.1234C6.2531 13.4101 6.86685 13.4101 7.35352 13.1234L11.3132 10.837C11.8064 10.5503 12.1132 10.0235 12.1133 9.45024V4.89035C12.1133 4.32368 11.8065 3.7903 11.3132 3.50363L7.35352 1.21652C7.11352 1.07652 6.83323 1.00363 6.5599 1.00363Z" fill="var(--fill-0, white)"/>
</g>
</svg>
