<svg preserveAspectRatio="none" width="100%" height="100%" overflow="visible" style="display: block;" viewBox="0 0 9.75 9.75" fill="none" xmlns="http://www.w3.org/2000/svg">
<path id="Vector" d="M4.875 0C5.08211 0 5.25 0.167893 5.25 0.375V4.5H9.375C9.58211 4.5 9.75 4.66789 9.75 4.875C9.75 5.08211 9.58211 5.25 9.375 5.25H5.25V9.375C5.25 9.58211 5.08211 9.75 4.875 9.75C4.66789 9.75 4.5 9.58211 4.5 9.375V5.25H0.375C0.167894 5.25 2.12418e-07 5.08211 0 4.875C9.05292e-09 4.66789 0.167893 4.5 0.375 4.5H4.5V0.375C4.5 0.167893 4.66789 0 4.875 0Z" fill="var(--fill-0, #0F0F0F)"/>
</svg>
