<svg preserveAspectRatio="none" width="100%" height="100%" overflow="visible" style="display: block;" viewBox="0 0 8.53875 8.19713" fill="none" xmlns="http://www.w3.org/2000/svg">
<path id="Vector" d="M7.68685 0.13919C7.88018 -0.0463905 8.20055 -0.0464032 8.39388 0.13919C8.58708 0.324739 8.587 0.631982 8.39388 0.817576L1.70703 7.23685H6.24674C6.51996 7.2369 6.74662 7.4544 6.74674 7.71666C6.74674 7.97903 6.5267 8.19708 6.24674 8.19713H0.5L0.405599 8.18867C0.311866 8.17157 0.222136 8.12786 0.147135 8.05586C0.115262 8.02526 0.0903734 7.99042 0.0690104 7.95429C0.0262897 7.88378 0 7.80306 0 7.71666V2.20039C0 1.93799 0.226667 1.71992 0.5 1.71992C0.773333 1.71992 1 1.93799 1 2.20039V6.55846L7.68685 0.13919Z" fill="var(--fill-0, #42B03B)"/>
</svg>
