<svg preserveAspectRatio="none" width="100%" height="100%" overflow="visible" style="display: block;" viewBox="0 0 10.75 10.75" fill="none" xmlns="http://www.w3.org/2000/svg">
<g id="Vector">
<path d="M5.375 8.33496C5.57998 8.33496 5.74997 8.50498 5.75 8.70996V10.375C5.75 10.58 5.58 10.75 5.375 10.75C5.17 10.75 5 10.58 5 10.375V8.70996C5.00003 8.50498 5.17002 8.33496 5.375 8.33496Z" fill="var(--fill-0, #737373)"/>
<path d="M2.89502 7.3252C3.04002 7.1802 3.28029 7.1802 3.42529 7.3252C3.57004 7.47018 3.5701 7.71004 3.42529 7.85498L2.10498 9.1748C2.02998 9.2498 1.93484 9.28516 1.83984 9.28516C1.74492 9.2851 1.65014 9.24975 1.5752 9.1748C1.43022 9.0298 1.4302 8.79001 1.5752 8.64502L2.89502 7.3252Z" fill="var(--fill-0, #737373)"/>
<path d="M7.76025 7.75977C7.90522 7.615 8.14509 7.61498 8.29004 7.75977L9.17529 8.64502C9.32012 8.78997 9.32007 9.02982 9.17529 9.1748C9.10031 9.24979 9.00514 9.28514 8.91016 9.28516C8.81516 9.28516 8.72002 9.2498 8.64502 9.1748L7.76025 8.29004C7.61525 8.14504 7.61525 7.90477 7.76025 7.75977Z" fill="var(--fill-0, #737373)"/>
<path d="M2.25488 5C2.45988 5 2.62988 5.17 2.62988 5.375C2.62988 5.58 2.45988 5.75 2.25488 5.75H0.375C0.17 5.75 0 5.58 0 5.375C0 5.17 0.17 5 0.375 5H2.25488Z" fill="var(--fill-0, #737373)"/>
<path d="M10.375 5C10.58 5 10.75 5.17 10.75 5.375C10.75 5.58 10.58 5.75 10.375 5.75H9.54004C9.33504 5.75 9.16504 5.58 9.16504 5.375C9.16504 5.17 9.33504 5 9.54004 5H10.375Z" fill="var(--fill-0, #737373)"/>
<path d="M1.58008 1.58008C1.72508 1.43511 1.96487 1.43509 2.10986 1.58008L3.43018 2.8999C3.5751 3.0449 3.57512 3.28519 3.43018 3.43018C3.3552 3.50515 3.26001 3.54002 3.16504 3.54004C3.07007 3.54004 2.97489 3.50513 2.8999 3.43018L1.58008 2.10986C1.43508 1.96486 1.43508 1.72508 1.58008 1.58008Z" fill="var(--fill-0, #737373)"/>
<path d="M5.375 0C5.58 0 5.75 0.17 5.75 0.375V2.25488C5.75 2.45988 5.58 2.62988 5.375 2.62988C5.17 2.62988 5 2.45988 5 2.25488V0.375C5 0.17 5.17 0 5.375 0Z" fill="var(--fill-0, #737373)"/>
<path d="M8.64502 1.5752C8.79002 1.4302 9.0298 1.4302 9.1748 1.5752C9.31978 1.7202 9.3198 1.95999 9.1748 2.10498L8.87988 2.3999C8.80488 2.4749 8.70975 2.50977 8.61475 2.50977C8.51982 2.50972 8.42504 2.47483 8.3501 2.3999C8.2051 2.2549 8.2051 2.01512 8.3501 1.87012L8.64502 1.5752Z" fill="var(--fill-0, #737373)"/>
</g>
</svg>
