<svg preserveAspectRatio="none" width="100%" height="100%" overflow="visible" style="display: block;" viewBox="0 0 6.40406 6.14785" fill="none" xmlns="http://www.w3.org/2000/svg">
<path id="Vector" d="M5.76514 0.104393C5.91014 -0.0347929 6.15042 -0.0348024 6.29541 0.104393C6.44031 0.243554 6.44025 0.473986 6.29541 0.613182L1.28027 5.42764H4.68506C4.88997 5.42768 5.05996 5.5908 5.06006 5.7875C5.06006 5.98427 4.89502 6.14781 4.68506 6.14785H0.375L0.304199 6.1415C0.233899 6.12868 0.166602 6.09589 0.110352 6.04189C0.0864466 6.01894 0.0677801 5.99281 0.0517578 5.96572C0.0197173 5.91283 0 5.8523 0 5.7875V1.65029C0 1.45349 0.17 1.28994 0.375 1.28994C0.58 1.28994 0.75 1.45349 0.75 1.65029V4.91885L5.76514 0.104393Z" fill="var(--fill-0, #0F0F0F)"/>
</svg>
