<svg preserveAspectRatio="none" width="100%" height="100%" overflow="visible" style="display: block;" viewBox="0 0 24 24" fill="none" xmlns="http://www.w3.org/2000/svg">
<g id="SymbolLogo" style="mix-blend-mode:color-burn">
<path d="M5.13858 9.49383C5.13858 10.9128 3.98827 12.0631 2.56929 12.0631C1.15031 12.0631 0 10.9128 0 9.49383C0 8.07485 1.15031 6.92454 2.56929 6.92454C3.98827 6.92454 5.13858 8.07485 5.13858 9.49383Z" fill="var(--fill-0, #262626)"/>
<path d="M24 9.49383C24 10.9128 22.8497 12.0631 21.4307 12.0631C20.0117 12.0631 18.8614 10.9128 18.8614 9.49383C18.8614 8.07485 20.0117 6.92454 21.4307 6.92454C22.8497 6.92454 24 8.07485 24 9.49383Z" fill="var(--fill-0, #262626)"/>
<path d="M16.0729 4.06613C16.0729 6.3118 14.2524 8.13227 12.0067 8.13227C9.76106 8.13227 7.94059 6.3118 7.94059 4.06613C7.94059 1.82047 9.76106 0 12.0067 0C14.2524 0 16.0729 1.82047 16.0729 4.06613Z" fill="var(--fill-0, #262626)"/>
<path d="M10.6983 14.3745C10.6983 15.3972 9.86932 16.2262 8.84667 16.2262C7.82402 16.2262 6.995 15.3972 6.995 14.3745C6.995 13.3519 7.82402 12.5228 8.84667 12.5228C9.86932 12.5228 10.6983 13.3519 10.6983 14.3745Z" fill="var(--fill-0, #262626)"/>
<path d="M17.0185 14.3745C17.0185 15.3972 16.1894 16.2262 15.1668 16.2262C14.1441 16.2262 13.3151 15.3972 13.3151 14.3745C13.3151 13.3519 14.1441 12.5228 15.1668 12.5228C16.1894 12.5228 17.0185 13.3519 17.0185 14.3745Z" fill="var(--fill-0, #262626)"/>
<path d="M7.92013 21.1607C7.92013 22.7288 6.64892 24 5.0808 24C3.51269 24 2.24148 22.7288 2.24148 21.1607C2.24148 19.5926 3.51269 18.3213 5.0808 18.3213C6.64892 18.3213 7.92013 19.5926 7.92013 21.1607Z" fill="var(--fill-0, #262626)"/>
<path d="M21.772 21.1607C21.772 22.7288 20.5008 24 18.9327 24C17.3645 24 16.0933 22.7288 16.0933 21.1607C16.0933 19.5926 17.3645 18.3213 18.9327 18.3213C20.5008 18.3213 21.772 19.5926 21.772 21.1607Z" fill="var(--fill-0, #262626)"/>
</g>
</svg>
