<svg preserveAspectRatio="none" width="100%" height="100%" overflow="visible" style="display: block;" viewBox="0 0 88.3874 38.2818" fill="none" xmlns="http://www.w3.org/2000/svg">
<path id="Vector" d="M0.138115 0.710436L0.688115 1.07497L1.05478 1.25723L1.60478 1.07497H2.15478L2.70478 0.892702H3.80478L4.17145 0.52817L4.53811 3.07989L5.08811 2.35083L5.82145 8.91241H6.18811L6.37145 9.27694L6.92145 8.54787L7.28811 8.73014L7.83811 8.36561L8.20478 11.8287L8.57145 12.0109L8.75478 14.5627H9.12145L9.30478 15.1095L9.85478 14.9272L10.4048 14.3804L10.9548 14.9272H11.3214L12.0548 14.7449L12.6048 15.1095L13.3381 14.7449H13.8881L14.2548 15.2917L14.6214 14.5627L14.8048 14.9272L15.3548 14.7449H15.5381L16.0881 15.6562L16.8214 15.1095H17.0048L17.3714 15.6562L17.7381 15.1095H18.8381L19.3881 14.7449L20.1214 14.9272H20.8548L21.9548 15.2917H22.5048L22.8714 15.1095L23.9714 15.2917H24.8881L25.2548 15.1095L25.8048 15.474L26.1714 15.2917L26.5381 15.6562L26.7214 15.1095H27.8214L28.0048 15.2917H28.9214L30.0214 14.9272H30.7548L31.1214 15.474L31.4881 14.9272L32.4048 15.2917L33.8714 14.9272L34.0548 15.474H34.9714L35.3381 15.2917L35.5214 16.0208L35.8881 15.1095L36.2548 15.6562L36.6214 15.1095L36.9881 15.8385L37.1714 15.474L37.5381 15.8385L37.7214 15.1095H38.4548L38.8214 14.9272L39.5548 15.474L40.2881 15.1095L41.2048 15.474L41.5714 15.6562H41.9381L42.1214 15.8385L42.6714 15.1095L43.7714 15.474L44.3214 15.1095L45.0548 15.474H45.7881L46.7048 15.1095L47.0714 15.2917L47.6214 15.1095L47.8048 15.8385L48.1714 15.2917L48.5381 15.474L49.4548 15.1095L49.8214 15.2917L50.5548 15.1095L51.2881 15.474L52.2048 15.2917H52.9381L53.3048 16.0208L53.6714 15.2917L54.2214 14.9272L54.5881 15.2917L55.6881 15.1095L56.4214 15.2917L56.7881 14.9272L57.5214 15.2917L58.4381 15.474L58.8048 15.1095L59.3548 15.2917L59.7214 15.1095L60.8214 14.9272V15.2917L61.5548 15.6562L62.2881 15.1095L63.2048 15.2917H63.7548L64.1214 15.6562L64.6714 15.1095L65.2214 15.2917L66.5048 14.9272L67.0548 15.474H67.6048L68.1548 13.1045L68.8881 13.2868L69.0714 9.09467L69.4381 8.73014L69.8048 9.09467L70.3548 8.73014L70.7214 13.2868L71.0881 13.4691L71.4548 28.0503L72.0048 27.8681H72.9214L73.4714 27.5035L73.8381 29.6907L74.2048 29.5085L74.3881 30.0553L74.7548 29.6907L74.9381 36.07L75.6714 35.7055L76.2214 37.5282L76.5881 36.6168L77.1381 36.9814L77.5048 36.7991L77.8714 33.7006H78.0548L78.4214 31.3311H78.7881L78.9714 32.2425H79.3381L79.8881 36.07L80.2548 31.6957L80.6214 32.0602L80.9881 29.6907L81.7214 29.5085L81.9048 25.8631L82.4548 25.1341L82.6381 25.4986L83.0048 24.2228L83.5548 24.5873L83.9214 23.3114L84.2881 17.4789L84.6548 18.3902L85.2048 18.7548L85.3881 15.474L85.5714 15.8385L86.1214 9.09467V16.3853L86.6714 17.6612L87.0381 17.4789L87.4048 18.3902L87.9548 18.7548L88.1381 16.3853" stroke="var(--stroke-0, #FF3B30)" stroke-width="0.5"/>
</svg>
