<svg preserveAspectRatio="none" width="100%" height="100%" overflow="visible" style="display: block;" viewBox="0 0 13.2 16.8" fill="none" xmlns="http://www.w3.org/2000/svg">
<path id="Vector" d="M13.1655 6.75375C13.4401 4.98847 12.0423 4.03956 10.1309 3.40654L10.751 1.0153L9.23703 0.652598L8.63341 2.98088C8.23541 2.88544 7.82668 2.7955 7.42045 2.70635L8.02845 0.362706L6.51546 0L5.89505 2.39046C5.56569 2.31836 5.2422 2.2471 4.92835 2.17202L4.93011 2.1645L2.84236 1.66323L2.43963 3.21793C2.43963 3.21793 3.56284 3.46548 3.53917 3.48072C4.15223 3.62783 4.2631 4.01803 4.24469 4.32731L3.53836 7.05149C3.58058 7.0618 3.63534 7.07671 3.69576 7.10006C3.64525 7.088 3.5915 7.07483 3.53573 7.062L2.54571 10.8782C2.47078 11.0573 2.28062 11.326 1.85199 11.224C1.86717 11.2451 0.751641 10.9599 0.751641 10.9599L0 12.6262L1.97014 13.0984C2.33665 13.1868 2.69582 13.2792 3.04952 13.3662L2.42304 15.7848L3.93522 16.1475L4.55563 13.7545C4.96875 13.8624 5.36965 13.9618 5.76213 14.0556L5.14381 16.4373L6.65781 16.8L7.28422 14.3859C9.86581 14.8556 11.8069 14.6662 12.624 12.4211C13.2824 10.6136 12.5912 9.57098 11.2331 8.89108C12.2223 8.67174 12.9668 8.04598 13.1655 6.75375ZM9.70652 11.4173C9.23865 13.2249 6.07335 12.2478 5.04711 12.0027L5.87846 8.79843C6.90463 9.04475 10.1954 9.53221 9.70652 11.4173ZM10.1747 6.72756C9.74793 8.37173 7.11341 7.53642 6.25879 7.33159L7.01253 4.42548C7.86714 4.6303 10.6192 5.01259 10.1747 6.72756Z" fill="var(--fill-0, white)"/>
</svg>
