<svg preserveAspectRatio="none" width="100%" height="100%" overflow="visible" style="display: block;" viewBox="0 0 88 22" fill="none" xmlns="http://www.w3.org/2000/svg">
<path id="Vector" opacity="0.3" d="M0.760259 18.3636L0 22H88V5.45455L86.4795 4.36364L85.7192 5.09091L84.7689 7.09091L82.6782 6.90909L81.1577 7.63636L80.3974 10.5455L78.8769 11.0909L77.5464 10.1818L76.7862 10.5455L76.216 9.27273L75.2657 9.63636L73.7451 5.63636L72.4147 11.0909L71.4644 10.9091L70.8942 10.5455L70.1339 13.0909L69.3736 10L68.8035 9.09091L67.8531 8.90909L65.7624 0L65.0022 12.7273L63.6717 13.8182L61.9611 13.4545L61.3909 14.3636L60.4406 14L59.8704 14.1818L59.1101 16.3636L58.3499 16L57.5896 17.6364L56.8294 18.3636H56.0691L55.3089 19.0909L54.7387 18L53.9784 17.6364L53.2181 19.2727L52.4579 19.0909L51.8877 20.1818L50.9374 21.2727L50.3672 20.7273L49.4168 20.3636L48.6566 20.9091L47.8963 20.7273L46.7559 18.9091L45.8056 18L44.4752 14.7273L43.5248 14.3636L42.7646 14.5455L42.0043 16L40.4838 15.6364L39.9136 15.2727H39.1533L37.6328 14.5455L36.3024 14.3636L35.3521 13.4545L34.7819 13.2727L34.0216 15.2727L33.2613 15.0909L32.5011 15.4545L31.7408 15.0909L30.9806 15.4545L30.2203 15.2727L29.46 15.8182L28.6998 15.0909L27.9395 16.5455L27.3693 16.9091L25.8488 15.8182L25.0886 15.6364L24.3283 16.9091L23.7581 16.7273L22.9978 16.9091L22.2376 16.5455L20.7171 16.3636L19.7667 17.8182L19.1965 14.5455L18.4363 14.1818L17.676 13.4545L16.9158 12L16.1555 11.6364L14.8251 12L14.0648 11.0909L13.3045 15.6364L12.5443 16.1818L11.0238 14L10.2635 14.3636L9.6933 15.2727L8.93305 15.6364L8.17279 15.2727L7.41253 16L6.65227 17.2727L5.89201 17.6364L5.13175 16.3636L4.37149 17.0909L3.61123 16.9091L3.04104 18.3636L2.28078 19.2727H1.33045L0.760259 18.3636Z" fill="url(#paint0_linear_6392_143801)"/>
<defs>
<linearGradient id="paint0_linear_6392_143801" x1="44" y1="0" x2="44" y2="22" gradientUnits="userSpaceOnUse">
<stop stop-color="#42B03B"/>
<stop offset="1" stop-color="#4CB63A" stop-opacity="0"/>
</linearGradient>
</defs>
</svg>
