<svg preserveAspectRatio="none" width="100%" height="100%" overflow="visible" style="display: block;" viewBox="0 0 68 12" fill="none" xmlns="http://www.w3.org/2000/svg">
<g id="Vector" style="mix-blend-mode:color-burn">
<path d="M0 11.7534V0H5.45295C6.75939 0 7.74205 0.284931 8.40095 0.854794C9.04849 1.4137 9.37226 2.14794 9.37226 3.05753C9.37226 4.20822 8.73608 4.99178 7.46373 5.40822V5.45753C8.14534 5.65479 8.69064 6.01096 9.09961 6.52603C9.51994 7.0411 9.73011 7.65479 9.73011 8.36712C9.73011 9.40822 9.37226 10.2247 8.65656 10.8164C7.91814 11.4411 6.89571 11.7534 5.58927 11.7534H0ZM2.47087 6.49315V9.78082H5.31663C5.90736 9.78082 6.37314 9.63836 6.71395 9.35342C7.05476 9.05753 7.22516 8.66849 7.22516 8.1863C7.22516 7.64932 7.03771 7.23288 6.66282 6.93699C6.29929 6.6411 5.82784 6.49315 5.24846 6.49315H2.47087ZM2.47087 4.73425H5.14622C5.69152 4.73425 6.12889 4.6137 6.45834 4.3726C6.78779 4.12055 6.95251 3.76986 6.95251 3.32055C6.95251 2.88219 6.79347 2.54247 6.47538 2.30137C6.16865 2.06027 5.74264 1.93973 5.19734 1.93973H2.47087V4.73425Z" fill="var(--fill-0, #1A1A1A)"/>
<path d="M18.408 11.7534H16.1757V10.7671H16.1245C15.8065 11.1836 15.4543 11.4904 15.068 11.6877C14.6931 11.8849 14.2103 11.9836 13.6196 11.9836C12.6653 11.9836 11.9212 11.7096 11.3873 11.1616C10.8534 10.6137 10.5864 9.87397 10.5864 8.94246V3.32055H12.8869V8.56438C12.8869 9.58356 13.3697 10.0932 14.3353 10.0932C14.8692 10.0932 15.2952 9.91781 15.6133 9.56712C15.9314 9.21644 16.0905 8.75616 16.0905 8.1863V3.32055H18.408V11.7534Z" fill="var(--fill-0, #1A1A1A)"/>
<path d="M24.4398 12C23.2583 12 22.3892 11.5671 21.8326 10.7014H21.7985V11.7534H19.5662V0H21.8837V4.33973H21.9348C22.4915 3.50685 23.3037 3.09041 24.3716 3.09041C25.4736 3.09041 26.3767 3.50685 27.081 4.33973C27.7854 5.16164 28.1375 6.23014 28.1375 7.54521C28.1375 8.90411 27.7967 9.98904 27.1151 10.8C26.4335 11.6 25.5417 12 24.4398 12ZM23.9285 10.126C24.5193 10.126 24.9737 9.90137 25.2918 9.45205C25.6212 9.00274 25.786 8.36712 25.786 7.54521C25.786 6.73425 25.6156 6.09315 25.2747 5.62192C24.9453 5.13973 24.4682 4.89863 23.8433 4.89863C22.5028 4.89863 21.8326 5.79726 21.8326 7.59452C21.8326 8.3726 22.02 8.99178 22.3949 9.45205C22.7698 9.90137 23.281 10.126 23.9285 10.126Z" fill="var(--fill-0, #1A1A1A)"/>
<path d="M36.6306 11.7534H34.3983V10.7671H34.3472C34.0291 11.1836 33.6769 11.4904 33.2907 11.6877C32.9158 11.8849 32.433 11.9836 31.8422 11.9836C30.888 11.9836 30.1439 11.7096 29.6099 11.1616C29.076 10.6137 28.809 9.87397 28.809 8.94246V3.32055H31.1095V8.56438C31.1095 9.58356 31.5923 10.0932 32.5579 10.0932C33.0919 10.0932 33.5179 9.91781 33.836 9.56712C34.1541 9.21644 34.3131 8.75616 34.3131 8.1863V3.32055H36.6306V11.7534Z" fill="var(--fill-0, #1A1A1A)"/>
<path d="M40.0211 3.32055V4.66849H40.0723C40.3449 4.17534 40.646 3.8137 40.9754 3.58356C41.3049 3.34247 41.7195 3.22192 42.2194 3.22192C42.4579 3.22192 42.6397 3.24384 42.7647 3.28767V5.24383H42.7135C41.9297 5.16712 41.2992 5.33151 40.822 5.73699C40.3449 6.14247 40.1063 6.77808 40.1063 7.64384V11.7534H37.7888V3.32055H40.0211Z" fill="var(--fill-0, #1A1A1A)"/>
<path d="M51.1756 11.7534H48.9433V10.7671H48.8922C48.5741 11.1836 48.2219 11.4904 47.8357 11.6877C47.4608 11.8849 46.978 11.9836 46.3872 11.9836C45.433 11.9836 44.6889 11.7096 44.1549 11.1616C43.621 10.6137 43.354 9.87397 43.354 8.94246V3.32055H45.6545V8.56438C45.6545 9.58356 46.1373 10.0932 47.1029 10.0932C47.6369 10.0932 48.0629 9.91781 48.381 9.56712C48.6991 9.21644 48.8581 8.75616 48.8581 8.1863V3.32055H51.1756V11.7534Z" fill="var(--fill-0, #1A1A1A)"/>
<path d="M52.0441 11.7534V10.0438L56.5428 5.12877V5.07945H52.5553V3.32055H59.2352V5.11233L54.8388 9.91233V9.96164H59.4567V11.7534H52.0441Z" fill="var(--fill-0, #1A1A1A)"/>
<path d="M65.7677 11.7534C65.6541 11.611 65.5632 11.2986 65.495 10.8164H65.461C65.211 11.1781 64.8929 11.4575 64.5067 11.6548C64.1204 11.8521 63.5808 11.9507 62.8879 11.9507C61.9677 11.9507 61.2293 11.726 60.6726 11.2767C60.1159 10.8274 59.8376 10.1918 59.8376 9.36986C59.8376 8.51507 60.1443 7.89041 60.7578 7.49589C61.3713 7.09041 62.2346 6.81096 63.3479 6.65753C64.1659 6.54795 64.7225 6.43836 65.0179 6.32877C65.3133 6.20822 65.461 6 65.461 5.70411C65.461 5.39726 65.336 5.15616 65.0861 4.98082C64.8361 4.79452 64.4726 4.70137 63.9955 4.70137C62.939 4.70137 62.3766 5.09589 62.3085 5.88493H60.2466C60.2807 5.08493 60.6158 4.42192 61.252 3.89589C61.8881 3.36986 62.8083 3.10685 64.0125 3.10685C66.4664 3.10685 67.6933 4.14247 67.6933 6.2137V10.5041C67.6933 11.1397 67.7955 11.5288 68 11.6712V11.7534H65.7677ZM63.4502 10.389C64.0864 10.389 64.5862 10.2301 64.9498 9.91233C65.3246 9.59452 65.5121 9.21644 65.5121 8.77808V7.51233C65.2622 7.65479 64.7225 7.81918 63.8932 8.00548C63.2343 8.14794 62.7686 8.31233 62.4959 8.49863C62.2233 8.67397 62.087 8.94794 62.087 9.32055C62.087 10.0329 62.5414 10.389 63.4502 10.389Z" fill="var(--fill-0, #1A1A1A)"/>
</g>
</svg>
