<svg preserveAspectRatio="none" width="100%" height="100%" overflow="visible" style="display: block;" viewBox="0 0 14.3333 14.3333" fill="none" xmlns="http://www.w3.org/2000/svg">
<g id="Vector">
<path d="M9.64648 4.91992C9.83982 4.72659 10.1602 4.72659 10.3535 4.91992C10.5466 5.11322 10.5466 5.43302 10.3535 5.6263L6.57357 9.40625C6.48026 9.49956 6.35334 9.55335 6.22005 9.55338C6.08672 9.55338 5.95987 9.49958 5.86654 9.40625L3.97982 7.51953C3.78669 7.32622 3.78666 7.00644 3.97982 6.81315C4.17315 6.61982 4.49352 6.61982 4.68685 6.81315L6.22005 8.34635L9.64648 4.91992Z" fill="var(--fill-0, white)"/>
<path fill-rule="evenodd" clip-rule="evenodd" d="M7.16667 0C11.12 0 14.3333 3.21333 14.3333 7.16667C14.3333 11.12 11.12 14.3333 7.16667 14.3333C3.21333 14.3333 0 11.12 0 7.16667C0 3.21333 3.21333 0 7.16667 0ZM7.16667 1C3.76667 1 1 3.76667 1 7.16667C1 10.5667 3.76667 13.3333 7.16667 13.3333C10.5667 13.3333 13.3333 10.5667 13.3333 7.16667C13.3333 3.76667 10.5667 1 7.16667 1Z" fill="var(--fill-0, white)"/>
</g>
</svg>
