<svg preserveAspectRatio="none" width="100%" height="100%" overflow="visible" style="display: block;" viewBox="0 0 27 26.1" fill="none" xmlns="http://www.w3.org/2000/svg">
<g id="Vector">
<path d="M18.4366 15.6901C18.4366 13.05 16.8659 12.1448 13.7244 11.7677C11.4805 11.4659 11.0317 10.8625 11.0317 9.80628C11.0317 8.75009 11.7797 8.07136 13.2756 8.07136C14.622 8.07136 15.37 8.52397 15.7439 9.65548C15.8188 9.88178 16.0432 10.0326 16.2676 10.0326H17.4642C17.7634 10.0326 17.9878 9.80628 17.9878 9.50467V9.42917C17.6886 7.76957 16.3422 6.48725 14.622 6.33644V4.52603C14.622 4.22424 14.3976 3.99793 14.0236 3.92244H12.9017C12.6024 3.92244 12.378 4.14874 12.3032 4.52603V6.26095C10.0593 6.56275 8.63825 8.07136 8.63825 9.95727C8.63825 12.4466 10.1341 13.4271 13.2756 13.8044C15.37 14.1815 16.0432 14.6341 16.0432 15.8411C16.0432 17.0481 14.9959 17.8778 13.5749 17.8778C11.63 17.8778 10.9568 17.0479 10.7324 15.9164C10.6578 15.6148 10.4334 15.4638 10.209 15.4638H8.93731C8.63825 15.4638 8.41385 15.6901 8.41385 15.9919V16.0674C8.71292 17.9531 9.90974 19.311 12.378 19.6882V21.4987C12.378 21.8003 12.6024 22.0266 12.9764 22.1021H14.0983C14.3976 22.1021 14.622 21.8758 14.6968 21.4987V19.6882C16.9407 19.311 18.4366 17.7268 18.4366 15.6901Z" fill="var(--fill-0, white)"/>
<path d="M9.68535 23.6107C3.85117 21.4987 0.859228 14.9359 3.02846 9.12738C4.15042 5.95916 6.61872 3.54533 9.68535 2.41382C9.98459 2.26302 10.1341 2.03671 10.1341 1.65942V0.60341C10.1341 0.301615 9.98459 0.0753132 9.68535 0C9.61049 0 9.46096 -4.83432e-07 9.3861 0.0753127C2.28043 2.33833 -1.60908 9.95727 0.634837 17.1234C1.98118 21.3477 5.19752 24.5914 9.3861 25.9492C9.68535 26.1 9.98459 25.9492 10.0593 25.6474C10.1341 25.5721 10.1341 25.4966 10.1341 25.3458V24.2896C10.1341 24.0633 9.90974 23.7617 9.68535 23.6107ZM17.6139 0.0753127C17.3147 -0.0754947 17.0154 0.0753129 16.9407 0.377109C16.8659 0.452603 16.8659 0.527916 16.8659 0.678905V1.73492C16.8659 2.03671 17.0903 2.33833 17.3147 2.48932C23.1488 4.60135 26.1408 11.1641 23.9715 16.9726C22.8496 20.1408 20.3813 22.5547 17.3147 23.6862C17.0154 23.837 16.8659 24.0633 16.8659 24.4406V25.4966C16.8659 25.7984 17.0154 26.0247 17.3147 26.1C17.3895 26.1 17.539 26.1 17.6139 26.0247C24.7196 23.7617 28.6091 16.1427 26.3652 8.97657C25.0188 4.67684 21.7276 1.43312 17.6139 0.0753127Z" fill="var(--fill-0, white)"/>
</g>
</svg>
