<svg preserveAspectRatio="none" width="100%" height="100%" overflow="visible" style="display: block;" viewBox="0 0 19.9477 19.9477" fill="none" xmlns="http://www.w3.org/2000/svg">
<path id="Ellipse" d="M2.2061e-07 1.44773C2.30489e-07 0.619302 0.67251 -0.0581216 1.49861 0.00395256C3.61192 0.16275 5.68985 0.656698 7.65367 1.47014C10.0802 2.47523 12.285 3.94842 14.1421 5.80559C15.9993 7.66277 17.4725 9.86755 18.4776 12.2941C19.291 14.2579 19.785 16.3358 19.9438 18.4491C20.0059 19.2752 19.3284 19.9477 18.5 19.9477V19.9477C17.6716 19.9477 17.0069 19.2749 16.9339 18.4497C16.7818 16.7307 16.3686 15.0418 15.706 13.4421C14.8516 11.3796 13.5994 9.50551 12.0208 7.92692C10.4422 6.34832 8.56815 5.09611 6.50562 4.24178C4.90589 3.57915 3.21707 3.16594 1.49807 3.01386C0.672865 2.94086 2.10731e-07 2.27616 2.2061e-07 1.44773V1.44773Z" fill="var(--fill-0, #FF0055)"/>
</svg>
