<svg preserveAspectRatio="none" width="100%" height="100%" overflow="visible" style="display: block;" viewBox="0 0 28 9" fill="none" xmlns="http://www.w3.org/2000/svg">
<path id="VisaLogo" d="M18.2432 0C16.2577 0 14.475 1.02706 14.475 2.91176C14.475 5.08235 17.6241 5.23059 17.6241 6.31059C17.6241 6.76588 17.0904 7.17882 16.1937 7.17882C14.9127 7.17882 13.952 6.60706 13.952 6.60706L13.5463 8.51294C13.5463 8.51294 14.6458 9 16.1189 9C18.2966 9 20.0046 7.93059 20.0046 6.00353C20.0046 3.71647 16.8448 3.56824 16.8448 2.56235C16.8448 2.20235 17.2825 1.81059 18.1792 1.81059C19.1933 1.81059 20.0259 2.22353 20.0259 2.22353L20.4316 0.381176C20.4209 0.381176 19.5135 0 18.2432 0ZM0.053374 0.137647L0 0.412941C0 0.412941 0.832634 0.561176 1.59055 0.868235C2.56195 1.21765 2.626 1.41882 2.7968 2.04353L4.57949 8.85177H6.97064L10.6321 0.137647H8.25162L5.89249 6.06706L4.93176 1.03765C4.84636 0.465882 4.39802 0.137647 3.84293 0.137647H0.053374ZM11.5928 0.137647L9.72474 8.85177H11.9985L13.8559 0.137647H11.5928ZM24.2531 0.137647C23.7087 0.137647 23.4205 0.423529 23.207 0.931765L19.8765 8.85177H22.257L22.716 7.52824H25.6195L25.8971 8.85177H28L26.1746 0.137647H24.2531ZM24.5627 2.49882L25.2673 5.77059H23.3778L24.5627 2.49882Z" fill="url(#paint0_linear_6520_161841)"/>
<defs>
<linearGradient id="paint0_linear_6520_161841" x1="0" y1="0" x2="27.9519" y2="9.14714" gradientUnits="userSpaceOnUse">
<stop stop-color="#3D3D3D"/>
<stop offset="1" stop-color="#A3A3A3"/>
</linearGradient>
</defs>
</svg>
