<svg preserveAspectRatio="none" width="100%" height="100%" overflow="visible" style="display: block;" viewBox="0 0 52 52" fill="none" xmlns="http://www.w3.org/2000/svg">
<g id="Group">
<path id="Vector" d="M26 52C11.6405 52 0 40.3595 0 26C0 11.6405 11.6405 0 26 0C40.3595 0 52 11.6405 52 26C52 40.3595 40.3595 52 26 52Z" fill="var(--fill-0, #F0931B)"/>
<path id="Vector_2" d="M7.48833 35.2788C7.60078 35.099 7.78057 35.0876 8.02772 35.2452C13.6488 38.5055 19.7653 40.1356 26.3755 40.1356C30.7825 40.1356 35.1336 39.3148 39.4281 37.6733C39.5406 37.6282 39.7038 37.5608 39.9173 37.4706C40.1307 37.3805 40.2826 37.3131 40.3728 37.268C40.7101 37.1333 40.9744 37.2007 41.1656 37.4706C41.3568 37.7406 41.2946 37.9878 40.9801 38.2127C40.5754 38.5049 40.0583 38.8422 39.4287 39.2246C37.4949 40.3713 35.3362 41.2595 32.9532 41.8891C30.5696 42.5186 28.2425 42.8337 25.9714 42.8337C22.4639 42.8337 19.1471 42.2207 16.0215 40.9958C12.8959 39.7703 10.0968 38.0448 7.62304 35.8188C7.48833 35.7064 7.42041 35.5939 7.42041 35.4815C7.42098 35.4135 7.44324 35.3462 7.48833 35.2788ZM37.6073 35.8525C37.6524 35.7623 37.7198 35.6727 37.8099 35.5825C38.3722 35.2001 38.9116 34.9415 39.4287 34.8068C40.2831 34.5819 41.1153 34.4581 41.9247 34.4358C42.1496 34.4135 42.3631 34.4244 42.5657 34.4695C43.5777 34.5597 44.1844 34.728 44.3871 34.9752C44.4772 35.1099 44.5218 35.3125 44.5218 35.5825V35.8188C44.5218 36.6059 44.3083 37.5334 43.8808 38.6014C43.4533 39.6693 42.8579 40.5295 42.0931 41.1813C41.9806 41.2715 41.8796 41.316 41.7894 41.316C41.7443 41.316 41.6992 41.3046 41.6547 41.2823C41.52 41.215 41.4864 41.0911 41.5537 40.9113C42.3859 38.9552 42.8014 37.5945 42.8014 36.8302C42.8014 36.5831 42.7563 36.4027 42.6667 36.2908C42.4418 36.0209 41.8123 35.8861 40.778 35.8861C40.3956 35.8861 39.9458 35.9084 39.4287 35.9535C38.8665 36.0209 38.3493 36.0882 37.8773 36.1561C37.7426 36.1561 37.6524 36.1339 37.6073 36.0888C37.5622 36.0437 37.5508 35.9986 37.5736 35.9541C37.5736 35.9307 37.5851 35.897 37.6073 35.8525Z" fill="var(--fill-0, white)"/>
<path id="Vector_3" d="M36.4946 27.8264C36.135 27.3544 35.8764 27.0113 35.7189 26.7978C35.5614 26.5844 35.3987 26.2356 35.2297 25.7522C35.0613 25.2687 34.9769 24.7345 34.9769 24.15V15.9878C34.9769 15.8976 34.9655 15.6111 34.9432 15.1276C34.9209 14.6442 34.8867 14.3297 34.8422 14.183C34.7976 14.0363 34.7297 13.7726 34.6395 13.3902C34.5494 13.0078 34.4483 12.7155 34.3359 12.5135C34.2234 12.3108 34.0716 12.0808 33.8804 11.8223C33.6909 11.5654 33.482 11.3228 33.2565 11.0974C31.8176 9.77087 29.8164 9.10762 27.2531 9.10762H26.41C24.4089 9.22006 22.6606 9.75945 21.1651 10.7264C19.6697 11.6933 18.7313 13.1773 18.3489 15.1784C18.3266 15.2686 18.3152 15.3468 18.3152 15.4148C18.3152 15.7298 18.5064 15.9319 18.8888 16.0221L22.7673 16.4941C23.1269 16.4267 23.3518 16.1682 23.442 15.7184C23.5995 14.9987 23.9477 14.437 24.4876 14.0317C25.027 13.6271 25.668 13.3908 26.41 13.3234H26.68C27.692 13.3234 28.434 13.6607 28.906 14.3354C29.2205 14.8303 29.3781 15.7972 29.3781 17.2361V17.8092C28.0065 17.9216 27.0173 18.0112 26.41 18.0792C24.6337 18.304 23.1383 18.6751 21.9242 19.1922C20.5978 19.7544 19.5521 20.586 18.7878 21.6882C18.0235 22.7898 17.6411 24.1169 17.6411 25.6683C17.6411 27.6243 18.1976 29.1369 19.3106 30.2048C20.4237 31.2728 21.8461 31.807 23.5772 31.807C24.7017 31.807 25.6457 31.6946 26.4106 31.4697C27.6246 31.1324 28.8615 30.2779 30.1207 28.9063C30.2109 29.0188 30.3678 29.2379 30.5927 29.5638C30.8176 29.8898 30.9808 30.1089 31.0819 30.2214C31.1829 30.3338 31.3518 30.5136 31.5876 30.7608C31.8239 31.0079 32.099 31.2665 32.4141 31.5365C32.7965 31.694 33.1224 31.6712 33.3924 31.4691C33.5499 31.3344 34.5613 30.4571 36.4278 28.8384C36.6076 28.7037 36.6978 28.5461 36.6978 28.3663C36.6972 28.2088 36.6299 28.029 36.4946 27.8264ZM29.3781 21.8229C29.3781 22.5427 29.3724 23.0598 29.361 23.3743C29.3495 23.6888 29.2822 24.0992 29.1583 24.6055C29.0345 25.1112 28.849 25.5781 28.6018 26.005C28.0847 26.9719 27.3541 27.5792 26.4094 27.8264C26.3644 27.8264 26.2799 27.8378 26.1566 27.8601C26.0327 27.8823 25.9374 27.8937 25.8701 27.8937C25.128 27.8937 24.5379 27.6295 24.0995 27.1009C23.6611 26.5724 23.442 25.8698 23.442 24.993C23.442 23.0592 24.4311 21.8115 26.41 21.2493C27.0847 21.0695 28.0738 20.9793 29.3781 20.9793V21.8229Z" fill="var(--fill-0, white)"/>
</g>
</svg>
