<svg preserveAspectRatio="none" width="100%" height="100%" overflow="visible" style="display: block;" viewBox="0 0 7.35859 7.35859" fill="none" xmlns="http://www.w3.org/2000/svg">
<g id="Vector">
<path d="M0.860077 6.73422C0.659808 6.93449 0.339025 6.93869 0.143763 6.74343C-0.051499 6.54816 -0.0472986 6.22738 0.15297 6.02711L6.02711 0.15297C6.22738 -0.0472985 6.54816 -0.0514989 6.74343 0.143763C6.93869 0.339025 6.93449 0.659808 6.73422 0.860077L0.860077 6.73422Z" fill="var(--fill-0, #A3A3A3)"/>
<path d="M3.2171 7.20562C3.01683 7.40589 2.69605 7.41009 2.50079 7.21483C2.30552 7.01957 2.30972 6.69879 2.50999 6.49852L6.49852 2.50999C6.69879 2.30972 7.01957 2.30552 7.21483 2.50079C7.41009 2.69605 7.40589 3.01683 7.20562 3.2171L3.2171 7.20562Z" fill="var(--fill-0, #A3A3A3)"/>
</g>
</svg>
