<svg preserveAspectRatio="none" width="100%" height="100%" overflow="visible" style="display: block;" viewBox="0 0 18.6797 21.5" fill="none" xmlns="http://www.w3.org/2000/svg">
<g id="Vector">
<path d="M9.33984 13C14.4898 13 18.6797 16.48 18.6797 20.75C18.6797 21.16 18.3397 21.5 17.9297 21.5C17.5198 21.4999 17.1797 21.1599 17.1797 20.75C17.1797 17.3 13.6598 14.5 9.33984 14.5C5.01988 14.5001 1.5 17.3001 1.5 20.75C1.5 21.16 1.16 21.5 0.75 21.5C0.34 21.5 0 21.16 0 20.75C0 16.4801 4.18988 13.0001 9.33984 13Z" fill="var(--fill-0, #0F0F0F)"/>
<path fill-rule="evenodd" clip-rule="evenodd" d="M9.33984 0C12.5098 0 15.0898 2.58 15.0898 5.75C15.0898 8.92 12.5098 11.5 9.33984 11.5C6.16984 11.5 3.58984 8.92 3.58984 5.75C3.58984 2.58 6.16984 0 9.33984 0ZM9.33984 1.5C6.99984 1.5 5.08984 3.41 5.08984 5.75C5.08984 8.09 6.99984 10 9.33984 10C11.6798 10 13.5898 8.09 13.5898 5.75C13.5898 3.41 11.6798 1.5 9.33984 1.5Z" fill="var(--fill-0, #0F0F0F)"/>
</g>
</svg>
