<svg preserveAspectRatio="none" width="100%" height="100%" overflow="visible" style="display: block;" viewBox="0 0 12.8179 12.2979" fill="none" xmlns="http://www.w3.org/2000/svg">
<path id="Vector" d="M12.0679 0C12.4777 0.000228746 12.8178 0.326278 12.8179 0.719727V8.99512C12.8178 9.38851 12.4776 9.71462 12.0679 9.71484C11.6579 9.71484 11.3179 9.38864 11.3179 8.99512V2.44824L1.27782 12.0869C1.13782 12.2309 0.947524 12.2979 0.747544 12.2979C0.557566 12.2978 0.367253 12.2309 0.217271 12.0869C-0.0725127 11.8086 -0.0723346 11.3477 0.217271 11.0693L10.2495 1.43945H3.44774C3.03774 1.43945 2.69774 1.11333 2.69774 0.719727C2.69776 0.32614 3.03775 0 3.44774 0H12.0679Z" fill="var(--fill-0, #0F0F0F)"/>
</svg>
