<svg preserveAspectRatio="none" width="100%" height="100%" overflow="visible" style="display: block;" viewBox="0 0 33 28" fill="none" xmlns="http://www.w3.org/2000/svg">
<g id="Frame">
<path id="Vector" d="M16.5005 21.0039C16.9072 21.0039 17.2476 20.6802 17.2476 20.2817V14.7617H22.6099C23.0083 14.7617 23.3486 14.4214 23.3486 14.0146C23.3486 13.6079 23.0083 13.2759 22.6099 13.2759H17.2476V7.74756C17.2476 7.34912 16.9072 7.02539 16.5005 7.02539C16.0938 7.02539 15.7617 7.34912 15.7617 7.74756V13.2759H10.3911C9.99268 13.2759 9.65234 13.6079 9.65234 14.0146C9.65234 14.4214 9.99268 14.7617 10.3911 14.7617H15.7617V20.2817C15.7617 20.6802 16.0938 21.0039 16.5005 21.0039Z" fill="var(--fill-0, #737373)"/>
</g>
</svg>
