<svg preserveAspectRatio="none" width="100%" height="100%" overflow="visible" style="display: block;" viewBox="0 0 14.3333 13.7598" fill="none" xmlns="http://www.w3.org/2000/svg">
<g id="Vector">
<path d="M6.28646 5.1582L6.52018 5.20313C7.17345 5.33117 7.64647 5.88153 7.64648 6.52148V8.97917C7.64651 9.15825 7.77329 9.31177 7.95312 9.35026L8.25977 9.42708C8.52643 9.49108 8.69312 9.75377 8.61979 10.0098C8.573 10.2272 8.36654 10.3743 8.13997 10.3743C8.10003 10.3743 8.06012 10.3677 8.02018 10.3613L7.71354 10.2845C7.08689 10.1373 6.65367 9.59994 6.65365 8.97917V6.52148C6.65363 6.3359 6.51999 6.18228 6.33333 6.14388L6.0931 6.09896C5.81995 6.04762 5.64656 5.79171 5.69987 5.53581C5.75321 5.27354 6.01991 5.10718 6.28646 5.1582Z" fill="var(--fill-0, white)"/>
<path d="M7.16667 3.22526C7.5333 3.22526 7.83328 3.51327 7.83333 3.86523C7.83333 4.21723 7.53984 4.50521 7.17318 4.50521C6.80658 4.50513 6.5 4.21718 6.5 3.86523C6.50005 3.51327 6.79352 3.22526 7.16016 3.22526H7.16667Z" fill="var(--fill-0, white)"/>
<path fill-rule="evenodd" clip-rule="evenodd" d="M7.16667 0C11.1199 0 14.3332 3.08441 14.3333 6.87956C14.3333 10.6748 11.12 13.7598 7.16667 13.7598C3.21333 13.7598 0 10.6748 0 6.87956C9.20117e-05 3.08441 3.21339 0 7.16667 0ZM7.16667 0.959635C3.76672 0.959635 1.00009 3.61561 1 6.87956C1 10.1436 3.76667 12.7995 7.16667 12.7995C10.5667 12.7995 13.3333 10.1436 13.3333 6.87956C13.3332 3.61561 10.5666 0.959635 7.16667 0.959635Z" fill="var(--fill-0, white)"/>
</g>
</svg>
