<svg preserveAspectRatio="none" width="100%" height="100%" overflow="visible" style="display: block;" viewBox="0 0 36 36" fill="none" xmlns="http://www.w3.org/2000/svg">
<g id="Group">
<path id="Vector" d="M18 36C8.0588 36 0 27.9412 0 18C0 8.0588 8.0588 0 18 0C27.9412 0 36 8.0588 36 18C36 27.9412 27.9412 36 18 36Z" fill="var(--fill-0, #F0931B)"/>
<path id="Vector_2" d="M5.18423 24.4238C5.26208 24.2993 5.38655 24.2914 5.55765 24.4005C9.44915 26.6576 13.6836 27.7862 18.26 27.7862C21.311 27.7862 24.3232 27.218 27.2964 26.0815C27.3742 26.0503 27.4872 26.0036 27.635 25.9412C27.7828 25.8788 27.8879 25.8321 27.9504 25.8009C28.1839 25.7077 28.3669 25.7543 28.4992 25.9412C28.6316 26.1281 28.5885 26.2992 28.3708 26.4549C28.0906 26.6572 27.7326 26.8908 27.2968 27.1555C25.958 27.9494 24.4635 28.5643 22.8137 29.0001C21.1636 29.436 19.5525 29.6541 17.9802 29.6541C15.5519 29.6541 13.2557 29.2297 11.0918 28.3817C8.92794 27.5333 6.9901 26.3387 5.27749 24.7976C5.18423 24.7198 5.13721 24.6419 5.13721 24.5641C5.1376 24.5171 5.15301 24.4704 5.18423 24.4238ZM26.0358 24.8209C26.0671 24.7585 26.1137 24.6965 26.1761 24.634C26.5653 24.3693 26.9388 24.1903 27.2968 24.097C27.8883 23.9413 28.4645 23.8556 29.0248 23.8402C29.1805 23.8248 29.3283 23.8323 29.4686 23.8635C30.1692 23.9259 30.5892 24.0425 30.7295 24.2136C30.7919 24.3068 30.8228 24.4471 30.8228 24.634V24.7976C30.8228 25.3425 30.675 25.9847 30.379 26.724C30.083 27.4634 29.6709 28.0589 29.1414 28.5101C29.0635 28.5726 28.9936 28.6034 28.9311 28.6034C28.8999 28.6034 28.8687 28.5955 28.8379 28.5801C28.7446 28.5334 28.7213 28.4477 28.7679 28.3232C29.3441 26.969 29.6318 26.027 29.6318 25.4978C29.6318 25.3267 29.6005 25.2019 29.5385 25.1244C29.3828 24.9375 28.947 24.8443 28.2309 24.8443C27.9662 24.8443 27.6548 24.8597 27.2968 24.8909C26.9076 24.9375 26.5495 24.9841 26.2227 25.0312C26.1295 25.0312 26.0671 25.0158 26.0358 24.9845C26.0046 24.9533 25.9967 24.9221 26.0125 24.8913C26.0125 24.8751 26.0204 24.8518 26.0358 24.8209Z" fill="var(--fill-0, white)"/>
<path id="Vector_3" d="M25.2655 19.2644C25.0165 18.9376 24.8375 18.7001 24.7285 18.5524C24.6194 18.4046 24.5068 18.1631 24.3898 17.8284C24.2732 17.4937 24.2148 17.1239 24.2148 16.7192V11.0685C24.2148 11.0061 24.2069 10.8077 24.1914 10.473C24.176 10.1383 24.1523 9.92056 24.1215 9.819C24.0907 9.71745 24.0437 9.53489 23.9812 9.27013C23.9188 9.00538 23.8488 8.80306 23.771 8.66317C23.6932 8.52289 23.588 8.36364 23.4557 8.18464C23.3245 8.00682 23.1798 7.83888 23.0238 7.68279C22.0276 6.76445 20.6422 6.30527 18.8675 6.30527H18.2839C16.8984 6.38312 15.6881 6.75654 14.6528 7.42594C13.6175 8.09533 12.9678 9.12274 12.7031 10.5082C12.6877 10.5706 12.6798 10.6247 12.6798 10.6718C12.6798 10.8899 12.8121 11.0298 13.0769 11.0922L15.762 11.419C16.0109 11.3724 16.1666 11.1934 16.229 10.882C16.3381 10.3837 16.5792 9.99485 16.953 9.71429C17.3264 9.43412 17.7702 9.27053 18.2839 9.2239H18.4708C19.1714 9.2239 19.6851 9.45744 20.0119 9.92451C20.2296 10.2671 20.3387 10.9365 20.3387 11.9327V12.3294C19.3891 12.4073 18.7043 12.4693 18.2839 12.5163C17.0541 12.672 16.0188 12.9289 15.1783 13.2869C14.26 13.6761 13.5361 14.2519 13.0069 15.0149C12.4778 15.7776 12.2131 16.6963 12.2131 17.7703C12.2131 19.1245 12.5984 20.1717 13.3689 20.911C14.1395 21.6504 15.1242 22.0202 16.3227 22.0202C17.1012 22.0202 17.7547 21.9424 18.2843 21.7867C19.1248 21.5532 19.9811 20.9616 20.8528 20.0121C20.9152 20.0899 21.0239 20.2416 21.1796 20.4673C21.3353 20.6929 21.4483 20.8447 21.5182 20.9225C21.5882 21.0003 21.7051 21.1248 21.8683 21.2959C22.0319 21.467 22.2224 21.646 22.4405 21.8329C22.7053 21.942 22.9309 21.9262 23.1178 21.7863C23.2269 21.6931 23.9271 21.0857 25.2192 19.965C25.3437 19.8718 25.4062 19.7627 25.4062 19.6382C25.4058 19.5292 25.3591 19.4047 25.2655 19.2644ZM20.3387 15.1082C20.3387 15.6065 20.3347 15.9645 20.3268 16.1822C20.3189 16.3999 20.2723 16.6841 20.1865 17.0346C20.1008 17.3847 19.9724 17.7079 19.8013 18.0035C19.4432 18.6729 18.9374 19.0933 18.2835 19.2644C18.2522 19.2644 18.1938 19.2723 18.1084 19.2877C18.0227 19.3031 17.9567 19.3111 17.91 19.3111C17.3963 19.3111 16.9877 19.1281 16.6843 18.7622C16.3808 18.3963 16.229 17.9098 16.229 17.3029C16.229 15.9641 16.9139 15.1003 18.2839 14.711C18.7509 14.5866 19.4357 14.5241 20.3387 14.5241V15.1082Z" fill="var(--fill-0, white)"/>
</g>
</svg>
