<svg preserveAspectRatio="none" width="100%" height="100%" overflow="visible" style="display: block;" viewBox="0 0 12.8333 13.3333" fill="none" xmlns="http://www.w3.org/2000/svg">
<g id="Vector">
<path d="M0 8.04036C0 7.73374 0.226372 7.59401 0.486328 7.75391C0.906328 8.01391 1.39339 8.16667 1.88672 8.16667H4.25977C4.49302 8.16667 4.82627 8.2937 4.98633 8.46029C5.36631 8.84694 5.87995 9.06053 6.41992 9.06055C6.96654 9.06055 7.48004 8.84038 7.86003 8.45378C8.02003 8.28711 8.3469 8.16016 8.57357 8.16016H10.9531C11.4463 8.16016 11.9331 8.00711 12.3464 7.75391C12.6064 7.59391 12.8333 7.7337 12.8333 8.04036V10.8405C12.8332 12.2137 11.7131 13.3333 10.3398 13.3333H2.49349C1.12023 13.3333 0.000116655 12.2137 0 10.8405V8.04036Z" fill="var(--fill-0, #A3A3A3)"/>
<path fill-rule="evenodd" clip-rule="evenodd" d="M7.13346 0C8.19337 7.73682e-05 9.05334 0.860008 9.05338 1.91992V2.63346H10.3464C11.0263 2.63346 11.6398 2.90686 12.0931 3.35352C12.6931 3.94018 12.8997 4.81996 12.7331 5.63997L12.7135 5.74023C12.5535 6.53349 11.7597 7.18034 10.9531 7.18034H8.57357C8.04029 7.18034 7.53363 7.39351 7.15365 7.77344C6.74705 8.17337 6.0402 8.16003 5.66016 7.74023C5.30021 7.34029 4.7468 7.18039 4.21354 7.18034H1.9069C1.10031 7.18034 0.306737 6.53347 0.139974 5.74023L0.113281 5.61328C-0.0133631 4.98663 0.060249 4.31992 0.406901 3.77995C0.846917 3.0867 1.62006 2.63346 2.5 2.63346H3.79362V1.91341C3.79362 0.860078 4.64702 0 5.70703 0H7.13346ZM5.70703 0.986979C5.19373 0.986979 4.77348 1.40663 4.77344 1.91992V2.63346H8.0599V1.91992C8.05985 1.4067 7.64015 0.987106 7.12695 0.986979H5.70703Z" fill="var(--fill-0, #A3A3A3)"/>
</g>
</svg>
