<svg preserveAspectRatio="none" width="100%" height="100%" overflow="visible" style="display: block;" viewBox="0 0 10.7598 10.1912" fill="none" xmlns="http://www.w3.org/2000/svg">
<g id="Vector">
<path fill-rule="evenodd" clip-rule="evenodd" d="M5.375 3.21905C6.41 3.21905 7.25 4.05905 7.25 5.09405C7.2499 6.12897 6.40994 6.96905 5.375 6.96905C4.34006 6.96905 3.5001 6.12897 3.5 5.09405C3.5 4.05905 4.34 3.21905 5.375 3.21905ZM5.375 3.96905C4.755 3.96905 4.25 4.47405 4.25 5.09405C4.2501 5.71397 4.75506 6.21905 5.375 6.21905C5.99494 6.21905 6.4999 5.71397 6.5 5.09405C6.5 4.47405 5.995 3.96905 5.375 3.96905Z" fill="var(--fill-0, #0F0F0F)"/>
<path fill-rule="evenodd" clip-rule="evenodd" d="M3.1748 0.163878C3.7398 -0.171122 4.4852 0.0239368 4.8252 0.598937L4.88477 0.699034C5.17975 1.20901 5.58489 1.20897 5.87988 0.699034L5.93506 0.60382C6.2751 0.0239549 7.0199 -0.170708 7.58984 0.169249L8.4502 0.663878C8.75515 0.838881 8.97483 1.12409 9.06982 1.46905C9.15982 1.81404 9.11493 2.16894 8.93994 2.47394C8.79501 2.72881 8.75501 2.95881 8.83984 3.10382C8.92484 3.24882 9.14006 3.3338 9.43506 3.3338C10.165 3.33383 10.7598 3.92902 10.7598 4.659V5.53888C10.7598 6.26886 10.165 6.86404 9.43506 6.86407C9.14006 6.86407 8.92484 6.94905 8.83984 7.09405C8.75492 7.23904 8.79002 7.46903 8.93994 7.72394C9.11492 8.0289 9.16477 8.38886 9.06982 8.72882C8.97984 9.07376 8.76011 9.35899 8.4502 9.534L7.58496 10.0291C7.39498 10.1341 7.18995 10.1888 6.97998 10.1888C6.87502 10.1888 6.77 10.1742 6.66504 10.1492C6.35508 10.0642 6.09518 9.869 5.93018 9.59405L5.87012 9.49396C5.57513 8.98397 5.17 8.984 4.875 9.49396L4.81982 9.58917C4.65482 9.86907 4.39489 10.0692 4.08496 10.1492C3.77 10.2342 3.44489 10.1892 3.16992 10.0242L2.31006 9.52911C2.00506 9.35411 1.78494 9.06894 1.68994 8.72394C1.59998 8.379 1.64489 8.024 1.81982 7.71905C1.9648 7.4641 2.00486 7.23418 1.91992 7.08917C1.83494 6.9442 1.62009 6.85923 1.3252 6.85919C0.595195 6.85919 0 6.264 0 5.534V4.65411C0 3.92411 0.595195 3.32892 1.3252 3.32892C1.62009 3.32888 1.83494 3.2439 1.91992 3.09894C2.0049 2.95394 1.96982 2.72404 1.81982 2.46905C1.64487 2.16411 1.6 1.80411 1.68994 1.46417C1.77994 1.11917 2.00006 0.833995 2.31006 0.658995L3.1748 0.163878ZM7.2002 0.808898C6.9852 0.678898 6.69982 0.753937 6.56982 0.973937L6.51514 1.06915C6.23016 1.56408 5.81506 1.844 5.37012 1.84405C4.92516 1.84405 4.5101 1.56406 4.2251 1.06915L4.16992 0.969054C4.04492 0.759057 3.7648 0.683899 3.5498 0.808898L2.68506 1.3089C2.55507 1.38389 2.45504 1.50901 2.41504 1.659C2.37504 1.809 2.39521 1.96405 2.47021 2.09405C2.75515 2.58402 2.78981 3.08897 2.56982 3.47394C2.34985 3.85888 1.89509 4.07887 1.3252 4.07892C1.0052 4.07892 0.75 4.33411 0.75 4.65411V5.534C0.75 5.849 1.0052 6.10919 1.3252 6.10919C1.8951 6.10924 2.34985 6.32921 2.56982 6.71417C2.78979 7.09915 2.75517 7.60409 2.47021 8.09405C2.39521 8.22405 2.37504 8.37911 2.41504 8.52911C2.45505 8.67907 2.5502 8.79923 2.68018 8.87921L3.54492 9.37384C3.64992 9.43884 3.77514 9.45413 3.89014 9.42413C4.01009 9.39411 4.10982 9.31377 4.1748 9.2088L4.22998 9.11407C4.51498 8.62407 4.93 8.33917 5.375 8.33917C5.82 8.33917 6.23502 8.61907 6.52002 9.11407L6.5752 9.2088C6.6352 9.3138 6.73498 9.38925 6.85498 9.41925C6.97495 9.44923 7.09484 9.43381 7.19482 9.37384L8.06006 8.87384C8.18995 8.79886 8.29006 8.6741 8.33008 8.52423C8.37007 8.37426 8.34987 8.21916 8.2749 8.08917C7.9899 7.59917 7.9548 7.0938 8.1748 6.7088C8.39481 6.32387 8.85 6.10384 9.41992 6.10382C9.73989 6.10382 9.99507 5.84907 9.99512 5.52911V4.64923C9.99512 4.33423 9.73992 4.07403 9.41992 4.07403C8.84996 4.07401 8.39479 3.85404 8.1748 3.46905C7.95486 3.0841 7.99 2.5791 8.2749 2.08917C8.34988 1.9592 8.37004 1.80408 8.33008 1.65411C8.29008 1.50411 8.19494 1.38401 8.06494 1.30401L7.2002 0.808898Z" fill="var(--fill-0, #0F0F0F)"/>
</g>
</svg>
