<svg preserveAspectRatio="none" width="100%" height="100%" overflow="visible" style="display: block;" viewBox="0 0 39 37.7" fill="none" xmlns="http://www.w3.org/2000/svg">
<g id="Vector">
<path d="M26.6307 22.6635C26.6307 18.85 24.3618 17.5425 19.8241 16.9978C16.5829 16.5618 15.9347 15.6902 15.9347 14.1646C15.9347 12.639 17.0152 11.6586 19.1759 11.6586C21.1206 11.6586 22.2011 12.3124 22.7412 13.9468C22.8493 14.2737 23.1735 14.4915 23.4976 14.4915H25.226C25.6583 14.4915 25.9824 14.1646 25.9824 13.729V13.6199C25.5502 11.2227 23.6054 9.37048 21.1206 9.15264V6.5376C21.1206 6.10167 20.7965 5.77479 20.2564 5.66575H18.6358C18.2035 5.66575 17.8794 5.99263 17.7713 6.5376V9.0436C14.5301 9.47952 12.4775 11.6586 12.4775 14.3827C12.4775 17.9784 14.6382 19.3947 19.1759 19.9397C22.2011 20.4844 23.1735 21.1382 23.1735 22.8816C23.1735 24.6251 21.6607 25.8235 19.6081 25.8235C16.7989 25.8235 15.8265 24.6248 15.5024 22.9904C15.3946 22.5547 15.0704 22.3366 14.7463 22.3366H12.9095C12.4775 22.3366 12.1533 22.6635 12.1533 23.0994V23.2085C12.5853 25.9323 14.3141 27.8936 17.8794 28.4386V31.0536C17.8794 31.4893 18.2035 31.8162 18.7436 31.9252H20.3642C20.7965 31.9252 21.1206 31.5983 21.2287 31.0536V28.4386C24.4699 27.8936 26.6307 25.6054 26.6307 22.6635Z" fill="var(--fill-0, white)"/>
<path d="M13.9899 34.1043C5.5628 31.0536 1.24111 21.5741 4.37445 13.184C5.99505 8.60767 9.56038 5.12103 13.9899 3.48663C14.4222 3.2688 14.6382 2.94192 14.6382 2.39695V0.871593C14.6382 0.435666 14.4222 0.108786 13.9899 0C13.8818 0 13.6658 -6.98291e-07 13.5577 0.108785C3.29396 3.37759 -2.32422 14.3827 0.916986 24.7338C2.86171 30.8355 7.50753 35.5209 13.5577 37.4822C13.9899 37.7 14.4222 37.4822 14.5301 37.0462C14.6382 36.9375 14.6382 36.8284 14.6382 36.6106V35.085C14.6382 34.7581 14.3141 34.3224 13.9899 34.1043ZM25.4423 0.108785C25.0101 -0.109048 24.5778 0.108785 24.4699 0.544713C24.3618 0.65376 24.3618 0.762546 24.3618 0.98064V2.50599C24.3618 2.94192 24.6859 3.37759 25.0101 3.59568C33.4372 6.64639 37.7589 16.1259 34.6255 24.516C33.0049 29.0923 29.4396 32.579 25.0101 34.2134C24.5778 34.4312 24.3618 34.7581 24.3618 35.3031V36.8284C24.3618 37.2643 24.5778 37.5912 25.0101 37.7C25.1182 37.7 25.3342 37.7 25.4423 37.5912C35.706 34.3224 41.3242 23.3173 38.083 12.9662C36.1383 6.75544 31.3843 2.07007 25.4423 0.108785Z" fill="var(--fill-0, white)"/>
</g>
</svg>
