<svg preserveAspectRatio="none" width="100%" height="100%" overflow="visible" style="display: block;" viewBox="0 0 17.4 6" fill="none" xmlns="http://www.w3.org/2000/svg">
<g id="Vector">
<path d="M1.00108 4.28512C1.07461 4.47895 1.17641 4.64468 1.3065 4.78231C1.4366 4.91996 1.59071 5.02529 1.76886 5.09833C1.94703 5.17137 2.14074 5.20788 2.35001 5.20788C2.55363 5.20788 2.74451 5.16995 2.92267 5.0941C3.10084 5.01825 3.25637 4.91151 3.38927 4.77388C3.52218 4.63624 3.62541 4.47192 3.69894 4.28091C3.77247 4.08989 3.80923 3.87643 3.80923 3.64046V0H4.70002V5.89888H3.81771V5.35112C3.61976 5.55897 3.38644 5.71909 3.11779 5.83147C2.84912 5.94382 2.55928 6 2.24821 6C1.93147 6 1.63596 5.94522 1.36164 5.83567C1.08734 5.72612 0.849778 5.57024 0.64901 5.36798C0.448241 5.16572 0.289861 4.92278 0.173924 4.63905C0.0579684 4.35535 0 4.03934 0 3.69101V0H0.890795V3.64046C0.890795 3.87643 0.927551 4.09129 1.00108 4.28512Z" fill="var(--fill-0, #0F0F0F)"/>
<path d="M6.23551 0V2.14887C6.43346 1.95225 6.66254 1.79636 6.9227 1.68118C7.18286 1.566 7.46566 1.50842 7.77107 1.50842C8.08781 1.50842 8.38471 1.5674 8.66186 1.68538C8.939 1.80335 9.17936 1.96347 9.38298 2.16573C9.5866 2.36799 9.7478 2.60674 9.86657 2.88201C9.98534 3.15731 10.0447 3.44944 10.0447 3.75843C10.0447 4.06741 9.98534 4.35814 9.86657 4.6306C9.7478 4.90308 9.5866 5.14045 9.38298 5.34267C9.17936 5.54493 8.939 5.70505 8.66186 5.82303C8.38471 5.941 8.08779 5.99998 7.77107 5.99998C7.46565 5.99998 7.18145 5.9424 6.91846 5.82722C6.65546 5.71206 6.42497 5.55616 6.22702 5.35953V5.89886H5.37865V0H6.23551ZM6.33307 4.33989C6.40941 4.51968 6.51547 4.67698 6.65122 4.81181C6.78696 4.94664 6.94532 5.05339 7.1263 5.13204C7.3073 5.2107 7.50242 5.25002 7.71169 5.25002C7.91531 5.25002 8.1076 5.2107 8.28858 5.13204C8.46956 5.05339 8.6265 4.94666 8.75944 4.81181C8.89235 4.677 8.99839 4.51968 9.07757 4.33989C9.15675 4.16012 9.19634 3.96631 9.19634 3.75843C9.19634 3.55056 9.15675 3.35534 9.07757 3.17275C8.99839 2.99016 8.89235 2.83146 8.75944 2.69663C8.62652 2.56182 8.46958 2.45646 8.28858 2.38063C8.10758 2.30479 7.9153 2.26685 7.71169 2.26685C7.50809 2.26685 7.31579 2.30478 7.13481 2.38063C6.95382 2.45648 6.79546 2.56182 6.6597 2.69663C6.52398 2.83146 6.41651 2.99016 6.33733 3.17275C6.25815 3.35534 6.21856 3.55056 6.21856 3.75843C6.21854 3.96631 6.25672 4.16012 6.33307 4.33989Z" fill="var(--fill-0, #0F0F0F)"/>
<path d="M10.5282 2.89046C10.6413 2.6208 10.7969 2.38345 10.9948 2.17839C11.1927 1.97333 11.4275 1.81182 11.699 1.69384C11.9705 1.57587 12.2646 1.51689 12.5813 1.51689C12.8924 1.51689 13.1808 1.57307 13.4466 1.68542C13.7125 1.79778 13.9415 1.95368 14.1338 2.15312C14.3261 2.35255 14.476 2.58852 14.5834 2.86098C14.6909 3.13346 14.7446 3.42981 14.7446 3.75004V4.02814H11.2239C11.2522 4.20229 11.3087 4.36381 11.3936 4.51266C11.4784 4.66154 11.5844 4.79076 11.7117 4.90031C11.839 5.00987 11.9832 5.09555 12.1444 5.15733C12.3056 5.21912 12.4766 5.25004 12.6576 5.25004C13.1723 5.25004 13.5881 5.03935 13.9048 4.618L14.5241 5.07305C14.3092 5.35957 14.0434 5.5843 13.7266 5.74721C13.4099 5.91012 13.0536 5.99159 12.6577 5.99159C12.3353 5.99159 12.0341 5.93539 11.7541 5.82304C11.4742 5.7107 11.231 5.55338 11.0245 5.35112C10.8181 5.14886 10.6555 4.91151 10.5367 4.63905C10.418 4.36659 10.3586 4.07022 10.3586 3.75001C10.3585 3.44665 10.4151 3.16013 10.5282 2.89046ZM11.7202 2.55758C11.4798 2.75703 11.32 3.02248 11.2409 3.35394H13.8793C13.8058 3.02248 13.6488 2.75703 13.4085 2.55758C13.1681 2.35816 12.8867 2.25844 12.5643 2.25844C12.2419 2.25844 11.9606 2.35816 11.7202 2.55758Z" fill="var(--fill-0, #0F0F0F)"/>
<path d="M16.348 2.65449C16.167 2.85112 16.0765 3.11797 16.0765 3.45506V5.8989H15.2197V1.60113H16.068V2.13204C16.1755 1.95788 16.3155 1.82023 16.488 1.71911C16.6605 1.61797 16.8655 1.5674 17.1031 1.5674H17.4V2.35954H17.0437C16.7609 2.35956 16.529 2.45786 16.348 2.65449Z" fill="var(--fill-0, #0F0F0F)"/>
</g>
</svg>
