<svg preserveAspectRatio="none" width="100%" height="100%" overflow="visible" style="display: block;" viewBox="0 0 28.6 36.4" fill="none" xmlns="http://www.w3.org/2000/svg">
<path id="Vector" d="M28.5253 14.6331C29.1202 10.8083 26.0917 8.75238 21.9503 7.38084L23.2938 2.19982L20.0136 1.41396L18.7057 6.45857C17.8434 6.25178 16.9578 6.05693 16.0776 5.86376L17.395 0.785862L14.1168 0L12.7726 5.17933C12.059 5.02311 11.3581 4.86872 10.6781 4.70604L10.6819 4.68975L6.15844 3.60367L5.28586 6.97217C5.28586 6.97217 7.71949 7.50854 7.66821 7.54155C8.9965 7.86031 9.23671 8.70574 9.19682 9.37584L7.66645 15.2782C7.75792 15.3006 7.87656 15.3329 8.00748 15.3835C7.89804 15.3573 7.78159 15.3288 7.66075 15.301L5.5157 23.5694C5.35337 23.9574 4.94133 24.5397 4.01265 24.3186C4.04553 24.3644 1.62856 23.7466 1.62856 23.7466L0 27.3567L4.26864 28.3798C5.06275 28.5713 5.84094 28.7716 6.60729 28.96L5.24992 34.2005L8.52632 34.9863L9.87054 29.8015C10.7656 30.0351 11.6342 30.2506 12.4846 30.4538L11.1449 35.6141L14.4253 36.4L15.7825 31.1694C21.3759 32.1872 25.5817 31.7768 27.352 26.9125C28.7785 22.9961 27.281 20.7371 24.3383 19.264C26.4816 18.7888 28.0948 17.433 28.5253 14.6331ZM21.0308 24.7375C20.0171 28.6539 13.1589 26.5368 10.9354 26.0059L12.7367 19.0633C14.96 19.597 22.0901 20.6531 21.0308 24.7375ZM22.0453 14.5764C21.1205 18.1387 15.4124 16.3289 13.5607 15.8851L15.1938 9.58853C17.0455 10.0323 23.0083 10.8606 22.0453 14.5764Z" fill="var(--fill-0, white)"/>
</svg>
