<svg preserveAspectRatio="none" width="100%" height="100%" overflow="visible" style="display: block;" viewBox="0 0 17.6 22.4" fill="none" xmlns="http://www.w3.org/2000/svg">
<path id="Vector" d="M17.554 9.00501C17.9202 6.65129 16.0564 5.38608 13.5079 4.54205L14.3346 1.35374L12.316 0.870131L11.5112 3.9745C10.9805 3.84725 10.4356 3.72734 9.89393 3.60847L10.7046 0.483608L8.68728 0L7.86006 3.18728C7.42092 3.09115 6.9896 2.99614 6.57114 2.89603L6.57347 2.886L3.78981 2.21764L3.25284 4.29057C3.25284 4.29057 4.75046 4.62064 4.7189 4.64095C5.53631 4.83711 5.68413 5.35738 5.65958 5.76975L4.71782 9.40199C4.7741 9.41574 4.84711 9.43562 4.92768 9.46674C4.86033 9.45066 4.78867 9.43311 4.71431 9.416L3.39427 14.5042C3.29438 14.743 3.04082 15.1014 2.46932 14.9653C2.48955 14.9935 1.00219 14.6133 1.00219 14.6133L0 16.8349L2.62685 17.4645C3.11554 17.5823 3.59442 17.7056 4.06603 17.8216L3.23072 21.0464L5.24696 21.53L6.07418 18.3394C6.62499 18.4832 7.15954 18.6158 7.68284 18.7408L6.85841 21.9164L8.87708 22.4L9.7123 19.1812C13.1544 19.8075 15.7426 19.555 16.832 16.5615C17.7098 14.1514 16.7883 12.7613 14.9774 11.8548C16.2964 11.5623 17.2891 10.728 17.554 9.00501ZM12.942 15.2231C12.3182 17.6332 8.0978 16.3304 6.72948 16.0037L7.83794 11.7312C9.20617 12.0597 13.5939 12.7096 12.942 15.2231ZM13.5663 8.97008C12.9972 11.1623 9.48455 10.0486 8.34506 9.77546L9.35003 5.90063C10.4895 6.17373 14.1589 6.68345 13.5663 8.97008Z" fill="var(--fill-0, white)"/>
</svg>
