<svg preserveAspectRatio="none" width="100%" height="100%" overflow="visible" style="display: block;" viewBox="0 0 19.2 17.6" fill="none" xmlns="http://www.w3.org/2000/svg">
<path id="Vector" fill-rule="evenodd" clip-rule="evenodd" d="M11.5522 9.46132V9.45935C11.4429 9.46726 10.8793 9.50089 9.62187 9.50089C8.61793 9.50089 7.9112 9.47122 7.66271 9.45935V9.46231C3.79805 9.29315 0.913481 8.62342 0.913481 7.82211C0.913481 7.0218 3.79805 6.35207 7.66271 6.17993V8.79555C7.91518 8.81335 8.63881 8.85589 9.63877 8.85589C10.8385 8.85589 11.4399 8.80643 11.5522 8.79654V6.18191C15.4089 6.35306 18.2865 7.02279 18.2865 7.82211C18.2865 8.62342 15.4089 9.29117 11.5522 9.46132ZM11.5522 5.90987V3.56927H16.9337V0H2.28122V3.56927H7.66271V5.90888C3.28913 6.10871 0 6.97134 0 8.00414C0 9.03693 3.28913 9.89858 7.66271 10.0994V17.6H11.5522V10.0974C15.9188 9.89759 19.2 9.03594 19.2 8.00414C19.2 6.97233 15.9188 6.11069 11.5522 5.90987Z" fill="var(--fill-0, white)"/>
</svg>
