<svg preserveAspectRatio="none" width="100%" height="100%" overflow="visible" style="display: block;" viewBox="0 0 394 91" fill="none" xmlns="http://www.w3.org/2000/svg">
<path id="Vector" d="M0.5 0.5H11.4772C12.6711 0.5 13.8795 0.828326 15.0549 1.47207L38.12 14.1047C40.6355 15.4824 43.2613 15.1809 45.4197 13.2664L45.9965 12.7548C49.5394 9.61225 54.2106 11.3808 57.1584 16.9807L57.9051 18.3991C62.2681 26.6876 70.6863 25.2898 74.6444 15.4919C78.6025 5.69403 85.8162 4.43297 89.5212 15.2005L96.0929 42.9733C97.7678 47.8409 101.373 49.8613 104.042 47.4287C104.785 46.7519 105.634 46.3991 106.519 46.3991H112.091C114.94 46.3991 117.805 48.2659 120.082 51.6057L133.242 70.9054C136.677 75.9439 141.583 75.8983 144.292 70.8027C145.604 68.3348 147.507 66.9509 149.588 66.9509H150.311C153.192 66.9509 155.775 64.7844 157.356 61.0411L157.609 60.4428C159.35 56.3206 162.195 53.9348 165.367 53.9348H172.161C173.279 53.9348 174.371 53.6467 175.399 53.0807L185.053 47.7648C186.682 46.8677 188.463 46.6738 190.243 47.1999L195.444 48.7362C197.834 49.4425 200.209 48.8465 202.21 47.0377L203.135 46.2015C207.441 42.3083 213.135 44.263 216.862 50.9133L233.141 79.9671L234.841 83.226C239.809 92.7436 248.276 92.9558 252.121 83.6591L256.765 72.4314L263.372 60.3239C265.53 56.3696 268.923 54.8987 272.275 56.4642L274.438 57.4742C276.125 58.2621 277.842 57.666 279.045 55.8749C279.889 54.619 280.998 53.9348 282.189 53.9348H289.961C290.651 53.9348 291.333 53.825 291.996 53.6069L300.552 50.793C302.479 50.1594 304.534 50.4477 306.495 51.6267L309.366 53.3536C314.547 56.469 319.898 53.158 322.089 45.481L325.05 35.1062C325.884 32.1868 327.21 29.8031 328.883 28.2159L332.172 25.0969C334.009 23.3543 336.183 22.6489 338.41 23.0731L345.755 24.4719C348.11 24.9204 350.402 24.1057 352.299 22.1465L353.126 21.2914C355.001 19.3544 357.264 18.5355 359.592 18.9515L377.073 22.0754C378.356 22.3047 379.627 22.1601 380.83 21.6482L393.5 16.2564" stroke="var(--stroke-0, #FF0055)" stroke-linecap="round"/>
</svg>
