<svg preserveAspectRatio="none" width="100%" height="100%" overflow="visible" style="display: block;" viewBox="0 0 21.5195 20.3825" fill="none" xmlns="http://www.w3.org/2000/svg">
<g id="Vector">
<path fill-rule="evenodd" clip-rule="evenodd" d="M10.75 6.43811C12.82 6.43811 14.5 8.11811 14.5 10.1881C14.4998 12.2579 12.8199 13.9381 10.75 13.9381C8.68012 13.9381 7.0002 12.2579 7 10.1881C7 8.11811 8.68 6.43811 10.75 6.43811ZM10.75 7.93811C9.51 7.93811 8.5 8.94811 8.5 10.1881C8.5002 11.4279 9.51012 12.4381 10.75 12.4381C11.9899 12.4381 12.9998 11.4279 13 10.1881C13 8.94811 11.99 7.93811 10.75 7.93811Z" fill="var(--fill-0, #0F0F0F)"/>
<path fill-rule="evenodd" clip-rule="evenodd" d="M6.34961 0.327756C7.47961 -0.342244 8.97039 0.0478736 9.65039 1.19787L9.76953 1.39807C10.3595 2.41802 11.1698 2.41793 11.7598 1.39807L11.8701 1.20764C12.5502 0.0479098 14.0398 -0.341417 15.1797 0.338499L16.9004 1.32776C17.5103 1.67776 17.9497 2.24818 18.1396 2.93811C18.3196 3.62808 18.2299 4.33789 17.8799 4.94787C17.59 5.45762 17.51 5.91761 17.6797 6.20764C17.8497 6.49764 18.2801 6.6676 18.8701 6.6676C20.33 6.66766 21.5195 7.85804 21.5195 9.31799V11.0778C21.5195 12.5377 20.3301 13.7281 18.8701 13.7281C18.2801 13.7281 17.8497 13.8981 17.6797 14.1881C17.5098 14.4781 17.58 14.9381 17.8799 15.4479C18.2298 16.0578 18.3295 16.7777 18.1396 17.4576C17.9597 18.1475 17.5202 18.718 16.9004 19.068L15.1699 20.0582C14.79 20.2682 14.3799 20.3776 13.96 20.3776C13.75 20.3776 13.54 20.3484 13.3301 20.2985C12.7102 20.1285 12.1904 19.738 11.8604 19.1881L11.7402 18.9879C11.1503 17.9679 10.34 17.968 9.75 18.9879L9.63965 19.1783C9.30964 19.7381 8.78978 20.1385 8.16992 20.2985C7.54001 20.4684 6.88978 20.3784 6.33984 20.0485L4.62012 19.0582C4.01012 18.7082 3.56988 18.1379 3.37988 17.4479C3.19997 16.758 3.28978 16.048 3.63965 15.4381C3.9296 14.9282 4.00972 14.4684 3.83984 14.1783C3.66988 13.8884 3.24019 13.7185 2.65039 13.7184C1.19039 13.7184 0 12.528 0 11.068V9.30822C0 7.84821 1.19039 6.65783 2.65039 6.65783C3.24019 6.65776 3.66988 6.48781 3.83984 6.19787C4.00981 5.90787 3.93963 5.44808 3.63965 4.93811C3.28975 4.32822 3.20001 3.60821 3.37988 2.92834C3.55988 2.23834 4.00012 1.66799 4.62012 1.31799L6.34961 0.327756ZM14.4004 1.6178C13.9704 1.3578 13.3996 1.50787 13.1396 1.94787L13.0303 2.1383C12.4603 3.12816 11.6301 3.68801 10.7402 3.68811C9.85032 3.68811 9.02019 3.12812 8.4502 2.1383L8.33984 1.93811C8.08984 1.51811 7.52961 1.3678 7.09961 1.6178L5.37012 2.6178C5.11013 2.76779 4.91009 3.01801 4.83008 3.31799C4.75008 3.61799 4.79043 3.92811 4.94043 4.18811C5.5103 5.16803 5.57961 6.17794 5.13965 6.94787C4.69969 7.71776 3.79019 8.15773 2.65039 8.15783C2.01039 8.15783 1.5 8.66822 1.5 9.30822V11.068C1.5 11.698 2.01039 12.2184 2.65039 12.2184C3.79021 12.2185 4.6997 12.6584 5.13965 13.4283C5.57958 14.1983 5.51034 15.2082 4.94043 16.1881C4.79043 16.4481 4.75008 16.7582 4.83008 17.0582C4.91011 17.3581 5.10041 17.5985 5.36035 17.7584L7.08984 18.7477C7.29984 18.8777 7.55027 18.9083 7.78027 18.8483C8.02018 18.7882 8.21965 18.6275 8.34961 18.4176L8.45996 18.2281C9.02996 17.2481 9.86 16.6783 10.75 16.6783C11.64 16.6783 12.47 17.2381 13.04 18.2281L13.1504 18.4176C13.2704 18.6276 13.47 18.7785 13.71 18.8385C13.9499 18.8985 14.1897 18.8676 14.3896 18.7477L16.1201 17.7477C16.3799 17.5977 16.5801 17.3482 16.6602 17.0485C16.7401 16.7485 16.6997 16.4383 16.5498 16.1783C15.9798 15.1983 15.9096 14.1876 16.3496 13.4176C16.7896 12.6477 17.7 12.2077 18.8398 12.2076C19.4798 12.2076 19.9901 11.6981 19.9902 11.0582V9.29846C19.9902 8.66846 19.4798 8.14807 18.8398 8.14807C17.6999 8.14803 16.7896 7.70807 16.3496 6.93811C15.9097 6.16821 15.98 5.1582 16.5498 4.17834C16.6998 3.91841 16.7401 3.60816 16.6602 3.30823C16.5802 3.00823 16.3899 2.76803 16.1299 2.60803L14.4004 1.6178Z" fill="var(--fill-0, #0F0F0F)"/>
</g>
</svg>
