<svg preserveAspectRatio="none" width="100%" height="100%" overflow="visible" style="display: block;" viewBox="0 0 88 22" fill="none" xmlns="http://www.w3.org/2000/svg">
<path id="Vector" opacity="0.3" d="M0 14.7349L0.38484 14.3256L1.2828 15.1442L2.18076 14.1209L2.82216 14.6326L3.46356 13.507L3.72012 13.6093L4.10496 13.0977L5.00292 9.6186L5.25948 10.7442L5.51604 11.0512L5.90087 10.4372L6.28571 10.3349L6.54227 10.1302L7.05539 10.0279L7.56851 9.51628L7.95335 9.00465L8.59475 8.8L9.49271 9.72093L10.0058 10.0279L11.2886 8.08372L11.5452 6.54884L11.93 6.75349L12.5714 4.60465L12.828 5.01395L13.0845 4.4L13.4694 4.50233L13.9825 5.2186L14.6239 5.01395L14.8805 5.73023L15.2653 7.26512L15.9067 6.13953L16.4198 3.17209L16.6764 3.47907L17.0612 2.96744L17.3178 2.04651L17.5743 0.613953L17.9592 0.204651L18.344 0.716279L18.4723 2.35349L18.8571 2.55814L19.242 2.45581L19.4985 2.14884L19.7551 2.96744H20.0117L20.6531 5.73023H20.9096L21.2945 6.24186L21.8076 4.29767L22.1924 4.09302L22.449 3.27442L22.8338 3.9907L23.0904 3.68372L23.3469 4.29767L23.7318 3.9907L23.9883 4.50233L24.2449 4.19535L24.5015 5.52558L24.8863 5.2186L25.2711 6.85581L25.7843 8.8L26.0408 8.90233L26.4257 8.3907L26.9388 6.65116L27.3236 7.06046L27.5802 6.85581L27.8367 8.08372L28.4781 8.69767L28.7347 11.6651L29.3761 13.3023L29.7609 13.6093L30.2741 12.7907L30.6589 13.0977L30.9155 12.2791L31.172 11.9721H31.8134L32.1982 12.1767L32.4548 11.3581L32.8397 11.0512L33.3528 9.10698H33.675L33.9942 8.8L34.2507 9.6186L34.8921 9.2093L35.1487 9.31163L35.4053 9.10698L36.0466 9.51628L36.4315 9.2093L36.9446 11.4605L37.2012 11.2558L37.8426 12.2791L38.2274 11.6651L38.484 10.6419L38.8688 10.7442L39.3819 13.3023L39.7668 11.9721L40.2799 12.2791L40.9213 11.3581H41.1778L41.5627 10.6419L42.2041 9.92558L42.4606 8.8L43.102 9.6186L43.3586 11.9721L43.7434 12.893L44.1283 19.6465L44.2566 17.3953L45.1545 22L45.4111 21.693L45.7186 19.6465L46.0525 18.6233L46.4373 18.5209L46.6939 19.1349L47.0787 18.9302H47.3353L47.5918 21.4884L48.2332 21.0791L48.4898 21.386L49.3878 20.0558L49.7726 19.1349H50.0762L50.5423 19.9535L50.9271 20.6698L51.312 19.5442L51.4402 16.5767L52.2099 14.8372L52.723 14.1209L52.9796 12.586L53.3644 13.6093L54.0058 14.0186L54.2624 13.2L54.519 13.9163L55.4169 13.0977L56.0583 13.6093L56.3149 13.3023L56.5714 10.4372L57.0845 10.2326L57.2128 9.92558H57.7259L57.9825 9.6186L58.3673 11.2558H58.8805L59.3936 12.1767L59.6501 13.0977H60.035L60.6764 12.1767L61.3178 11.9721L61.5743 11.6651L61.7026 12.0744L62.0875 11.5628L62.4723 11.9721H62.9854L63.3703 11.5628L63.8834 11.9721H64.3965L64.7813 12.0744L65.4227 11.0512L65.6793 11.7674L66.0641 11.4605L66.9621 13.2L67.2187 12.4837L67.4752 12.7907L67.9883 12.586L68.1166 12.7907L68.3732 12.0744L68.758 11.9721L69.3994 13.2L69.656 14.9395L70.5539 17.907L70.8105 18.214L71.3236 17.907L72.0933 18.4186L72.3499 17.3953L72.9913 16.5767L73.2478 15.1442L73.6327 15.5535L73.8892 14.9395H74.2741L74.5306 14.3256L74.7872 11.2558L75.172 10.6419L75.4286 8.8L76.07 7.46977L76.5831 6.65116L76.9679 7.26512H77.481L77.7376 0L78.8921 6.13953L79.277 5.83256L79.6618 7.57209L80.0466 6.85581L80.3032 5.83256L80.5598 6.44651L81.2012 5.52558H81.4577L81.7143 6.65116L82.0991 6.13953L82.3557 7.46977L83.2536 9.00465L83.8951 7.67442L84.1516 5.93488L84.5364 6.03721L85.4344 3.88837L85.691 4.29767L85.9475 3.37674L86.3324 2.96744L86.5889 2.45581L86.9738 3.17209L88 1.53488V22H45.1545H0V14.7349Z" fill="url(#paint0_linear_6392_143821)"/>
<defs>
<linearGradient id="paint0_linear_6392_143821" x1="44" y1="0" x2="44" y2="23.3333" gradientUnits="userSpaceOnUse">
<stop stop-color="#42B03B"/>
<stop offset="1" stop-color="#4CB63A" stop-opacity="0"/>
</linearGradient>
</defs>
</svg>
