<svg preserveAspectRatio="none" width="100%" height="100%" overflow="visible" style="display: block;" viewBox="0 0 6.81744 9.25" fill="none" xmlns="http://www.w3.org/2000/svg">
<path id="Vector" d="M3.40891 0C3.61385 7.56375e-05 3.78391 0.170046 3.78391 0.375V7.97021L6.17893 5.5752C6.32393 5.4302 6.56372 5.4302 6.70872 5.5752C6.85367 5.7202 6.8537 5.96 6.70872 6.10498L3.67356 9.14014C3.59862 9.21499 3.5038 9.24997 3.40891 9.25C3.31393 9.25 3.21877 9.2151 3.14378 9.14014L0.108619 6.10498C-0.0362213 5.96002 -0.0361917 5.72017 0.108619 5.5752C0.253619 5.4302 0.493893 5.4302 0.638893 5.5752L3.03391 7.97021V0.375C3.03391 0.17 3.20391 0 3.40891 0Z" fill="var(--fill-0, #737373)"/>
</svg>
