<svg preserveAspectRatio="none" width="100%" height="100%" overflow="visible" style="display: block;" viewBox="0 0 13.2 12.1" fill="none" xmlns="http://www.w3.org/2000/svg">
<path id="Vector" fill-rule="evenodd" clip-rule="evenodd" d="M7.94214 6.50466V6.5033C7.86697 6.50874 7.4795 6.53186 6.61503 6.53186C5.92483 6.53186 5.43895 6.51146 5.26811 6.5033V6.50534C2.61116 6.38904 0.628018 5.9286 0.628018 5.3777C0.628018 4.82749 2.61116 4.36705 5.26811 4.2487V6.04694C5.44169 6.05918 5.93918 6.08843 6.62665 6.08843C7.45148 6.08843 7.86492 6.05442 7.94214 6.04762V4.25006C10.5936 4.36773 12.572 4.82817 12.572 5.3777C12.572 5.9286 10.5936 6.38768 7.94214 6.50466ZM7.94214 4.06303V2.45387H11.6419V0H1.56834V2.45387H5.26811V4.06235C2.26128 4.19974 0 4.7928 0 5.50284C0 6.21289 2.26128 6.80527 5.26811 6.94334V12.1H7.94214V6.94198C10.9442 6.80459 13.2 6.21221 13.2 5.50284C13.2 4.79348 10.9442 4.2011 7.94214 4.06303Z" fill="var(--fill-0, white)"/>
</svg>
