<svg preserveAspectRatio="none" width="100%" height="100%" overflow="visible" style="display: block;" viewBox="0 0 88.246 22.1101" fill="none" xmlns="http://www.w3.org/2000/svg">
<path id="Vector" d="M0.245996 22.0656L0.963387 18.1056L1.91991 18.9856L2.6373 18.5456L3.83295 17.0056L4.31121 16.3456L5.0286 15.9056L5.98513 16.1256L6.70252 17.2256L7.65904 16.7856L8.1373 15.9056L9.09382 14.8056L10.0503 15.2456L11.4851 14.8056L12.4416 14.3656L14.1156 16.3456L14.833 15.2456L15.5503 11.0656L17.2243 10.4056L17.9416 9.52556H18.8982L20.333 12.1656L21.2895 11.5056L22.0069 14.1456L22.9634 13.7056H23.6808L24.3982 13.0456H25.3547L26.0721 12.6056H27.2677L27.746 12.8256L28.4634 12.6056L29.1808 13.4856L30.1373 14.1456L30.8547 13.9256L31.8112 13.0456L32.5286 13.4856L33.246 12.3856L34.9199 11.9456L35.8764 12.1656L36.5938 11.2856L37.3112 11.0656L38.2677 11.5056L38.9851 10.6256L40.659 11.7256L41.3764 11.9456L42.0938 12.6056L43.0503 13.0456L43.7677 12.6056L44.4851 12.8256L45.4416 12.6056L46.159 12.8256L46.8764 11.7256L47.8329 11.0656L48.5503 11.5056L50.2243 14.5856L50.9416 15.0256L51.8982 16.1256L53.5721 17.2256L54.2895 17.0056L55.9634 17.6656L56.6808 16.3456L57.6373 16.1256L58.3547 15.6856L59.0721 13.9256L60.0286 14.3656L60.746 15.4656L61.4634 14.1456L62.4199 14.5856L63.1373 14.1456L63.8547 12.1656L64.8112 11.7256L65.5286 8.64556H66.246L67.2025 9.08556L67.9199 8.42556L68.6373 8.64556H69.5938L70.3112 8.20556L71.2677 7.10556L71.9851 0.0655573L72.7025 2.70556L74.3764 6.44556L75.333 6.00556L76.0503 7.54556L76.7677 9.52556L77.7243 7.76556L78.4416 9.74556H79.3982L80.1156 7.76556L80.833 6.22556L81.5503 7.54556L82.5069 8.42556L83.2243 7.10556L84.1808 7.98556H84.8982L85.6156 9.08556L86.5721 9.96556L87.2895 9.30556H88.246" stroke="var(--stroke-0, #42B03B)" stroke-width="0.5"/>
</svg>
