<svg preserveAspectRatio="none" width="100%" height="100%" overflow="visible" style="display: block;" viewBox="0 0 14 14.3333" fill="none" xmlns="http://www.w3.org/2000/svg">
<g id="Vector">
<path fill-rule="evenodd" clip-rule="evenodd" d="M12.013 7.66667C13.353 7.66667 14 8.32031 14 9.65365V12.3464C14 13.6797 13.3464 14.3333 12.013 14.3333H1.98698C0.646979 14.3333 0 13.6797 0 12.3464V9.65365C0 8.31365 0.653646 7.66667 1.98698 7.66667H12.013ZM1.98698 8.66667C1.20031 8.66667 1 8.86698 1 9.65365V12.3464C1 13.133 1.20031 13.3333 1.98698 13.3333H12.013C12.7997 13.3333 13 13.133 13 12.3464V9.65365C13 8.86698 12.7997 8.66667 12.013 8.66667H1.98698Z" fill="var(--fill-0, #0F0F0F)"/>
<path fill-rule="evenodd" clip-rule="evenodd" d="M12.013 0C13.353 0 14 0.593646 14 1.82031V4.83984C14 6.07318 13.3464 6.66667 12.013 6.66667H1.98698C0.646979 6.66667 0 6.07302 0 4.84635V1.82031C0 0.593646 0.653646 0 1.98698 0H12.013ZM1.98698 1C1.09365 1 1 1.25365 1 1.82031V4.83984C1 5.41318 1.09365 5.66016 1.98698 5.66016H12.013C12.9064 5.66016 13 5.40651 13 4.83984V1.82031C13 1.24698 12.9064 1 12.013 1H1.98698Z" fill="var(--fill-0, #0F0F0F)"/>
</g>
</svg>
