<svg preserveAspectRatio="none" width="100%" height="100%" overflow="visible" style="display: block;" viewBox="0 0 21.5 20.6396" fill="none" xmlns="http://www.w3.org/2000/svg">
<g id="Vector">
<path d="M9.42969 7.7373L9.78027 7.80469C10.7602 7.99675 11.4697 8.8223 11.4697 9.78223V13.4688C11.4698 13.7374 11.6599 13.9677 11.9297 14.0254L12.3896 14.1406C12.7896 14.2366 13.0397 14.6306 12.9297 15.0146C12.8595 15.3408 12.5498 15.5615 12.21 15.5615C12.15 15.5615 12.0902 15.5516 12.0303 15.542L11.5703 15.4268C10.6303 15.206 9.98051 14.3999 9.98047 13.4688V9.78223C9.98045 9.50385 9.77999 9.27342 9.5 9.21582L9.13965 9.14844C8.72993 9.07143 8.46984 8.68756 8.5498 8.30371C8.62982 7.91031 9.02986 7.66077 9.42969 7.7373Z" fill="var(--fill-0, #FF0055)"/>
<path d="M10.75 4.83789C11.3 4.83789 11.7499 5.26991 11.75 5.79785C11.75 6.32585 11.3098 6.75781 10.7598 6.75781C10.2099 6.75769 9.75 6.32578 9.75 5.79785C9.75007 5.26991 10.1903 4.83789 10.7402 4.83789H10.75Z" fill="var(--fill-0, #FF0055)"/>
<path fill-rule="evenodd" clip-rule="evenodd" d="M10.75 0C16.6799 0 21.4999 4.62661 21.5 10.3193C21.5 16.0121 16.68 20.6396 10.75 20.6396C4.82 20.6396 0 16.0121 0 10.3193C0.000138018 4.62661 4.82009 0 10.75 0ZM10.75 1.43945C5.65008 1.43945 1.50014 5.42341 1.5 10.3193C1.5 15.2153 5.65 19.1992 10.75 19.1992C15.85 19.1992 20 15.2153 20 10.3193C19.9999 5.42341 15.8499 1.43945 10.75 1.43945Z" fill="var(--fill-0, #FF0055)"/>
</g>
</svg>
