<svg preserveAspectRatio="none" width="100%" height="100%" overflow="visible" style="display: block;" viewBox="0 0 88.3904 22.1083" fill="none" xmlns="http://www.w3.org/2000/svg">
<path id="Vector" d="M0.244709 22.0571L1.00497 18.4208L1.57516 19.3298H2.52549L3.28575 18.4208L3.85594 16.9662L4.6162 17.148L5.37646 16.4208L6.13672 17.6935L6.89698 17.3298L7.65724 16.0571L8.41749 15.3298L9.17775 15.6935L9.93801 15.3298L10.5082 14.4208L11.2685 14.0571L12.789 16.2389L13.5492 15.6935L14.3095 11.148L15.0698 12.0571L16.4002 11.6935L17.1605 12.0571L17.9207 13.5117L18.681 14.2389L19.4413 14.6026L20.0114 17.8753L20.9618 16.4208L22.4823 16.6026L23.2425 16.9662L24.0028 16.7844L24.573 16.9662L25.3333 15.6935L26.0935 15.8753L27.614 16.9662L28.1842 16.6026L28.9445 15.148L29.7048 15.8753L30.465 15.3298L31.2253 15.5117L31.9855 15.148L32.7458 15.5117L33.506 15.148L34.2663 15.3298L35.0266 13.3298L35.5968 13.5117L36.5471 14.4208L37.8775 14.6026L39.3981 15.3298H40.1583L40.7285 15.6935L42.249 16.0571L43.0093 14.6026L43.7695 14.4208L44.7199 14.7844L46.0503 18.0571L47.0006 18.9662L48.141 20.7844L48.9013 20.9662L49.6616 20.4208L50.6119 20.7844L51.1821 21.3298L52.1324 20.2389L52.7026 19.148L53.4628 19.3298L54.2231 17.6935L54.9834 18.0571L55.5536 19.148L56.3138 18.4208H57.0741L57.8343 17.6935L58.5946 16.0571L59.3549 16.4208L60.1151 14.2389L60.6853 14.0571L61.6356 14.4208L62.2058 13.5117L63.9164 13.8753L65.2469 12.7844L66.0071 0.0571163L68.0978 8.96621L69.0482 9.14803L69.6184 10.0571L70.3786 13.148L71.1389 10.6026L71.7091 10.9662L72.6594 11.148L73.9898 5.69348L75.5104 9.69348L76.4607 9.32984L77.0309 10.6026L77.7911 10.2389L79.1216 11.148L80.6421 10.6026L81.4024 7.69348L82.9229 6.96621L85.0136 7.14803L85.9639 5.14803L86.7242 4.42075L88.2447 5.51166" stroke="var(--stroke-0, #42B03B)" stroke-width="0.5"/>
</svg>
