<svg preserveAspectRatio="none" width="100%" height="100%" overflow="visible" style="display: block;" viewBox="0 0 11.6958 13.7995" fill="none" xmlns="http://www.w3.org/2000/svg">
<g id="Group">
<path id="Vector" d="M3.32264 13.3313L3.5618 11.8122L3.02906 11.7999H0.485186L2.25305 0.590457C2.25854 0.556618 2.27637 0.525066 2.30244 0.502659C2.3285 0.480252 2.36188 0.467905 2.39664 0.467905H6.68597C8.10995 0.467905 9.09266 0.764226 9.60573 1.34909C9.84626 1.62346 9.99945 1.91018 10.0735 2.22571C10.1513 2.55678 10.1526 2.95233 10.0767 3.43477L10.0712 3.46998V3.7791L10.3118 3.91538C10.5144 4.02284 10.6753 4.14585 10.7988 4.28669C11.0046 4.52128 11.1376 4.81943 11.1939 5.17291C11.252 5.53645 11.2328 5.96904 11.1376 6.45879C11.0279 7.02217 10.8505 7.51284 10.6108 7.91433C10.3904 8.28428 10.1097 8.59111 9.7763 8.8289C9.45803 9.0548 9.07985 9.22628 8.65229 9.33603C8.23799 9.44395 7.76562 9.49837 7.24751 9.49837H6.9137C6.67499 9.49837 6.44315 9.58434 6.26115 9.73844C6.07869 9.89575 5.95797 10.1107 5.92093 10.3457L5.89578 10.4824L5.47325 13.1598L5.45404 13.2582C5.44901 13.2893 5.44032 13.3048 5.42752 13.3153C5.41609 13.3249 5.39963 13.3313 5.38362 13.3313H3.32264Z" fill="var(--fill-0, #253B80)"/>
<path id="Vector_2" d="M10.5396 3.50605C10.5268 3.58791 10.5121 3.67159 10.4957 3.75756C9.93001 6.66178 7.99478 7.66506 5.52315 7.66506H4.26471C3.96244 7.66506 3.70773 7.88455 3.66063 8.1827L3.01632 12.269L2.83386 13.4273C2.80322 13.623 2.95413 13.7995 3.15168 13.7995H5.38368C5.64799 13.7995 5.87252 13.6075 5.91413 13.3468L5.93608 13.2334L6.35633 10.5665L6.38331 10.4202C6.42446 10.1586 6.64945 9.96657 6.91376 9.96657H7.24758C9.41008 9.96657 11.1029 9.08859 11.5977 6.54791C11.8044 5.48655 11.6974 4.60034 11.1505 3.97706C10.985 3.78911 10.7796 3.63318 10.5396 3.50605Z" fill="var(--fill-0, #179BD7)"/>
<path id="Vector_3" d="M9.9478 3.27029C9.86137 3.24514 9.7722 3.22228 9.68075 3.2017C9.58883 3.18158 9.49463 3.16374 9.39769 3.1482C9.05838 3.09332 8.68661 3.06726 8.28831 3.06726H4.92636C4.84359 3.06726 4.76493 3.08601 4.69451 3.11985C4.53949 3.19438 4.42426 3.34117 4.39636 3.52088L3.68117 8.05075L3.66059 8.1829C3.70769 7.88475 3.9624 7.66526 4.26467 7.66526H5.52311C7.99474 7.66526 9.92997 6.66152 10.4956 3.75776C10.5125 3.67179 10.5267 3.5881 10.5395 3.50625C10.3964 3.43034 10.2414 3.36541 10.0745 3.31008C10.0333 3.29636 9.99079 3.2831 9.9478 3.27029Z" fill="var(--fill-0, #222D65)"/>
<path id="Vector_4" d="M4.39636 3.52064C4.42426 3.34092 4.53949 3.19413 4.69451 3.12005C4.76539 3.08622 4.84359 3.06747 4.92635 3.06747H8.28831C8.68661 3.06747 9.05838 3.09353 9.39769 3.14841C9.49463 3.16395 9.58883 3.18179 9.68074 3.20191C9.7722 3.22249 9.86137 3.24535 9.9478 3.2705C9.99078 3.28331 10.0333 3.29657 10.0749 3.30983C10.2418 3.36516 10.3969 3.43055 10.54 3.506C10.7083 2.43276 10.5386 1.70201 9.95832 1.04032C9.31858 0.311868 8.16393 0 6.68644 0H2.39711C2.0953 0 1.83785 0.219497 1.79121 0.518104L0.00459849 11.8428C-0.0306124 12.0668 0.142241 12.269 0.36814 12.269H3.01628L3.68117 8.0505L4.39636 3.52064Z" fill="var(--fill-0, #253B80)"/>
</g>
</svg>
