<svg preserveAspectRatio="none" width="100%" height="100%" overflow="visible" style="display: block;" viewBox="0 0 13.3333 11.4661" fill="none" xmlns="http://www.w3.org/2000/svg">
<g id="Vector">
<path fill-rule="evenodd" clip-rule="evenodd" d="M12.5332 4.56641C12.9732 4.56641 13.3333 4.92654 13.3333 5.36654V8.69987C13.3333 10.2265 12.093 11.4661 10.5664 11.4661H2.75977C1.23321 11.466 0 10.233 0 8.70638V5.36654C0 4.92654 0.36013 4.56641 0.80013 4.56641H12.5332ZM2.66667 8.23307C2.39333 8.23307 2.16667 8.45974 2.16667 8.73307C2.16667 9.00641 2.39333 9.23307 2.66667 9.23307H4C4.27333 9.23307 4.5 9.00641 4.5 8.73307C4.5 8.45974 4.27333 8.23307 4 8.23307H2.66667ZM5.66667 8.23307C5.39333 8.23307 5.16667 8.45974 5.16667 8.73307C5.16667 9.00641 5.39333 9.23307 5.66667 9.23307H8.33333C8.60667 9.23307 8.83333 9.00641 8.83333 8.73307C8.83333 8.45974 8.60667 8.23307 8.33333 8.23307H5.66667Z" fill="var(--fill-0, #A3A3A3)"/>
<path d="M10.5664 0C12.0931 0 13.3333 1.24026 13.3333 2.76693C13.3332 3.20681 12.9731 3.56641 12.5332 3.56641H0.80013C0.360217 3.56641 0.00014215 3.20681 0 2.76693V2.75977C0.000126337 1.23329 1.23329 0.000126166 2.75977 0H10.5664Z" fill="var(--fill-0, #A3A3A3)"/>
</g>
</svg>
