<svg preserveAspectRatio="none" width="100%" height="100%" overflow="visible" style="display: block;" viewBox="0 0 17.0905 16.3971" fill="none" xmlns="http://www.w3.org/2000/svg">
<path id="Vector" d="M16.0905 0C16.6369 0.000304994 17.0905 0.435037 17.0905 0.959635V11.9935C17.0904 12.518 16.6368 12.9528 16.0905 12.9531C15.5439 12.9531 15.0906 12.5182 15.0905 11.9935V3.26432L1.70376 16.1159C1.5171 16.3078 1.26337 16.3971 0.996726 16.3971C0.743422 16.3971 0.489671 16.3079 0.289694 16.1159C-0.0966835 15.7448 -0.0964461 15.1303 0.289694 14.7591L13.666 1.91927H4.59699C4.05032 1.91927 3.59699 1.48444 3.59699 0.959635C3.59701 0.434853 4.05033 0 4.59699 0H16.0905Z" fill="var(--fill-0, #A3A3A3)"/>
</svg>
