<svg preserveAspectRatio="none" width="100%" height="100%" overflow="visible" style="display: block;" viewBox="0 0 13.3464 13.3318" fill="none" xmlns="http://www.w3.org/2000/svg">
<path id="Vector" fill-rule="evenodd" clip-rule="evenodd" d="M4.5332 0.611724C5.53989 -0.16815 7.14675 -0.208157 8.19336 0.525136L12.0332 3.21198C12.7665 3.72532 13.3464 4.83216 13.3464 5.73217V10.2523C13.3462 11.9522 11.9662 13.3318 10.2663 13.3318H3.08008C1.38008 13.3318 0 11.9452 0 10.2452V5.64558C0 4.80557 0.526693 3.7385 1.19336 3.2185L4.5332 0.611724ZM6.67318 8.16511C6.39993 8.16511 6.17332 8.39189 6.17318 8.66511V10.6651C6.17318 10.9384 6.39984 11.1651 6.67318 11.1651C6.94651 11.1651 7.17318 10.9384 7.17318 10.6651V8.66511C7.17303 8.39189 6.94642 8.16511 6.67318 8.16511Z" fill="var(--fill-0, #A3A3A3)"/>
</svg>
