<svg preserveAspectRatio="none" width="100%" height="100%" overflow="visible" style="display: block;" viewBox="0 0 7.74993 7.74993" fill="none" xmlns="http://www.w3.org/2000/svg">
<path id="Vector" d="M7.10983 0.109835C7.25628 -0.036611 7.49366 -0.0366112 7.64011 0.109835C7.78653 0.256284 7.78654 0.493671 7.64011 0.640108L4.40524 3.87497L7.64011 7.10983C7.78653 7.25628 7.78654 7.49367 7.64011 7.64011C7.49367 7.78654 7.25628 7.78653 7.10983 7.64011L3.87497 4.40524L0.640108 7.64011C0.493671 7.78655 0.256284 7.78653 0.109835 7.64011C-0.0366117 7.49366 -0.0366115 7.25628 0.109835 7.10983L3.3447 3.87497L0.109835 0.640108C-0.0366114 0.493662 -0.0366113 0.256281 0.109835 0.109835C0.256281 -0.0366117 0.493662 -0.0366115 0.640108 0.109835L3.87497 3.3447L7.10983 0.109835Z" fill="var(--fill-0, #0F0F0F)"/>
</svg>
