<svg preserveAspectRatio="none" width="100%" height="100%" overflow="visible" style="display: block;" viewBox="0 0 26.8221 30.8718" fill="none" xmlns="http://www.w3.org/2000/svg">
<g id="Vector">
<path d="M13.4111 18.6667C20.8059 18.6667 26.8221 23.6636 26.8221 29.7949C26.8221 30.3836 26.3339 30.8718 25.7452 30.8718C25.1566 30.8716 24.6683 30.3835 24.6683 29.7949C24.6683 24.841 19.6141 20.8205 13.4111 20.8205C7.20804 20.8206 2.15385 24.8411 2.15385 29.7949C2.15385 30.3836 1.66564 30.8718 1.07692 30.8718C0.488205 30.8718 0 30.3836 0 29.7949C0 23.6637 6.01624 18.6668 13.4111 18.6667Z" fill="var(--fill-0, #0F0F0F)"/>
<path fill-rule="evenodd" clip-rule="evenodd" d="M13.4111 0C17.9629 0 21.6675 3.70461 21.6675 8.25641C21.6675 12.8082 17.9629 16.5128 13.4111 16.5128C8.85926 16.5128 5.15465 12.8082 5.15465 8.25641C5.15465 3.70461 8.85926 0 13.4111 0ZM13.4111 2.15385C10.0511 2.15385 7.30849 4.89641 7.30849 8.25641C7.30849 11.6164 10.0511 14.359 13.4111 14.359C16.7711 14.359 19.5136 11.6164 19.5136 8.25641C19.5136 4.89641 16.7711 2.15385 13.4111 2.15385Z" fill="var(--fill-0, #0F0F0F)"/>
</g>
</svg>
