<svg preserveAspectRatio="none" width="100%" height="100%" overflow="visible" style="display: block;" viewBox="0 0 16.8 16.8" fill="none" xmlns="http://www.w3.org/2000/svg">
<g id="Vector">
<path d="M3.59701 6.64568C3.59701 7.63897 2.79179 8.44419 1.7985 8.44419C0.805217 8.44419 0 7.63897 0 6.64568C0 5.6524 0.805217 4.84718 1.7985 4.84718C2.79179 4.84718 3.59701 5.6524 3.59701 6.64568Z" fill="var(--fill-0, white)"/>
<path d="M16.8 6.64568C16.8 7.63897 15.9948 8.44419 15.0015 8.44419C14.0082 8.44419 13.203 7.63897 13.203 6.64568C13.203 5.6524 14.0082 4.84718 15.0015 4.84718C15.9948 4.84718 16.8 5.6524 16.8 6.64568Z" fill="var(--fill-0, white)"/>
<path d="M11.251 2.84629C11.251 4.41826 9.97667 5.69259 8.40471 5.69259C6.83274 5.69259 5.55842 4.41826 5.55842 2.84629C5.55842 1.27433 6.83274 0 8.40471 0C9.97667 0 11.251 1.27433 11.251 2.84629Z" fill="var(--fill-0, white)"/>
<path d="M7.48884 10.0622C7.48884 10.778 6.90853 11.3583 6.19267 11.3583C5.47681 11.3583 4.8965 10.778 4.8965 10.0622C4.8965 9.3463 5.47681 8.76598 6.19267 8.76598C6.90853 8.76598 7.48884 9.3463 7.48884 10.0622Z" fill="var(--fill-0, white)"/>
<path d="M11.9129 10.0622C11.9129 10.778 11.3326 11.3583 10.6167 11.3583C9.90089 11.3583 9.32058 10.778 9.32058 10.0622C9.32058 9.3463 9.90089 8.76598 10.6167 8.76598C11.3326 8.76598 11.9129 9.3463 11.9129 10.0622Z" fill="var(--fill-0, white)"/>
<path d="M5.54409 14.8125C5.54409 15.9102 4.65425 16.8 3.55656 16.8C2.45888 16.8 1.56903 15.9102 1.56903 14.8125C1.56903 13.7148 2.45888 12.8249 3.55656 12.8249C4.65425 12.8249 5.54409 13.7148 5.54409 14.8125Z" fill="var(--fill-0, white)"/>
<path d="M15.2404 14.8125C15.2404 15.9102 14.3505 16.8 13.2529 16.8C12.1552 16.8 11.2653 15.9102 11.2653 14.8125C11.2653 13.7148 12.1552 12.8249 13.2529 12.8249C14.3505 12.8249 15.2404 13.7148 15.2404 14.8125Z" fill="var(--fill-0, white)"/>
</g>
</svg>
