<svg preserveAspectRatio="none" width="100%" height="100%" overflow="visible" style="display: block;" viewBox="0 0 21.793 25.0833" fill="none" xmlns="http://www.w3.org/2000/svg">
<g id="Vector">
<path d="M10.8965 15.1667C16.9048 15.1667 21.793 19.2267 21.793 24.2083C21.793 24.6867 21.3963 25.0833 20.918 25.0833C20.4398 25.0832 20.043 24.6866 20.043 24.2083C20.043 20.1833 15.9365 16.9167 10.8965 16.9167C5.85653 16.9168 1.75 20.1834 1.75 24.2083C1.75 24.6867 1.35333 25.0833 0.875 25.0833C0.396667 25.0833 0 24.6867 0 24.2083C0 19.2267 4.8882 15.1668 10.8965 15.1667Z" fill="var(--fill-0, #0F0F0F)"/>
<path fill-rule="evenodd" clip-rule="evenodd" d="M10.8965 0C14.5948 0 17.6048 3.01 17.6048 6.70833C17.6048 10.4067 14.5948 13.4167 10.8965 13.4167C7.19815 13.4167 4.18815 10.4067 4.18815 6.70833C4.18815 3.01 7.19815 0 10.8965 0ZM10.8965 1.75C8.16648 1.75 5.93815 3.97833 5.93815 6.70833C5.93815 9.43833 8.16648 11.6667 10.8965 11.6667C13.6265 11.6667 15.8548 9.43833 15.8548 6.70833C15.8548 3.97833 13.6265 1.75 10.8965 1.75Z" fill="var(--fill-0, #0F0F0F)"/>
</g>
</svg>
