<svg preserveAspectRatio="none" width="100%" height="100%" overflow="visible" style="display: block;" viewBox="0 0 16.5 15.95" fill="none" xmlns="http://www.w3.org/2000/svg">
<g id="Vector">
<path d="M11.2668 9.58841C11.2668 7.975 10.3069 7.42182 8.38713 7.19136C7.01585 7.00693 6.74159 6.63818 6.74159 5.99273C6.74159 5.34728 7.19872 4.9325 8.11287 4.9325C8.93564 4.9325 9.39277 5.20909 9.62128 5.90057C9.66702 6.03886 9.80415 6.13102 9.94128 6.13102H10.6726C10.8554 6.13102 10.9926 5.99273 10.9926 5.80841V5.76227C10.8097 4.74807 9.98692 3.96443 8.93564 3.87227V2.76591C8.93564 2.58148 8.79851 2.44318 8.57 2.39705H7.88436C7.70149 2.39705 7.56436 2.53534 7.51861 2.76591V3.82614C6.14733 4.01057 5.27893 4.9325 5.27893 6.085C5.27893 7.60625 6.19308 8.20546 8.11287 8.43602C9.39277 8.66648 9.80415 8.94307 9.80415 9.68068C9.80415 10.4183 9.16415 10.9253 8.29574 10.9253C7.10723 10.9253 6.69584 10.4182 6.55872 9.7267C6.51308 9.54238 6.37595 9.45011 6.23882 9.45011H5.46169C5.27893 9.45011 5.1418 9.58841 5.1418 9.77284V9.81898C5.32456 10.9714 6.05595 11.8011 7.56436 12.0317V13.1381C7.56436 13.3224 7.70149 13.4607 7.93 13.5068H8.61564C8.79851 13.5068 8.93564 13.3685 8.98139 13.1381V12.0317C10.3527 11.8011 11.2668 10.8331 11.2668 9.58841Z" fill="var(--fill-0, white)"/>
<path d="M5.91882 14.4287C2.35349 13.1381 0.525084 9.1275 1.85073 5.57784C2.53637 3.64171 4.04478 2.16659 5.91882 1.47511C6.1017 1.38295 6.19308 1.24466 6.19308 1.01409V0.368751C6.19308 0.18432 6.1017 0.0460247 5.91882 0C5.87308 0 5.78169 -2.95431e-07 5.73595 0.0460244C1.3936 1.42898 -0.983325 6.085 0.387956 10.4643C1.21072 13.0458 3.17626 15.0281 5.73595 15.8578C5.91882 15.95 6.1017 15.8578 6.14733 15.6734C6.19308 15.6274 6.19308 15.5812 6.19308 15.4891V14.8436C6.19308 14.7053 6.05595 14.521 5.91882 14.4287ZM10.7641 0.0460244C10.5812 -0.0461357 10.3983 0.0460246 10.3527 0.230455C10.3069 0.276591 10.3069 0.322616 10.3069 0.414886V1.06023C10.3069 1.24466 10.444 1.42898 10.5812 1.52125C14.1465 2.81193 15.9749 6.8225 14.6493 10.3722C13.9636 12.3083 12.4552 13.7834 10.5812 14.4749C10.3983 14.567 10.3069 14.7053 10.3069 14.9359V15.5812C10.3069 15.7657 10.3983 15.904 10.5812 15.95C10.6269 15.95 10.7183 15.95 10.7641 15.904C15.1064 14.521 17.4833 9.865 16.112 5.48568C15.2893 2.85807 13.278 0.875797 10.7641 0.0460244Z" fill="var(--fill-0, white)"/>
</g>
</svg>
