<svg preserveAspectRatio="none" width="100%" height="100%" overflow="visible" style="display: block;" viewBox="0 0 24 23.2" fill="none" xmlns="http://www.w3.org/2000/svg">
<g id="Vector">
<path d="M16.3881 13.9468C16.3881 11.6 14.9919 10.7954 12.1995 10.4602C10.2049 10.1919 9.80595 9.65554 9.80595 8.7167C9.80595 7.77786 10.4709 7.17455 11.8005 7.17455C12.9973 7.17455 13.6622 7.57686 13.9946 8.58264C14.0611 8.7838 14.2606 8.91785 14.46 8.91785H15.5237C15.7897 8.91785 15.9892 8.7167 15.9892 8.44859V8.38149C15.7232 6.90628 14.5264 5.76645 12.9973 5.63239V4.02314C12.9973 3.75488 12.7978 3.55372 12.4655 3.48661H11.4682C11.2022 3.48661 11.0027 3.68777 10.9362 4.02314V5.56529C8.94157 5.83355 7.67844 7.17455 7.67844 8.85091C7.67844 11.0636 9.00811 11.9352 11.8005 12.2706C13.6622 12.6058 14.2606 13.0081 14.2606 14.081C14.2606 15.1539 13.3297 15.8914 12.0665 15.8914C10.3378 15.8914 9.73941 15.1537 9.53995 14.1479C9.47357 13.8798 9.27411 13.7456 9.07465 13.7456H7.94428C7.67844 13.7456 7.47898 13.9468 7.47898 14.215V14.2821C7.74482 15.9583 8.80865 17.1653 11.0027 17.5007V19.1099C11.0027 19.378 11.2022 19.5792 11.5345 19.6463H12.5318C12.7978 19.6463 12.9973 19.4451 13.0638 19.1099V17.5007C15.0584 17.1653 16.3881 15.7572 16.3881 13.9468Z" fill="var(--fill-0, white)"/>
<path d="M8.6092 20.9873C3.42326 19.1099 0.763759 13.2764 2.69197 8.11323C3.68926 5.29703 5.88331 3.15141 8.6092 2.14562C8.8752 2.01157 9.00811 1.81041 9.00811 1.47504V0.536365C9.00811 0.268102 8.8752 0.0669451 8.6092 0C8.54266 0 8.40974 -4.29718e-07 8.3432 0.0669446C2.02705 2.07851 -1.43029 8.85091 0.564299 15.2208C1.76105 18.9757 4.62002 21.859 8.3432 23.066C8.6092 23.2 8.8752 23.0659 8.94158 22.7977C9.00812 22.7307 9.00811 22.6636 9.00811 22.5296V21.5907C9.00811 21.3896 8.80866 21.1215 8.6092 20.9873ZM15.6568 0.0669446C15.3908 -0.0671064 15.1248 0.0669448 15.0584 0.335208C14.9919 0.402314 14.9919 0.469259 14.9919 0.603471V1.54215C14.9919 1.81041 15.1913 2.07852 15.3908 2.21273C20.5767 4.09009 23.2362 9.92364 21.308 15.0868C20.3107 17.903 18.1167 20.0486 15.3908 21.0544C15.1248 21.1884 14.9919 21.3896 14.9919 21.725V22.6636C14.9919 22.9319 15.1248 23.1331 15.3908 23.2C15.4573 23.2 15.5903 23.2 15.6568 23.1331C21.9729 21.1215 25.4303 14.3491 23.4357 7.97917C22.2389 4.15719 19.3134 1.27389 15.6568 0.0669446Z" fill="var(--fill-0, white)"/>
</g>
</svg>
