<svg preserveAspectRatio="none" width="100%" height="100%" overflow="visible" style="display: block;" viewBox="0 0 13.3267 13.3333" fill="none" xmlns="http://www.w3.org/2000/svg">
<path id="Vector" d="M9.46 0H3.87333C1.44667 0 0 1.44667 0 3.87333V9.45333C0 11.8867 1.44667 13.3333 3.87333 13.3333H9.45333C11.88 13.3333 13.3267 11.8867 13.3267 9.46V3.87333C13.3333 1.44667 11.8867 0 9.46 0ZM5.99333 10C5.99333 10.0667 5.98 10.1267 5.95333 10.1933C5.9 10.3133 5.80667 10.4133 5.68 10.4667C5.62 10.4933 5.55333 10.5067 5.48667 10.5067C5.42 10.5067 5.36 10.4933 5.29333 10.4667C5.23333 10.44 5.18 10.4067 5.13333 10.36L3.16667 8.39333C2.97333 8.2 2.97333 7.88 3.16667 7.68667C3.36 7.49333 3.68 7.49333 3.87333 7.68667L4.98667 8.8V3.33333C4.98667 3.06 5.21333 2.83333 5.48667 2.83333C5.76 2.83333 5.99333 3.06 5.99333 3.33333V10ZM10.16 5.65333C10.06 5.75333 9.93333 5.8 9.80667 5.8C9.68 5.8 9.55333 5.75333 9.45333 5.65333L8.34 4.54V10C8.34 10.2733 8.11333 10.5 7.84 10.5C7.56667 10.5 7.34 10.2733 7.34 10V3.33333C7.34 3.26667 7.35333 3.20667 7.38 3.14C7.43333 3.02 7.52667 2.92 7.65333 2.86667C7.77333 2.81333 7.91333 2.81333 8.03333 2.86667C8.09333 2.89333 8.14667 2.92667 8.19333 2.97333L10.16 4.94C10.3533 5.14 10.3533 5.46 10.16 5.65333Z" fill="var(--fill-0, #A3A3A3)"/>
</svg>
