<svg preserveAspectRatio="none" width="100%" height="100%" overflow="visible" style="display: block;" viewBox="0 0 13 14.3333" fill="none" xmlns="http://www.w3.org/2000/svg">
<g id="Vector">
<path d="M8.36003 10.0273C8.51336 9.87401 8.74695 9.80034 8.96029 9.847C9.00684 9.85368 9.04667 9.86741 9.08659 9.88737C9.12652 9.90068 9.16645 9.92067 9.20638 9.94727C9.23971 9.96727 9.27331 10.0007 9.30664 10.0273C9.42663 10.154 9.5 10.3273 9.5 10.5007C9.49999 10.674 9.42663 10.8473 9.30664 10.974C9.17998 11.0939 9.00666 11.1673 8.83333 11.1673C8.66001 11.1673 8.48669 11.0939 8.36003 10.974C8.30003 10.914 8.25339 10.8406 8.22005 10.7539C8.18673 10.6739 8.16667 10.5873 8.16667 10.5007C8.16667 10.414 8.18674 10.3274 8.22005 10.2474C8.25338 10.1607 8.30004 10.0873 8.36003 10.0273Z" fill="var(--fill-0, #A3A3A3)"/>
<path d="M3.69336 10.026C3.94002 9.77945 4.39331 9.77945 4.63997 10.026C4.75995 10.1527 4.8333 10.3261 4.83333 10.4993C4.83333 10.6727 4.75994 10.846 4.63997 10.9727C4.51331 11.0927 4.34 11.166 4.16667 11.166C4.08 11.166 3.99341 11.146 3.91341 11.1126C3.83341 11.0793 3.76003 11.0327 3.69336 10.9727C3.57339 10.846 3.5 10.6727 3.5 10.4993C3.50002 10.4127 3.52007 10.3261 3.55339 10.2461C3.58672 10.1594 3.63337 10.086 3.69336 10.026Z" fill="var(--fill-0, #A3A3A3)"/>
<path d="M6.02669 10.026C6.27335 9.77945 6.72665 9.77945 6.97331 10.026C7.0333 10.086 7.07995 10.1594 7.11328 10.2461C7.1466 10.3261 7.16665 10.4127 7.16667 10.4993C7.16667 10.6727 7.09327 10.846 6.97331 10.9727C6.84664 11.0927 6.67333 11.166 6.5 11.166C6.32667 11.166 6.15336 11.0927 6.02669 10.9727C5.90673 10.846 5.83333 10.6727 5.83333 10.4993C5.83335 10.4127 5.8534 10.3261 5.88672 10.2461C5.92005 10.1594 5.9667 10.086 6.02669 10.026Z" fill="var(--fill-0, #A3A3A3)"/>
<path d="M6.24674 7.55404C6.48674 7.44737 6.78664 7.50734 6.97331 7.69401C7.09329 7.82067 7.16667 7.994 7.16667 8.16732C7.16665 8.20729 7.16031 8.25416 7.15365 8.30078C7.1503 8.32079 7.1447 8.34066 7.13802 8.36068L7.08854 8.48047C7.07855 8.50046 7.06672 8.52036 7.05339 8.54036C7.03339 8.5737 6.99997 8.60729 6.97331 8.64062C6.84665 8.76059 6.6733 8.83398 6.5 8.83398C6.41336 8.83398 6.32673 8.81391 6.24674 8.7806C6.16011 8.74728 6.09334 8.7006 6.02669 8.64062C5.90672 8.51399 5.83337 8.34727 5.83333 8.16732C5.83333 8.08071 5.85342 7.99402 5.88672 7.91406C5.92005 7.83408 5.96671 7.76067 6.02669 7.69401C6.09336 7.63401 6.16008 7.58737 6.24674 7.55404Z" fill="var(--fill-0, #A3A3A3)"/>
<path d="M8.58008 7.55404C8.82674 7.44737 9.11997 7.50734 9.30664 7.69401C9.42662 7.82067 9.5 7.994 9.5 8.16732C9.49999 8.20729 9.49364 8.25416 9.48698 8.30078C9.48364 8.32079 9.47803 8.34066 9.47135 8.36068L9.42188 8.48047C9.41188 8.50046 9.40005 8.52036 9.38672 8.54036C9.36672 8.5737 9.33331 8.60729 9.30664 8.64062C9.17998 8.76059 9.00664 8.83398 8.83333 8.83398C8.74669 8.83398 8.66006 8.81391 8.58008 8.7806C8.49344 8.74728 8.42667 8.7006 8.36003 8.64062C8.33336 8.60729 8.30661 8.5737 8.27995 8.54036C8.26662 8.52036 8.25479 8.50046 8.24479 8.48047L8.19531 8.36068C8.18863 8.34066 8.18303 8.32079 8.17969 8.30078C8.17303 8.25416 8.16668 8.20729 8.16667 8.16732C8.16667 7.994 8.24004 7.82067 8.36003 7.69401C8.42669 7.63401 8.49341 7.58737 8.58008 7.55404Z" fill="var(--fill-0, #A3A3A3)"/>
<path d="M3.91341 7.55338C4.15335 7.45347 4.45333 7.50681 4.63997 7.69336C4.75993 7.81998 4.83328 7.9934 4.83333 8.16667C4.83333 8.20663 4.82697 8.2535 4.82031 8.30013C4.81366 8.34006 4.79989 8.37999 4.77995 8.41992C4.76661 8.45992 4.74672 8.50036 4.72005 8.54036C4.70007 8.57362 4.6666 8.60671 4.63997 8.63997C4.51331 8.75997 4.34 8.83333 4.16667 8.83333C4.08 8.83333 3.99341 8.81328 3.91341 8.77995C3.82675 8.74661 3.76002 8.69997 3.69336 8.63997C3.57342 8.51332 3.5 8.34662 3.5 8.16667C3.50003 8.08007 3.52008 7.99335 3.55339 7.91341C3.58672 7.83346 3.63339 7.75999 3.69336 7.69336C3.75999 7.6334 3.82679 7.5867 3.91341 7.55338Z" fill="var(--fill-0, #A3A3A3)"/>
<path fill-rule="evenodd" clip-rule="evenodd" d="M9.16667 0C9.44 0 9.66667 0.226667 9.66667 0.5V1.02148C11.7907 1.2036 13 2.57188 13 4.83333V10.5C13 12.9333 11.6 14.3333 9.16667 14.3333H3.83333C1.4 14.3333 0 12.9333 0 10.5V4.83333C0 2.57188 1.20926 1.2036 3.33333 1.02148V0.5C3.33333 0.226667 3.56 0 3.83333 0C4.10667 0 4.33333 0.226667 4.33333 0.5V1H8.66667V0.5C8.66667 0.226667 8.89333 0 9.16667 0ZM1 5.72656V10.5C1 12.4067 1.92667 13.3333 3.83333 13.3333H9.16667C11.0733 13.3333 12 12.4067 12 10.5V5.72656H1ZM4.33333 2.5C4.33333 2.77333 4.10667 3 3.83333 3C3.56 3 3.33333 2.77333 3.33333 2.5V2.02344C1.79702 2.17504 1.03239 3.06358 1.0013 4.72656H11.9987C11.9676 3.06358 11.203 2.17504 9.66667 2.02344V2.5C9.66667 2.77333 9.44 3 9.16667 3C8.89333 3 8.66667 2.77333 8.66667 2.5V2H4.33333V2.5Z" fill="var(--fill-0, #A3A3A3)"/>
</g>
</svg>
