<svg preserveAspectRatio="none" width="100%" height="100%" overflow="visible" style="display: block;" viewBox="0 0 31.2 28.6" fill="none" xmlns="http://www.w3.org/2000/svg">
<path id="Vector" fill-rule="evenodd" clip-rule="evenodd" d="M18.7723 15.3746V15.3714C18.5947 15.3843 17.6788 15.439 15.6355 15.439C14.0041 15.439 12.8557 15.3907 12.4519 15.3714V15.3763C6.17184 15.1014 1.48441 14.0131 1.48441 12.7109C1.48441 11.4104 6.17184 10.3221 12.4519 10.0424V14.2928C12.8622 14.3217 14.0381 14.3908 15.663 14.3908C17.6126 14.3908 18.5898 14.3104 18.7723 14.2944V10.0456C25.0395 10.3237 29.7156 11.412 29.7156 12.7109C29.7156 14.0131 25.0395 15.0981 18.7723 15.3746ZM18.7723 9.60353V5.80006H27.5173V0H3.70698V5.80006H12.4519V9.60192C5.34483 9.92665 0 11.3284 0 13.0067C0 14.685 5.34483 16.0852 12.4519 16.4115V28.6H18.7723V16.4083C25.8681 16.0836 31.2 14.6834 31.2 13.0067C31.2 11.33 25.8681 9.92986 18.7723 9.60353Z" fill="var(--fill-0, white)"/>
</svg>
