<svg preserveAspectRatio="none" width="100%" height="100%" overflow="visible" style="display: block;" viewBox="0 0 18 17.4" fill="none" xmlns="http://www.w3.org/2000/svg">
<g id="Vector">
<path d="M12.2911 10.4601C12.2911 8.7 11.2439 8.09653 9.14959 7.84512C7.65365 7.64393 7.35446 7.24165 7.35446 6.53752C7.35446 5.83339 7.85315 5.38091 8.8504 5.38091C9.74797 5.38091 10.2467 5.68264 10.4959 6.43698C10.5458 6.58785 10.6954 6.68839 10.845 6.68839H11.6428C11.8423 6.68839 11.9919 6.53752 11.9919 6.33645V6.28612C11.7924 5.17971 10.8948 4.32483 9.74797 4.2243V3.01735C9.74797 2.81616 9.59838 2.66529 9.34909 2.61496H8.60112C8.40162 2.61496 8.25203 2.76583 8.20212 3.01735V4.17397C6.70618 4.37516 5.75883 5.38091 5.75883 6.63818C5.75883 8.29773 6.75609 8.95141 8.8504 9.20293C10.2467 9.45434 10.6954 9.75608 10.6954 10.5607C10.6954 11.3654 9.99725 11.9186 9.0499 11.9186C7.75334 11.9186 7.30456 11.3653 7.15496 10.611C7.10518 10.4099 6.95558 10.3092 6.80599 10.3092H5.95821C5.75883 10.3092 5.60924 10.4601 5.60924 10.6613V10.7116C5.80862 11.9688 6.60649 12.874 8.25203 13.1255V14.3324C8.25203 14.5335 8.40162 14.6844 8.65091 14.7347H9.39888C9.59837 14.7347 9.74797 14.5838 9.79787 14.3324V13.1255C11.2938 12.874 12.2911 11.8179 12.2911 10.4601Z" fill="var(--fill-0, white)"/>
<path d="M6.4569 15.7405C2.56745 14.3324 0.572819 9.95727 2.01898 6.08492C2.76695 3.97277 4.41248 2.36355 6.4569 1.60922C6.6564 1.50868 6.75609 1.35781 6.75609 1.10628V0.402274C6.75609 0.201076 6.6564 0.0502088 6.4569 0C6.40699 0 6.3073 -3.22288e-07 6.2574 0.0502085C1.52029 1.55889 -1.07272 6.63818 0.423224 11.4156C1.32079 14.2318 3.46501 16.3943 6.2574 17.2995C6.4569 17.4 6.6564 17.2995 6.70618 17.0983C6.75609 17.0481 6.75609 16.9977 6.75609 16.8972V16.1931C6.75609 16.0422 6.60649 15.8411 6.4569 15.7405ZM11.7426 0.0502085C11.5431 -0.0503298 11.3436 0.0502086 11.2938 0.251406C11.2439 0.301735 11.2439 0.351944 11.2439 0.452603V1.15661C11.2439 1.35781 11.3935 1.55889 11.5431 1.65955C15.4326 3.06756 17.4272 7.44273 15.981 11.3151C15.2331 13.4272 13.5875 15.0364 11.5431 15.7908C11.3436 15.8913 11.2439 16.0422 11.2439 16.2937V16.9977C11.2439 17.1989 11.3436 17.3498 11.5431 17.4C11.593 17.4 11.6927 17.4 11.7426 17.3498C16.4797 15.8411 19.0727 10.7618 17.5768 5.98438C16.6792 3.11789 14.4851 0.955415 11.7426 0.0502085Z" fill="var(--fill-0, white)"/>
</g>
</svg>
