<svg preserveAspectRatio="none" width="100%" height="100%" overflow="visible" style="display: block;" viewBox="0 0 10.3332 10.3332" fill="none" xmlns="http://www.w3.org/2000/svg">
<path id="Vector" d="M9.47978 0.146446C9.67504 -0.0488146 9.99155 -0.0488149 10.1868 0.146446C10.382 0.341711 10.3821 0.658228 10.1868 0.853478L5.87366 5.16663L10.1868 9.47978C10.382 9.67505 10.3821 9.99156 10.1868 10.1868C9.99156 10.3821 9.67504 10.382 9.47978 10.1868L5.16663 5.87366L0.853478 10.1868C0.658228 10.3821 0.341712 10.382 0.146446 10.1868C-0.0488156 9.99155 -0.0488154 9.67504 0.146446 9.47978L4.4596 5.16663L0.146446 0.853478C-0.0488152 0.658216 -0.048815 0.341708 0.146446 0.146446C0.341708 -0.0488156 0.658215 -0.0488154 0.853478 0.146446L5.16663 4.4596L9.47978 0.146446Z" fill="var(--fill-0, white)"/>
</svg>
