<svg preserveAspectRatio="none" width="100%" height="100%" overflow="visible" style="display: block;" viewBox="0 0 88.2079 22.3959" fill="none" xmlns="http://www.w3.org/2000/svg">
<path id="Vector" d="M0.147293 21.5768L0.820762 22.0679L1.60648 21.2822L2.27995 20.3L2.95342 21.2822L3.73913 19.4161L4.52484 18.6304L5.19831 17.2554L5.87178 17.7465L6.6575 19.1215L7.44321 18.1393L8.11668 15.7822L8.90239 16.6661L9.57586 15.7822H10.2493L11.035 15.1929L11.8208 14.9965L12.4942 16.3715L13.2799 15.7822L13.9534 11.9518H14.6269L15.4126 11.559L16.0861 11.9518L16.984 11.7554L17.5453 12.4429L19.1167 15.1929L19.7901 15.5858L20.4636 16.2733L21.3616 16.6661L23.382 15.3893L24.0555 15.7822L24.8412 15.3893L25.5146 14.309H27.0861L27.7595 14.8L28.433 14.1125L29.331 13.9161L30.0044 13.0322L31.4636 13.2286L33.2595 11.7554L34.382 11.559L34.9432 10.675L35.7289 11.2643L37.7493 12.4429L38.7595 13.425L39.3208 12.8358L40.8922 12.4429L41.4534 12.6393L42.2391 11.4608L43.0248 10.675L44.2595 11.2643L45.2697 12.3447L45.9432 14.6036L47.8514 17.2554L48.8616 17.7465L50.0963 17.9429L50.9942 18.5322L52.5657 17.7465L53.2391 18.2375L53.9126 16.9608L54.6983 17.9429L55.2595 17.4518H56.2697L56.9432 16.9608L57.6167 16.2733L58.4024 14.4072L59.0759 10.3804L59.8616 11.559L60.535 12.2465H61.2085L61.9942 11.2643H62.7799L63.6779 10.5768L64.1269 9.6929L64.8004 0.0678953L67.0453 8.02325H68.5044L69.1779 10.5768L69.9636 10.184H71.4228L72.0963 9.6929L73.6677 6.05897L74.2289 8.02325L75.0146 6.35361L75.8004 7.33575L76.4738 8.51432L77.3718 9.20182L77.933 10.3804L79.3922 9.98754L80.1779 7.6304L80.8514 8.02325L81.6371 6.35361L82.3106 6.64825L83.0963 6.35361L83.6575 6.64825L84.4432 6.55004L85.1167 4.68397L86.0146 4.48754L86.6881 5.46968L87.3616 5.07682L88.1473 5.27325" stroke="var(--stroke-0, #42B03B)" stroke-width="0.5"/>
</svg>
