<svg preserveAspectRatio="none" width="100%" height="100%" overflow="visible" style="display: block;" viewBox="0 0 6.40893 6.14893" fill="none" xmlns="http://www.w3.org/2000/svg">
<path id="Vector" d="M6.03393 0C6.23883 0.000114373 6.40892 0.163139 6.40893 0.359863V4.49756C6.40888 4.69425 6.2388 4.85731 6.03393 4.85742C5.82896 4.85742 5.65897 4.69432 5.65893 4.49756V1.22412L0.638909 6.04346C0.568911 6.11544 0.473762 6.14893 0.373772 6.14893C0.278783 6.14892 0.183627 6.11545 0.108635 6.04346C-0.0362563 5.90431 -0.0361673 5.67387 0.108635 5.53467L5.12475 0.719727H1.72387C1.51887 0.719727 1.34887 0.556663 1.34887 0.359863C1.34888 0.16307 1.51887 0 1.72387 0H6.03393Z" fill="var(--fill-0, #42B03B)"/>
</svg>
