<svg preserveAspectRatio="none" width="100%" height="100%" overflow="visible" style="display: block;" viewBox="0 0 24 22" fill="none" xmlns="http://www.w3.org/2000/svg">
<path id="Vector" fill-rule="evenodd" clip-rule="evenodd" d="M14.4403 11.8267V11.8242C14.3036 11.8341 13.5991 11.8761 12.0273 11.8761C10.7724 11.8761 9.889 11.839 9.57838 11.8242V11.8279C4.74757 11.6164 1.14185 10.7793 1.14185 9.77764C1.14185 8.77725 4.74757 7.94008 9.57838 7.72492V10.9944C9.89397 11.0167 10.7985 11.0699 12.0485 11.0699C13.5481 11.0699 14.2999 11.008 14.4403 10.9957V7.72739C19.2611 7.94132 22.8582 8.77848 22.8582 9.77764C22.8582 10.7793 19.2611 11.614 14.4403 11.8267ZM14.4403 7.38733V4.46158H21.1671V0H2.85152V4.46158H9.57838V7.38609C4.11141 7.63588 0 8.71418 0 10.0052C0 11.2962 4.11141 12.3732 9.57838 12.6242V22H14.4403V12.6218C19.8985 12.372 24 11.2949 24 10.0052C24 8.71542 19.8985 7.63836 14.4403 7.38733Z" fill="var(--fill-0, white)"/>
</svg>
