<svg preserveAspectRatio="none" width="100%" height="100%" overflow="visible" style="display: block;" viewBox="0 0 8.67963 13.0204" fill="none" xmlns="http://www.w3.org/2000/svg">
<g id="Group">
<path id="Vector" d="M2.16992 13.0204C3.36769 13.0204 4.33978 12.0483 4.33978 10.8505V8.6806H2.16992C0.972149 8.6806 0 9.65275 0 10.8505C0 12.0483 0.972149 13.0204 2.16992 13.0204Z" fill="var(--fill-0, #0ACF83)"/>
<path id="Vector_2" d="M0 6.50853C0 5.31076 0.972149 4.33867 2.16992 4.33867H4.33978V8.67839H2.16992C0.972149 8.67839 0 7.7063 0 6.50853Z" fill="var(--fill-0, #A259FF)"/>
<path id="Vector_3" d="M0.000171579 2.16986C0.000171579 0.972084 0.972321 0 2.17009 0H4.33995V4.33978H2.17009C0.972321 4.33978 0.000171579 3.36763 0.000171579 2.16986Z" fill="var(--fill-0, #F24E1E)"/>
<path id="Vector_4" d="M4.33979 0H6.50965C7.70742 0 8.67957 0.972084 8.67957 2.16986C8.67957 3.36763 7.70742 4.33978 6.50965 4.33978H4.33979V0Z" fill="var(--fill-0, #FF7262)"/>
<path id="Vector_5" d="M8.67957 6.50853C8.67957 7.7063 7.70742 8.67839 6.50965 8.67839C5.31188 8.67839 4.33979 7.7063 4.33979 6.50853C4.33979 5.31076 5.31188 4.33867 6.50965 4.33867C7.70742 4.33867 8.67957 5.31076 8.67957 6.50853Z" fill="var(--fill-0, #1ABCFE)"/>
</g>
</svg>
