<svg preserveAspectRatio="none" width="100%" height="100%" overflow="visible" style="display: block;" viewBox="0 0 13.3333 13.3333" fill="none" xmlns="http://www.w3.org/2000/svg">
<g id="Vector">
<path d="M8.64648 7.16667C9.27982 7.16667 9.80013 7.58677 9.80013 8.10677C9.80006 8.62672 9.27977 9.05338 8.64648 9.05338H5.02018V7.16667H8.64648Z" fill="var(--fill-0, #A3A3A3)"/>
<path d="M8.13346 4.27344C8.66671 4.27352 9.08004 4.7801 9.08008 5.22005C9.08008 5.74003 8.6534 6.16675 8.13346 6.16016H5.02018V4.27344H8.13346Z" fill="var(--fill-0, #A3A3A3)"/>
<path fill-rule="evenodd" clip-rule="evenodd" d="M6.66667 0C10.3467 0 13.3333 2.98667 13.3333 6.66667C13.3333 10.3467 10.3467 13.3333 6.66667 13.3333C2.98667 13.3333 0 10.3467 0 6.66667C0 2.98667 2.98667 0 6.66667 0ZM7.04687 1.83333C6.77354 1.83333 6.54687 2.06 6.54687 2.33333V3.27995H5.74023V2.33333C5.74023 2.06008 5.51346 1.83346 5.24023 1.83333C4.9669 1.83333 4.74023 2.06 4.74023 2.33333V3.27995H3.36654C3.09328 3.28002 2.86657 3.50668 2.86654 3.77995C2.86654 4.05324 3.09326 4.27988 3.36654 4.27995H4.02018V9.05338H3.36654C3.09326 9.05346 2.86654 9.28009 2.86654 9.55338C2.86657 9.82665 3.09328 10.0533 3.36654 10.0534H4.74023V11C4.74023 11.2733 4.9669 11.5 5.24023 11.5C5.51346 11.4999 5.74023 11.2733 5.74023 11V10.0534H6.54687V11C6.54687 11.2733 6.77354 11.5 7.04687 11.5C7.32011 11.4999 7.54687 11.2733 7.54687 11V10.0534H8.64648C9.83315 10.0534 10.8001 9.17979 10.8001 8.11979C10.8 7.37989 10.3399 6.74005 9.66667 6.41341C9.92 6.08008 10.0801 5.67323 10.0801 5.22656C10.08 4.18665 9.16671 3.28002 8.13346 3.27995H7.54687V2.33333C7.54687 2.06007 7.32011 1.83345 7.04687 1.83333Z" fill="var(--fill-0, #A3A3A3)"/>
</g>
</svg>
