<svg preserveAspectRatio="none" width="100%" height="100%" overflow="visible" style="display: block;" viewBox="0 0 9 8.25" fill="none" xmlns="http://www.w3.org/2000/svg">
<path id="Vector" fill-rule="evenodd" clip-rule="evenodd" d="M5.4151 4.43499V4.43407C5.36384 4.43778 5.09966 4.45354 4.51025 4.45354C4.03966 4.45354 3.70838 4.43963 3.59189 4.43407V4.43546C1.78034 4.35616 0.428194 4.04223 0.428194 3.66662C0.428194 3.29147 1.78034 2.97753 3.59189 2.89684V4.12291C3.71024 4.13126 4.04944 4.1512 4.51817 4.1512C5.08056 4.1512 5.36245 4.12801 5.4151 4.12338V2.89777C7.22293 2.97799 8.57181 3.29193 8.57181 3.66662C8.57181 4.04223 7.22293 4.35524 5.4151 4.43499ZM5.4151 2.77025V1.67309H7.93767V0H1.06932V1.67309H3.59189V2.76979C1.54178 2.86346 0 3.26782 0 3.75194C0 4.23606 1.54178 4.63996 3.59189 4.73409V8.25H5.4151V4.73317C7.46195 4.63949 9 4.2356 9 3.75194C9 3.26828 7.46195 2.86438 5.4151 2.77025Z" fill="var(--fill-0, white)"/>
</svg>
