<svg preserveAspectRatio="none" width="100%" height="100%" overflow="visible" style="display: block;" viewBox="0 0 17.9167 17.9167" fill="none" xmlns="http://www.w3.org/2000/svg">
<path id="Vector" fill-rule="evenodd" clip-rule="evenodd" d="M13.208 0C16.4663 0 17.9167 1.45033 17.9167 4.70866V8.20801C17.9167 11.4663 16.4663 12.9167 13.208 12.9167H12.9167V13.208C12.9167 16.4663 11.4663 17.9167 8.20801 17.9167H4.70866C1.45033 17.9167 0 16.4663 0 13.208V9.70866C0 6.45033 1.45033 5 4.70866 5H5V4.70866C5 1.45033 6.45033 0 9.70866 0H13.208ZM4.70866 6.25C2.12533 6.25 1.25 7.12533 1.25 9.70866V13.208C1.25 15.7913 2.12533 16.6667 4.70866 16.6667H8.20801C10.7913 16.6667 11.6667 15.7913 11.6667 13.208V9.70866C11.6667 7.12533 10.7913 6.25 8.20801 6.25H4.70866ZM9.70866 1.25C7.12533 1.25 6.25 2.12533 6.25 4.70866V5H8.20801C11.4663 5 12.9167 6.45033 12.9167 9.70866V11.6667H13.208C15.7913 11.6667 16.6667 10.7913 16.6667 8.20801V4.70866C16.6667 2.12533 15.7913 1.25 13.208 1.25H9.70866Z" fill="var(--fill-0, #A3A3A3)"/>
</svg>
