<svg preserveAspectRatio="none" width="100%" height="100%" overflow="visible" style="display: block;" viewBox="0 0 14.3203 14.3118" fill="none" xmlns="http://www.w3.org/2000/svg">
<g id="Vector">
<path d="M8.29297 5.30526C8.4863 5.11192 8.80667 5.11192 9 5.30526C9.19305 5.49858 9.19314 5.81837 9 6.01164L7.8724 7.14119L9 8.2714C9.19332 8.46472 9.19329 8.78509 9 8.97843C8.90001 9.07843 8.77314 9.12491 8.64648 9.12492C8.51982 9.12492 8.39297 9.07843 8.29297 8.97843L7.16602 7.84888L6.03971 8.97843C5.93973 9.07837 5.81282 9.12492 5.6862 9.12492C5.55969 9.12485 5.43324 9.07826 5.33333 8.97843C5.14 8.7851 5.14 8.46473 5.33333 8.2714L6.46029 7.14119L5.33333 6.01164C5.14002 5.81832 5.14006 5.49859 5.33333 5.30526C5.52667 5.11192 5.84638 5.11192 6.03971 5.30526L7.16602 6.43416L8.29297 5.30526Z" fill="var(--fill-0, white)"/>
<path fill-rule="evenodd" clip-rule="evenodd" d="M6.28646 0.344969C6.74644 -0.11501 7.5797 -0.114969 8.03971 0.344969L9.16667 1.47127C9.31998 1.62459 9.53328 1.71799 9.75326 1.71802H10.7533C11.7665 1.71802 12.5865 2.53807 12.5866 3.55135V4.55135C12.5866 4.7713 12.6734 4.98461 12.8333 5.13794L13.9603 6.26489C14.1935 6.49155 14.3203 6.81186 14.3203 7.1451C14.3202 7.47832 14.1864 7.7914 13.9531 8.02466L12.8268 9.15161C12.6735 9.30494 12.5801 9.5182 12.5801 9.7382V10.7382C12.58 11.7515 11.76 12.5715 10.7467 12.5715H9.74675C9.52675 12.5715 9.31349 12.6583 9.16016 12.8183L8.0332 13.9446C7.80661 14.1778 7.48687 14.3045 7.15365 14.3046L7.16667 14.3118C6.84 14.3118 6.51979 14.1779 6.28646 13.9446L5.16016 12.8183C5.00021 12.6583 4.79348 12.5716 4.57357 12.5715H3.57357C2.56026 12.5715 1.74028 11.7515 1.74023 10.7382V9.7382C1.74023 9.51827 1.65339 9.30493 1.49349 9.15161L0.366536 8.02466C0.133358 7.79807 8.35824e-05 7.47826 0 7.1451C0 6.81182 0.133276 6.49821 0.366536 6.26489L1.49349 5.13794C1.64672 4.98462 1.74023 4.77126 1.74023 4.55135V3.55135C1.7403 2.53807 2.56028 1.71802 3.57357 1.71802H4.57357C4.79348 1.71795 5.00688 1.63121 5.16016 1.47127L6.28646 0.344969ZM7.33333 1.04484C7.24669 0.958193 7.08017 0.958234 6.99349 1.04484L5.86654 2.17179C5.51995 2.51826 5.06004 2.71144 4.57357 2.71151H3.56641C3.10653 2.71165 2.73307 3.08493 2.73307 3.54484V4.54484C2.73306 5.02479 2.53981 5.49784 2.19987 5.83781L1.07357 6.96476C1.02691 7.01142 1.00001 7.07144 1 7.13143C1 7.19136 1.02649 7.25808 1.06641 7.29809L2.19336 8.43156C2.53326 8.77149 2.733 9.24465 2.73307 9.72453V10.7245C2.73307 11.1844 3.10653 11.5577 3.56641 11.5579H4.56641C5.05307 11.5579 5.51336 11.7516 5.86003 12.0982L6.98698 13.2245C7.07365 13.3112 7.24017 13.3112 7.32682 13.2245L8.45313 12.0982C8.79979 11.7516 9.26008 11.5579 9.74675 11.5579H10.7467C11.2067 11.5578 11.5801 11.1845 11.5801 10.7245V9.72453C11.5801 9.23803 11.7733 8.77814 12.1198 8.43156L13.2467 7.3046C13.2933 7.25796 13.3203 7.19788 13.3203 7.13794C13.3203 7.07798 13.2932 7.01123 13.2533 6.97127L12.127 5.83781C11.7803 5.49117 11.5866 5.03149 11.5866 4.54484V3.54484C11.5866 3.08484 11.2133 2.71151 10.7533 2.71151H9.75326C9.26676 2.71148 8.8069 2.51825 8.46029 2.17179L7.33333 1.04484Z" fill="var(--fill-0, white)"/>
</g>
</svg>
