<svg preserveAspectRatio="none" width="100%" height="100%" overflow="visible" style="display: block;" viewBox="0 0 32 32" fill="none" xmlns="http://www.w3.org/2000/svg">
<g id="Logo">
<path d="M6.85144 12.6584C6.85144 14.5504 5.31769 16.0842 3.42572 16.0842C1.53375 16.0842 0 14.5504 0 12.6584C0 10.7665 1.53375 9.23272 3.42572 9.23272C5.31769 9.23272 6.85144 10.7665 6.85144 12.6584Z" fill="var(--fill-0, #0F0F0F)"/>
<path d="M32 12.6584C32 14.5504 30.4663 16.0842 28.5743 16.0842C26.6823 16.0842 25.1486 14.5504 25.1486 12.6584C25.1486 10.7665 26.6823 9.23272 28.5743 9.23272C30.4663 9.23272 32 10.7665 32 12.6584Z" fill="var(--fill-0, #0F0F0F)"/>
<path d="M21.4305 5.42151C21.4305 8.41573 19.0032 10.843 16.009 10.843C13.0148 10.843 10.5875 8.41573 10.5875 5.42151C10.5875 2.42729 13.0148 0 16.009 0C19.0032 0 21.4305 2.42729 21.4305 5.42151Z" fill="var(--fill-0, #0F0F0F)"/>
<path d="M14.2645 19.166C14.2645 20.5295 13.1591 21.6349 11.7956 21.6349C10.432 21.6349 9.32666 20.5295 9.32666 19.166C9.32666 17.8025 10.432 16.6971 11.7956 16.6971C13.1591 16.6971 14.2645 17.8025 14.2645 19.166Z" fill="var(--fill-0, #0F0F0F)"/>
<path d="M22.6913 19.166C22.6913 20.5295 21.5859 21.6349 20.2224 21.6349C18.8588 21.6349 17.7535 20.5295 17.7535 19.166C17.7535 17.8025 18.8588 16.6971 20.2224 16.6971C21.5859 16.6971 22.6913 17.8025 22.6913 19.166Z" fill="var(--fill-0, #0F0F0F)"/>
<path d="M10.5602 28.2142C10.5602 30.305 8.86523 32 6.77441 32C4.68358 32 2.98863 30.305 2.98863 28.2142C2.98863 26.1234 4.68358 24.4285 6.77441 24.4285C8.86523 24.4285 10.5602 26.1234 10.5602 28.2142Z" fill="var(--fill-0, #0F0F0F)"/>
<path d="M29.0293 28.2142C29.0293 30.305 27.3344 32 25.2435 32C23.1527 32 21.4578 30.305 21.4578 28.2142C21.4578 26.1234 23.1527 24.4285 25.2435 24.4285C27.3344 24.4285 29.0293 26.1234 29.0293 28.2142Z" fill="var(--fill-0, #0F0F0F)"/>
</g>
</svg>
