<svg preserveAspectRatio="none" width="100%" height="100%" overflow="visible" style="display: block;" viewBox="0 0 10.6815 10.2482" fill="none" xmlns="http://www.w3.org/2000/svg">
<path id="Vector" d="M10.0565 0C10.398 0.000190622 10.6815 0.271898 10.6815 0.599772V7.49593C10.6815 7.82376 10.398 8.09551 10.0565 8.0957C9.71493 8.0957 9.43162 7.82387 9.43155 7.49593V2.0402L1.06485 10.0724C0.948185 10.1924 0.789604 10.2482 0.622954 10.2482C0.464639 10.2482 0.306045 10.1924 0.181059 10.0724C-0.0604272 9.84052 -0.0602788 9.45645 0.181059 9.22445L8.54125 1.19954H2.87312C2.53145 1.19954 2.24812 0.927772 2.24812 0.599772C2.24813 0.271783 2.53146 0 2.87312 0H10.0565Z" fill="var(--fill-0, #737373)"/>
</svg>
