<svg preserveAspectRatio="none" width="100%" height="100%" overflow="visible" style="display: block;" viewBox="0 0 14 12" fill="none" xmlns="http://www.w3.org/2000/svg">
<g id="Vector">
<path fill-rule="evenodd" clip-rule="evenodd" d="M2.66667 6.66667C4.14 6.66667 5.33333 7.86667 5.33333 9.33333C5.33333 9.64667 5.27969 9.94672 5.17969 10.2201C4.81965 11.26 3.82661 12 2.66667 12C1.2 12 0 10.8067 0 9.33333C0 8.7001 0.219869 8.12012 0.593099 7.66016C1.07977 7.06016 1.83333 6.66667 2.66667 6.66667ZM1.39323 9.52018C1.21338 9.52024 1.06657 9.65988 1.06641 9.84635V9.91341C1.06645 10.3467 1.41327 10.6933 1.83984 10.6934H3.17969C3.11312 10.8133 3.12647 10.9736 3.23307 11.0736C3.29307 11.1402 3.38013 11.1667 3.4668 11.1667C3.55336 11.1666 3.6334 11.1401 3.69336 11.0736L4.17318 10.6003C4.19983 10.5736 4.22689 10.5335 4.24023 10.4935C4.27355 10.4135 4.27338 10.3201 4.24674 10.2467C4.22674 10.2067 4.19984 10.1666 4.17318 10.14L3.69336 9.66016C3.57337 9.5335 3.3669 9.53353 3.24023 9.66016C3.13357 9.76682 3.12018 9.92021 3.18685 10.0469H1.84635C1.77321 10.0467 1.72009 9.98661 1.72005 9.91341V9.84635C1.71989 9.65984 1.57313 9.52018 1.39323 9.52018ZM2.0931 7.5931C1.9731 7.46005 1.76657 7.45996 1.63997 7.5931L1.16016 8.06641C1.12685 8.09305 1.10657 8.13985 1.08659 8.17318C1.05993 8.25315 1.05995 8.33995 1.08659 8.41992C1.10659 8.45992 1.13349 8.50003 1.16016 8.52669L1.63997 9.00651C1.69994 9.06648 1.78657 9.10022 1.86654 9.10026C1.95987 9.10026 2.04026 9.06651 2.10026 9.00651C2.20674 8.89985 2.22027 8.74638 2.15365 8.61979H3.48698C3.56013 8.61996 3.61324 8.68006 3.61328 8.75326V8.82031C3.61345 9.00682 3.7602 9.14648 3.9401 9.14648C4.11996 9.14643 4.26676 9.00679 4.26693 8.82031H4.25977V8.75326C4.25972 8.32006 3.91348 7.97348 3.48698 7.97331H2.14648C2.21315 7.85331 2.19977 7.6931 2.0931 7.5931Z" fill="var(--fill-0, #A3A3A3)"/>
<path fill-rule="evenodd" clip-rule="evenodd" d="M10.6667 0C12.6667 0 14 1 14 3.33333V7.33984C14 9.67318 12.6667 10.6732 10.6667 10.6732H6.53971C6.32653 10.673 6.16027 10.48 6.21354 10.2734C6.28688 10.0068 6.32667 9.73313 6.33333 9.45313C6.37989 7.67321 5.09311 6.04639 3.33984 5.73307C2.5466 5.59313 1.79324 5.70655 1.13997 6.00651C0.919974 6.10651 0.666667 5.95305 0.666667 5.70638V3.33333C0.666667 1 2 0 4 0H10.6667ZM11.6667 3.5C11.3933 3.5 11.1667 3.72667 11.1667 4V6.66667C11.1667 6.94 11.3933 7.16667 11.6667 7.16667C11.94 7.16667 12.1667 6.94 12.1667 6.66667V4C12.1667 3.72667 11.94 3.5 11.6667 3.5ZM7.33333 3.66667C6.41333 3.66667 5.66667 4.41333 5.66667 5.33333C5.66667 6.25333 6.41333 7 7.33333 7C8.25333 7 9 6.25333 9 5.33333C9 4.41333 8.25333 3.66667 7.33333 3.66667Z" fill="var(--fill-0, #A3A3A3)"/>
</g>
</svg>
