<svg preserveAspectRatio="none" width="100%" height="100%" overflow="visible" style="display: block;" viewBox="0 0 88 22" fill="none" xmlns="http://www.w3.org/2000/svg">
<path id="Vector" opacity="0.3" d="M0 21.5089L0.673469 22L1.45918 21.2143L2.13265 20.2321L2.80612 21.2143L3.59184 19.3482L4.37755 18.5625L5.05102 17.1875L5.72449 17.6786L6.5102 19.0536L7.29592 18.0714L7.96939 15.7143L8.7551 16.5982L9.42857 15.7143H10.102L10.8878 15.125L11.6735 14.9286L12.3469 16.3036L13.1327 15.7143L13.8061 11.8839H14.4796L15.2653 11.4911L15.9388 11.8839L16.8367 11.6875L17.398 12.375L18.9694 15.125L19.6429 15.5179L20.3163 16.2054L21.2143 16.5982L23.2347 15.3214L23.9082 15.7143L24.6939 15.3214L25.3673 14.2411H26.9388L27.6122 14.7321L28.2857 14.0446L29.1837 13.8482L29.8571 12.9643L31.3163 13.1607L33.1122 11.6875L34.2347 11.4911L34.7959 10.6071L35.5816 11.1964L37.602 12.375L38.6122 13.3571L39.1735 12.7679L40.7449 12.375L41.3061 12.5714L42.0918 11.3929L42.8775 10.6071L44.1122 11.1964L45.1224 12.2768L45.7959 14.5357L47.7041 17.1875L48.7143 17.6786L49.949 17.875L50.8469 18.4643L52.4184 17.6786L53.0918 18.1696L53.7653 16.8929L54.551 17.875L55.1122 17.3839H56.1224L56.7959 16.8929L57.4694 16.2054L58.2551 14.3393L58.9286 10.3125L59.7143 11.4911L60.3878 12.1786H61.0612L61.8469 11.1964H62.6327L63.5306 10.5089L63.9796 9.625L64.6531 0L66.898 7.95536H68.3571L69.0306 10.5089L69.8163 10.1161H71.2755L71.949 9.625L73.5204 5.99107L74.0816 7.95536L74.8673 6.28571L75.6531 7.26786L76.3265 8.44643L77.2245 9.13393L77.7857 10.3125L79.2449 9.91964L80.0306 7.5625L80.7041 7.95536L81.4898 6.28571L82.1633 6.58036L82.949 6.28571L83.5102 6.58036L84.2959 6.48214L84.9694 4.61607L85.8673 4.41964L86.5408 5.40179L87.2143 5.00893L88 5.20536V22H0.673469H0V21.5089Z" fill="url(#paint0_linear_6392_143799)"/>
<defs>
<linearGradient id="paint0_linear_6392_143799" x1="44" y1="0" x2="44" y2="22" gradientUnits="userSpaceOnUse">
<stop stop-color="#42B03B"/>
<stop offset="1" stop-color="#4CB63A" stop-opacity="0"/>
</linearGradient>
</defs>
</svg>
