<svg preserveAspectRatio="none" width="100%" height="100%" overflow="visible" style="display: block;" viewBox="0 0 14.3333 14.3333" fill="none" xmlns="http://www.w3.org/2000/svg">
<g id="Vector">
<path d="M10.1471 9.77995C10.3405 9.58677 10.6602 9.58673 10.8535 9.77995C11.0468 9.97328 11.0468 10.2936 10.8535 10.487L10.5469 10.7936C10.1803 11.1601 9.66699 11.373 9.14713 11.373H5.18685C4.66699 11.373 4.15374 11.1601 3.78711 10.7936L3.48047 10.487C3.28714 10.2936 3.28714 9.97328 3.48047 9.77995C3.67379 9.58676 3.99355 9.58674 4.18685 9.77995L4.49349 10.0866C4.67347 10.2666 4.92689 10.373 5.18685 10.373H9.14713C9.40706 10.373 9.66054 10.2665 9.84049 10.0866L10.1471 9.77995Z" fill="var(--fill-0, #A3A3A3)"/>
<path d="M7.16667 3.70638C7.4399 3.70638 7.66651 3.93317 7.66667 4.20638V6.69987L8.53971 5.82682C8.73302 5.63352 9.05275 5.63357 9.24609 5.82682C9.43943 6.02014 9.43943 6.33987 9.24609 6.5332L7.54492 8.23437C7.45275 8.3425 7.31776 8.41341 7.16667 8.41341V8.4069C7.13487 8.4069 7.10382 8.40299 7.07357 8.39713C6.97526 8.37846 6.88445 8.33106 6.81315 8.25977L5.08659 6.5332C4.89325 6.33987 4.89325 6.02014 5.08659 5.82682C5.27992 5.63351 5.59964 5.6335 5.79297 5.82682L6.66667 6.69987V4.20638C6.66682 3.93317 6.89343 3.70638 7.16667 3.70638Z" fill="var(--fill-0, #A3A3A3)"/>
<path fill-rule="evenodd" clip-rule="evenodd" d="M10.5 0C12.6133 0 14.3333 1.72 14.3333 3.83333V10.5C14.3333 12.6133 12.6133 14.3333 10.5 14.3333H3.83333C1.72 14.3333 0 12.6133 0 10.5V3.83333C0 1.72 1.72 0 3.83333 0H10.5ZM3.83333 1C2.27333 1 1 2.27333 1 3.83333V10.5C1 12.06 2.27333 13.3333 3.83333 13.3333H10.5C12.06 13.3333 13.3333 12.06 13.3333 10.5V3.83333C13.3333 2.27333 12.06 1 10.5 1H3.83333Z" fill="var(--fill-0, #A3A3A3)"/>
</g>
</svg>
