<svg preserveAspectRatio="none" width="100%" height="100%" overflow="visible" style="display: block;" viewBox="0 0 24 24" fill="none" xmlns="http://www.w3.org/2000/svg">
<g id="Group">
<path id="Vector" d="M12 24C5.37253 24 0 18.6275 0 12C0 5.37253 5.37253 0 12 0C18.6275 0 24 5.37253 24 12C24 18.6275 18.6275 24 12 24Z" fill="var(--fill-0, #F0931B)"/>
<path id="Vector_2" d="M3.45615 16.2825C3.50805 16.1996 3.59103 16.1943 3.7051 16.267C6.29944 17.7718 9.12243 18.5241 12.1733 18.5241C14.2073 18.5241 16.2155 18.1453 18.1976 17.3877C18.2495 17.3668 18.3248 17.3358 18.4234 17.2941C18.5219 17.2525 18.592 17.2214 18.6336 17.2006C18.7893 17.1384 18.9112 17.1695 18.9995 17.2941C19.0877 17.4187 19.059 17.5328 18.9139 17.6366C18.7271 17.7715 18.4884 17.9272 18.1979 18.1037C17.3053 18.6329 16.309 19.0428 15.2092 19.3334C14.109 19.624 13.035 19.7694 11.9868 19.7694C10.368 19.7694 8.83713 19.4865 7.39455 18.9211C5.95196 18.3555 4.66006 17.5592 3.51833 16.5318C3.45615 16.4799 3.42481 16.428 3.42481 16.3761C3.42507 16.3447 3.43534 16.3136 3.45615 16.2825ZM17.3572 16.5473C17.378 16.5057 17.4091 16.4643 17.4507 16.4227C17.7102 16.2462 17.9592 16.1268 18.1979 16.0647C18.5922 15.9609 18.9763 15.9037 19.3499 15.8934C19.4537 15.8832 19.5522 15.8882 19.6457 15.909C20.1128 15.9506 20.3928 16.0283 20.4863 16.1424C20.528 16.2046 20.5485 16.2981 20.5485 16.4227V16.5318C20.5485 16.895 20.45 17.3231 20.2527 17.816C20.0554 18.3089 19.7806 18.7059 19.4276 19.0067C19.3757 19.0484 19.3291 19.0689 19.2874 19.0689C19.2666 19.0689 19.2458 19.0636 19.2253 19.0534C19.1631 19.0223 19.1475 18.9651 19.1786 18.8821C19.5627 17.9793 19.7545 17.3513 19.7545 16.9986C19.7545 16.8845 19.7337 16.8012 19.6923 16.7496C19.5885 16.625 19.298 16.5628 18.8206 16.5628C18.6441 16.5628 18.4365 16.5731 18.1979 16.5939C17.9384 16.625 17.6997 16.6561 17.4818 16.6874C17.4197 16.6874 17.378 16.6772 17.3572 16.6564C17.3364 16.6355 17.3311 16.6147 17.3417 16.5942C17.3417 16.5834 17.347 16.5678 17.3572 16.5473Z" fill="var(--fill-0, white)"/>
<path id="Vector_3" d="M16.8437 12.843C16.6777 12.6251 16.5584 12.4668 16.4856 12.3682C16.4129 12.2697 16.3379 12.1088 16.2599 11.8856C16.1822 11.6625 16.1432 11.4159 16.1432 11.1461V7.37899C16.1432 7.33737 16.1379 7.20512 16.1276 6.98199C16.1174 6.75886 16.1016 6.61371 16.081 6.546C16.0605 6.4783 16.0291 6.35659 15.9875 6.18009C15.9459 6.00358 15.8992 5.8687 15.8473 5.77545C15.7954 5.68193 15.7254 5.57576 15.6371 5.45642C15.5496 5.33788 15.4532 5.22592 15.3492 5.12186C14.685 4.50963 13.7614 4.20352 12.5783 4.20352H12.1892C11.2656 4.25541 10.4587 4.50436 9.76851 4.95062C9.07831 5.39689 8.64522 6.08183 8.46871 7.00544C8.45844 7.04706 8.45317 7.08315 8.45317 7.1145C8.45317 7.25992 8.54142 7.35318 8.71792 7.3948L10.508 7.61266C10.6739 7.58158 10.7777 7.46224 10.8194 7.25465C10.8921 6.92245 11.0528 6.66323 11.302 6.47619C11.5509 6.28941 11.8468 6.18035 12.1892 6.14927H12.3138C12.7809 6.14927 13.1234 6.30496 13.3413 6.61634C13.4864 6.84474 13.5591 7.291 13.5591 7.95513V8.21962C12.9261 8.27152 12.4695 8.31288 12.1892 8.34423C11.3694 8.44802 10.6792 8.61926 10.1189 8.85793C9.50666 9.11742 9.02404 9.50124 8.6713 10.0099C8.31855 10.5184 8.14205 11.1309 8.14205 11.8469C8.14205 12.7497 8.3989 13.4478 8.91261 13.9407C9.42631 14.4336 10.0828 14.6802 10.8818 14.6802C11.4008 14.6802 11.8365 14.6283 12.1895 14.5245C12.7498 14.3688 13.3207 13.9744 13.9018 13.3414C13.9435 13.3933 14.0159 13.4944 14.1197 13.6449C14.2235 13.7953 14.2988 13.8964 14.3455 13.9483C14.3921 14.0002 14.4701 14.0832 14.5789 14.1973C14.6879 14.3114 14.8149 14.4307 14.9603 14.5553C15.1368 14.628 15.2873 14.6175 15.4119 14.5242C15.4846 14.462 15.9514 14.0571 16.8128 13.31C16.8958 13.2479 16.9374 13.1751 16.9374 13.0922C16.9372 13.0195 16.9061 12.9365 16.8437 12.843ZM13.5591 10.0721C13.5591 10.4043 13.5565 10.643 13.5512 10.7881C13.5459 10.9333 13.5149 11.1227 13.4577 11.3564C13.4005 11.5898 13.3149 11.8053 13.2008 12.0023C12.9622 12.4486 12.625 12.7289 12.189 12.843C12.1682 12.843 12.1292 12.8482 12.0723 12.8585C12.0151 12.8688 11.9711 12.874 11.94 12.874C11.5976 12.874 11.3252 12.7521 11.1228 12.5081C10.9205 12.2642 10.8194 11.9399 10.8194 11.5352C10.8194 10.6427 11.2759 10.0668 12.1892 9.80736C12.5006 9.72438 12.9572 9.68275 13.5591 9.68275V10.0721Z" fill="var(--fill-0, white)"/>
</g>
</svg>
