<svg preserveAspectRatio="none" width="100%" height="100%" overflow="visible" style="display: block;" viewBox="0 0 14.3318 14.3333" fill="none" xmlns="http://www.w3.org/2000/svg">
<g id="Vector">
<path d="M12.1465 12.1465C12.3398 11.9532 12.6602 11.9532 12.8535 12.1465L14.1868 13.4798C14.3801 13.6732 14.3801 13.9935 14.1868 14.1868C14.0869 14.2868 13.96 14.3333 13.8333 14.3333C13.7067 14.3333 13.5798 14.2868 13.4798 14.1868L12.1465 12.8535C11.9532 12.6602 11.9532 12.3398 12.1465 12.1465Z" fill="var(--fill-0, #737373)"/>
<path fill-rule="evenodd" clip-rule="evenodd" d="M6.83333 0C10.6 0 13.6667 3.06667 13.6667 6.83333C13.6667 10.6 10.6 13.6667 6.83333 13.6667C3.06667 13.6667 0 10.6 0 6.83333C0 3.06667 3.06667 0 6.83333 0ZM6.83333 1C3.61333 1 1 3.62 1 6.83333C1 10.0467 3.61333 12.6667 6.83333 12.6667C10.0533 12.6667 12.6667 10.0467 12.6667 6.83333C12.6667 3.62 10.0533 1 6.83333 1Z" fill="var(--fill-0, #737373)"/>
</g>
</svg>
