<svg preserveAspectRatio="none" width="100%" height="100%" overflow="visible" style="display: block;" viewBox="0 0 88 22" fill="none" xmlns="http://www.w3.org/2000/svg">
<path id="Vector" opacity="0.3" d="M0.717391 18.04L0 22H88V9.24H87.0435L86.3261 9.9L85.3696 9.02L84.6522 7.92H83.9348L82.9783 7.04L82.2609 8.36L81.3043 7.48L80.587 6.16L79.8696 7.7L79.1522 9.68H78.1957L77.4783 7.7L76.5217 9.46L75.8043 7.48L75.087 5.94L74.1304 6.38L72.4565 2.64L71.7391 0L71.0217 7.04L70.0652 8.14L69.3478 8.58H68.3913L67.6739 8.36L66.9565 9.02L66 8.58H65.2826L64.5652 11.66L63.6087 12.1L62.8913 14.08L62.1739 14.52L61.2174 14.08L60.5 15.4L59.7826 14.3L58.8261 13.86L58.1087 15.62L57.3913 16.06L56.4348 16.28L55.7174 17.6L54.0435 16.94L53.3261 17.16L51.6522 16.06L50.6957 14.96L49.9783 14.52L48.3043 11.44L47.587 11L46.6304 11.66L45.913 12.76L45.1957 12.54L44.2391 12.76L43.5217 12.54L42.8043 12.98L41.8478 12.54L41.1304 11.88L40.413 11.66L38.7391 10.56L38.0217 11.44L37.0652 11L36.3478 11.22L35.6304 12.1L34.6739 11.88L33 12.32L32.2826 13.42L31.5652 12.98L30.6087 13.86L29.8913 14.08L28.9348 13.42L28.2174 12.54L27.5 12.76L27.0217 12.54H25.8261L25.1087 12.98H24.1522L23.4348 13.64H22.7174L21.7609 14.08L21.0435 11.44L20.087 12.1L18.6522 9.46H17.6957L16.9783 10.34L15.3043 11L14.587 15.18L13.8696 16.28L12.1957 14.3L11.2391 14.74L9.80435 15.18L8.84783 14.74L7.8913 15.84L7.41304 16.72L6.45652 17.16L5.73913 16.06L4.78261 15.84L4.06522 16.28L3.58696 16.94L2.3913 18.48L1.67391 18.92L0.717391 18.04Z" fill="url(#paint0_linear_6392_143819)"/>
<defs>
<linearGradient id="paint0_linear_6392_143819" x1="44" y1="0" x2="44" y2="22" gradientUnits="userSpaceOnUse">
<stop stop-color="#42B03B"/>
<stop offset="1" stop-color="#4CB63A" stop-opacity="0"/>
</linearGradient>
</defs>
</svg>
