<svg preserveAspectRatio="none" width="100%" height="100%" overflow="visible" style="display: block;" viewBox="0 0 21.5 21.5" fill="none" xmlns="http://www.w3.org/2000/svg">
<g id="Vector">
<path d="M10.75 16.6699C11.16 16.6699 11.4999 17.01 11.5 17.4199V20.75C11.5 21.16 11.16 21.5 10.75 21.5C10.34 21.5 10 21.16 10 20.75V17.4199C10.0001 17.01 10.34 16.6699 10.75 16.6699Z" fill="var(--fill-0, #42B03B)"/>
<path d="M5.79004 14.6504C6.08004 14.3604 6.56059 14.3604 6.85059 14.6504C7.14007 14.9404 7.14019 15.4201 6.85059 15.71L4.20996 18.3496C4.05996 18.4996 3.86969 18.5703 3.67969 18.5703C3.48983 18.5702 3.30028 18.4995 3.15039 18.3496C2.86045 18.0596 2.86041 17.58 3.15039 17.29L5.79004 14.6504Z" fill="var(--fill-0, #42B03B)"/>
<path d="M15.5205 15.5195C15.8104 15.23 16.2902 15.23 16.5801 15.5195L18.3506 17.29C18.6402 17.5799 18.6401 18.0596 18.3506 18.3496C18.2006 18.4996 18.0103 18.5703 17.8203 18.5703C17.6303 18.5703 17.44 18.4996 17.29 18.3496L15.5205 16.5801C15.2305 16.2901 15.2305 15.8095 15.5205 15.5195Z" fill="var(--fill-0, #42B03B)"/>
<path d="M4.50977 10C4.91977 10 5.25977 10.34 5.25977 10.75C5.25977 11.16 4.91977 11.5 4.50977 11.5H0.75C0.34 11.5 0 11.16 0 10.75C0 10.34 0.34 10 0.75 10H4.50977Z" fill="var(--fill-0, #42B03B)"/>
<path d="M20.75 10C21.16 10 21.5 10.34 21.5 10.75C21.5 11.16 21.16 11.5 20.75 11.5H19.0801C18.6701 11.5 18.3301 11.16 18.3301 10.75C18.3301 10.34 18.6701 10 19.0801 10H20.75Z" fill="var(--fill-0, #42B03B)"/>
<path d="M3.16016 3.16016C3.45016 2.87022 3.92975 2.87018 4.21973 3.16016L6.86035 5.7998C7.1502 6.0898 7.15025 6.57039 6.86035 6.86035C6.7104 7.0103 6.52001 7.08003 6.33008 7.08008C6.14013 7.08008 5.94978 7.01026 5.7998 6.86035L3.16016 4.21973C2.87016 3.92973 2.87016 3.45016 3.16016 3.16016Z" fill="var(--fill-0, #42B03B)"/>
<path d="M10.75 0C11.16 0 11.5 0.34 11.5 0.75V4.50977C11.5 4.91977 11.16 5.25977 10.75 5.25977C10.34 5.25977 10 4.91977 10 4.50977V0.75C10 0.34 10.34 0 10.75 0Z" fill="var(--fill-0, #42B03B)"/>
<path d="M17.29 3.15039C17.58 2.86039 18.0596 2.86039 18.3496 3.15039C18.6396 3.4404 18.6396 3.91998 18.3496 4.20996L17.7598 4.7998C17.6098 4.9498 17.4195 5.01953 17.2295 5.01953C17.0396 5.01943 16.8501 4.94966 16.7002 4.7998C16.4102 4.5098 16.4102 4.03023 16.7002 3.74023L17.29 3.15039Z" fill="var(--fill-0, #42B03B)"/>
</g>
</svg>
