<svg preserveAspectRatio="none" width="100%" height="100%" overflow="visible" style="display: block;" viewBox="0 0 11.69 14.4206" fill="none" xmlns="http://www.w3.org/2000/svg">
<path id="Vector" fill-rule="evenodd" clip-rule="evenodd" d="M5.8691 0C6.55446 5.59164e-05 7.16237 0.369585 7.47587 0.960286C9.16183 1.61082 10.3626 3.24852 10.3626 5.16016V7.08659C10.3626 7.39326 10.5092 7.9337 10.6692 8.20703L11.429 9.47331C11.7156 9.95325 11.7687 10.5333 11.5755 11.0599C11.3821 11.5866 10.9622 11.9868 10.4355 12.1602C9.71937 12.401 8.98236 12.5818 8.23499 12.7051C7.90557 13.7009 6.96777 14.4206 5.86194 14.4206C5.20213 14.4205 4.56224 14.154 4.09566 13.6875C3.81889 13.4107 3.61301 13.0725 3.49085 12.7057C2.7419 12.5825 2.00258 12.4013 1.28251 12.1602C0.722513 11.9668 0.295352 11.5732 0.108685 11.0599C-0.0845074 10.5466 -0.0175825 9.97987 0.289024 9.47331L1.0553 8.19987C1.21529 7.93318 1.36259 7.3999 1.36259 7.08659V5.16016C1.36259 3.24235 2.5704 1.6 4.26494 0.953776C4.57963 0.371178 5.18661 0 5.8691 0ZM7.03382 12.8529C6.64432 12.8841 6.25347 12.9004 5.86259 12.9004C5.47142 12.9004 5.07996 12.8842 4.69007 12.8529C4.72517 12.8971 4.76188 12.9403 4.80204 12.9805C5.08198 13.2604 5.4687 13.4205 5.86194 13.4206C6.33613 13.4206 6.75868 13.1978 7.03382 12.8529ZM6.33069 1.69206C6.00983 1.65583 5.69574 1.65582 5.39059 1.69271C3.68536 1.92364 2.36259 3.38731 2.36259 5.16016V7.08659C2.36259 7.57326 2.16199 8.29354 1.91533 8.71354L1.14905 9.98698C1.00242 10.2336 0.962132 10.4936 1.04879 10.7135C1.12879 10.9402 1.32886 11.1137 1.60217 11.207C4.3888 12.1403 7.34224 12.1403 10.1289 11.207C10.3688 11.127 10.5559 10.947 10.6425 10.707C10.7292 10.4671 10.7088 10.207 10.5755 9.98698L9.80921 8.71354C9.55587 8.28021 9.36259 7.56675 9.36259 7.08008V5.16016C9.36259 3.3857 8.0424 1.92094 6.33069 1.69206Z" fill="var(--fill-0, #0F0F0F)"/>
</svg>
