<svg preserveAspectRatio="none" width="100%" height="100%" overflow="visible" style="display: block;" viewBox="0 0 5.34077 5.1241" fill="none" xmlns="http://www.w3.org/2000/svg">
<path id="Vector" d="M5.02827 0C5.19902 9.53108e-05 5.34077 0.135949 5.34077 0.299886V3.74797C5.34073 3.91188 5.199 4.04776 5.02827 4.04785C4.85746 4.04785 4.71581 3.91194 4.71577 3.74797V1.0201L0.532424 5.03621C0.474092 5.0962 0.394802 5.12411 0.311477 5.12411C0.232319 5.1241 0.153022 5.09621 0.0905295 5.03621C-0.0302136 4.92026 -0.0301394 4.72823 0.0905295 4.61222L4.27062 0.599772H1.43656C1.26572 0.599772 1.12406 0.463886 1.12406 0.299886C1.12407 0.135892 1.26573 0 1.43656 0H5.02827Z" fill="var(--fill-0, #0F0F0F)"/>
</svg>
