<svg preserveAspectRatio="none" width="100%" height="100%" overflow="visible" style="display: block;" viewBox="0 0 20.8 16" fill="none" xmlns="http://www.w3.org/2000/svg">
<g id="Vector">
<path d="M3.37934 12.212C3.50485 12.0888 3.67742 12.0169 3.86046 12.0169H20.459C20.7623 12.0169 20.914 12.3762 20.6996 12.5867L17.4207 15.8049C17.2952 15.9281 17.1226 16 16.9395 16H0.340974C0.037661 16 -0.113996 15.6407 0.100415 15.4303L3.37934 12.212Z" fill="url(#paint0_linear_6438_155005)"/>
<path d="M3.37934 0.195048C3.51008 0.0718599 3.68265 0 3.86046 0H20.459C20.7623 0 20.914 0.359299 20.6996 0.569746L17.4207 3.78804C17.2952 3.91123 17.1226 3.98309 16.9395 3.98309H0.340974C0.037661 3.98309 -0.113996 3.62379 0.100415 3.41334L3.37934 0.195048Z" fill="url(#paint1_linear_6438_155005)"/>
<path d="M17.4207 6.16408C17.2952 6.04089 17.1226 5.96903 16.9395 5.96903H0.340974C0.037661 5.96903 -0.113996 6.32833 0.100415 6.53878L3.37934 9.75708C3.50485 9.88026 3.67742 9.95212 3.86046 9.95212H20.459C20.7623 9.95212 20.914 9.59283 20.6996 9.38238L17.4207 6.16408Z" fill="url(#paint2_linear_6438_155005)"/>
</g>
<defs>
<linearGradient id="paint0_linear_6438_155005" x1="18.8734" y1="-55.9908" x2="-24.5183" y2="-34.9107" gradientUnits="userSpaceOnUse">
<stop stop-color="#00FFA3"/>
<stop offset="1" stop-color="#DC1FFF"/>
</linearGradient>
<linearGradient id="paint1_linear_6438_155005" x1="13.8504" y1="-18.0621" x2="-29.5413" y2="3.01793" gradientUnits="userSpaceOnUse">
<stop stop-color="#00FFA3"/>
<stop offset="1" stop-color="#DC1FFF"/>
</linearGradient>
<linearGradient id="paint2_linear_6438_155005" x1="16.3459" y1="-3.21843" x2="5.19172" y2="18.5488" gradientUnits="userSpaceOnUse">
<stop stop-color="#00FFA3"/>
<stop offset="1" stop-color="#DC1FFF"/>
</linearGradient>
</defs>
</svg>
