<svg preserveAspectRatio="none" width="100%" height="100%" overflow="visible" style="display: block;" viewBox="0 0 19.6797 21.5054" fill="none" xmlns="http://www.w3.org/2000/svg">
<g id="Vector">
<path d="M9.12988 14.2955C9.49988 13.9255 10.1798 13.9255 10.5498 14.2955C10.7297 14.4855 10.8398 14.7455 10.8398 15.0054C10.8398 15.1354 10.8097 15.2654 10.7598 15.3853C10.7098 15.5053 10.6398 15.6154 10.5498 15.7154C10.3598 15.9054 10.1098 16.0054 9.83984 16.0054C9.56987 16.0054 9.31988 15.9054 9.12988 15.7154C9.03994 15.6155 8.97013 15.5052 8.91016 15.3853C8.86019 15.2654 8.83987 15.1354 8.83984 15.0054C8.83984 14.7455 8.94995 14.4855 9.12988 14.2955Z" fill="var(--fill-0, #EB991E)"/>
<path d="M9.83984 5.75642C10.2498 5.75642 10.5898 6.09642 10.5898 6.50642V11.7564C10.5896 12.1662 10.2497 12.5064 9.83984 12.5064C9.42997 12.5064 9.09006 12.1662 9.08984 11.7564V6.50642C9.08984 6.09642 9.42984 5.75642 9.83984 5.75642Z" fill="var(--fill-0, #EB991E)"/>
<path fill-rule="evenodd" clip-rule="evenodd" d="M7.88965 0.524975C9.08962 -0.175008 10.5801 -0.174975 11.79 0.524975L17.7305 3.95564C18.9302 4.65571 19.6797 5.94573 19.6797 7.33552V14.1754C19.6796 15.5652 18.9302 16.8553 17.7305 17.5552L11.79 20.9849C11.19 21.3349 10.5098 21.5054 9.83984 21.5054C9.16991 21.5054 8.48959 21.3349 7.88965 20.9849L1.9502 17.5552C0.750263 16.8553 8.45572e-05 15.5653 0 14.1754V7.33552C0 5.94555 0.750236 4.65565 1.9502 3.95564L7.88965 0.524975ZM9.83984 1.50544C9.42991 1.50548 9.00959 1.61481 8.63965 1.82478L2.7002 5.25544C1.9602 5.68544 1.5 6.47552 1.5 7.33552V14.1754C1.50008 15.0253 1.96026 15.8255 2.7002 16.2554L8.63965 19.6851C9.37965 20.1151 10.3003 20.1151 11.0303 19.6851L16.9697 16.2554C17.7097 15.8255 18.1698 15.0353 18.1699 14.1754V7.33552C18.1699 6.48552 17.7097 5.68544 16.9697 5.25544L11.0303 1.82478C10.6703 1.61478 10.2498 1.50544 9.83984 1.50544Z" fill="var(--fill-0, #EB991E)"/>
</g>
</svg>
