<svg preserveAspectRatio="none" width="100%" height="100%" overflow="visible" style="display: block;" viewBox="0 0 21.6 19.8" fill="none" xmlns="http://www.w3.org/2000/svg">
<path id="Vector" fill-rule="evenodd" clip-rule="evenodd" d="M12.9962 10.644V10.6418C12.8732 10.6507 12.2392 10.6885 10.8246 10.6885C9.69518 10.6885 8.9001 10.6551 8.62054 10.6418V10.6451C4.27281 10.4548 1.02767 9.70134 1.02767 8.79988C1.02767 7.89952 4.27281 7.14607 8.62054 6.95243V9.89499C8.90458 9.91502 9.71866 9.96288 10.8436 9.96288C12.1933 9.96288 12.8699 9.90723 12.9962 9.8961V6.95465C17.335 7.14719 20.5723 7.90063 20.5723 8.79988C20.5723 9.70134 17.335 10.4526 12.9962 10.644ZM12.9962 6.6486V4.01542H19.0504V0H2.56637V4.01542H8.62054V6.64748C3.70027 6.87229 0 7.84276 0 9.00465C0 10.1665 3.70027 11.1359 8.62054 11.3618V19.8H12.9962V11.3596C17.9087 11.1348 21.6 10.1654 21.6 9.00465C21.6 7.84388 17.9087 6.87452 12.9962 6.6486Z" fill="var(--fill-0, white)"/>
</svg>
