<svg preserveAspectRatio="none" width="100%" height="100%" overflow="visible" style="display: block;" viewBox="0 0 9 2" fill="none" xmlns="http://www.w3.org/2000/svg">
<g id="Vector">
<path d="M1 0C1.55228 0 2 0.447715 2 1C2 1.55228 1.55228 2 1 2C0.447715 2 0 1.55228 0 1C0 0.447715 0.447715 0 1 0Z" fill="var(--fill-0, #0F0F0F)"/>
<path d="M4.5 0C5.05228 0 5.5 0.447715 5.5 1C5.5 1.55228 5.05228 2 4.5 2C3.94772 2 3.5 1.55228 3.5 1C3.5 0.447715 3.94772 0 4.5 0Z" fill="var(--fill-0, #0F0F0F)"/>
<path d="M8 0C8.55228 0 9 0.447715 9 1C9 1.55228 8.55228 2 8 2C7.44772 2 7 1.55228 7 1C7 0.447715 7.44772 0 8 0Z" fill="var(--fill-0, #0F0F0F)"/>
</g>
</svg>
