<svg preserveAspectRatio="none" width="100%" height="100%" overflow="visible" style="display: block;" viewBox="0 0 14.3333 14.3333" fill="none" xmlns="http://www.w3.org/2000/svg">
<g id="Vector">
<path d="M7.16667 11.1133C7.43998 11.1133 7.66663 11.34 7.66667 11.6133V13.8333C7.66667 14.1067 7.44 14.3333 7.16667 14.3333C6.89333 14.3333 6.66667 14.1067 6.66667 13.8333V11.6133C6.6667 11.34 6.89335 11.1133 7.16667 11.1133Z" fill="var(--fill-0, #FF0055)"/>
<path d="M3.86003 9.76693C4.05336 9.57359 4.37372 9.57359 4.56706 9.76693C4.76005 9.96023 4.76013 10.2801 4.56706 10.4733L2.80664 12.2331C2.70664 12.3331 2.57979 12.3802 2.45312 12.3802C2.32655 12.3801 2.20018 12.333 2.10026 12.2331C1.90696 12.0397 1.90694 11.72 2.10026 11.5267L3.86003 9.76693Z" fill="var(--fill-0, #FF0055)"/>
<path d="M10.347 10.3464C10.5403 10.1533 10.8601 10.1533 11.0534 10.3464L12.2337 11.5267C12.4268 11.72 12.4268 12.0398 12.2337 12.2331C12.1337 12.3331 12.0068 12.3802 11.8802 12.3802C11.7535 12.3802 11.6267 12.3331 11.5267 12.2331L10.347 11.0534C10.1537 10.8601 10.1537 10.5397 10.347 10.3464Z" fill="var(--fill-0, #FF0055)"/>
<path d="M3.00651 6.66667C3.27984 6.66667 3.50651 6.89333 3.50651 7.16667C3.50651 7.44 3.27984 7.66667 3.00651 7.66667H0.5C0.226667 7.66667 0 7.44 0 7.16667C0 6.89333 0.226667 6.66667 0.5 6.66667H3.00651Z" fill="var(--fill-0, #FF0055)"/>
<path d="M13.8333 6.66667C14.1067 6.66667 14.3333 6.89333 14.3333 7.16667C14.3333 7.44 14.1067 7.66667 13.8333 7.66667H12.7201C12.4467 7.66666 12.2201 7.44 12.2201 7.16667C12.2201 6.89334 12.4467 6.66667 12.7201 6.66667H13.8333Z" fill="var(--fill-0, #FF0055)"/>
<path d="M2.10677 2.10677C2.30011 1.91348 2.61983 1.91345 2.81315 2.10677L4.57357 3.86654C4.7668 4.05986 4.76683 4.38026 4.57357 4.57357C4.4736 4.67353 4.34668 4.72002 4.22005 4.72005C4.09342 4.72005 3.96652 4.67351 3.86654 4.57357L2.10677 2.81315C1.91344 2.61982 1.91344 2.3001 2.10677 2.10677Z" fill="var(--fill-0, #FF0055)"/>
<path d="M7.16667 0C7.44 0 7.66667 0.226667 7.66667 0.5V3.00651C7.66667 3.27984 7.44 3.50651 7.16667 3.50651C6.89333 3.50651 6.66667 3.27984 6.66667 3.00651V0.5C6.66667 0.226667 6.89333 0 7.16667 0Z" fill="var(--fill-0, #FF0055)"/>
<path d="M11.5267 2.10026C11.72 1.90693 12.0397 1.90693 12.2331 2.10026C12.4264 2.2936 12.4264 2.61332 12.2331 2.80664L11.8398 3.19987C11.7398 3.29987 11.613 3.34635 11.4863 3.34635C11.3598 3.34629 11.2334 3.29977 11.1335 3.19987C10.9401 3.00654 10.9401 2.68682 11.1335 2.49349L11.5267 2.10026Z" fill="var(--fill-0, #FF0055)"/>
</g>
</svg>
