<svg preserveAspectRatio="none" width="100%" height="100%" overflow="visible" style="display: block;" viewBox="0 0 18 7.2" fill="none" xmlns="http://www.w3.org/2000/svg">
<path id="Vector" d="M0 5.00789H1.24699C1.29605 5.66144 1.68849 6.10868 2.30239 6.10868H2.76876C3.21062 6.10868 3.72072 5.8025 3.72072 5.16863C3.72072 3.66543 0.0984657 4.59564 0.0984657 1.98107C0.0984657 0.794249 1.05539 0 2.1698 0H2.66532C3.7847 0 4.68795 0.693647 4.80064 2.02116H3.56858C3.49037 1.40771 3.16618 1.09095 2.63618 1.09095H2.18473C1.75745 1.09095 1.35008 1.39276 1.35008 1.90051C1.35008 3.39898 4.97233 2.37327 4.97233 5.10849C4.97233 6.40575 4.00083 7.2 2.73428 7.2H2.24373C0.996742 7.2 0.0636294 6.3252 0 5.00789ZM5.36264 7.11944V0.0710778H6.51614V3.90126L8.3031 2.05105H9.76053L7.9103 3.94646L9.92263 7.11944H8.5729L7.08063 4.84678L6.5165 5.41977V7.11944H5.36264ZM11.2315 4.29055V7.12127H10.0783V2.05324H11.2318V2.75199C11.4131 2.31458 11.7668 2.05287 12.2282 2.05287H12.8613V3.04359H12.1397C11.5656 3.04359 11.2318 3.70224 11.2318 4.29018L11.2315 4.29055ZM13.2719 2.05324H14.4254V7.12127H13.2719V2.05324ZM15.0883 0.0710778H16.2365V7.11944H15.0883V0.0710778ZM16.8515 0.0710778H18V7.11944H16.8518L16.8515 0.0710778ZM14.4744 0.0710778H13.2274V1.31804H14.4744V0.0710778Z" fill="var(--fill-0, white)"/>
</svg>
