<svg preserveAspectRatio="none" width="100%" height="100%" overflow="visible" style="display: block;" viewBox="0 0 19.5 19.5" fill="none" xmlns="http://www.w3.org/2000/svg">
<path id="Vector" d="M9.75 0C10.1642 0 10.5 0.335786 10.5 0.75V9H18.75C19.1642 9 19.5 9.33579 19.5 9.75C19.5 10.1642 19.1642 10.5 18.75 10.5H10.5V18.75C10.5 19.1642 10.1642 19.5 9.75 19.5C9.33579 19.5 9 19.1642 9 18.75V10.5H0.75C0.335787 10.5 4.24837e-07 10.1642 0 9.75C1.81058e-08 9.33579 0.335787 9 0.75 9H9V0.75C9 0.335786 9.33579 0 9.75 0Z" fill="var(--fill-0, #0F0F0F)"/>
</svg>
