<svg preserveAspectRatio="none" width="100%" height="100%" overflow="visible" style="display: block;" viewBox="0 0 13.3333 11.3333" fill="none" xmlns="http://www.w3.org/2000/svg">
<path id="Vector" d="M10 0H3.33333C1.33333 0 0 1 0 3.33333V8C0 10.3333 1.33333 11.3333 3.33333 11.3333H10C12 11.3333 13.3333 10.3333 13.3333 8V3.33333C13.3333 1 12 0 10 0ZM2.83333 7.33333C2.83333 7.60667 2.60667 7.83333 2.33333 7.83333C2.06 7.83333 1.83333 7.60667 1.83333 7.33333V4C1.83333 3.72667 2.06 3.5 2.33333 3.5C2.60667 3.5 2.83333 3.72667 2.83333 4V7.33333ZM6.66667 7.66667C5.56 7.66667 4.66667 6.77333 4.66667 5.66667C4.66667 4.56 5.56 3.66667 6.66667 3.66667C7.77333 3.66667 8.66667 4.56 8.66667 5.66667C8.66667 6.77333 7.77333 7.66667 6.66667 7.66667ZM11.5 7.33333C11.5 7.60667 11.2733 7.83333 11 7.83333C10.7267 7.83333 10.5 7.60667 10.5 7.33333V4C10.5 3.72667 10.7267 3.5 11 3.5C11.2733 3.5 11.5 3.72667 11.5 4V7.33333Z" fill="var(--fill-0, #A3A3A3)"/>
</svg>
