<svg preserveAspectRatio="none" width="100%" height="100%" overflow="visible" style="display: block;" viewBox="0 0 88 40" fill="none" xmlns="http://www.w3.org/2000/svg">
<path id="Vector" opacity="0.3" d="M0.55 0.546798L0 0.182266V40H88V15.8571L87.8167 18.2266L87.2667 17.8621L86.9 16.9507L86.5333 17.133L85.9833 15.8571V8.5665L85.4333 15.3103L85.25 14.9458L85.0667 18.2266L84.5167 17.8621L84.15 16.9507L83.7833 22.7833L83.4167 24.0591L82.8667 23.6946L82.5 24.9704L82.3167 24.6059L81.7667 25.335L81.5833 28.9803L80.85 29.1626L80.4833 31.532L80.1167 31.1675L79.75 35.5419L79.2 31.7143H78.8333L78.65 30.803H78.2833L77.9167 33.1724H77.7333L77.3667 36.2709L77 36.4532L76.45 36.0887L76.0833 37L75.5333 35.1773L74.8 35.5419L74.6167 29.1626L74.25 29.5271L74.0667 28.9803L73.7 29.1626L73.3333 26.9754L72.7833 27.3399H71.8667L71.3167 27.5222L70.95 12.9409L70.5833 12.7586L70.2167 8.20197L69.6667 8.5665L69.3 8.20197L68.9333 8.5665L68.75 12.7586L68.0167 12.5764L67.4667 14.9458H66.9167L66.3667 14.399L65.0833 14.7635L64.5333 14.5813L63.9833 15.1281L63.6167 14.7635H63.0667L62.15 14.5813L61.4167 15.1281L60.6833 14.7635V14.399L59.5833 14.5813L59.2167 14.7635L58.6667 14.5813L58.3 14.9458L57.3833 14.7635L56.65 14.399L56.2833 14.7635L55.55 14.5813L54.45 14.7635L54.0833 14.399L53.5333 14.7635L53.1667 15.4926L52.8 14.7635H52.0667L51.15 14.9458L50.4167 14.5813L49.6833 14.7635L49.3167 14.5813L48.4 14.9458L48.0333 14.7635L47.6667 15.3103L47.4833 14.5813L46.9333 14.7635L46.5667 14.5813L45.65 14.9458H44.9167L44.1833 14.5813L43.6333 14.9458L42.5333 14.5813L41.9833 15.3103L41.8 15.1281H41.4333L41.0667 14.9458L40.15 14.5813L39.4167 14.9458L38.6833 14.399L38.3167 14.5813H37.5833L37.4 15.3103L37.0333 14.9458L36.85 15.3103L36.4833 14.5813L36.1167 15.1281L35.75 14.5813L35.3833 15.4926L35.2 14.7635L34.8333 14.9458H33.9167L33.7333 14.399L32.2667 14.7635L31.35 14.399L30.9833 14.9458L30.6167 14.399H29.8833L28.7833 14.7635H27.8667L27.6833 14.5813H26.5833L26.4 15.1281L26.0333 14.7635L25.6667 14.9458L25.1167 14.5813L24.75 14.7635H23.8333L22.7333 14.5813L22.3667 14.7635H21.8167L20.7167 14.399H19.9833L19.25 14.2167L18.7 14.5813H17.6L17.2333 15.1281L16.8667 14.5813H16.6833L15.95 15.1281L15.4 14.2167H15.2167L14.6667 14.399L14.4833 14.0345L14.1167 14.7635L13.75 14.2167H13.2L12.4667 14.5813L11.9167 14.2167L11.1833 14.399H10.8167L10.2667 13.8522L9.71667 14.399L9.16667 14.5813L8.98333 14.0345H8.61667L8.43333 11.4828L8.06667 11.3005L7.7 7.83744L7.15 8.20197L6.78333 8.0197L6.23333 8.74877L6.05 8.38424H5.68333L4.95 1.82266L4.4 2.55172L4.03333 0L3.66667 0.364532H2.56667L2.01667 0.546798H1.46667L0.916667 0.729064L0.55 0.546798Z" fill="url(#paint0_linear_6392_143803)"/>
<defs>
<linearGradient id="paint0_linear_6392_143803" x1="44" y1="0" x2="44" y2="37.5" gradientUnits="userSpaceOnUse">
<stop stop-color="#FF3B30"/>
<stop offset="1" stop-color="#FF3B30" stop-opacity="0"/>
</linearGradient>
</defs>
</svg>
