<svg preserveAspectRatio="none" width="100%" height="100%" overflow="visible" style="display: block;" viewBox="0 0 33 28" fill="none" xmlns="http://www.w3.org/2000/svg">
<g id="Frame">
<path id="Vector" d="M16.5 22.6152C16.6328 22.6152 16.8486 22.5654 17.0562 22.4492C21.7793 19.8013 23.3979 18.6807 23.3979 15.6509V9.30078C23.3979 8.4292 23.0244 8.15527 22.3188 7.85645C21.3394 7.44971 18.1768 6.3125 17.1973 5.97217C16.9731 5.89746 16.7324 5.84766 16.5 5.84766C16.2676 5.84766 16.0269 5.91406 15.811 5.97217C14.8315 6.25439 11.6606 7.45801 10.6812 7.85645C9.98389 8.14697 9.60205 8.4292 9.60205 9.30078V15.6509C9.60205 18.6807 11.229 19.793 15.9438 22.4492C16.1597 22.5654 16.3672 22.6152 16.5 22.6152ZM16.832 7.25879C18.0854 7.75684 20.5176 8.63672 21.8042 9.07666C22.0283 9.15967 22.0781 9.27588 22.0781 9.55811V15.3438C22.0781 17.9087 20.8496 18.5811 17.0146 20.9136C16.7739 21.063 16.6411 21.1045 16.5083 21.1128V7.18408C16.5913 7.18408 16.6992 7.20898 16.832 7.25879Z" fill="var(--fill-0, #737373)"/>
</g>
</svg>
