<svg preserveAspectRatio="none" width="100%" height="100%" overflow="visible" style="display: block;" viewBox="0 0 9.33984 10.75" fill="none" xmlns="http://www.w3.org/2000/svg">
<g id="Vector">
<path d="M4.66992 6.5C7.24492 6.5 9.33984 8.24 9.33984 10.375C9.33984 10.58 9.16984 10.75 8.96484 10.75C8.7599 10.7499 8.58984 10.58 8.58984 10.375C8.58984 8.65 6.82992 7.25 4.66992 7.25C2.50994 7.25004 0.75 8.65003 0.75 10.375C0.75 10.58 0.58 10.75 0.375 10.75C0.17 10.75 0 10.58 0 10.375C0 8.24003 2.09494 6.50004 4.66992 6.5Z" fill="var(--fill-0, #0F0F0F)"/>
<path fill-rule="evenodd" clip-rule="evenodd" d="M4.66992 0C6.25492 0 7.54492 1.29 7.54492 2.875C7.54492 4.46 6.25492 5.75 4.66992 5.75C3.08492 5.75 1.79492 4.46 1.79492 2.875C1.79492 1.29 3.08492 0 4.66992 0ZM4.66992 0.75C3.49992 0.75 2.54492 1.705 2.54492 2.875C2.54492 4.045 3.49992 5 4.66992 5C5.83992 5 6.79492 4.045 6.79492 2.875C6.79492 1.705 5.83992 0.75 4.66992 0.75Z" fill="var(--fill-0, #0F0F0F)"/>
</g>
</svg>
