<svg width="73" height="23" viewBox="0 0 73 23" fill="none" xmlns="http://www.w3.org/2000/svg">
<path d="M47.5627 0C42.3862 0 37.7385 2.62471 37.7385 7.44118C37.7385 12.9882 45.9485 13.3671 45.9485 16.1271C45.9485 17.2906 44.557 18.3459 42.2192 18.3459C38.8795 18.3459 36.3748 16.8847 36.3748 16.8847L35.3172 21.7553C35.3172 21.7553 38.1838 23 42.0244 23C47.7019 23 52.1548 20.2671 52.1548 15.3424C52.1548 9.49765 43.9169 9.11882 43.9169 6.54824C43.9169 5.62824 45.058 4.62706 47.3957 4.62706C50.0397 4.62706 52.2104 5.68235 52.2104 5.68235L53.268 0.974118C53.2402 0.974118 50.8746 0 47.5627 0ZM0.139154 0.351765L0 1.05529C0 1.05529 2.1708 1.43412 4.14678 2.21882C6.67937 3.11176 6.84636 3.62588 7.29165 5.22235L11.9394 22.6212H18.1735L27.7194 0.351765H21.5132L15.3626 15.5047L12.8578 2.65176C12.6352 1.19059 11.4663 0.351765 10.0191 0.351765H0.139154ZM30.2242 0.351765L25.3538 22.6212H31.2817L36.1243 0.351765H30.2242ZM63.2314 0.351765C61.812 0.351765 61.0606 1.08235 60.504 2.38118L51.8208 22.6212H58.0271L59.2238 19.2388H66.7937L67.5173 22.6212H73L68.2409 0.351765H63.2314ZM64.0385 6.38588L65.8753 14.7471H60.9493L64.0385 6.38588Z" fill="#A3A3A3"/>
</svg>
